<?xml version="1.0" encoding="utf-8"?>
<!-- Generator: Adobe Illustrator 26.0.3, SVG Export Plug-In . SVG Version: 6.00 Build 0)  -->
<svg version="1.0" id="katman_1" xmlns="http://www.w3.org/2000/svg" xmlns:xlink="http://www.w3.org/1999/xlink" x="0px" y="0px"
	 viewBox="0 0 194 123" style="enable-background:new 0 0 194 123;" xml:space="preserve">
<style type="text/css">
	.st0{fill:#3E94E5;}
	.st1{fill:#3C93E4;}
</style>
<path class="st0" d="M111.4,67.3c-4.6,2.8-8.8,2.3-11.6-1.1c-2.6-3.3-2.3-8.1,0.7-11.2c2.3-2.5,7.9-3.3,10.8-0.4
	c0.4-2.1,2-1.1,3.1-1.1c1.4-0.1,0.8,1.2,0.8,1.8c0.1,3.7-0.1,7.4,0.1,11.1c0.3,7-4.3,10.8-12,9.4c-0.9-0.2-1.8-0.5-2.6-0.9
	c-2-0.9-2-0.9-0.9-2.9c0.5-0.9,0.8-1,1.7-0.5c1.7,1,3.5,1.4,5.4,1.2C109.8,72.3,111.3,70.5,111.4,67.3z M111.5,61
	c0-2.6-2.1-4.8-4.8-4.8c-2.5,0-4.7,2.2-4.7,4.7c0,2.6,2.1,4.8,4.8,4.8C109.4,65.7,111.4,63.6,111.5,61z"/>
<path class="st0" d="M156.3,54.6c0.5-0.4,0-1.5,0.6-1.4c1.1,0.3,1.9-0.5,2.9-0.2c0.5,0.2,0.5,0.6,0.5,1c0,4.8,0,9.5,0,14.2
	c0,0.6-0.2,1.1-0.9,1c-1.1-0.2-3,1-3-1.5c-4.4,2.8-8.4,2.5-11.1-0.7c-2.7-3.2-2.9-8.4-0.2-11.5C147.9,52.2,151.8,51.9,156.3,54.6z
	 M152,66.1c2.6,0,4.8-2.2,4.8-4.8c0-2.9-2.2-5.1-5-5.1c-2.5,0-4.7,2.2-4.7,4.8C147.1,63.9,149.1,66.1,152,66.1z"/>
<path class="st1" d="M83.7,54.8c1.7-2.1,3.9-2.1,6.1-2.1c2.6,0.1,5,2.7,5.1,5.6c0.1,3,0,6.1,0,9.1c0,1.5-0.5,1.8-1.9,1.8
	c-1.7,0-2.3-0.3-2.1-2.1c0.2-2.3,0.1-4.6,0-6.9c0-2.6-1.4-4.1-3.6-4.2c-2.2,0-3.8,1.7-3.8,4.1c0,2.5-0.1,5,0,7.6
	c0.1,1.7-1.1,1.3-2,1.3c-0.9,0-2,0.5-2-1.3c0.1-4.6,0-9.2,0-13.7c0-0.9,0.3-1.4,1.2-1.2C82,53.3,83.9,52,83.7,54.8z"/>
<path class="st1" d="M118.4,58.8c0-1.5,0-2.9,0-4.4c0-1,0.2-1.6,1.3-1.4c0.4,0,0.7,0,1.1,0c1.2-0.2,1.7,0.2,1.6,1.5
	c-0.1,2.6-0.1,5.1,0,7.7c0,2.1,1.1,3.5,2.8,3.8c2,0.4,3.8-1.1,3.9-3.2c0-2.7,0-5.5,0-8.2c0-1,0.1-1.2,1.2-1.2
	c2.8,0.1,2.8,0.1,2.8,2.9c0,2.3,0,4.6-0.1,6.8c-0.2,4-3,6.4-7.3,6.4c-4.2,0-7.1-2.6-7.2-6.5C118.4,61.6,118.4,60.2,118.4,58.8
	C118.4,58.8,118.4,58.8,118.4,58.8z"/>
<path class="st1" d="M63.4,69.6c-2.7,0.1-4.5-0.7-6.1-2.1c-0.7-0.6-1-1.2-0.1-1.8c0.7-0.5,1-2,2.3-0.7c1.1,1.1,2.4,1.6,4,1.4
	c0.8-0.1,1.6-0.5,1.9-1.4c0.2-1-0.5-1.5-1.3-1.8c-1.4-0.7-2.9-1.3-4.3-2c-1.9-1-2.7-2.9-2.1-5c0.5-1.8,2.3-3,4.2-3.3
	c2.2-0.4,4.2-0.1,6.1,1.2c0.5,0.4,1.4,0.8,0.5,1.5c-0.7,0.6-0.8,2.5-2.4,1.1c-0.9-0.7-2-1-3.1-0.9c-0.8,0-1.3,0.5-1.5,1.2
	c-0.2,0.7,0.3,1.2,0.9,1.5c1.2,0.6,2.5,1.1,3.7,1.6c2.8,1.3,3.7,2.7,3.4,5.2c-0.3,2.1-2.2,3.8-4.8,4.2
	C63.9,69.6,63.4,69.6,63.4,69.6z"/>
<path class="st0" d="M136.1,57.8c0-3.3,0-6.7,0-10c0-1,0.2-1.3,1.2-1.2c0.5,0.1,1.1,0.1,1.6,0c0.9-0.1,1.1,0.4,1.1,1.1
	c0,6.8,0,13.6,0,20.3c0,0.9-0.4,1.1-1.2,1.1c-2.7,0.1-2.7,0.1-2.7-2.5C136.1,63.7,136.1,60.8,136.1,57.8z"/>
<path class="st1" d="M167.1,55.4c1.5-2.1,3-2.7,4.8-2.7c1.2,0,1.9,0.1,1.7,1.7c-0.2,1.3-0.1,2.5-2.2,2.1c-1.9-0.4-3.7,1.4-3.8,3.5
	c-0.2,2.5-0.2,5-0.1,7.5c0.1,1.9-0.9,1.7-2.1,1.8c-1.4,0.1-1.9-0.2-1.9-1.8c0.1-4.1,0-8.2,0.1-12.3c0-0.7-0.7-2.2,1-2
	C165.6,53.2,167.6,52,167.1,55.4z"/>
<path class="st0" d="M76.3,53.7c0,4.8,0,9.5,0.1,14.2c0,0.8-0.2,1.2-1.2,1.3c-2.8,0.1-2.8,0.1-2.8-2.6c0-3.9,0.1-7.9,0-11.8
	c0-1.3,0.3-1.7,1.6-1.5c0.6,0.1,1.3,0,1.9,0.1C76,53.5,76.2,53.6,76.3,53.7z"/>
<path class="st0" d="M43,61.5c-0.4-7.1-3.6-11.9-9.7-15.1c1.5-0.7,3-0.4,4.3-0.1c7,1.7,7.8,3.3,7.1,10.6
	C44.7,58.4,44.1,59.9,43,61.5z"/>
<path class="st0" d="M48.3,67.2c-1.5,3.6-4,6-7.5,7.5c-0.2,0.1-0.6,0.2-0.8,0.1c-3.9-0.9-7.2-2.9-9.4-6.5
	C36.8,71.1,42.6,70.7,48.3,67.2z"/>
<path class="st0" d="M38.8,68.3c5.7-3.8,8.4-9,8-15.8c2.4,3.1,3.3,6.6,2.8,10.4c0,0.3-0.3,0.6-0.5,0.9
	C46.3,66.7,42.9,68.3,38.8,68.3z"/>
<path class="st0" d="M38.9,53.9c-6-2.9-11.7-2.5-17.4,1.2c0.2-1.7,1.2-2.9,2.1-3.8c4.9-5,7-5.3,12.9-0.7
	C37.5,51.5,38.4,52.5,38.9,53.9z"/>
<path class="st0" d="M31.3,53.8c-6.2,3.6-8.6,8.8-8.2,15.7c-1.5-1.2-1.9-2.5-2.3-3.8c-1.7-6.3-1.2-8.1,5.1-10.9
	C27.4,54,29.1,53.6,31.3,53.8z"/>
<path class="st0" d="M37.1,75.8c-3.7,0.4-6.5-0.2-9.3-1.6c-1.6-0.8-2.5-1.9-2.7-3.7c-0.4-3.3-0.3-6.4,1.8-9.8
	C26.8,68,30.4,72.7,37.1,75.8z"/>
<path class="st0" d="M74.4,51.2c-1.3,0-2.4-1.1-2.4-2.5c0-1.4,1-2.4,2.4-2.4c1.5,0,2.6,1.1,2.5,2.5C76.9,50.1,75.7,51.2,74.4,51.2z"
	/>
<path class="st1" d="M76.3,53.7c-0.1-0.1-0.2-0.2-0.4-0.3C76.2,53.4,76.3,53.5,76.3,53.7z"/>
</svg>
