<svg width="61" height="61" viewBox="0 0 61 61" fill="none" xmlns="http://www.w3.org/2000/svg">
<path fill-rule="evenodd" clip-rule="evenodd" d="M30.4747 12.1464C27.6711 12.1464 23.8691 11.811 21.4262 10.3919C19.6433 9.35711 19.1787 8.1097 19.0606 7.4608C18.996 7.10327 19.0385 6.73787 19.1834 6.40554C19.9363 4.67934 22.1255 3.56896 25.6929 3.09961C27.3813 2.87753 29.4525 2.81768 30.5329 2.8791C31.4512 2.82083 33.5932 2.86493 35.3729 3.09961C38.9403 3.56738 41.1296 4.67934 41.8824 6.40554C42.0273 6.73945 42.0699 7.10485 42.0053 7.4608C41.8872 8.11128 41.4225 9.35711 39.6396 10.3919C37.1606 11.833 33.3317 12.1464 30.4747 12.1464ZM30.5881 10.2423C35.2044 10.2108 37.5386 9.41223 38.6836 8.746C39.8129 8.08923 40.0696 7.423 40.1279 7.14422C39.1403 4.97859 33.0262 4.67146 30.6353 4.78171C30.4069 4.79274 28.3263 4.67304 25.9166 4.99119C23.1729 5.35501 21.4073 6.11732 20.938 7.14422C20.9963 7.423 21.2514 8.08923 22.3823 8.746C25.1716 10.3667 30.4463 10.2249 30.5881 10.2423Z" fill="black"/>
<path fill-rule="evenodd" clip-rule="evenodd" d="M29.9027 58.2895C24.1854 57.6012 19.306 55.3269 15.4032 51.528C9.41027 45.6957 6.40516 36.9182 5.34675 28.588C4.97033 25.6254 4.96875 23.685 4.96875 23.6031C4.96875 23.1574 5.27903 22.7747 5.71215 22.677C19.347 19.6105 19.5974 11.0598 19.0745 7.52546C18.9973 7.00413 19.3564 6.52218 19.8762 6.44501C20.3959 6.36783 20.8795 6.72693 20.9566 7.24826C21.2181 9.00754 21.3756 12.4789 19.4887 15.9549C16.9687 20.6027 12.0295 23.0818 6.89183 24.3576C7.07296 28.9062 8.06521 34.3982 9.82449 39.1059C13.6833 49.4285 20.5141 55.2482 30.1279 56.4042C30.3925 56.4357 30.654 56.4389 30.9343 56.4042C40.5639 55.245 47.401 49.408 51.255 39.0571C53.6349 32.6673 54.0838 26.457 54.1688 24.3576C49.0327 23.0834 44.0935 20.6043 41.5719 15.9549C39.6866 12.4789 39.8425 9.00754 40.104 7.24826C40.1812 6.72693 40.6663 6.36941 41.1844 6.44501C41.7058 6.52218 42.0633 7.00728 41.9877 7.52546C41.4617 11.0598 41.7137 19.6089 55.3501 22.677C55.7848 22.7747 56.0935 23.1606 56.0935 23.6031C56.0935 23.685 56.0919 25.6254 55.7155 28.588C55.369 31.3159 54.624 35.4629 53.0395 39.717C49.1823 50.0727 42.0035 56.9838 31.1611 58.2895C30.7406 58.3399 30.3264 58.3399 29.9027 58.2895Z" fill="black"/>
<path fill-rule="evenodd" clip-rule="evenodd" d="M47.5291 21.6423C47.003 21.6423 46.5762 21.2154 46.5762 20.691C46.5762 19.9712 47.3432 19.5176 47.9716 19.8483C48.2756 20.0074 48.4819 20.3256 48.4819 20.691C48.4804 21.2154 48.0535 21.6423 47.5291 21.6423Z" fill="black"/>
<path fill-rule="evenodd" clip-rule="evenodd" d="M46.6295 26.1168C44.8577 25.9372 43.563 24.3512 43.741 22.5793C43.9441 20.5743 45.9019 19.2624 47.8139 19.7916C48.0943 19.8687 48.3101 20.064 48.425 20.3097C48.6944 20.2814 48.9731 20.3664 49.1826 20.568C49.9103 21.261 50.2678 22.2313 50.167 23.2298C49.9874 25.0033 48.3967 26.2948 46.6295 26.1168ZM46.1177 21.8785C45.212 22.6187 45.6436 24.1039 46.8233 24.2236C47.5493 24.2977 48.1998 23.7653 48.2738 23.0392C48.3148 22.6297 48.1683 22.2328 47.8691 21.9478C47.7793 21.8627 47.71 21.7651 47.6612 21.6595C47.406 21.6863 47.3147 21.6123 47.0879 21.5886C47.0422 21.5808 46.3901 21.6564 46.1177 21.8785Z" fill="black"/>
<path fill-rule="evenodd" clip-rule="evenodd" d="M44.501 29.9739C42.2393 29.9739 40.7053 27.7201 41.4739 25.6317C42.0881 23.9606 43.9466 23.1022 45.6177 23.7149C47.2888 24.3291 48.1472 26.1876 47.5345 27.8587C47.0541 29.1628 45.8162 29.9739 44.501 29.9739ZM43.2599 26.2869C43.0064 26.9751 43.3592 27.7343 44.0474 27.9879C44.7341 28.2399 45.4949 27.8871 45.7484 27.2004C46.0005 26.5137 45.6476 25.7529 44.9625 25.4994C44.2742 25.2489 43.5119 25.6049 43.2599 26.2869Z" fill="black"/>
<path fill-rule="evenodd" clip-rule="evenodd" d="M39.3418 32.5114C37.8723 31.4986 37.5037 29.4889 38.518 28.021C39.5308 26.5531 41.5405 26.183 43.01 27.1973C44.4747 28.2085 44.8448 30.2229 43.8337 31.6892C42.8194 33.1571 40.8113 33.5273 39.3418 32.5114ZM39.8726 30.0937C40.0868 31.2592 41.6035 31.568 42.2666 30.6072C42.6824 30.0055 42.5296 29.1802 41.9279 28.7644C40.9656 28.0998 39.6599 28.9298 39.8726 30.0937Z" fill="black"/>
<path fill-rule="evenodd" clip-rule="evenodd" d="M36.9496 35.2596C35.1698 35.1352 33.8295 33.5933 33.9555 31.8119C34.0153 30.952 34.4075 30.1661 35.058 29.6006C36.4015 28.4335 38.4458 28.5769 39.6129 29.9204C40.7831 31.267 40.6398 33.305 39.2932 34.4753C38.6427 35.0407 37.8127 35.3195 36.9496 35.2596ZM36.3085 31.037C35.7557 31.5174 35.6959 32.3522 36.1778 32.9066C36.6582 33.4594 37.4929 33.5192 38.0473 33.0373C38.6002 32.5569 38.66 31.7222 38.1781 31.1678C37.915 30.8669 36.8598 30.5582 36.3085 31.037Z" fill="black"/>
<path fill-rule="evenodd" clip-rule="evenodd" d="M32.7658 36.386C30.5576 36.386 28.9999 34.2283 29.6977 32.1366C30.2631 30.4435 32.0901 29.53 33.7817 30.0939C34.5991 30.3663 35.2622 30.9412 35.6496 31.713C36.7301 33.8739 35.1377 36.386 32.7658 36.386ZM31.5042 32.7383C31.1325 33.8534 32.3043 34.8677 33.3533 34.3416C34.0069 34.014 34.2715 33.2187 33.9455 32.565C33.4226 31.5192 31.8791 31.6153 31.5042 32.7383Z" fill="black"/>
<path fill-rule="evenodd" clip-rule="evenodd" d="M25.0493 33.8201C24.6744 32.0797 25.7864 30.3582 27.5252 29.9833C29.2656 29.6085 30.987 30.7205 31.3619 32.4593C31.7383 34.2044 30.6295 35.9195 28.886 36.296C27.1409 36.674 25.4257 35.5652 25.0493 33.8201ZM27.9268 31.8466C27.2118 32.0009 26.7581 32.705 26.9109 33.42C27.1582 34.5666 28.6781 34.8501 29.3175 33.8594C29.6451 33.3539 29.5002 32.864 29.5002 32.8625C29.3664 32.2403 28.6419 31.6922 27.9268 31.8466Z" fill="black"/>
<path fill-rule="evenodd" clip-rule="evenodd" d="M23.669 35.2186C21.8861 35.1477 20.5001 33.6483 20.571 31.8638C20.6418 30.0809 22.1412 28.6949 23.9257 28.7658C25.7086 28.8367 27.0946 30.3361 27.0238 32.1205C26.9529 33.9113 25.4409 35.2895 23.669 35.2186ZM22.472 31.9394C22.4263 33.1112 23.8296 33.7633 24.6943 32.9648C25.5574 32.1662 25.0267 30.7141 23.8485 30.6668C23.8312 30.6668 22.5019 31.2102 22.472 31.9394Z" fill="black"/>
<path fill-rule="evenodd" clip-rule="evenodd" d="M18.8871 32.8738C17.1813 32.3619 16.2096 30.5585 16.7199 28.8543C17.2317 27.1486 19.0351 26.1768 20.7393 26.6871C22.445 27.199 23.4168 29.0024 22.9065 30.7066C22.3946 32.4123 20.5928 33.3856 18.8871 32.8738ZM18.5453 29.4009C18.3358 30.1018 18.7343 30.8404 19.4336 31.0499C20.1345 31.2594 20.8731 30.8609 21.0826 30.1616C21.2921 29.4607 20.8936 28.722 20.1943 28.5126C19.4934 28.3031 18.7548 28.7016 18.5453 29.4009Z" fill="black"/>
<path fill-rule="evenodd" clip-rule="evenodd" d="M14.8379 29.413C13.3133 28.4948 12.8203 26.5055 13.7417 24.9809C14.6631 23.4532 16.646 22.9618 18.1738 23.8847C19.6984 24.803 20.1914 26.7922 19.27 28.3168C18.3533 29.8367 16.3657 30.3344 14.8379 29.413ZM16.5074 25.3227C15.1545 25.3227 14.6899 27.1009 15.8207 27.7813C16.446 28.1593 17.2618 27.9561 17.6398 27.3308C18.1722 26.4488 17.5296 25.3227 16.5074 25.3227Z" fill="black"/>
<path fill-rule="evenodd" clip-rule="evenodd" d="M14.0831 26.019C11.3788 26.019 9.89832 22.8926 11.541 20.7994C11.8576 20.3962 12.4309 20.3175 12.8436 20.612C12.7995 20.0907 13.1822 19.6418 13.6862 19.5851C14.6926 19.4607 15.677 19.804 16.3858 20.5269C17.6332 21.7964 17.6143 23.8455 16.3448 25.0929C15.7369 25.6914 14.9336 26.019 14.0831 26.019ZM13.2373 21.3066C13.2562 21.5381 13.1917 21.7775 13.0373 21.9744C12.3648 22.8296 12.9696 24.1054 14.0689 24.1148C15.236 24.1274 15.855 22.7052 15.025 21.861C14.7367 21.568 14.3383 21.4263 13.9303 21.472C13.6957 21.5098 13.4452 21.4546 13.2373 21.3066Z" fill="black"/>
<path fill-rule="evenodd" clip-rule="evenodd" d="M30.5336 45.5679C27.8214 45.5679 25.6133 43.3598 25.6133 40.6476C25.6133 38.9482 27.3363 36.1699 28.2703 34.7382C28.4388 34.4705 28.7381 34.2925 29.0767 34.2925C29.8374 34.2925 30.2832 35.1383 29.8753 35.7651C27.6876 39.112 27.5175 40.3484 27.5175 40.6476C27.5175 42.3108 28.8704 43.6638 30.5336 43.6638C32.1968 43.6638 33.5497 42.3108 33.5497 40.6476C33.5497 40.3515 33.3828 39.1325 31.2376 35.8328C30.951 35.3918 31.0754 34.8028 31.5164 34.5161C31.9574 34.2295 32.5465 34.3539 32.8331 34.7949C33.7561 36.214 35.4523 38.9608 35.4523 40.6461C35.4539 43.3614 33.2473 45.5679 30.5336 45.5679Z" fill="black"/>
<path fill-rule="evenodd" clip-rule="evenodd" d="M29.8863 33.9571C29.4941 33.6437 29.4138 33.0862 29.6925 32.6782C29.9556 32.2861 30.4753 32.1411 30.9084 32.3569C31.4471 32.6262 31.6077 33.3256 31.225 33.8059C31.036 34.0422 30.2989 34.2847 29.8863 33.9571Z" fill="black"/>
<path fill-rule="evenodd" clip-rule="evenodd" d="M30.5876 10.2424C35.2039 10.2109 37.5381 9.4124 38.6831 8.74618C39.7305 8.13822 40.0266 7.52082 40.1116 7.21212C40.1164 7.18849 40.1211 7.16644 40.1274 7.14282C39.1367 4.97876 33.0272 4.67163 30.6348 4.78346C30.4064 4.79448 28.3259 4.67478 25.9161 4.99293C23.1724 5.35676 21.4069 6.11906 20.9375 7.14597C20.9958 7.42474 21.2509 8.09097 22.3818 8.74775C25.1711 10.3669 30.4458 10.2251 30.5876 10.2424Z" fill="#F7C77E"/>
<path fill-rule="evenodd" clip-rule="evenodd" d="M39.6412 10.3919C37.1622 11.833 33.3317 12.1464 30.4763 12.1464C27.6727 12.1464 23.8707 11.811 21.4278 10.3919C21.3113 10.3241 21.1995 10.2548 21.0924 10.1855C21.001 11.8771 20.5978 13.9136 19.4906 15.9532C18.5881 17.618 17.3754 19.004 15.9531 20.1569C16.1059 20.2672 16.2524 20.3916 16.3878 20.5286C17.1848 21.3397 17.4651 22.4674 17.2336 23.5022C17.5581 23.5778 17.8762 23.7038 18.1755 23.885C19.1488 24.4709 19.7016 25.493 19.7347 26.5514C20.067 26.5436 20.4072 26.5861 20.7427 26.6869C21.831 27.0129 22.6217 27.8666 22.9178 28.884C23.2375 28.7942 23.5777 28.7517 23.9274 28.7659C25.0661 28.8116 26.0426 29.4384 26.5813 30.3519C26.8679 30.185 27.1861 30.059 27.5278 29.985C28.6382 29.7456 29.7423 30.1125 30.492 30.8607C31.3299 30.0322 32.5915 29.6952 33.7853 30.0936C34.0043 30.1661 34.2137 30.2622 34.409 30.3771C34.5823 30.0889 34.8012 29.8275 35.0627 29.6022C35.9211 28.8573 37.0629 28.6462 38.082 28.9391C38.1765 28.6194 38.3229 28.3107 38.5214 28.0225C39.1687 27.0854 40.2208 26.5955 41.2808 26.627C41.2934 26.2979 41.3564 25.9624 41.4793 25.6316C41.8714 24.5654 42.7708 23.8283 43.8055 23.5952C43.7347 23.2707 43.7126 22.9289 43.7473 22.5793C43.8512 21.5587 44.4088 20.7192 45.1837 20.2089C43.7347 19.0465 42.4983 17.6432 41.5816 15.9516C40.476 13.9136 40.0728 11.8771 39.9798 10.1855C39.868 10.2564 39.7578 10.3241 39.6412 10.3919Z" fill="#FFE0B2"/>
<path fill-rule="evenodd" clip-rule="evenodd" d="M43.8332 31.6893C43.0205 32.8642 41.5714 33.3352 40.2721 32.9572C40.1035 33.5273 39.7759 34.0581 39.294 34.477C38.6419 35.0425 37.8119 35.3197 36.9488 35.2614C36.4291 35.2252 35.9471 35.0677 35.5282 34.8188C35.1297 35.4787 34.5012 36.0001 33.7342 36.2411C34.5721 37.6649 35.4557 39.4336 35.4557 40.6495C35.4541 43.3632 33.246 45.5714 30.5338 45.5714C27.8216 45.5714 25.6135 43.3632 25.6135 40.6511C25.6135 39.4399 26.4876 37.6822 27.3287 36.2537C26.5349 36.03 25.8466 35.5055 25.4229 34.7857C24.9079 35.0866 24.3047 35.2472 23.6684 35.222C22.2414 35.1653 21.068 34.192 20.6932 32.891C20.1214 33.0532 19.4977 33.0611 18.8866 32.8784C17.5211 32.4689 16.6265 31.2325 16.5855 29.8796C15.9918 29.8954 15.3854 29.7473 14.8389 29.4181C13.6198 28.6826 13.0607 27.2635 13.3568 25.9452C11.9472 25.6302 10.999 24.4143 10.8698 23.0834C9.58464 23.6032 8.24589 24.0237 6.89453 24.3592C7.07566 28.9078 8.06791 34.3999 9.82719 39.1076C13.686 49.4302 20.5168 55.2498 30.1306 56.4059C30.3952 56.4374 30.6567 56.4405 30.937 56.4059C40.5666 55.2467 47.4037 49.4097 51.2577 39.0587C53.6376 32.6689 54.0865 26.4587 54.1715 24.3592C52.8138 24.0222 51.4688 23.6016 50.1789 23.0771C50.1757 23.1291 50.1726 23.1811 50.1663 23.2331C50.0229 24.6522 48.9756 25.7625 47.6573 26.0586C47.7848 26.6398 47.7549 27.2635 47.5344 27.862C47.0541 29.1661 45.8161 29.9773 44.501 29.9773C44.4679 29.9773 44.4348 29.9773 44.4017 29.9757C44.3797 30.5679 44.1954 31.1632 43.8332 31.6893Z" fill="#FFE0B2"/>
<path fill-rule="evenodd" clip-rule="evenodd" d="M33.5518 40.6481C33.5518 40.3599 33.3943 39.196 31.4051 36.0885C31.0554 35.9262 30.742 35.7042 30.4758 35.438C30.2585 35.6538 30.008 35.8396 29.7324 35.9877C27.6818 39.1676 27.5195 40.3567 27.5195 40.6481C27.5195 42.3113 28.8725 43.6642 30.5357 43.6642C32.1989 43.6642 33.5518 42.3113 33.5518 40.6481Z" fill="#F44335"/>
<path fill-rule="evenodd" clip-rule="evenodd" d="M14.0706 24.1151C15.2377 24.1277 15.8567 22.7055 15.0267 21.8613C14.7778 21.6077 14.4471 21.4675 14.0974 21.4644C13.7194 21.6959 13.332 21.9164 12.9351 22.1243C12.4358 22.9716 13.0327 24.1056 14.0706 24.1151Z" fill="#FFEB3A"/>
<path fill-rule="evenodd" clip-rule="evenodd" d="M15.8935 25.4666C15.832 25.5075 15.7706 25.5469 15.7076 25.5847C15.0256 26.1044 14.9595 27.2636 15.8226 27.7834C16.4479 28.1614 17.2637 27.9582 17.6417 27.333C18.1741 26.4509 17.5315 25.3232 16.5093 25.3232C16.2762 25.3232 16.0699 25.3752 15.8935 25.4666Z" fill="#FFEB3A"/>
<path fill-rule="evenodd" clip-rule="evenodd" d="M20.1951 28.5124C19.4942 28.3029 18.7555 28.7014 18.546 29.4007C18.3366 30.1015 18.7351 30.8402 19.4344 31.0497C20.0329 31.2292 20.6613 30.9631 20.9605 30.4433C20.9668 30.4307 20.9747 30.4181 20.9826 30.4039C21.0235 30.3268 21.0566 30.2464 21.0834 30.1598C21.2929 29.4605 20.8944 28.7218 20.1951 28.5124Z" fill="#FFEB3A"/>
<path fill-rule="evenodd" clip-rule="evenodd" d="M23.8487 30.667C23.8314 30.667 22.5037 31.2104 22.4737 31.938C22.4281 33.1098 23.8314 33.7619 24.6961 32.9634C25.5576 32.168 25.0268 30.7142 23.8487 30.667Z" fill="#FFEB3A"/>
<path fill-rule="evenodd" clip-rule="evenodd" d="M27.9263 31.8467C27.2113 32.001 26.7577 32.705 26.9105 33.4201C27.0932 34.2706 27.9767 34.6454 28.6823 34.3793C28.7044 34.3698 28.728 34.3604 28.7516 34.3509C28.9706 34.2533 29.169 34.091 29.3186 33.8579C29.4651 33.6311 29.5171 33.4075 29.5297 33.2295C29.5297 33.2043 29.5297 33.1807 29.5313 33.1555C29.5313 33.1334 29.5313 33.1114 29.5328 33.0893C29.5281 32.9492 29.5013 32.861 29.5013 32.861C29.3659 32.2404 28.6414 31.6923 27.9263 31.8467Z" fill="#FFEB3A"/>
<path fill-rule="evenodd" clip-rule="evenodd" d="M31.5048 32.7382C31.4607 32.8721 31.4387 33.0044 31.4355 33.132V33.1603C31.4371 33.1808 31.4371 33.2029 31.4371 33.2249C31.4639 33.7652 31.8293 34.2219 32.3128 34.4015C32.3365 34.4078 32.3601 34.4172 32.3837 34.4251C32.6861 34.518 33.0263 34.5054 33.3555 34.34C34.0091 34.0124 34.2737 33.217 33.9477 32.5634C33.4232 31.5192 31.8797 31.6153 31.5048 32.7382Z" fill="#FFEB3A"/>
<path fill-rule="evenodd" clip-rule="evenodd" d="M35.9092 32.4278C35.9628 32.5994 36.051 32.7632 36.177 32.9081C36.6573 33.461 37.4921 33.5208 38.0465 33.0389C38.5159 32.6309 38.6293 31.9647 38.3568 31.4339C38.3458 31.415 38.3363 31.3961 38.3253 31.3772C38.2828 31.3048 38.2339 31.2355 38.1772 31.1693C37.9142 30.8685 36.8605 30.5582 36.3077 31.0386C35.9328 31.3646 35.7848 31.8529 35.8793 32.3081C35.8903 32.3459 35.8998 32.3868 35.9092 32.4278Z" fill="#FFEB3A"/>
<path fill-rule="evenodd" clip-rule="evenodd" d="M40.0408 30.5456C40.5085 31.3221 41.6992 31.4292 42.2647 30.607C42.6805 30.0054 42.5277 29.1801 41.926 28.7643C40.9653 28.0996 39.658 28.9296 39.8706 30.0936C39.8943 30.2227 39.9336 30.3409 39.9872 30.4495C40.0061 30.481 40.0234 30.5125 40.0408 30.5456Z" fill="#FFEB3A"/>
<path fill-rule="evenodd" clip-rule="evenodd" d="M43.2599 26.2872C43.0064 26.9754 43.3592 27.7346 44.0474 27.9882C44.7341 28.2402 45.4949 27.8874 45.7484 27.2007C46.0004 26.514 45.6476 25.7532 44.9625 25.4997C44.2742 25.2492 43.5119 25.6052 43.2599 26.2872Z" fill="#FFEB3A"/>
<path fill-rule="evenodd" clip-rule="evenodd" d="M46.2918 24.0552C46.4461 24.1434 46.6225 24.2017 46.8226 24.2222C47.5486 24.2962 48.1991 23.7638 48.2731 23.0377C48.3109 22.6676 48.1944 22.3054 47.9487 22.0297C47.6935 21.8927 47.4431 21.751 47.1958 21.6045C47.1628 21.5982 47.1281 21.5919 47.0872 21.5887C47.0415 21.5824 46.3879 21.658 46.117 21.8801C45.3988 22.466 45.5216 23.5197 46.1894 23.9922C46.2241 24.0111 46.2571 24.0332 46.2918 24.0552Z" fill="#FFEB3A"/>
<path fill-rule="evenodd" clip-rule="evenodd" d="M52.98 24.0361C52.8902 26.1844 52.4272 32.3459 50.0678 38.6821C46.2122 49.0346 39.3767 54.87 29.7471 56.0292C29.4651 56.0639 29.2037 56.0607 28.9407 56.0292C27.5531 55.8623 26.2222 55.5977 24.9512 55.237C26.5766 55.793 28.3028 56.1804 30.1314 56.4009C30.396 56.4324 30.6574 56.4356 30.9378 56.4009C40.5674 55.2417 47.4045 49.4048 51.2585 39.0538C53.6383 32.664 54.0872 26.4538 54.1723 24.3543C53.7722 24.2551 53.3753 24.1495 52.98 24.0361Z" fill="#CFB690"/>
<path fill-rule="evenodd" clip-rule="evenodd" d="M44.198 21.2185C44.4484 20.8105 44.7839 20.4672 45.176 20.2089C43.727 19.0465 42.4906 17.6432 41.574 15.9516C40.4683 13.9136 40.0651 11.8771 39.9722 10.1855C39.8667 10.2548 39.7564 10.3226 39.6399 10.3903C39.3895 10.5368 39.1249 10.6706 38.8477 10.7935C39.0099 12.5134 39.6541 15.1389 40.6794 17.0289C41.5803 18.6874 42.7867 20.0687 44.198 21.2185Z" fill="#CFB690"/>
</svg>
