<svg width="76" height="76" viewBox="0 0 76 76" fill="none" xmlns="http://www.w3.org/2000/svg">
<g clip-path="url(#clip0_2652_4644)">
<path d="M32.6543 13.0493C32.4983 13.0494 32.3439 13.0187 32.1998 12.959C32.0557 12.8993 31.9248 12.8119 31.8145 12.7016C31.7042 12.5913 31.6168 12.4604 31.5571 12.3163C31.4974 12.1722 31.4668 12.0178 31.4668 11.8618V4.73682C31.4668 4.42187 31.5919 4.11983 31.8146 3.89713C32.0373 3.67443 32.3394 3.54932 32.6543 3.54932C32.9692 3.54932 33.2713 3.67443 33.494 3.89713C33.7167 4.11983 33.8418 4.42187 33.8418 4.73682V11.8618C33.8418 12.0178 33.8112 12.1722 33.7515 12.3163C33.6918 12.4604 33.6044 12.5913 33.4941 12.7016C33.3838 12.8119 33.2529 12.8993 33.1088 12.959C32.9647 13.0187 32.8103 13.0494 32.6543 13.0493Z" fill="#DA4453"/>
<path d="M37.4062 1.17578V4.73828H32.6562H27.9062V1.17578H37.4062Z" fill="#ED5565"/>
<path d="M56.4066 59.3871C56.4093 58.1674 56.1796 56.9583 55.7298 55.8246C55.5791 55.4265 55.3964 55.0413 55.1835 54.6727L63.4129 46.4434C64.9567 47.9872 66.1814 49.82 67.0169 51.8372C67.8524 53.8543 68.2825 56.0163 68.2825 58.1996C68.2825 60.3829 67.8524 62.5449 67.0169 64.562C66.1814 66.5792 64.9567 68.412 63.4129 69.9559C61.869 71.4997 60.0362 72.7244 58.0191 73.5599C56.0019 74.3954 53.84 74.8255 51.6566 74.8255C49.4733 74.8255 47.3113 74.3954 45.2942 73.5599C43.2771 72.7244 41.4442 71.4997 39.9004 69.9559L47.4054 62.4509C48.1417 64.6567 49.6519 66.5212 51.6566 67.6996C53.1035 66.8475 54.3029 65.6323 55.136 64.1744C55.9691 62.7165 56.4071 61.0663 56.4066 59.3871Z" fill="#E6E9ED"/>
<path d="M25.5312 13.1814V18.9883H18.4062L10.0938 40.3633L7.71875 34.4258L13.6562 13.0508L25.5312 13.1814Z" fill="#DA4453"/>
<path d="M38.5938 20.1758L42.1562 30.8633H23.1562L26.7188 20.1758H38.5938Z" fill="#DA4453"/>
<path d="M39.7812 18.9883V20.1758H38.5938H26.7188H25.5312V18.9883V13.1814V11.8633H32.6562H39.7812V13.0508V18.9883Z" fill="#ED5565"/>
<path d="M42.1562 30.8633C42.7801 30.8631 43.3978 30.9859 43.9742 31.2245C44.5506 31.4632 45.0743 31.813 45.5154 32.2541C45.9565 32.6953 46.3064 33.219 46.545 33.7953C46.7837 34.3717 46.9064 34.9895 46.9062 35.6133V42.2633C43.5232 43.273 40.5492 45.3331 38.4149 48.1454C36.2806 50.9578 35.0967 54.3764 35.0345 57.9063C34.9723 61.4363 36.0352 64.8945 38.0692 67.7802C40.1031 70.6659 43.0027 72.8295 46.3481 73.9577C46.1238 74.2206 45.8453 74.4321 45.5318 74.5776C45.2182 74.7231 44.8769 74.7993 44.5312 74.8008H20.7813C20.4693 74.8009 20.1605 74.7395 19.8723 74.6202C19.5841 74.5009 19.3222 74.3259 19.1017 74.1054C18.8811 73.8848 18.7062 73.6229 18.5869 73.3348C18.4675 73.0466 18.4062 72.7377 18.4063 72.4258V35.6133C18.4061 34.9895 18.5288 34.3717 18.7675 33.7953C19.0061 33.219 19.356 32.6953 19.7971 32.2541C20.2382 31.813 20.7619 31.4632 21.3383 31.2245C21.9147 30.9859 22.5324 30.8631 23.1562 30.8633H42.1562Z" fill="#CCD1D9"/>
<path d="M52.8446 51.894C52.468 51.594 52.0712 51.3202 51.6571 51.0746C51.243 51.3202 50.8462 51.594 50.4696 51.894C49.5228 52.6656 48.7292 53.6082 48.1302 54.6727C47.9173 55.0413 47.7346 55.4265 47.584 55.8246C46.7474 57.9437 46.6843 60.2898 47.4058 62.4508L39.9008 69.9558C36.7829 66.8379 35.0313 62.609 35.0312 58.1996C35.0313 53.7901 36.7829 49.5613 39.9008 46.4433C43.0188 43.3254 47.2476 41.5737 51.6571 41.5737C56.0665 41.5737 60.2954 43.3254 63.4133 46.4433L55.184 54.6727C54.585 53.6082 53.7914 52.6656 52.8446 51.894Z" fill="#E6E9ED"/>
<path d="M56.4062 14.238V17.8005L50.4688 18.228V13.8105L56.4062 14.238Z" fill="#656D78"/>
<path d="M50.4688 13.8108V18.2283L39.7812 18.9883V13.0508L50.4688 13.8108Z" fill="#DA4453"/>
<path d="M51.6563 76.0127C48.1333 76.0127 44.6894 74.968 41.7602 73.0108C38.8309 71.0535 36.5478 68.2716 35.1997 65.0168C33.8515 61.7619 33.4987 58.1804 34.186 54.7252C34.8733 51.2699 36.5698 48.096 39.0609 45.6049C41.552 43.1137 44.7259 41.4173 48.1812 40.73C51.6365 40.0427 55.218 40.3954 58.4728 41.7436C61.7276 43.0918 64.5095 45.3749 66.4668 48.3041C68.4241 51.2334 69.4688 54.6772 69.4688 58.2002C69.4636 62.9228 67.5853 67.4505 64.2459 70.7899C60.9065 74.1292 56.3788 76.0076 51.6563 76.0127ZM51.6563 42.7627C48.603 42.7627 45.6183 43.6681 43.0796 45.3644C40.541 47.0607 38.5623 49.4717 37.3939 52.2925C36.2254 55.1134 35.9197 58.2173 36.5154 61.2119C37.111 64.2065 38.5813 66.9572 40.7403 69.1162C42.8993 71.2751 45.65 72.7454 48.6445 73.3411C51.6391 73.9367 54.7431 73.631 57.5639 72.4626C60.3848 71.2942 62.7958 69.3155 64.4921 66.7768C66.1884 64.2381 67.0938 61.2535 67.0938 58.2002C67.089 54.1074 65.4611 50.1835 62.567 47.2895C59.6729 44.3954 55.7491 42.7674 51.6563 42.7627Z" fill="#ED5565"/>
<path d="M52.8441 54.2725C52.6477 54.2726 52.4543 54.224 52.2814 54.131C52.1084 54.038 51.9611 53.9035 51.8529 53.7397C51.7446 53.5758 51.6787 53.3876 51.6611 53.192C51.6434 52.9964 51.6745 52.7995 51.7517 52.6188L54.1267 47.0466C54.2509 46.758 54.4845 46.5304 54.7762 46.4136C55.0679 46.2969 55.394 46.3005 55.6831 46.4237C55.9721 46.5469 56.2006 46.7796 56.3184 47.0709C56.4362 47.3622 56.4337 47.6883 56.3115 47.9778L53.9365 53.5512C53.8452 53.7653 53.693 53.9478 53.4988 54.0761C53.3045 54.2043 53.0769 54.2727 52.8441 54.2725Z" fill="#773E3E"/>
<path d="M50.4685 54.2738C50.2356 54.2739 50.0078 54.2055 49.8136 54.077C49.6193 53.9485 49.4671 53.7657 49.3761 53.5513L47.0011 47.978C46.8778 47.6882 46.8746 47.3614 46.9922 47.0693C47.1099 46.7772 47.3388 46.5439 47.6285 46.4205C47.9182 46.2972 48.2451 46.294 48.5371 46.4117C48.8292 46.5293 49.0626 46.7582 49.1859 47.0479L51.5609 52.6213C51.6377 52.8019 51.6685 52.9986 51.6507 53.194C51.6329 53.3894 51.5669 53.5774 51.4587 53.741C51.3505 53.9047 51.2034 54.0391 51.0306 54.132C50.8579 54.225 50.6647 54.2737 50.4685 54.2738Z" fill="#773E3E"/>
<path d="M59.9688 60.5757H55.2188C54.9038 60.5757 54.6018 60.4506 54.3791 60.2279C54.1564 60.0052 54.0312 59.7031 54.0312 59.3882C54.0312 59.0732 54.1564 58.7712 54.3791 58.5485C54.6018 58.3258 54.9038 58.2007 55.2188 58.2007H59.9688C60.2837 58.2007 60.5857 58.3258 60.8084 58.5485C61.0311 58.7712 61.1562 59.0732 61.1562 59.3882C61.1562 59.7031 61.0311 60.0052 60.8084 60.2279C60.5857 60.4506 60.2837 60.5757 59.9688 60.5757Z" fill="#773E3E"/>
<path d="M48.0938 60.5757H43.3438C43.0288 60.5757 42.7268 60.4506 42.5041 60.2279C42.2814 60.0052 42.1562 59.7031 42.1562 59.3882C42.1562 59.0732 42.2814 58.7712 42.5041 58.5485C42.7268 58.3258 43.0288 58.2007 43.3438 58.2007H48.0938C48.4087 58.2007 48.7107 58.3258 48.9334 58.5485C49.1561 58.7712 49.2812 59.0732 49.2812 59.3882C49.2812 59.7031 49.1561 60.0052 48.9334 60.2279C48.7107 60.4506 48.4087 60.5757 48.0938 60.5757Z" fill="#773E3E"/>
<path d="M58.7814 66.5129C58.6254 66.5131 58.4709 66.4824 58.3269 66.4227C58.1828 66.363 58.0519 66.2754 57.9418 66.1649L53.8829 62.1061C53.6603 61.8834 53.5352 61.5814 53.5352 61.2665C53.5352 60.9516 53.6603 60.6496 53.8829 60.4269C54.1056 60.2042 54.4076 60.0791 54.7225 60.0791C55.0374 60.0791 55.3394 60.2042 55.5621 60.4269L59.621 64.4857C59.787 64.6518 59.9001 64.8634 59.9459 65.0937C59.9917 65.324 59.9682 65.5628 59.8783 65.7797C59.7884 65.9967 59.6363 66.1821 59.441 66.3126C59.2458 66.4431 59.0162 66.5128 58.7814 66.5129Z" fill="#773E3E"/>
<path d="M49.3177 57.0501C49.1617 57.0503 49.0072 57.0196 48.8631 56.9599C48.7191 56.9002 48.5882 56.8126 48.4781 56.7021L44.8785 53.1026C44.7671 52.9926 44.6785 52.8616 44.6179 52.7173C44.5573 52.5729 44.5259 52.418 44.5254 52.2614C44.5249 52.1049 44.5554 51.9498 44.615 51.805C44.6747 51.6603 44.7624 51.5288 44.8731 51.4181C44.9838 51.3074 45.1153 51.2197 45.2601 51.16C45.4048 51.1003 45.5599 51.0698 45.7165 51.0703C45.873 51.0708 46.0279 51.1023 46.1723 51.1628C46.3166 51.2234 46.4476 51.312 46.5576 51.4234L50.1573 55.023C50.3233 55.1891 50.4363 55.4007 50.4821 55.631C50.5279 55.8613 50.5044 56.1 50.4146 56.317C50.3247 56.5339 50.1725 56.7194 49.9773 56.8499C49.7821 56.9804 49.5525 57.05 49.3177 57.0501Z" fill="#773E3E"/>
<path d="M55.184 54.6723C54.585 53.6078 53.7914 52.6653 52.8446 51.8936C52.468 51.5936 52.0713 51.3198 51.6571 51.0742C51.243 51.3198 50.8462 51.5936 50.4696 51.8936C49.5228 52.6653 48.7293 53.6079 48.1302 54.6723C47.9173 55.0409 47.7346 55.4261 47.584 55.8242H55.7302C55.5796 55.4261 55.3969 55.0409 55.184 54.6723Z" fill="#844747"/>
<path d="M55.7295 55.8242H47.5833C46.7354 57.9642 46.6798 60.3367 47.4266 62.514C48.1735 64.6913 49.6735 66.5302 51.6564 67.6992C53.638 66.5289 55.1369 64.69 55.8836 62.5131C56.6303 60.3363 56.5756 57.9644 55.7295 55.8242Z" fill="#965353"/>
<path d="M39.9001 71.1433C39.6653 71.1433 39.4358 71.0736 39.2405 70.9431C39.0453 70.8126 38.8931 70.6272 38.8033 70.4102C38.7134 70.1933 38.6899 69.9545 38.7357 69.7242C38.7815 69.4939 38.8946 69.2823 39.0606 69.1162L62.5716 45.6051C62.6819 45.4948 62.8128 45.4074 62.9569 45.3477C63.1009 45.288 63.2553 45.2573 63.4112 45.2573C63.5672 45.2573 63.7216 45.288 63.8656 45.3477C64.0097 45.4074 64.1406 45.4948 64.2508 45.6051C64.3611 45.7154 64.4486 45.8462 64.5082 45.9903C64.5679 46.1344 64.5986 46.2888 64.5986 46.4447C64.5986 46.6006 64.5679 46.755 64.5082 46.8991C64.4486 47.0431 64.3611 47.174 64.2508 47.2843L40.7397 70.7954C40.6296 70.9059 40.4987 70.9934 40.3547 71.0532C40.2106 71.1129 40.0561 71.1435 39.9001 71.1433Z" fill="#ED5565"/>
</g>
<defs>
<clipPath id="clip0_2652_4644">
<rect width="76" height="76" fill="white"/>
</clipPath>
</defs>
</svg>
