<svg width="72" height="72" viewBox="0 0 72 72" fill="none" xmlns="http://www.w3.org/2000/svg">
<g clip-path="url(#clip0_2652_4782)">
<path d="M25.1079 13.5703H11.1879C11.0695 13.5703 10.9588 13.5108 10.8948 13.4112C10.479 12.7635 9.74016 12.3429 8.90569 12.3769C7.75524 12.4239 6.80532 13.3685 6.75244 14.5186C6.6931 15.8096 7.72219 16.875 9.00005 16.875C9.79529 16.875 10.4941 16.4624 10.8943 15.8397C10.9585 15.7397 11.0692 15.6796 11.188 15.6796H25.1522C25.7455 15.6796 26.2244 15.1898 26.2065 14.5925C26.1891 14.0152 25.6855 13.5703 25.1079 13.5703Z" fill="#FD6930"/>
<path d="M11.1555 5.62303C11.99 5.6572 12.729 5.23659 13.1448 4.58873C13.2088 4.48903 13.3195 4.42969 13.4379 4.42969H17.4C17.5045 4.42969 17.6046 4.47117 17.6784 4.545L24.5349 11.4016C24.7409 11.6076 25.0108 11.7105 25.2808 11.7105C25.5425 11.7105 25.8043 11.6137 26.0078 11.42C26.4384 11.0101 26.4152 10.2988 25.9949 9.87834L19.1699 3.05339C18.697 2.58075 18.0684 2.32045 17.3999 2.32045H13.4379C13.3191 2.32045 13.2084 2.26041 13.1441 2.16042C12.744 1.53759 12.0453 1.125 11.25 1.125C9.97218 1.125 8.94323 2.19023 9.00243 3.48103C9.05531 4.63134 10.0051 5.57592 11.1555 5.62303Z" fill="#FD6930"/>
<path d="M46.892 13.5703H60.8121C60.9305 13.5703 61.0411 13.5108 61.1051 13.4112C61.521 12.7635 62.2598 12.3429 63.0943 12.3769C64.2447 12.4239 65.1946 13.3685 65.2475 14.5186C65.3069 15.8096 64.2778 16.875 62.9999 16.875C62.2047 16.875 61.5059 16.4624 61.1057 15.8397C61.0414 15.7397 60.9307 15.6796 60.8119 15.6796H46.8477C46.2544 15.6796 45.7756 15.1898 45.7935 14.5925C45.8109 14.0152 46.3145 13.5703 46.892 13.5703Z" fill="#FD6930"/>
<path d="M60.8447 5.62303C60.0102 5.6572 59.2713 5.23659 58.8554 4.58873C58.7914 4.48903 58.6808 4.42969 58.5624 4.42969H54.6003C54.4958 4.42969 54.3956 4.47117 54.3218 4.545L47.4654 11.4016C47.2593 11.6076 46.9895 11.7105 46.7195 11.7105C46.4578 11.7105 46.1959 11.6137 45.9925 11.42C45.5619 11.0101 45.5851 10.2988 46.0054 9.87834L52.8303 3.05339C53.3033 2.58075 53.9319 2.32045 54.6004 2.32045H58.5624C58.6812 2.32045 58.7919 2.26041 58.8561 2.16042C59.2562 1.53759 59.955 1.125 60.7502 1.125C62.0281 1.125 63.057 2.19023 62.9978 3.48103C62.9449 4.63134 61.9952 5.57592 60.8447 5.62303Z" fill="#FD6930"/>
<path d="M53.3995 18.3054L50.9645 17.0879C50.7109 16.9612 50.5159 16.7407 50.4246 16.4724C50.2109 15.8434 49.9573 15.2329 49.6666 14.644C49.5411 14.3895 49.5229 14.0954 49.6126 13.8261L50.474 11.2423C50.604 10.8519 50.5025 10.4213 50.2116 10.1303L47.2449 7.16372C46.954 6.87277 46.5235 6.77109 46.133 6.90131L43.549 7.7625C43.2799 7.85222 42.9857 7.83408 42.7312 7.7085C42.1422 7.41783 41.5316 7.16414 40.9028 6.95053C40.6344 6.85941 40.4139 6.66422 40.2872 6.41067L39.0697 3.97561C38.8856 3.60745 38.5095 3.375 38.0978 3.375H33.9024C33.4908 3.375 33.1147 3.60745 32.9306 3.97561L31.713 6.41067C31.5863 6.66422 31.3658 6.85927 31.0975 6.95053C30.4685 7.16428 29.8581 7.41783 29.2691 7.7085C29.0146 7.83408 28.7205 7.85222 28.4513 7.7625L25.8674 6.90117C25.477 6.77109 25.0466 6.87263 24.7555 7.16358L21.7889 10.1302C21.4979 10.4212 21.3962 10.8516 21.5263 11.2421L22.3876 13.826C22.4774 14.0951 22.4592 14.3893 22.3336 14.6438C22.043 15.2328 21.7893 15.8434 21.5757 16.4722C21.4845 16.7406 21.2894 16.9611 21.0358 17.0878L18.6006 18.3053C18.2325 18.4894 18 18.8655 18 19.2772V23.4726C18 23.8842 18.2325 24.2603 18.6006 24.4444L21.0358 25.662C21.2894 25.7887 21.4844 26.0092 21.5757 26.2775C21.7894 26.9065 22.0431 27.5169 22.3336 28.1059C22.4592 28.3604 22.4774 28.6545 22.3876 28.9237L21.5263 31.5076C21.3962 31.898 21.4978 32.3284 21.7889 32.6195L24.7555 35.5861C25.0464 35.8771 25.4769 35.9788 25.8674 35.8487L28.4513 34.9874C28.7204 34.8976 29.0146 34.9158 29.2691 35.0414C29.8581 35.332 30.4687 35.5857 31.0975 35.7993C31.3658 35.8905 31.5863 36.0856 31.713 36.3392L32.9306 38.7744C33.1147 39.1425 33.4908 39.375 33.9024 39.375H38.0978C38.5095 39.375 38.8856 39.1425 39.0697 38.7744L40.2872 36.3392C40.4139 36.0856 40.6344 35.8906 40.9028 35.7993C41.5318 35.5856 42.1422 35.3319 42.7312 35.0414C42.9857 34.9158 43.2797 34.8976 43.549 34.9874L46.1329 35.8487C46.5233 35.9788 46.9538 35.8772 47.2448 35.5861L50.2114 32.6195C50.5024 32.3286 50.604 31.8981 50.4738 31.5076L49.6125 28.9237C49.5228 28.6546 49.5409 28.3604 49.6665 28.1059C49.9572 27.5169 50.2109 26.9063 50.4245 26.2775C50.5156 26.0092 50.7108 25.7887 50.9643 25.662L53.3994 24.4444C53.7675 24.2603 54 23.8842 54 23.4726V19.2772C54.0001 18.8657 53.7677 18.4895 53.3995 18.3054ZM36.0001 28.125C32.2722 28.125 29.2501 25.103 29.2501 21.375C29.2501 17.647 32.2722 14.625 36.0001 14.625C39.7281 14.625 42.7501 17.647 42.7501 21.375C42.7501 25.103 39.7281 28.125 36.0001 28.125Z" fill="#80D261"/>
<path d="M53.3993 18.3054L50.9643 17.0879C50.7107 16.9612 50.5157 16.7407 50.4244 16.4724C50.2107 15.8433 49.9571 15.2329 49.6664 14.644C49.5409 14.3894 49.5227 14.0954 49.6124 13.8261L50.4738 11.2422C50.6038 10.8519 50.5023 10.4213 50.2114 10.1303L47.2447 7.16369C46.9538 6.87274 46.5233 6.77107 46.1328 6.90128L43.5488 7.76247C43.2797 7.85219 42.9855 7.83405 42.731 7.70847C42.1835 7.43819 41.6173 7.20011 41.0352 6.99621C45.39 10.2815 48.2052 15.4994 48.2052 21.3748C48.2052 27.2503 45.3902 32.4682 41.0352 35.7535C41.6173 35.5495 42.1835 35.3115 42.731 35.0412C42.9855 34.9156 43.2795 34.8975 43.5488 34.9872L46.1327 35.8485C46.523 35.9786 46.9536 35.8771 47.2446 35.586L50.2112 32.6193C50.5022 32.3284 50.6038 31.8979 50.4736 31.5074L49.6123 28.9236C49.5226 28.6544 49.5407 28.3602 49.6663 28.1057C49.957 27.5168 50.2107 26.9062 50.4243 26.2773C50.5154 26.009 50.7106 25.7885 50.9641 25.6618L53.3992 24.4443C53.7673 24.2602 53.9998 23.884 53.9998 23.4724V19.277C53.9999 18.8657 53.7675 18.4895 53.3993 18.3054Z" fill="#4FC123"/>
<path d="M63.8782 21.375H8.1218C6.12155 21.375 4.5 22.9965 4.5 24.9967V64.125L36 68.625L67.5 64.125V24.9967C67.5 22.9965 65.8785 21.375 63.8782 21.375Z" fill="#B2CAEC"/>
<path d="M44.5881 64.5369L43.8107 65.3143C43.1315 65.9935 42.2103 66.375 41.2498 66.375H30.7502C29.7896 66.375 28.8685 65.9935 28.1893 65.3143L27.4119 64.5369C27.1482 64.2732 26.7905 64.125 26.4175 64.125H1.08647C0.486422 64.125 0 64.6114 0 65.2115V67.2532C0 69.2535 1.62155 70.875 3.6218 70.875H68.3783C70.3785 70.875 72 69.2535 72 67.2532V65.2115C72 64.6114 71.5136 64.125 70.9135 64.125H45.5825C45.2095 64.125 44.8518 64.2732 44.5881 64.5369Z" fill="#D3E1F5"/>
<path d="M62.2969 59.625H9.70312C9.31486 59.625 9 59.3101 9 58.9219V26.5781C9 26.1899 9.31486 25.875 9.70312 25.875H62.2969C62.6851 25.875 63 26.1899 63 26.5781V58.9219C63 59.3101 62.6851 59.625 62.2969 59.625Z" fill="#01C0FA"/>
<path d="M57.2053 25.875V45.8782C57.2053 51.8702 52.3478 56.7277 46.3558 56.7277H9V58.9219C9 59.3101 9.31486 59.625 9.70312 59.625H62.2969C62.6851 59.625 63 59.3101 63 58.9219V26.5781C63 26.1899 62.6851 25.875 62.2969 25.875H57.2053Z" fill="#08A9F1"/>
<path d="M27 55.125C28.2427 55.125 29.25 54.1177 29.25 52.875V32.625C29.25 31.3823 28.2427 30.375 27 30.375C25.7573 30.375 24.75 31.3823 24.75 32.625V52.875C24.75 54.1176 25.7573 55.125 27 55.125Z" fill="#DFF6FD"/>
<path d="M47.25 30.375H36C34.7573 30.375 33.75 31.3823 33.75 32.625C33.75 33.8677 34.7573 34.875 36 34.875H39.375V52.875C39.375 54.1177 40.3823 55.125 41.625 55.125C42.8677 55.125 43.875 54.1177 43.875 52.875V34.875H47.25C48.4927 34.875 49.5 33.8677 49.5 32.625C49.5 31.3823 48.4927 30.375 47.25 30.375Z" fill="#DFF6FD"/>
</g>
<defs>
<clipPath id="clip0_2652_4782">
<rect width="72" height="72" fill="white"/>
</clipPath>
</defs>
</svg>
