<svg width="71" height="71" viewBox="0 0 71 71" fill="none" xmlns="http://www.w3.org/2000/svg">
<path fillRule="evenodd" clip-rule="evenodd" d="M5.82152 58.5623C5.44594 58.5623 5.14258 58.2589 5.14258 57.8833V16.9446C5.14258 16.569 5.44594 16.2656 5.82152 16.2656H33.5137C33.8893 16.2656 34.1926 16.569 34.1926 16.9446V20.0215C34.1926 20.3971 33.8893 20.7004 33.5137 20.7004C33.1381 20.7004 32.8347 20.3971 32.8347 20.0215V17.638H6.50046V57.8833C6.50046 58.2589 6.19711 58.5623 5.82152 58.5623Z" fill="#4D81C2"/>
<path fillRule="evenodd" clip-rule="evenodd" d="M32.2712 62.6214H4.8391C4.46351 62.6214 4.16016 62.3181 4.16016 61.9425V57.8833C4.16016 57.5077 4.46351 57.2043 4.8391 57.2043H32.2568C32.6324 57.2043 32.9357 57.5077 32.9357 57.8833C32.9357 58.2589 32.6324 58.5622 32.2568 58.5622H5.51804V61.2491H32.2568C32.6324 61.2491 32.9357 61.5525 32.9357 61.9281C32.9502 62.3036 32.6468 62.6214 32.2712 62.6214Z" fill="#4D81C2"/>
<path fillRule="evenodd" clip-rule="evenodd" d="M31.1295 17.6235C30.7539 17.6235 30.4505 17.3201 30.4505 16.9445V7.22267H8.88328V16.9445C8.88328 17.3201 8.57992 17.6235 8.20433 17.6235C7.82875 17.6235 7.52539 17.3201 7.52539 16.9445V6.52928C7.52539 6.1537 7.82875 5.85034 8.20433 5.85034H31.1439C31.5195 5.85034 31.8229 6.1537 31.8229 6.52928V16.9445C31.8229 17.3201 31.505 17.6235 31.1295 17.6235Z" fill="#4D81C2"/>
<path fillRule="evenodd" clip-rule="evenodd" d="M11.0805 27.5477H16.411V22.2173H11.0805V27.5477ZM17.1043 28.92H10.4016C10.026 28.92 9.72266 28.6166 9.72266 28.2411V21.5383C9.72266 21.1627 10.026 20.8594 10.4016 20.8594H17.1043C17.4799 20.8594 17.7833 21.1627 17.7833 21.5383V28.2411C17.7977 28.6166 17.4799 28.92 17.1043 28.92Z" fill="#F9A12A"/>
<path fillRule="evenodd" clip-rule="evenodd" d="M22.9106 27.5477H28.241V22.2173H22.9106V27.5477ZM28.9344 28.92H22.2317C21.8561 28.92 21.5527 28.6166 21.5527 28.2411V21.5383C21.5527 21.1627 21.8561 20.8594 22.2317 20.8594H28.9344C29.31 20.8594 29.6134 21.1627 29.6134 21.5383V28.2411C29.6134 28.6166 29.31 28.92 28.9344 28.92Z" fill="#F9A12A"/>
<path fillRule="evenodd" clip-rule="evenodd" d="M11.0805 52.6107H16.411V47.2803H11.0805C11.0805 47.2658 11.0805 52.6107 11.0805 52.6107ZM17.1043 53.9686H10.4016C10.026 53.9686 9.72266 53.6652 9.72266 53.2896V46.5869C9.72266 46.2113 10.026 45.908 10.4016 45.908H17.1043C17.4799 45.908 17.7833 46.2113 17.7833 46.5869V53.2896C17.7977 53.6652 17.4799 53.9686 17.1043 53.9686Z" fill="#F9A12A"/>
<path fillRule="evenodd" clip-rule="evenodd" d="M22.9106 52.6107H28.241V47.2803H22.9106V52.6107ZM28.9344 53.9686H22.2317C21.8561 53.9686 21.5527 53.6652 21.5527 53.2896V46.5869C21.5527 46.2113 21.8561 45.908 22.2317 45.908H28.9344C29.31 45.908 29.6134 46.2113 29.6134 46.5869V53.2896C29.6134 53.6652 29.31 53.9686 28.9344 53.9686Z" fill="#F9A12A"/>
<path fillRule="evenodd" clip-rule="evenodd" d="M11.0805 40.0718H16.411V34.7414H11.0805V40.0718ZM17.1043 41.4442H10.4016C10.026 41.4442 9.72266 41.1408 9.72266 40.7652V34.0625C9.72266 33.6869 10.026 33.3835 10.4016 33.3835H17.1043C17.4799 33.3835 17.7833 33.6869 17.7833 34.0625V40.7652C17.7977 41.1408 17.4799 41.4442 17.1043 41.4442Z" fill="#F9A12A"/>
<path fillRule="evenodd" clip-rule="evenodd" d="M22.9106 40.0718H28.241V34.7414H22.9106V40.0718ZM28.9344 41.4442H22.2317C21.8561 41.4442 21.5527 41.1408 21.5527 40.7652V34.0625C21.5527 33.6869 21.8561 33.3835 22.2317 33.3835H28.9344C29.31 33.3835 29.6134 33.6869 29.6134 34.0625V40.7652C29.6134 41.1408 29.31 41.4442 28.9344 41.4442Z" fill="#F9A12A"/>
<path fillRule="evenodd" clip-rule="evenodd" d="M26.8968 10.5739H12.4368C12.0612 10.5739 11.7578 10.2706 11.7578 9.89501C11.7578 9.51942 12.0612 9.21606 12.4368 9.21606H26.8968C27.2724 9.21606 27.5757 9.51942 27.5757 9.89501C27.5757 10.2706 27.2724 10.5739 26.8968 10.5739Z" fill="#F9A12A"/>
<path fillRule="evenodd" clip-rule="evenodd" d="M26.8968 14.2722H12.4368C12.0612 14.2722 11.7578 13.9688 11.7578 13.5932C11.7578 13.2177 12.0612 12.9143 12.4368 12.9143H26.8968C27.2724 12.9143 27.5757 13.2177 27.5757 13.5932C27.5757 13.9688 27.2724 14.2722 26.8968 14.2722Z" fill="#F9A12A"/>
<path fillRule="evenodd" clip-rule="evenodd" d="M32.9497 20.7004V63.7771H65.4667V20.7004H32.9497ZM32.2707 65.1494C32.0829 65.1494 31.9096 65.0772 31.794 64.9472C31.664 64.8172 31.5918 64.6438 31.5918 64.4705V20.0215C31.5918 19.6459 31.8952 19.3425 32.2707 19.3425H66.1601C66.5356 19.3425 66.839 19.6459 66.839 20.0215V64.4705C66.839 64.8461 66.5356 65.1494 66.1601 65.1494H32.2707Z" fill="#4D81C2"/>
<path fillRule="evenodd" clip-rule="evenodd" d="M45.7059 41.3721C45.2725 41.3721 44.9114 41.7332 44.9114 42.1666C44.9114 42.6 45.2725 42.9611 45.7059 42.9611H52.712C53.1454 42.9611 53.5065 42.6 53.5065 42.1666C53.5065 41.7332 53.1454 41.3721 52.712 41.3721H45.7059ZM52.712 44.3334H45.7059C44.5069 44.3334 43.5391 43.3656 43.5391 42.1666C43.5391 40.9676 44.5069 39.9998 45.7059 39.9998H52.712C53.911 39.9998 54.8788 40.9676 54.8788 42.1666C54.8788 43.3656 53.911 44.3334 52.712 44.3334Z" fill="#4D81C2"/>
<path fillRule="evenodd" clip-rule="evenodd" d="M47.9446 41.3721C47.569 41.3721 47.2656 41.0688 47.2656 40.6932V27.6777C47.2656 27.3021 47.569 26.9988 47.9446 26.9988C48.3201 26.9988 48.6235 27.3021 48.6235 27.6777V40.6932C48.6235 41.0688 48.3201 41.3721 47.9446 41.3721ZM50.487 41.3721C50.1114 41.3721 49.808 41.0688 49.808 40.6932V27.6777C49.808 27.3021 50.1114 26.9988 50.487 26.9988C50.8626 26.9988 51.1659 27.3021 51.1659 27.6777V40.6932C51.1659 41.0688 50.8626 41.3721 50.487 41.3721Z" fill="#4D81C2"/>
<path fillRule="evenodd" clip-rule="evenodd" d="M40.2745 25.6551C40.0722 25.6551 39.9133 25.814 39.9133 26.0163V26.6374C39.9133 26.8252 40.0722 26.9986 40.2745 26.9986H58.1581C58.3603 26.9986 58.5192 26.8397 58.5192 26.6374V26.0163C58.5192 25.8285 58.3603 25.6551 58.1581 25.6551H51.1376C50.8775 25.6551 50.632 25.4962 50.5164 25.2651C50.2853 24.7595 49.7652 24.4417 49.2163 24.4417C48.6674 24.4417 48.1473 24.7595 47.9162 25.2651C47.8006 25.5107 47.5551 25.6551 47.295 25.6551H40.2745ZM58.1581 28.3565H40.2745C39.3211 28.3565 38.541 27.5764 38.541 26.623V26.0018C38.541 25.0484 39.3211 24.2684 40.2745 24.2684H46.905C47.425 23.5172 48.2918 23.0549 49.2163 23.0549C50.1408 23.0549 51.0076 23.5172 51.5276 24.2684H58.1581C59.1115 24.2684 59.8916 25.0484 59.8916 26.0018V26.623C59.8916 27.5908 59.1115 28.3565 58.1581 28.3565Z" fill="#4D81C2"/>
<path fillRule="evenodd" clip-rule="evenodd" d="M57.0743 37.7605H55.4275C53.5785 37.7605 52.0762 36.2582 52.0762 34.4092C52.0762 34.0336 52.3795 33.7302 52.7551 33.7302C53.1307 33.7302 53.4341 34.0336 53.4341 34.4092C53.4341 35.507 54.3152 36.3882 55.4131 36.3882H57.0599C58.1578 36.3882 59.0389 35.507 59.0389 34.4092C59.0389 34.0336 59.3423 33.7302 59.7179 33.7302C60.0935 33.7302 60.3968 34.0336 60.3968 34.4092C60.4257 36.2582 58.9234 37.7605 57.0743 37.7605Z" fill="#4D81C2"/>
<path fillRule="evenodd" clip-rule="evenodd" d="M53.8959 33.7304H58.6196L56.265 29.1656L53.8959 33.7304ZM59.7319 35.1027H52.7691C52.5235 35.1027 52.3069 34.9727 52.1913 34.7705C52.0613 34.5683 52.0613 34.3082 52.1624 34.106L55.6438 27.3744C55.7594 27.1432 55.9905 26.9988 56.2505 26.9988C56.5105 26.9988 56.7417 27.1432 56.8572 27.3744L60.3386 34.106C60.4542 34.3227 60.4397 34.5683 60.3097 34.7705C60.1942 34.9727 59.9775 35.1027 59.7319 35.1027Z" fill="#4D81C2"/>
<path fillRule="evenodd" clip-rule="evenodd" d="M42.9884 37.7605H41.3416C39.4926 37.7605 37.9902 36.2582 37.9902 34.4092C37.9902 34.0336 38.2936 33.7302 38.6692 33.7302C39.0448 33.7302 39.3481 34.0336 39.3481 34.4092C39.3481 35.507 40.2293 36.3882 41.3272 36.3882H42.974C44.0718 36.3882 44.953 35.507 44.953 34.4092C44.953 34.0336 45.2564 33.7302 45.6319 33.7302C46.0075 33.7302 46.3109 34.0336 46.3109 34.4092C46.3398 36.2582 44.8374 37.7605 42.9884 37.7605Z" fill="#4D81C2"/>
<path fillRule="evenodd" clip-rule="evenodd" d="M39.8111 33.7304H44.5348L42.1802 29.1656L39.8111 33.7304ZM45.6616 35.1027H38.6988C38.4532 35.1027 38.2366 34.9727 38.121 34.7705C37.991 34.5683 37.991 34.3082 38.0921 34.106L41.5735 27.3744C41.689 27.1432 41.9202 26.9988 42.1802 26.9988C42.4402 26.9988 42.6713 27.1432 42.7869 27.3744L46.2683 34.106C46.3839 34.3227 46.3694 34.5683 46.2394 34.7705C46.1094 34.9727 45.8927 35.1027 45.6616 35.1027Z" fill="#4D81C2"/>
<path fillRule="evenodd" clip-rule="evenodd" d="M62.2321 61.4226H36.1868C35.8112 61.4226 35.5078 61.1192 35.5078 60.7436C35.5078 60.3681 35.8112 60.0647 36.1868 60.0647H62.2321C62.6077 60.0647 62.9111 60.3681 62.9111 60.7436C62.9255 61.1048 62.6077 61.4226 62.2321 61.4226Z" fill="#F9A12A"/>
<path fillRule="evenodd" clip-rule="evenodd" d="M62.2321 57.0022H36.1868C35.8112 57.0022 35.5078 56.6988 35.5078 56.3232C35.5078 55.9476 35.8112 55.6443 36.1868 55.6443H62.2321C62.6077 55.6443 62.9111 55.9476 62.9111 56.3232C62.9255 56.6988 62.6077 57.0022 62.2321 57.0022Z" fill="#F9A12A"/>
<path fillRule="evenodd" clip-rule="evenodd" d="M62.2321 52.5962H36.1868C35.8112 52.5962 35.5078 52.2928 35.5078 51.9172C35.5078 51.5416 35.8112 51.2383 36.1868 51.2383H62.2321C62.6077 51.2383 62.9111 51.5416 62.9111 51.9172C62.9255 52.2928 62.6077 52.5962 62.2321 52.5962Z" fill="#F9A12A"/>
<path fillRule="evenodd" clip-rule="evenodd" d="M62.2321 48.176H36.1868C35.8112 48.176 35.5078 47.8726 35.5078 47.4971C35.5078 47.1215 35.8112 46.8181 36.1868 46.8181H62.2321C62.6077 46.8181 62.9111 47.1215 62.9111 47.4971C62.9255 47.8726 62.6077 48.176 62.2321 48.176Z" fill="#F9A12A"/>
</svg>
