<svg width="98" height="73" viewBox="0 0 98 73" fill="none" xmlns="http://www.w3.org/2000/svg">
<path d="M28.9084 26.2102H9.50559C8.76676 26.2102 8.16211 26.8131 8.16211 27.5503V46.9017C8.16211 47.6387 8.76676 48.2418 9.50559 48.2418H28.9084C29.6473 48.2418 30.2519 47.6387 30.2519 46.9017V27.5501C30.2519 26.8131 29.6473 26.2102 28.9084 26.2102Z" fill="#FBC481"/>
<path d="M39.9534 4.17871H20.5505C19.8117 4.17871 19.207 4.78156 19.207 5.51876V24.8702C19.207 25.6072 19.8117 26.2103 20.5505 26.2103H39.9534C40.6922 26.2103 41.2968 25.6072 41.2968 24.8702V5.51876C41.2968 4.78156 40.6922 4.17871 39.9534 4.17871Z" fill="#FBC481"/>
<path d="M50.9983 26.2102H31.5954C30.8566 26.2102 30.252 26.8131 30.252 27.5503V46.9017C30.252 47.6387 30.8566 48.2418 31.5954 48.2418H50.9983C51.7371 48.2418 52.3418 47.6387 52.3418 46.9017V27.5501C52.3418 26.8131 51.7373 26.2102 50.9983 26.2102Z" fill="#FBC481"/>
<path d="M13.0405 46.9015V27.55C13.0405 26.813 13.6451 26.21 14.384 26.21H9.50559C8.76676 26.21 8.16211 26.813 8.16211 27.55V46.9015C8.16211 47.6385 8.76676 48.2415 9.50559 48.2415H14.3842C13.6451 48.2415 13.0405 47.6387 13.0405 46.9015Z" fill="#DD9973"/>
<path d="M24.0856 24.8702V5.51851C24.0856 4.78151 24.6902 4.17847 25.4291 4.17847H20.5505C19.8117 4.17847 19.207 4.78151 19.207 5.51851V24.8702C19.207 25.6072 19.8117 26.2102 20.5505 26.2102H25.4291C24.6902 26.2102 24.0856 25.6072 24.0856 24.8702Z" fill="#DD9973"/>
<path d="M35.1305 46.9015V27.55C35.1305 26.813 35.7352 26.21 36.474 26.21H31.5954C30.8566 26.21 30.252 26.813 30.252 27.55V46.9015C30.252 47.6385 30.8566 48.2415 31.5954 48.2415H36.474C35.735 48.2415 35.1305 47.6387 35.1305 46.9015Z" fill="#DD9973"/>
<path d="M15.6035 26.2102V32.9602C15.6035 33.2007 15.8007 33.3974 16.0416 33.3974H22.3714C22.6124 33.3974 22.8096 33.2007 22.8096 32.9602V26.2102H15.6035Z" fill="#D6865F"/>
<path d="M37.6934 26.2102V32.9602C37.6934 33.2007 37.8905 33.3974 38.1315 33.3974H44.4613C44.7023 33.3974 44.8994 33.2007 44.8994 32.9602V26.2102H37.6934Z" fill="#D6865F"/>
<path d="M26.6484 4.17871V10.9287C26.6484 11.1692 26.8456 11.366 27.0866 11.366H33.4164C33.6573 11.366 33.8545 11.1692 33.8545 10.9287V4.17871H26.6484Z" fill="#D6865F"/>
<path d="M19.2065 32.9602V26.2102H15.6035V32.9602C15.6035 33.2007 15.8007 33.3974 16.0416 33.3974H19.6447C19.4037 33.3973 19.2065 33.2007 19.2065 32.9602Z" fill="#B97359"/>
<path d="M41.2964 32.9602V26.2102H37.6934V32.9602C37.6934 33.2007 37.8905 33.3974 38.1315 33.3974H41.7345C41.4937 33.3973 41.2964 33.2007 41.2964 32.9602Z" fill="#B97359"/>
<path d="M30.2515 10.9287V4.17871H26.6484V10.9287C26.6484 11.1692 26.8456 11.366 27.0866 11.366H30.6896C30.4486 11.366 30.2515 11.1692 30.2515 10.9287Z" fill="#B97359"/>
<path d="M2.99341 48.2268C2.46111 48.2268 2.0293 48.6571 2.0293 49.188V54.5692H7.89111C9.45816 52.1002 12.2194 50.4594 15.3669 50.4594C18.5144 50.4594 21.2756 52.1002 22.8426 54.5692H59.2992V48.2268H2.99341Z" fill="#477B9E"/>
<path d="M10.1796 49.188C10.1796 48.6571 10.6112 48.2268 11.1435 48.2268H2.99322C2.46092 48.2268 2.0293 48.6571 2.0293 49.188V54.5694H7.89111C8.4927 53.6215 9.27173 52.7973 10.1796 52.1395V49.188Z" fill="#3F6D8E"/>
<path d="M1.97034 54.176C0.882191 54.176 0 55.0516 0 56.1315V60.5728C0 61.6528 0.882191 62.5283 1.97034 62.5283H58.9778V54.176C58.269 54.176 2.85253 54.176 1.97034 54.176Z" fill="#DBEDFF"/>
<path d="M0 56.7898V60.5727C0 61.6527 0.882191 62.5282 1.97034 62.5282H58.9778V58.7453C58.0818 58.7453 2.85291 58.7453 1.97034 58.7453C0.882191 58.7451 0 57.8697 0 56.7898Z" fill="#B5DCFF"/>
<path d="M93.7929 35.3178L81.974 23.6931C81.2555 22.9865 80.2867 22.5901 79.2775 22.5901H61.2003C59.8233 22.5901 58.707 23.703 58.707 25.0759V62.5283H64.7515L66.2904 61.3043L70.1587 56.455H93.8961L95.2078 55.2367V38.6905C95.2076 37.423 94.6981 36.2081 93.7929 35.3178Z" fill="#FFE07D"/>
<path d="M65.653 25.0757C65.653 23.7028 66.7693 22.5898 68.1462 22.5898H61.2003C59.8233 22.5898 58.707 23.7028 58.707 25.0757V62.5281H64.7515L65.6532 61.8109V25.0757H65.653Z" fill="#FFD064"/>
<path d="M88.8047 38.7921L78.8083 28.9599C78.5451 28.7009 78.1903 28.5559 77.8205 28.5559H66.9945C66.2176 28.5559 65.5879 29.1838 65.5879 29.9584V37.4943C65.5879 38.2689 66.2176 38.8967 66.9945 38.8967H77.434C77.7697 38.8967 78.0944 39.0164 78.3493 39.2341L83.9418 44.0113C84.1968 44.229 84.5214 44.3487 84.8571 44.3487H87.8169C88.5938 44.3487 89.2235 43.7208 89.2235 42.9462V39.7906C89.2235 39.4154 89.0727 39.0557 88.8047 38.7921Z" fill="#7FB3FA"/>
<path d="M71.943 37.4943V29.9584C71.943 29.1838 72.5727 28.5559 73.3496 28.5559H66.9945C66.2176 28.5559 65.5879 29.1838 65.5879 29.9584V37.4943C65.5879 38.2689 66.2176 38.8967 66.9945 38.8967H73.3496C72.5727 38.8967 71.943 38.2687 71.943 37.4943Z" fill="#64A6F4"/>
<path d="M68.6803 44.8458H66.7522C65.9355 44.8458 65.2734 44.1857 65.2734 43.3714C65.2734 42.5571 65.9355 41.897 66.7522 41.897H68.6803C69.497 41.897 70.1591 42.5571 70.1591 43.3714C70.1591 44.1857 69.497 44.8458 68.6803 44.8458Z" fill="#FFD064"/>
<path d="M15.366 67.6986C20.2496 67.6986 24.2086 63.7514 24.2086 58.8824C24.2086 54.0133 20.2496 50.0662 15.366 50.0662C10.4824 50.0662 6.52344 54.0133 6.52344 58.8824C6.52344 63.7514 10.4824 67.6986 15.366 67.6986Z" fill="#695D67"/>
<path d="M12.1083 58.8824C12.1083 54.9867 14.6438 51.6833 18.1585 50.5175C17.2803 50.2263 16.3422 50.0662 15.366 50.0662C10.4825 50.0662 6.52344 54.0134 6.52344 58.8824C6.52344 63.7513 10.4825 67.6986 15.366 67.6986C16.3422 67.6986 17.2805 67.5385 18.1585 67.2473C14.6438 66.0814 12.1083 62.7781 12.1083 58.8824Z" fill="#544E55"/>
<path d="M15.3671 62.1303C17.1663 62.1303 18.6248 60.6761 18.6248 58.8823C18.6248 57.0885 17.1663 55.6343 15.3671 55.6343C13.5679 55.6343 12.1094 57.0885 12.1094 58.8823C12.1094 60.6761 13.5679 62.1303 15.3671 62.1303Z" fill="#FFE07D"/>
<path d="M15.1903 58.8823C15.1903 57.6442 15.8854 56.5684 16.9075 56.0203C16.4487 55.7743 15.9245 55.6343 15.3671 55.6343C13.5679 55.6343 12.1094 57.0886 12.1094 58.8823C12.1094 60.6761 13.5679 62.1303 15.3671 62.1303C15.9245 62.1303 16.4489 61.9902 16.9075 61.7443C15.8854 61.1962 15.1903 60.1204 15.1903 58.8823Z" fill="#FFD064"/>
<path d="M96.0059 55.2366H79.4727C79.9799 56.348 80.2647 57.5817 80.2647 58.8823C80.2647 60.1828 79.9799 61.4166 79.4727 62.528H96.0059C97.1029 62.528 98.0006 61.6332 98.0006 60.5393V57.2249C98.0006 56.1314 97.1031 55.2366 96.0059 55.2366Z" fill="#DBEDFF"/>
<path d="M96.0059 58.7453H80.2611C80.2618 58.7911 80.2647 58.8363 80.2647 58.8825C80.2647 60.1832 79.9799 61.4168 79.4727 62.5282H96.0059C97.1029 62.5282 98.0006 61.6334 98.0006 60.5395V57.2251C98.0006 57.1457 97.9945 57.0678 97.9853 56.9907C97.868 57.9752 97.0235 58.7453 96.0059 58.7453Z" fill="#B5DCFF"/>
<path d="M72.8016 67.6986C77.6852 67.6986 81.6442 63.7514 81.6442 58.8824C81.6442 54.0133 77.6852 50.0662 72.8016 50.0662C67.9179 50.0662 63.959 54.0133 63.959 58.8824C63.959 63.7514 67.9179 67.6986 72.8016 67.6986Z" fill="#695D67"/>
<path d="M69.5438 58.8824C69.5438 54.9867 72.0794 51.6833 75.594 50.5175C74.7158 50.2263 73.7777 50.0662 72.8016 50.0662C67.918 50.0662 63.959 54.0134 63.959 58.8824C63.959 63.7513 67.918 67.6986 72.8016 67.6986C73.7777 67.6986 74.716 67.5385 75.594 67.2473C72.0792 66.0814 69.5438 62.7781 69.5438 58.8824Z" fill="#544E55"/>
<path d="M72.8027 62.1303C74.6019 62.1303 76.0604 60.6761 76.0604 58.8823C76.0604 57.0885 74.6019 55.6343 72.8027 55.6343C71.0035 55.6343 69.5449 57.0885 69.5449 58.8823C69.5449 60.6761 71.0035 62.1303 72.8027 62.1303Z" fill="#FFE07D"/>
<path d="M72.6258 58.8823C72.6258 57.6442 73.321 56.5684 74.3431 56.0203C73.8843 55.7743 73.36 55.6343 72.8027 55.6343C71.0034 55.6343 69.5449 57.0886 69.5449 58.8823C69.5449 60.6761 71.0034 62.1303 72.8027 62.1303C73.36 62.1303 73.8845 61.9902 74.3431 61.7443C73.321 61.1962 72.6258 60.1204 72.6258 58.8823Z" fill="#FFD064"/>
</svg>
