<svg width="83" height="83" viewBox="0 0 83 83" fill="none" xmlns="http://www.w3.org/2000/svg">
<path d="M38.9062 23.3438H44.0938V58.3594H38.9062V23.3438Z" fill="#E09C51"/>
<path d="M18.1562 54.4688H64.8438V59.6562H18.1562V54.4688Z" fill="#9D6131"/>
<path d="M22.0469 80.4062H14.2656V46.6875L22.0469 40.2031V80.4062Z" fill="#E09C51"/>
<path d="M68.7344 80.4062H60.9531V42.7969L68.7344 47.9844V80.4062Z" fill="#E09C51"/>
<path d="M67.4375 45.3906L54.4688 36.3125V2.59375H67.4375V45.3906Z" fill="#BA3A20"/>
<path d="M2.59375 66.1406L41.5 27.2344L80.4062 66.1406V55.7656L41.5 16.8594L2.59375 55.7656V66.1406Z" fill="#822510"/>
<path d="M57.0625 15.1501C57.0646 19.3866 57.9945 23.5712 59.7869 27.4099C61.5793 31.2485 64.1907 34.648 67.4375 37.3695V2.59375H57.0625V15.1501Z" fill="#DB432A"/>
<path d="M50.5781 11.6719H71.3281V16.8594H50.5781V11.6719Z" fill="#822510"/>
</svg>
