<svg width="64" height="64" viewBox="0 0 64 64" fill="none" xmlns="http://www.w3.org/2000/svg">
<path d="M56.9007 47.32C56.592 45.5154 55.7402 43.8479 54.4591 42.54C53.178 41.2321 51.5285 40.346 49.7307 40L37.0007 37.5V35.25C37.0007 34.9848 36.8954 34.7304 36.7078 34.5429C36.5203 34.3554 36.2659 34.25 36.0007 34.25H28.0007C27.7355 34.25 27.4811 34.3554 27.2936 34.5429C27.1061 34.7304 27.0007 34.9848 27.0007 35.25V37.5L14.2707 40C12.4729 40.346 10.8234 41.2321 9.54232 42.54C8.26122 43.8479 7.40947 45.5154 7.10072 47.32L5.00072 59.84C4.97785 59.9836 4.98659 60.1305 5.02631 60.2704C5.06603 60.4103 5.13579 60.5398 5.23072 60.65C5.3257 60.7611 5.44386 60.8499 5.57689 60.9104C5.70993 60.9709 5.8546 61.0015 6.00072 61H58.0007C58.1452 61 58.2879 60.9687 58.4191 60.9083C58.5503 60.8479 58.6668 60.7598 58.7607 60.65C58.8556 60.5398 58.9254 60.4103 58.9651 60.2704C59.0049 60.1305 59.0136 59.9836 58.9907 59.84L56.9007 47.32Z" fill="url(#paint0_linear_2652_4764)"/>
<path d="M24.9992 38.93C24.9771 38.7974 24.9285 38.6706 24.8564 38.5572C24.7842 38.4438 24.6899 38.3461 24.5792 38.27C24.4712 38.1907 24.3475 38.1354 24.2165 38.1078C24.0854 38.0802 23.9499 38.081 23.8192 38.11L14.2692 40C12.4743 40.3526 10.8284 41.2408 9.54844 42.5475C8.26847 43.8543 7.41453 45.5182 7.09917 47.32L4.99917 59.83C4.9781 59.9751 4.98768 60.1231 5.0273 60.2643C5.06691 60.4056 5.13568 60.5369 5.22917 60.65C5.32414 60.761 5.44231 60.8499 5.57534 60.9104C5.70837 60.9709 5.85304 61.0014 5.99917 61H27.4192C27.5636 61 27.7063 60.9687 27.8375 60.9083C27.9687 60.8479 28.0853 60.7597 28.1792 60.65C28.2741 60.5398 28.3439 60.4103 28.3836 60.2704C28.4233 60.1305 28.432 59.9836 28.4092 59.84L24.9992 38.93Z" fill="url(#paint1_linear_2652_4764)"/>
<path d="M56.9006 47.32C56.5852 45.5182 55.7313 43.8543 54.4513 42.5476C53.1713 41.2408 51.5254 40.3526 49.7306 40L40.1806 38.15C40.0498 38.1204 39.9142 38.1193 39.7831 38.1469C39.6519 38.1745 39.5282 38.2302 39.4206 38.31C39.3098 38.3862 39.2155 38.4839 39.1433 38.5973C39.0712 38.7107 39.0226 38.8374 39.0006 38.97L35.5906 59.84C35.5677 59.9837 35.5764 60.1305 35.6162 60.2704C35.6559 60.4103 35.7256 60.5399 35.8206 60.65C35.9145 60.7598 36.031 60.8479 36.1622 60.9083C36.2934 60.9688 36.4361 61 36.5806 61H58.0006C58.145 61 58.2877 60.9688 58.4189 60.9083C58.5501 60.8479 58.6667 60.7598 58.7606 60.65C58.854 60.537 58.9228 60.4056 58.9624 60.2644C59.002 60.1232 59.0116 59.9752 58.9906 59.83L56.9006 47.32Z" fill="url(#paint2_linear_2652_4764)"/>
<path d="M40.1108 38.0899C39.9752 38.0603 39.835 38.0592 39.699 38.0868C39.563 38.1143 39.4342 38.1699 39.3208 38.2499L31.8208 43.5599L24.7008 38.2699C24.5687 38.1852 24.4212 38.1275 24.2668 38.1001C24.1123 38.0726 23.954 38.0759 23.8008 38.1099C23.5454 38.1587 23.3191 38.3049 23.1697 38.5178C23.0204 38.7306 22.9598 38.9932 23.0008 39.2499L26.4108 60.1599C26.4491 60.3965 26.5712 60.6115 26.7547 60.7657C26.9383 60.9199 27.1711 61.003 27.4108 60.9999H36.5708C36.8105 61.003 37.0433 60.9199 37.2269 60.7657C37.4104 60.6115 37.5325 60.3965 37.5708 60.1599L41.0008 39.2499C41.0181 38.9816 40.9375 38.716 40.7738 38.5027C40.6101 38.2893 40.3745 38.1427 40.1108 38.0899Z" fill="url(#paint3_linear_2652_4764)"/>
<path d="M48.0001 47.14V43.77C47.9974 41.1796 46.9672 38.6961 45.1356 36.8645C43.3039 35.0328 40.8204 34.0026 38.2301 34H25.7701C23.1797 34.0026 20.6962 35.0328 18.8645 36.8645C17.0329 38.6961 16.0027 41.1796 16.0001 43.77V44.1C14.9774 44.3026 14.0391 44.8074 13.3064 45.549C12.5737 46.2906 12.0803 47.235 11.8901 48.26L10.8901 53.46C10.8115 53.8926 10.829 54.3372 10.9413 54.7623C11.0537 55.1874 11.2581 55.5826 11.5401 55.92C11.8275 56.2652 12.1888 56.5415 12.5972 56.7284C13.0057 56.9153 13.4509 57.0082 13.9001 57H15.0001V55H13.9001C13.7531 55.0002 13.608 54.9681 13.4749 54.9059C13.3418 54.8437 13.2241 54.7529 13.1301 54.64C13.0355 54.5278 12.9667 54.3962 12.9287 54.2545C12.8907 54.1128 12.8843 53.9645 12.9101 53.82L13.8601 48.62C13.9921 47.8833 14.3789 47.2164 14.9529 46.7361C15.527 46.2558 16.2516 45.9926 17.0001 45.9926C17.7485 45.9926 18.4732 46.2558 19.0472 46.7361C19.6212 47.2164 20.0081 47.8833 20.1401 48.62L21.0901 53.82C21.1158 53.9645 21.1094 54.1128 21.0714 54.2545C21.0334 54.3962 20.9646 54.5278 20.8701 54.64C20.776 54.7529 20.6583 54.8437 20.5252 54.9059C20.3921 54.9681 20.247 55.0002 20.1001 55H19.0001V57H20.1001C20.5408 57.0007 20.9763 56.9043 21.3755 56.7177C21.7748 56.531 22.128 56.2586 22.4101 55.92C22.6921 55.5826 22.8965 55.1874 23.0088 54.7623C23.1211 54.3372 23.1386 53.8926 23.0601 53.46L22.1101 48.26C21.9198 47.235 21.4265 46.2906 20.6938 45.549C19.9611 44.8074 19.0227 44.3026 18.0001 44.1V43.77C18.0001 41.7093 18.8187 39.7329 20.2758 38.2758C21.733 36.8186 23.7093 36 25.7701 36H38.2301C40.2908 36 42.2671 36.8186 43.7243 38.2758C45.1814 39.7329 46.0001 41.7093 46.0001 43.77V47.14C45.0574 47.3834 44.2359 47.9622 43.6895 48.768C43.143 49.5738 42.9093 50.5512 43.0319 51.517C43.1546 52.4828 43.6253 53.3707 44.3558 54.0143C45.0863 54.6579 46.0265 55.013 47.0001 55.013C47.9736 55.013 48.9138 54.6579 49.6443 54.0143C50.3748 53.3707 50.8455 52.4828 50.9682 51.517C51.0909 50.5512 50.8571 49.5738 50.3107 48.768C49.7642 47.9622 48.9427 47.3834 48.0001 47.14Z" fill="url(#paint4_linear_2652_4764)"/>
<path d="M21 16C19.6739 16 18.4021 16.5268 17.4645 17.4645C16.5268 18.4021 16 19.6739 16 21C16 22.3261 16.5268 23.5979 17.4645 24.5355C18.4021 25.4732 19.6739 26 21 26C21.2652 26 21.5196 25.8946 21.7071 25.7071C21.8946 25.5196 22 25.2652 22 25V17C22 16.7348 21.8946 16.4804 21.7071 16.2929C21.5196 16.1054 21.2652 16 21 16Z" fill="url(#paint5_linear_2652_4764)"/>
<path d="M43 16C42.7348 16 42.4804 16.1054 42.2929 16.2929C42.1054 16.4804 42 16.7348 42 17V25C42 25.2652 42.1054 25.5196 42.2929 25.7071C42.4804 25.8946 42.7348 26 43 26C44.3261 26 45.5979 25.4732 46.5355 24.5355C47.4732 23.5979 48 22.3261 48 21C48 19.6739 47.4732 18.4021 46.5355 17.4645C45.5979 16.5268 44.3261 16 43 16Z" fill="url(#paint6_linear_2652_4764)"/>
<path d="M37.9098 37.67L36.9998 37.5V35.25C36.9998 34.9848 36.8945 34.7304 36.707 34.5429C36.5194 34.3554 36.2651 34.25 35.9998 34.25H27.9998C27.7346 34.25 27.4803 34.3554 27.2927 34.5429C27.1052 34.7304 26.9998 34.9848 26.9998 35.25V37.5L26.0898 37.67C27.9371 38.5454 29.9557 38.9996 31.9998 38.9996C34.044 38.9996 36.0626 38.5454 37.9098 37.67Z" fill="#E57E70"/>
<path d="M43.0005 11.3199L21.0005 10.8899C20.7338 10.8985 20.4787 11.0012 20.2805 11.1799C20.186 11.2725 20.1108 11.383 20.0593 11.5048C20.0078 11.6267 19.981 11.7576 19.9805 11.8899V24.9999C19.9805 28.1825 21.2448 31.2347 23.4952 33.4852C25.7456 35.7356 28.7979 36.9999 31.9805 36.9999C35.1631 36.9999 38.2153 35.7356 40.4658 33.4852C42.7162 31.2347 43.9805 28.1825 43.9805 24.9999V12.3199C43.9805 12.0581 43.8779 11.8067 43.6947 11.6198C43.5114 11.4328 43.2622 11.3251 43.0005 11.3199Z" fill="url(#paint7_linear_2652_4764)"/>
<path d="M44.7093 6.29C42.3793 4 38.8793 4.49 37.3793 4.85C36.6593 4.09 35.0993 3 31.9993 3C27.6493 3 20.3793 3 18.1093 7.55C15.9593 11.84 17.4693 17.87 17.5393 18.12C17.5721 18.2548 17.6326 18.3814 17.7169 18.4916C17.8013 18.6017 17.9077 18.6932 18.0293 18.76C18.1526 18.8261 18.2884 18.8656 18.4279 18.8759C18.5674 18.8863 18.7076 18.8672 18.8393 18.82L19.9993 18.41V19C19.9993 19.2652 20.1046 19.5196 20.2922 19.7071C20.4797 19.8946 20.734 20 20.9993 20C24.1058 19.9915 27.2028 19.6563 30.2393 19C32.3094 18.4747 34.1992 17.4003 35.7093 15.89C37.7093 19.17 42.5293 20.28 42.7693 20.33H42.9793C43.2083 20.331 43.4306 20.2533 43.6093 20.11C43.7253 20.0159 43.8187 19.897 43.8828 19.762C43.9468 19.627 43.9798 19.4794 43.9793 19.33V18.33L45.2893 18C45.4499 17.9506 45.5956 17.8614 45.7127 17.7408C45.8298 17.6202 45.9146 17.4721 45.9593 17.31C46.0493 17 48.0793 9.67 44.7093 6.29Z" fill="url(#paint8_linear_2652_4764)"/>
<defs>
<linearGradient id="paint0_linear_2652_4764" x1="32.0007" y1="34.24" x2="32.0007" y2="61" gradientUnits="userSpaceOnUse">
<stop stop-color="#F4B7A4"/>
<stop offset="1" stop-color="#F7907F"/>
</linearGradient>
<linearGradient id="paint1_linear_2652_4764" x1="16.7092" y1="38.09" x2="16.7092" y2="61" gradientUnits="userSpaceOnUse">
<stop stop-color="#D6D6D6"/>
<stop offset="1" stop-color="#A1A1A1"/>
</linearGradient>
<linearGradient id="paint2_linear_2652_4764" x1="47.2906" y1="38.09" x2="47.2906" y2="3.83255e-05" gradientUnits="userSpaceOnUse">
<stop stop-color="#D6D6D6"/>
<stop offset="1" stop-color="#A1A1A1"/>
</linearGradient>
<linearGradient id="paint3_linear_2652_4764" x1="32.0008" y1="60.9999" x2="32.0008" y2="38.0699" gradientUnits="userSpaceOnUse">
<stop stop-color="#1174AC"/>
<stop offset="1" stop-color="#42BFFF"/>
</linearGradient>
<linearGradient id="paint4_linear_2652_4764" x1="30.9501" y1="57" x2="30.9501" y2="34" gradientUnits="userSpaceOnUse">
<stop stop-color="#002237"/>
<stop offset="1" stop-color="#003352"/>
</linearGradient>
<linearGradient id="paint5_linear_2652_4764" x1="19" y1="16" x2="19" y2="26" gradientUnits="userSpaceOnUse">
<stop stop-color="#F4B7A4"/>
<stop offset="1" stop-color="#F7907F"/>
</linearGradient>
<linearGradient id="paint6_linear_2652_4764" x1="45" y1="16" x2="45" y2="26" gradientUnits="userSpaceOnUse">
<stop stop-color="#F4B7A4"/>
<stop offset="1" stop-color="#F7907F"/>
</linearGradient>
<linearGradient id="paint7_linear_2652_4764" x1="32.0005" y1="10.8899" x2="32.0005" y2="36.9999" gradientUnits="userSpaceOnUse">
<stop stop-color="#F4B7A4"/>
<stop offset="1" stop-color="#F7907F"/>
</linearGradient>
<linearGradient id="paint8_linear_2652_4764" x1="31.7993" y1="20.32" x2="31.7993" y2="3" gradientUnits="userSpaceOnUse">
<stop stop-color="#002237"/>
<stop offset="1" stop-color="#003352"/>
</linearGradient>
</defs>
</svg>
