<svg width="72" height="72" viewBox="0 0 72 72" fill="none" xmlns="http://www.w3.org/2000/svg">
<path d="M45.5993 68.4001H11.9992L7.19922 31.2002H50.3992L45.5993 68.4001Z" fill="#4398D1"/>
<path d="M53.9996 26.3999H3.59961V31.1999H53.9996V26.3999Z" fill="#4398D1"/>
<path d="M7.19922 31.2002L7.81839 36.0001H49.7801L50.3992 31.2002H7.19922Z" fill="#398CC4"/>
<path d="M26.3995 26.4H9.59961V15.6L14.3996 9.6001H21.5996L26.3995 15.6V26.4Z" fill="#726891"/>
<path d="M21.6004 1.2002H14.4004V9.60015H21.6004V1.2002Z" fill="#E8594A"/>
<path d="M26.3997 15.6001H9.59961V26.4001H26.3997V15.6001Z" fill="#7A709C"/>
<path d="M48.1262 16.1358L50.2734 15.064L45.3753 5.25123L43.2281 6.32303L48.1262 16.1358Z" fill="#E66712"/>
<path d="M52.8 1.2002H48V6.00015H52.8V1.2002Z" fill="#F77219"/>
<path d="M41.9992 10.8002H31.1992C31.1992 5.49868 35.4976 1.2002 40.7993 1.2002H47.9993V6.00015L41.9992 10.8002Z" fill="#F77219"/>
<path d="M42.0008 10.7998H34.8008V15.5998H42.0008V10.7998Z" fill="#D4D4D4"/>
<path d="M34.7992 15.6001H41.9992L47.9991 21.6001V26.4001H31.1992V19.2001L34.7992 15.6001Z" fill="#EBEBEB"/>
<path d="M62.3996 51.6001H60.5204C59.3888 51.6001 58.2728 51.8641 57.26 52.3693C55.208 53.3966 52.7912 53.3966 50.7392 52.3693C49.7264 51.8642 48.6104 51.6001 47.4788 51.6001H45.5997C42.2864 51.6001 39.5996 54.2869 39.5996 57.6001V64.8001C39.5996 68.1134 42.2864 70.8002 45.5997 70.8002H47.4788C48.6104 70.8002 49.7264 70.5362 50.7392 70.031C52.7912 69.0037 55.208 69.0037 57.26 70.031C58.2728 70.5362 59.3888 70.8002 60.5204 70.8002H62.3996C65.7128 70.8002 68.3996 68.1134 68.3996 64.8001V57.6001C68.3996 54.2869 65.7128 51.6001 62.3996 51.6001Z" fill="#F5A338"/>
<path d="M62.3996 63.6002H60.5204C59.3888 63.6002 58.2728 63.3362 57.26 62.831C55.208 61.8037 52.7912 61.8037 50.7392 62.831C49.7264 63.3361 48.6104 63.6002 47.4788 63.6002H45.5997C42.2864 63.6002 39.5996 60.9134 39.5996 57.6001C39.5996 54.2869 42.2864 51.6001 45.5997 51.6001H47.4788C48.6104 51.6001 49.7264 51.8641 50.7392 52.3693C52.7912 53.3966 55.208 53.3966 57.26 52.3693C58.2728 51.8642 59.3888 51.6001 60.5204 51.6001H62.3996C65.7128 51.6001 68.3996 54.2869 68.3996 57.6001C68.3996 60.9134 65.7128 63.6002 62.3996 63.6002Z" fill="#F9B44D"/>
<path d="M63.6012 55.2002H61.2012V57.6002H63.6012V55.2002Z" fill="#F5A338"/>
<path d="M51.6012 55.2002H49.2012V57.6002H51.6012V55.2002Z" fill="#F5A338"/>
<path d="M46.8004 56.4004H44.4004V58.8004H46.8004V56.4004Z" fill="#F5A338"/>
<path d="M58.8004 56.4004H56.4004V58.8004H58.8004V56.4004Z" fill="#F5A338"/>
<path d="M34.7997 35.9999V26.3999H15.5996V53.9999C15.5996 55.9884 17.2112 57.5999 19.1996 57.5999H31.1996C33.188 57.5999 34.7996 55.9884 34.7996 53.9999V42L39.6715 44.436C40.9567 45.0793 42.5192 44.5584 43.1622 43.2745C43.1622 43.2732 43.1635 43.2732 43.1635 43.2721L43.1935 43.212C43.8655 41.8933 43.3399 40.2793 42.0222 39.6084C42.0174 39.606 42.0114 39.6023 42.0055 39.5999L34.7997 35.9999Z" fill="#97D3E6"/>
<path d="M42.0059 39.5999L34.8 35.9999V26.3999H33.8904C29.5344 40.7219 21.8905 49.4746 15.6504 54.5291C15.9084 56.2919 17.4192 57.5987 19.2 57.5999H31.2C33.1884 57.5999 34.8 55.9884 34.8 53.9999V42L39.672 44.436C40.9571 45.0793 42.5196 44.5584 43.1627 43.2745C43.1627 43.2732 43.164 43.2732 43.164 43.2721L43.1939 43.212C43.866 41.8933 43.3403 40.2793 42.0226 39.6084C42.0167 39.606 42.012 39.6023 42.0059 39.5999Z" fill="#8AC9DE"/>
<path d="M21.5993 45.6001H19.1992V57.6001H21.5993V45.6001Z" fill="#7DBDD1"/>
<path d="M26.4 45.6001H24V57.6001H26.4V45.6001Z" fill="#7DBDD1"/>
<path d="M31.1989 45.6001H28.7988V57.6001H31.1989V45.6001Z" fill="#7DBDD1"/>
<path d="M3.60034 32.4H6.14552L10.8099 68.5536C10.8867 69.1523 11.3967 69.6 12.0003 69.6H40.2483C41.6092 71.1252 43.5556 71.9987 45.6004 72H47.4796C48.7972 71.9987 50.0967 71.6916 51.2763 71.1037C52.9923 70.2505 55.0083 70.2505 56.7243 71.1037C57.9038 71.6916 59.2035 71.9989 60.521 72H62.4002C66.3745 71.9963 69.5965 68.7743 69.6002 64.8V57.6C69.5965 53.6257 66.3745 50.4037 62.4002 50.4H60.5211C59.2035 50.4013 57.904 50.7084 56.7244 51.2963C55.0083 52.1495 52.9923 52.1495 51.2764 51.2963C50.5924 50.9604 49.8653 50.718 49.1164 50.5763L51.4552 32.4H54.0003C54.6627 32.4 55.2003 31.8624 55.2003 31.2V26.4001C55.2003 25.7377 54.6627 25.2001 54.0003 25.2001H49.2004V21.6001C49.2004 21.2822 49.0744 20.9762 48.8488 20.7517L43.2003 15.1033V11.376L45.0196 9.92166L48.1264 16.1364L50.2745 15.0636L46.9361 8.388L48.4203 7.2H52.8004C53.4627 7.2 54.0003 6.66239 54.0003 6.00005V1.19995C54.0003 0.537609 53.4627 0 52.8004 0H40.8004C34.8388 0.00717187 30.0076 4.83834 30.0004 10.8C30.0004 11.4623 30.538 12 31.2004 12H33.6004V15.1031L30.352 18.3516C30.1264 18.576 30.0004 18.882 30.0004 19.2V25.2H27.6004V15.6C27.598 15.4512 27.5692 15.3048 27.5128 15.1667C27.4911 15.1199 27.466 15.0743 27.4384 15.0311C27.4096 14.9687 27.376 14.9075 27.3376 14.8499L22.8003 9.17986V1.19995C22.8003 0.537609 22.2627 0 21.6003 0H14.4003C13.738 0 13.2004 0.537609 13.2004 1.19995V9.18L8.66313 14.85C8.62473 14.9077 8.59113 14.9688 8.5623 15.0313C8.53473 15.0744 8.50956 15.12 8.48791 15.1668C8.43152 15.3048 8.40269 15.4512 8.4003 15.6001V25.2H3.60034C2.938 25.2 2.40039 25.7376 2.40039 26.4V31.1999C2.40039 31.8624 2.938 32.4 3.60034 32.4ZM62.4003 69.6H60.5211C59.5756 69.5987 58.6443 69.3779 57.7983 68.9567C55.4056 67.7675 52.5951 67.7675 50.2023 68.9567C49.3563 69.3779 48.4251 69.5987 47.4796 69.6H45.6004C42.9496 69.6 40.8004 67.4508 40.8004 64.8V62.952C42.1168 64.1413 43.8268 64.8 45.6004 64.8H47.4796C48.7972 64.7987 50.0967 64.4916 51.2763 63.9037C52.9923 63.0505 55.0083 63.0505 56.7243 63.9037C57.9038 64.4916 59.2035 64.7989 60.521 64.8H62.4002C64.1737 64.8 65.8837 64.1412 67.2001 62.952V64.8C67.2004 67.4508 65.0511 69.6 62.4003 69.6ZM57.7983 53.4433C58.6443 53.0221 59.5756 52.8013 60.5211 52.8H62.4003C65.0511 52.8 67.2002 54.9492 67.2002 57.6C67.2002 60.2508 65.0511 62.4 62.4003 62.4H60.5211C59.5756 62.3987 58.6443 62.1779 57.7983 61.7567C55.4056 60.5675 52.5951 60.5675 50.2023 61.7567C49.3563 62.1779 48.4251 62.3987 47.4796 62.4H45.6004C42.9496 62.4 40.8004 60.2508 40.8004 57.6C40.8004 54.9492 42.9496 52.8 45.6004 52.8H47.4796C48.4251 52.8013 49.3563 53.0221 50.2023 53.4433C52.5951 54.6313 55.4056 54.6313 57.7983 53.4433ZM46.7127 50.4H45.6004C41.626 50.4037 38.404 53.6257 38.4004 57.6V64.8C38.4028 65.6184 38.5444 66.4296 38.8204 67.2001H13.0551L8.56469 32.4H14.4003V54C14.4003 56.6508 16.5495 58.8 19.2003 58.8H31.2002C33.8512 58.8 36.0003 56.6508 36.0003 54V43.9417L39.1347 45.5089C41.0284 46.4437 43.3216 45.6661 44.2563 43.7725C44.26 43.764 44.2635 43.7569 44.2683 43.7484C44.7326 42.8268 44.8119 41.7589 44.4879 40.7784C44.1676 39.798 43.468 38.988 42.5439 38.5297L36.0003 35.2583V32.4H49.036L46.7127 50.4ZM31.2004 27.6H33.6004V36C33.598 36.4572 33.8548 36.876 34.264 37.08L41.4641 40.68C41.8156 40.8528 42.0808 41.1612 42.202 41.5332C42.3268 41.9328 42.2836 42.366 42.0821 42.7331C41.7364 43.4256 40.8954 43.7075 40.2029 43.3619C40.2017 43.3619 40.2005 43.3606 40.1993 43.3606L35.3273 40.9245C34.732 40.6342 34.0133 40.8801 33.7229 41.4754C33.6425 41.6386 33.6006 41.8186 33.6006 41.9998V54C33.6006 55.326 32.5266 56.4 31.2005 56.4V45.6H28.8003V56.4H26.4003V45.6H24.0002V56.4H21.6003V45.6H19.2003V56.4C17.8743 56.4 16.8003 55.3261 16.8003 54V27.6H31.2004ZM52.8004 30H36.0003V27.5999H52.8004V30ZM51.6003 4.79995H49.2003V2.40005H51.6003V4.79995ZM40.8003 2.40005H46.8003V5.42405L41.5791 9.60005H32.4854C33.088 5.46961 36.6267 2.40483 40.8003 2.40005ZM40.8003 12V14.4H36.0003V12H40.8003ZM32.4003 19.6968L35.2971 16.8H41.5034L46.8002 22.0968V25.2H32.4003V19.6968ZM14.9763 10.8H21.0243L23.9043 14.4H12.0963L14.9763 10.8ZM15.6003 2.40005H20.4002V8.40009H15.6003V2.40005ZM10.8003 16.8H25.2003V25.2H10.8003V16.8ZM4.8003 27.6H14.4003V30.0001H4.8003V27.6Z" fill="black"/>
<path d="M63.5993 55.2002H61.1992V57.6002H63.5993V55.2002Z" fill="black"/>
<path d="M51.5993 55.2002H49.1992V57.6002H51.5993V55.2002Z" fill="black"/>
<path d="M46.8004 56.3999H44.4004V58.8H46.8004V56.3999Z" fill="black"/>
<path d="M58.8004 56.3999H56.4004V58.8H58.8004V56.3999Z" fill="black"/>
</svg>
