<svg width="82" height="82" viewBox="0 0 82 82" fill="none" xmlns="http://www.w3.org/2000/svg">
<path fill-rule="evenodd" clip-rule="evenodd" d="M63.9744 54.9705C63.5344 54.5333 62.8318 54.5333 62.3919 54.9705L56.1853 61.1737C55.7531 61.6123 55.7531 62.322 56.1853 62.7592C56.6253 63.1961 57.3356 63.1961 57.7755 62.7592L63.9744 56.556C64.4145 56.1174 64.4145 55.4077 63.9744 54.9705ZM24.2031 54.9705C23.7707 54.5333 23.0605 54.5333 22.6206 54.9705L16.414 61.1737C15.9818 61.6123 15.9818 62.322 16.414 62.7592C16.854 63.1961 17.5643 63.1961 18.0042 62.7592L24.2031 56.556C24.643 56.1174 24.643 55.4077 24.2031 54.9705ZM62.3688 63.4157C61.9365 63.8544 61.2185 63.8544 60.7863 63.4157C60.3462 62.9785 60.3462 62.2688 60.7863 61.8302L63.9976 58.6189C64.4377 58.1816 65.1478 58.1816 65.5801 58.6189C66.02 59.0577 66.02 59.7672 65.5801 60.2044L62.3688 63.4155V63.4157ZM22.5974 63.4157C22.1651 63.8544 21.4548 63.8544 21.0148 63.4157C20.5749 62.9785 20.5749 62.2688 21.0148 61.8302L24.2261 58.6189C24.6661 58.1816 25.3764 58.1816 25.8086 58.6189C26.2486 59.0577 26.2486 59.7672 25.8086 60.2044L22.5974 63.4155V63.4157ZM36.5699 58.0937V60.2926C36.5699 60.9126 37.0716 61.4137 37.6892 61.4137C38.3144 61.4137 38.8162 60.9126 38.8162 60.2926V58.0937C38.8162 57.4741 38.3144 56.9726 37.6892 56.9726C37.0716 56.9726 36.5699 57.4741 36.5699 58.0937ZM43.1856 58.0937V60.2926C43.1856 60.9126 43.6874 61.4137 44.3049 61.4137C44.9225 61.4137 45.4243 60.9126 45.4243 60.2926V58.0937C45.4243 57.4741 44.9225 56.9726 44.3049 56.9726C43.6874 56.9726 43.1856 57.4741 43.1856 58.0937Z" fill="#2E3760"/>
<path fill-rule="evenodd" clip-rule="evenodd" d="M76.3253 74.0167H5.67562L1.76172 77.9307V80.1683H80.2391V77.9307L76.3252 74.0167H76.3253ZM78.3324 31.1941V28.3447H54.8879C53.2745 30.3723 51.2289 32.0381 48.8898 33.2024H76.3252C77.429 33.2024 78.3324 32.2974 78.3324 31.1941ZM58.7247 17.6929C58.6628 20.7485 57.8292 23.6137 56.4088 26.1027H68.1734V17.6929H58.7247ZM5.67562 33.2023H33.1033C30.7643 32.0379 28.7186 30.3723 27.113 28.3446H3.66854V31.1939C3.66854 32.2992 4.57166 33.2023 5.67562 33.2023ZM13.8274 17.6927V26.1025H25.5922C24.1717 23.6136 23.338 20.7484 23.2686 17.6927H13.8274ZM13.8274 15.4504H23.3689C23.5079 14.0569 23.8244 12.7117 24.2722 11.4338H11.8205V13.442C11.8205 14.5454 12.7236 15.4504 13.8274 15.4504ZM68.1734 15.4504C69.2773 15.4504 70.1805 14.5455 70.1805 13.442V11.4338H57.7288C58.1764 12.7117 58.4854 14.057 58.6319 15.4504H68.1734ZM76.3253 71.7741V35.4445H5.67562V71.7741H11.7896V46.5624C11.7896 45.3565 12.7777 44.3698 13.982 44.3698H29.3131V71.7741H31.5594V44.3698H39.8811V71.7741H42.1198V44.3698H50.4415V71.7741H52.6802V44.3698H68.0113C69.2155 44.3698 70.2037 45.3564 70.2037 46.5624V71.7741H76.3253Z" fill="#2E3760"/>
<path fill-rule="evenodd" clip-rule="evenodd" d="M36.2458 7.53872C38.1912 7.47786 39.3415 8.30443 41.001 8.29322C42.6607 8.30443 43.8033 7.47786 45.7564 7.53872C50.805 7.69583 49.1221 13.4357 47.7713 15.9631C47.1382 17.2796 46.9452 18.7801 47.1923 20.4633C47.3081 22.0072 47.2077 23.399 46.8912 24.6404C46.6211 25.7214 46.1347 27.2122 45.4322 27.8627C45.2083 28.0674 44.9537 28.1797 44.7144 28.1797C44.3824 28.183 44.1586 27.9892 44.035 27.7458C43.842 27.3888 43.842 26.7688 43.7495 25.739C43.6567 24.642 43.5179 23.5673 43.1937 22.4702C42.9775 21.7529 42.0976 19.0685 41.0013 19.0253C39.8975 19.0685 39.0252 21.7529 38.809 22.4702C38.4769 23.5673 38.3381 24.642 38.2454 25.739C38.1605 26.7688 38.1528 27.3888 37.9675 27.7458C37.8363 27.9892 37.6124 28.183 37.2883 28.1797C37.049 28.1797 36.7942 28.0675 36.5703 27.8627C35.8678 27.2123 35.3814 25.7214 35.1036 24.6404C34.7948 23.3988 34.6944 22.0072 34.8102 20.4633C35.0571 18.7801 34.8641 17.2796 34.2235 15.9631C32.8726 13.4358 31.1895 7.69583 36.2458 7.53872ZM41.001 32.8112C49.5313 32.8112 56.4865 25.8524 56.4865 17.3211C56.4865 8.7897 49.5313 1.83203 41.001 1.83203C32.4708 1.83203 25.5078 8.7897 25.5078 17.3212C25.5078 25.8527 32.4709 32.8114 41.001 32.8114V32.8112Z" fill="#FF695A"/>
</svg>
