<?xml version="1.0" encoding="UTF-8"?>
<svg xmlns="http://www.w3.org/2000/svg" xmlns:xlink="http://www.w3.org/1999/xlink" viewBox="0 0 473.3 445">
  <defs>
    <style>
      .cls-1 {
        fill: #002b6b;
      }

      .cls-1, .cls-2, .cls-3, .cls-4, .cls-5, .cls-6, .cls-7, .cls-8, .cls-9, .cls-10, .cls-11, .cls-12, .cls-13, .cls-14, .cls-15 {
        stroke-width: 0px;
      }

      .cls-2 {
        fill: #a4dfff;
      }

      .cls-3 {
        fill: #e6e7e8;
      }

      .cls-4 {
        fill: #0c3e87;
      }

      .cls-16 {
        isolation: isolate;
      }

      .cls-5 {
        fill: red;
      }

      .cls-6 {
        fill: none;
      }

      .cls-7 {
        fill: #175aaa;
      }

      .cls-8 {
        fill: #2671bc;
      }

      .cls-9 {
        fill: #00008b;
      }

      .cls-10 {
        fill: #fff;
      }

      .cls-11 {
        fill: #4ea9f4;
      }

      .cls-12 {
        fill: #73c3f9;
      }

      .cls-13 {
        fill: #0071e3;
      }

      .cls-17 {
        clip-path: url(#clippath);
      }

      .cls-14 {
        fill: #0057e2;
      }

      .cls-15 {
        fill: #58595b;
        mix-blend-mode: multiply;
        opacity: .5;
      }
    </style>
    <clipPath id="clippath">
      <path class="cls-6" d="M464.3,216.7c-.1-1,0-2.4-1.4-2.6-1.2-.2-2,.6-2.7,1.6-.3.4-.4.9-.6,1.3-.5,1.1-.8,2.5-2.3,2.4-1.6-.1-2-1.6-2.4-2.8-.6-1.8-.8-3.8-2.5-5.1-1.5-1.2-2.4-2.7-3.1-4.4-1.2-2.8-2.9-5.3-5.5-6.9-.8-2.3,0-5.3-2.8-6.8-3.1-1.6-3.3-2.2-2.3-7.2.4-2.5.5-5-.7-7.3-.6-1-1.4-2.2-2.3-2-3.1.6-4.4-1.5-6-3.3-3.2-2.9-2.2,1.9-4,2.1-.3-2.8-1.2-5.5-1-8.4-1.7-3.6-1.2-8.2-4.9-10.9-.4-.6-1.2-.8-1-1.8,1.1.6,1.9,2.6,3.5,1,1.5-1.6-.1-7.6-2.3-8.6-1.4.3-2.7.3-3.7-1.1-3-1.8-6.6-2.7-8.2-6.2-1.6-.4-3.1-.8-3.6-2.7-.3-1-1-1.8-2-2.3-2.5-.7-4.7-1.7-6-4.1-4.7-1.3-4.9-1.6-5-6.4,0-1.5.2-3.1-.6-4.6-1.2-.3-1.5-1-.9-2.3.6-1.3.3-2.6.1-3.8-.2-3.9-.8-7.8-1.2-11.6-.6-.7-1.4-1.1-2.2-1.5-1.8-1-3.1-2.6-2.9-4.7.2-2.2-.2-4.4-.4-6.5-.8-3.1-.7-6.2,0-9.3.3-3.1-1.5-4.9-3.8-6.5-1.8-1.2-4.1-2-4.9-4.6-1.2-4.1-4.1-4.9-7.4-2.3-.9.8-2,2.3-3,0-.8-2.8-2.1-5.5-1.4-8.5-.3-3.7.3-7.6-1.5-11.2-.1-.6-.1-1.3-.5-1.8-1.5-2.2-3.4-4.1-1.6-7.1.6-1-.7-1.6-1.6-2-2.4-1-2.8-3.1-2.8-5.4,0-1.9,0-3.9-1.7-5.3h0c-3.1-1-.6-3.8-1.5-5.4-3.4,2.4-7.9,3.8-7.9,9.1-.9.6-1.1,1.6-1.5,2.6-.8,1.8-1.7,3.5-2.9,5.1-2.6,3.1-3.4,6.7-2.5,10.6-2.1,3.6-1.4,8-3.3,11.7,0,3.4,1.3,6.7.4,10.1.1,3.7,1,7.4-1.2,10.9-.8,3-1.8,6-2.4,9.1,0,.9-.1,1.7-.5,2.5-1.3,3.7-4.2,6.4-5.8,9.9-.6,1.7-1.8,2.9-3.5,3.6-2.8,1.4-5.4,1-7.9-.8-1.3-.9-2.6-1.8-4-2.6-1.2-.7-1.8-1.4-1.8-3.1,0-2,1-2.5,2.5-2.8,1.2-.7,2.4-1.5,3.5-2.4,1.1-.9,1.3-1.9,0-2.9-.5-.3-1-.4-1.6-.5-2.1-.2-4.1,0-5.8,1.4-1.7,1.9-3.1,4.3-6.2,2.3-2.3-1-5.2-1-6.8-3.4-1.3-1.8-2.9-3.3-5-4.4-2.4-1.7-6.4-1.5-6.2-5.9-1-2.8-3.4-2.2-5.6-2.2-3.7.4-5.8-2.1-7.9-4.5-.6-.6-1.1-1.3-1.8-1.7-3.9-2.7-4-3-.7-6.6,1.6-1.3,3-2.8,3.7-4.8.2-.6.8-1,1.5-.8.4,0,.6.4.5.8-.6,3.7,2.5,3.1,4.5,3.8.5,0,.9.1,1.4.2,1.2.2,2.4.7,3.3-.4.9-1.2,0-2.2-.8-3.1-1-1.2.2-2.2.3-3.3,0-.7-.1-1.4-.8-1.7-1.4-.5-2.8-1.5-4.5-.8-.8.3-1.7.6-1.9-.7-.1-.9-.6-1.9.6-2.5,1.3-.7,2.5-1.5,3.4-2.6.2-.3.3-.6.5-.9.6-2.2.5-4.6,2.5-6.2,2.2-1.9,2.2-3.8.1-5.8-1.9-.6-3.5-1.6-4.1-3.7-1.5-.8-2.7,0-4,.8-1.2.7-2.4,1.5-3.7,2.1-.2,0-.3-.2,0-.5,0,0,0-.2,0-.3-.1-1.1.5-2.5-1.2-2.9-.7,0-1.3.4-1.8.8-2.7,2.3-5.4,3.7-8.7,1.1-.6-.4-1.3-.6-2-.7-3.8.5-7.6.7-10.6-2.3-2.2-.5-6.3,2.3-5.6-3.5-1.5,1-2.9,3.7-4.5.7-1.3-2.3-2.7-2.7-4.9-.7-.2-2.3-.4-4.1-.7-6.7-1.9,2.5-3.7,3.7-6.2,2.9-2.1.1-4.2.2-4.4,3,.5,1.7,1.6,2.7,3.1,3.4,1.8.2,4.1-.8,4.7,1.9.6,2.6-2.1,2.6-3.3,3.9-.1.1-.5,0-.7.1-2.9,0-5.9.6-8.5-1.3-1.5,0-2.9-.4-4.4-.4-2,2.2-3.7,4.7-7,5-2.5,3.1-6,5.5-6.4,9.9-.6,2.6-3.6,4-3.6,7,0,.4-.3,1-.8,1.2-1.9,1.1-3,2.6-3.7,4.7-.8,2.4,1.2,3.6,2,5.4-3.1,1.4-5.9.5-8.7,0-1.3,0-2.6,0-3.9.6,0,0,0,.8-.6,0-2.6-3.1-5.8-5.7-8.3-9-.4-.4-.8-.7-1.2-1-3.1-1.5-6.2-3.5-9.9-2.8-2.7.9-5.1,3-8.2,1.5-.3-.1-.7.2-1,.4-1,1.3-.5,4.5-3.8,3.3-.5-.2-1.1.8-1.5,1.4-.6.8-1.1,1.6-2.2,1.5-2.8,0-3.7,1.7-3.7,4.2.6,2.2-.7,2.1-2.2,1.9-2.1-.3-3.5,0-2.2,2.7.8,1.8-.5.9-1.1.9-2.9,0-4.6,1.9-3.6,4,.4.8.7,1.5.7,2.4-.5,2.1,1.7,4.7,0,6-1.7,1.3-4.1-.6-6.1-1-1-.2-2.1-.3-3.1-.3-3,0-3.3.5-2.1,3.5.3.2.8.5.7.8,0,0,0,0,0,0,0-.3-.3-.5-.6-.7-1-.5-2.1-.7-3.2-.5-2.9.4-3.7,2.8-4.9,4.9-.7,1.4-1.8,2.6-3.2,3.4-1.7,1-3,2.4-3.6,4.4-.2,3.2-1.2,6.8.4,9.5,1.4,2.5,0,2.8-1.3,3.6-.4.3-.9.6-1.3.9-2.4,2-4.2,4.3-5,7.3-.9,3.1-2.9,5.5-5.6,7.3-2.9,2-6.2,3.2-9.6,4.2-2.3,1-4.7,1.9-7.3,1.8-1.9,0-3.9-.2-5.6,1-2.5,2.9-6,3.7-9.5,4.5-1,.3-2.2.6-2.9,1.4-2.4,3.2-5.7,3.1-9.1,2.7q-3.6-2.6-8.1,0c0,2.2-1.8,3-3.1,4.1-3,2.7-5.3,6.3-9.2,7.9-4.3,2.6-8.7,5.2-10.5,10.4-2.2,1-1.3-.9-1.4-1.6-.2-1.1.4-2.7-1.1-3.1-1.7-.5-2.6,1-3.4,2.2-1.5,2.4-1.6,5.3-2.5,7.9-.3,1.9-.4,3.7.5,5.4,1.2,2.1.9,4.3.5,6.5-.1.3-.2.7-.3,1-.8,2.2-1.6,4.4-2.1,6.6-.7,3.5,0,6.8,2.1,9.7,2.1,4.7,5.4,8.5,8.3,12.7-.2,0-.3,0-.5,0-1.7,1-1.7-.3-2.3-1-1-1.2-1.5-3.6-3.6-2.9-1.7.6-1.1,2.7-1.1,4.2,0,.5,0-.1,0,.4,0,.4,0,1.2-.7.5-.8-.9-1.1-2.1-1.8-3.1-.7-.8-1.4-1.6-2.6-1.4-.6.4-.9,1.1-1.1,1.8-.2,2.1,1.3,3.5,2.2,5.1,1.1,1.5,1.9,3.2,3,4.7,1,1.3,2.3,2.2,3.3,3.4,3,3.6,7.1,6.5,7.8,11.6.5,3.3,1.8,6,4.1,8.3,2.2,1.4,2.4,4,3.6,5.9,1.5,1.6,3,3.2,3.7,5.3,1.1,3.5.7,7.3,2,10.8,1.8,3.3,2.6,7.1,5.1,10.1,1.3,1.8,2.7,3.7,3.7,5.7,1.2,2.4,2.9,4.7,2.1,7.7,0,1.9.5,3.7.4,5.6,0,2,.4,3.9.6,5.8.3,2.6,0,4.9-3.2,5.5-1.5.3-2.2,1.4-2.4,2.8,0,.8,0,1.7,0,2.5.4,4.8,1.9,6.4,6.7,7.3,1.4.2,2.5.9,3.5,1.7,3,2.4,6.5,3.7,10.2,4.3,3.8.2,7.5.2,11.3,0,2.9-.4,5.7-1.3,7.9-3.3.2-1.9,1.5-3.1,2.9-4.1,1.2-1.6,2.9-2,4.7-2.2,1.4-.2,3.3-.4,3.6-2,.7-4.4,3.8-5.1,7.3-5.6,1.5-.2,3-.7,4.5-1.3,4.4-.3,8.9-1.6,13,1.2,3.5-2.1,7.1-2.1,10.8-.8,4.1-2.1,8.6-3.7,9.7-9.1.6-3,2.7-5,5.9-5.7,2.4-.5,4.4-2,6.5-3.2.6-.3,1.3-.7,1.9-1.1,3.9-3.2,8.5-4.3,13.5-3.7,2.2,0,4.2-.5,6.3-1,4.2-1.3,8.2-3,12.4-4.4,6.4-3.2,13.3-3.6,20.3-3.4,6-1.3,11.3-.1,16,4.1,1.3,1.2,3.2,1.7,5.1,1.5,1.5-.3,2.8,0,4.1.7,3.9,1.9,7.5,4.5,11.4,6.3-1.5,4.6-.5,6.8,4.1,8.5,1,.4,1.7.9,1.7,2,0,1.5.4,2.8,1.6,3.8,1.8,1.9,3.6,3.8,3.2,6.8-.6,1.1-1.6,2.2-1.1,3.6,1.5,4.2,5,6.2,9.8,5.6,1.1-1.2,1.3-2.8,1.7-4.2.5-1.8.9-3.7,2.7-4.8,1.7-1.4,3.4-2.8,5.4-3.8,3.3-1.2,5.5-3.5,7-6.6.5-.8.8-1.8,1.5-2.4.4-.4,1.1-.9,1.5-.4.6.7-.5,1.2-.6,1.8,0,3.9-3.2,6.4-4.6,9.8-.2,2-2.2,3.6-1.7,5.5.7,2.8-.8,3.4-2.8,3.9-1.3.8-2.3,1.9-2.8,3.4-.7,2.9,1.1,2.9,3.1,2.7,2.8-.8,6.5.6,8.3-3.1.8-2,1.5-4,2.3-5.9.3-.3.7-1.5,1-.6.9,2.4,2.2,4.8,1.3,7.5-.2.9-.4,1.8-.7,2.8-.8,0-1.4.7-2.1,1.2-1.5,1.3-2.6,3-5,.9-1.3-1.2-3.6-1-5.4.1-6.2,1.1-6.5,1.3-5.9,5.3-.1.8.4,1.2,1.1,1.4,5.2.9,10.2,0,15-2.2.7-.5,1.2-1.2,1.4-2,0,0,0,0,0,0,1.1.8,2.5.6,3.8.7,1.7.1,3.3.4,4.3,2,.7.8,1.2,1.7,1.8,2.5,1.6,2.6,3.4,5.1,3.1,8.4-2.2,3.8-1.7,7.3,1,10.7,1.5,3.5,2.9,7.1,6.7,8.6,2.2.9,4.2,1.9,5.4,4.1.6,1,1.7,1.6,2.8,1.1,2.2-.9,4,.1,5.9.9,1.2.5,2.3,1.2,3.4,1.9,2.6,1.7,4.5,4.3,7.4,5.5,1,.4,2,.4,3,0,1.2-.6,2.5-1,3.7-1.6,2-.8,3.8-2.9,6-2,5.8,2.2,10.7,5.8,14.5,10.8,1.9,1.5,3.5,1.6,4.6-.8.5-1.3,1.5-1.8,2.6-2.3,2.5-1,4.7-2.4,6.9-4.1,3.9-2.4,8-4.2,12.8-2.8,3,.9,6,1.1,9.1,1.2,5.2-1.3,7.8-3.9,8.5-8.8.4-2.4,1.3-4.6,2.6-6.7,1.4-1.5,1.6-3.4,2.1-5.2,1.6-3.9,3.8-7.3,7.7-9.3,1.3-.7,2-1.9,2.4-3.2,1.2-2.9,1.7-6.1,4.2-8.3,2.5-1.6,3.6-4.3,5.2-6.7,1.3-1.7,3-3.1,4.4-4.7,1.6-2.9,4.3-3.9,7.2-4.8,2.9-1.4,5.2-3.4,5.9-6.7,1.1-2.2,2.7-4.1,4.4-6,1-1.2,1.6-2.7,2.4-4,2.5-3.7,2.1-8.6,4.9-12.1,1.3-2.9,2.9-5.6,3.8-8.7.2-.7.4-1.3.7-2,.9-3.6,4.4-5.5,5.3-9.1.2-2.6,1.2-5.2.6-7.8-.4-2,0-3.8.7-5.6.7-2.8,1.7-5.6,1.1-8.6-2.5-1.6-2.7,1-3.8,2.1,2.2-5.2.9-11.1,3.4-16.2.5-2.7.1-5.6,2.1-8,.4-.8,1-1.4,1.6-2.2.7-.9.9-2,1-3.1,0-.6,0-1.2,0-1.8ZM15.1,214.1c.2.3.4.6.6.9-.2-.2-.4-.6-.6-.9ZM117.4,96.6c-1.7-3-4-5.5-1.1-8.6-.6,2.1,0,3.9,1.8,5.4"/>
    </clipPath>
  </defs>
  <g class="cls-16">
    <g id="OBJECTS">
      <g>
        <g>
          <path class="cls-3" d="M369.3,410.5c-.5-.4-1.2-.3-1.7-.5-3.5-1.1-6.8,1.5-10.3.5-3.1.7-6.2.9-8.9-1.3-2.9-1.3-4.6-4.2-7.7-5.2-.7-.2-.7-1.2-.8-1.9-.3-1.1,0-2.6-1.6-2.9-1.4-.3-2.2.8-2.7,1.9-2,3.6-2.9,7.3-2.2,11.4.5,2.5,1.5,4.8,1.8,7.3.1,2,0,4,0,6,.2,2.9-.4,6,2.4,8.1,2,4.2,3,9.3,8.9,10.2,3.3,1.7,6.7.4,9.7-3.5.3.8.6,1.6,1.5,1.9,2.2.6,3.8-.5,3.9-2.5.2-2.5,1.7-4.1,2.7-6,.3-.7-.8-1.8.5-2.1,2.7-.6,2.9-2.4,2.6-4.7-.2-1.6.4-3.1,1-4.5,1.7-3.5,2-7.1,1.5-10.9-.1-.5-.3-1-.7-1.4Z"/>
          <path class="cls-3" d="M468.6,221.1c-.1-1,0-2.4-1.4-2.6-1.2-.2-2,.6-2.7,1.6-.3.4-.4.9-.6,1.3-.5,1.1-.8,2.5-2.3,2.4-1.6-.1-2-1.6-2.4-2.8-.6-1.8-.8-3.8-2.5-5.1-1.5-1.2-2.4-2.7-3.1-4.4-1.2-2.8-2.9-5.3-5.5-6.9-.8-2.3,0-5.3-2.8-6.8-3.1-1.6-3.3-2.2-2.3-7.2.4-2.5.5-5-.7-7.3-.6-1-1.4-2.2-2.3-2-3.1.6-4.4-1.5-6-3.3-3.2-2.9-2.2,1.9-4,2.1-.3-2.8-1.2-5.5-1-8.4-1.7-3.6-1.2-8.2-4.9-10.9-.4-.6-1.2-.8-1-1.8,1.1.6,1.9,2.6,3.5,1,1.5-1.6-.1-7.6-2.3-8.6-1.4.3-2.7.3-3.7-1.1-3-1.8-6.6-2.7-8.2-6.2-1.6-.4-3.1-.8-3.6-2.7-.3-1-1-1.8-2-2.3-2.5-.7-4.7-1.7-6-4.1-4.7-1.3-4.9-1.6-5-6.4,0-1.5.2-3.1-.6-4.6-1.2-.3-1.5-1-.9-2.3.6-1.3.3-2.6.1-3.8-.2-3.9-.8-7.8-1.2-11.6-.6-.7-1.4-1.1-2.2-1.5-1.8-1-3.1-2.6-2.9-4.7.2-2.2-.2-4.4-.4-6.5-.8-3.1-.7-6.2,0-9.3.3-3.1-1.5-4.9-3.8-6.5-1.8-1.2-4.1-2-4.9-4.6-1.2-4.1-4.1-4.9-7.4-2.3-.9.8-2,2.3-3,0-.8-2.8-2.1-5.5-1.4-8.5-.3-3.7.3-7.6-1.5-11.2-.1-.6-.1-1.3-.5-1.8-1.5-2.2-3.4-4.1-1.6-7.1.6-1-.7-1.6-1.6-2-2.4-1-2.8-3.1-2.8-5.4,0-1.9,0-3.9-1.7-5.3h0c-3.1-1-.6-3.8-1.5-5.4-3.4,2.4-7.9,3.8-7.9,9.1-.9.6-1.1,1.6-1.5,2.6-.8,1.8-1.7,3.5-2.9,5.1-2.6,3.1-3.4,6.7-2.5,10.6-2.1,3.6-1.4,8-3.3,11.7,0,3.4,1.3,6.7.4,10.1.1,3.7,1,7.4-1.2,10.9-.8,3-1.8,6-2.4,9.1,0,.9-.1,1.7-.5,2.5-1.3,3.7-4.2,6.4-5.8,9.9-.6,1.7-1.8,2.9-3.5,3.6-2.8,1.4-5.4,1-7.9-.8-1.3-.9-2.6-1.8-4-2.6-1.2-.7-1.8-1.4-1.8-3.1,0-2,1-2.5,2.5-2.8,1.2-.7,2.4-1.5,3.5-2.4,1.1-.9,1.3-1.9,0-2.9-.5-.3-1-.4-1.6-.5-2.1-.2-4.1,0-5.8,1.4-1.7,1.9-3.1,4.3-6.2,2.3-2.3-1-5.2-1-6.8-3.4-1.3-1.8-2.9-3.3-5-4.4-2.4-1.7-6.4-1.5-6.2-5.9-1-2.8-3.4-2.2-5.6-2.2-3.7.4-5.8-2.1-7.9-4.5-.6-.6-1.1-1.3-1.8-1.7-3.9-2.7-4-3-.7-6.6,1.6-1.3,3-2.8,3.7-4.8.2-.6.8-1,1.5-.8.4,0,.6.4.5.8-.6,3.7,2.5,3.1,4.5,3.8.5,0,.9.1,1.4.2,1.2.2,2.4.7,3.3-.4.9-1.2,0-2.2-.8-3.1-1-1.2.2-2.2.3-3.3,0-.7-.1-1.4-.8-1.7-1.4-.5-2.8-1.5-4.5-.8-.8.3-1.7.6-1.9-.7-.1-.9-.6-1.9.6-2.5,1.3-.7,2.5-1.5,3.4-2.6.2-.3.3-.6.5-.9.6-2.2.5-4.6,2.5-6.2,2.2-1.9,2.2-3.8.1-5.8-1.9-.6-3.5-1.6-4.1-3.7-1.5-.8-2.7,0-4,.8-1.2.7-2.4,1.5-3.7,2.1-.2,0-.3-.2,0-.5,0,0,0-.2,0-.3-.1-1.1.5-2.5-1.2-2.9-.7,0-1.3.4-1.8.8-2.7,2.3-5.4,3.7-8.7,1.1-.6-.4-1.3-.6-2-.7-3.8.5-7.6.7-10.6-2.3-2.2-.5-6.3,2.3-5.6-3.5-1.5,1-2.9,3.7-4.5.7-1.3-2.3-2.7-2.7-4.9-.7-.2-2.3-.4-4.1-.7-6.7-1.9,2.5-3.7,3.7-6.2,2.9-2.1.1-4.2.2-4.4,3,.5,1.7,1.6,2.7,3.1,3.4,1.8.2,4.1-.8,4.7,1.9.6,2.6-2.1,2.6-3.3,3.9-.1.1-.5,0-.7.1-2.9,0-5.9.6-8.5-1.3-1.5,0-2.9-.4-4.4-.4-2,2.2-3.7,4.7-7,5-2.5,3.1-6,5.5-6.4,9.9-.6,2.6-3.6,4-3.6,7,0,.4-.3,1-.8,1.2-1.9,1.1-3,2.6-3.7,4.7-.8,2.4,1.2,3.6,2,5.4-3.1,1.4-5.9.5-8.7,0-1.3,0-2.6,0-3.9.6,0,0,0,.8-.6,0-2.6-3.1-5.8-5.7-8.3-9-.4-.4-.8-.7-1.2-1-3.1-1.5-6.2-3.5-9.9-2.8-2.7.9-5.1,3-8.2,1.5-.3-.1-.7.2-1,.4-1,1.3-.5,4.5-3.8,3.3-.5-.2-1.1.8-1.5,1.4-.6.8-1.1,1.6-2.2,1.5-2.8,0-3.7,1.7-3.7,4.2.6,2.2-.7,2.1-2.2,1.9-2.1-.3-3.5,0-2.2,2.7.8,1.8-.5.9-1.1.9-2.9,0-4.6,1.9-3.6,4,.3.8.7,1.5.7,2.4-.5,2.1,1.7,4.7,0,6-1.7,1.3-4.1-.6-6.1-1-1-.2-2.1-.3-3.1-.3-3,0-3.3.5-2.1,3.5.3.2.8.5.7.8,0,0,0,0,0,0,0-.3-.3-.5-.6-.7-1-.5-2.1-.7-3.2-.5-2.9.4-3.7,2.8-4.9,4.9-.7,1.4-1.8,2.6-3.2,3.4-1.7,1-3,2.4-3.6,4.4-.2,3.2-1.2,6.8.4,9.5,1.4,2.5,0,2.8-1.3,3.6-.4.3-.9.6-1.3.9-2.4,2-4.2,4.3-5,7.3-.9,3.1-2.9,5.5-5.6,7.3-2.9,2-6.2,3.2-9.6,4.2-2.3,1-4.7,1.9-7.3,1.8-1.9,0-3.9-.2-5.6,1-2.5,2.9-6,3.7-9.5,4.5-1,.3-2.2.6-2.9,1.4-2.4,3.2-5.7,3.1-9.1,2.7q-3.6-2.6-8.1,0c0,2.2-1.8,3-3.1,4.1-3,2.7-5.3,6.3-9.2,7.9-4.3,2.6-8.7,5.2-10.5,10.4-2.2,1-1.3-.9-1.4-1.6-.2-1.1.4-2.7-1.1-3.1-1.7-.5-2.6,1-3.4,2.2-1.5,2.4-1.6,5.3-2.5,7.9-.3,1.9-.4,3.7.5,5.4,1.2,2.1.9,4.3.5,6.5-.1.3-.2.7-.3,1-.8,2.2-1.6,4.4-2.1,6.6-.7,3.5,0,6.8,2.1,9.7,2.1,4.7,5.4,8.5,8.3,12.7-.2,0-.3,0-.5,0-1.7,1-1.7-.3-2.3-1-1-1.2-1.5-3.6-3.6-2.9-1.7.6-1.1,2.7-1.1,4.2,0,.5,0-.1,0,.4,0,.4,0,1.2-.7.5-.8-.9-1.1-2.1-1.8-3.1-.7-.8-1.4-1.6-2.6-1.4-.6.4-.9,1.1-1.1,1.8-.2,2.1,1.3,3.5,2.2,5.1,1.1,1.5,1.9,3.2,3,4.7,1,1.3,2.3,2.2,3.3,3.4,3,3.6,7.1,6.5,7.8,11.6.5,3.3,1.8,6,4.1,8.3,2.2,1.4,2.4,4,3.6,5.9,1.5,1.6,3,3.2,3.7,5.3,1.1,3.5.7,7.3,2,10.8,1.8,3.3,2.6,7.1,5.1,10.1,1.3,1.8,2.7,3.7,3.7,5.7,1.2,2.4,2.9,4.7,2.1,7.7,0,1.9.5,3.7.4,5.6,0,2,.4,3.9.6,5.8.3,2.6,0,4.9-3.2,5.5-1.5.3-2.2,1.4-2.4,2.8,0,.8,0,1.7,0,2.5.4,4.8,1.9,6.4,6.7,7.3,1.4.2,2.5.9,3.5,1.7,3,2.4,6.5,3.7,10.2,4.3,3.8.2,7.5.2,11.3,0,2.9-.4,5.7-1.3,7.9-3.3.2-1.9,1.5-3.1,2.9-4.1,1.2-1.6,2.9-2,4.7-2.2,1.4-.2,3.3-.4,3.6-2,.7-4.4,3.8-5.1,7.3-5.6,1.5-.2,3-.7,4.5-1.3,4.4-.3,8.9-1.6,13,1.2,3.5-2.1,7.1-2.1,10.8-.8,4.1-2.1,8.6-3.7,9.7-9.1.6-3,2.7-5,5.9-5.7,2.4-.5,4.4-2,6.5-3.2.6-.3,1.3-.7,1.9-1.1,3.9-3.2,8.5-4.3,13.5-3.7,2.2,0,4.2-.5,6.3-1,4.2-1.3,8.2-3,12.4-4.4,6.4-3.2,13.3-3.6,20.3-3.4,6-1.3,11.3-.1,16,4.1,1.3,1.2,3.2,1.7,5.1,1.5,1.5-.3,2.8,0,4.1.7,3.9,1.9,7.5,4.5,11.4,6.3-1.5,4.6-.5,6.8,4.1,8.5,1,.4,1.7.9,1.7,2,0,1.5.4,2.8,1.6,3.8,1.8,1.9,3.6,3.8,3.2,6.8-.6,1.1-1.6,2.2-1.1,3.6,1.5,4.2,5,6.2,9.8,5.6,1.1-1.2,1.3-2.8,1.7-4.2.5-1.8.9-3.7,2.7-4.8,1.7-1.4,3.4-2.8,5.4-3.8,3.3-1.2,5.5-3.5,7-6.6.5-.8.8-1.8,1.5-2.4.4-.4,1.1-.9,1.5-.4.6.7-.5,1.2-.6,1.8,0,3.9-3.2,6.4-4.6,9.8-.2,2-2.2,3.6-1.7,5.5.7,2.8-.8,3.4-2.8,3.9-1.3.8-2.3,1.9-2.8,3.4-.7,2.9,1.1,2.9,3.1,2.7,2.8-.8,6.5.6,8.3-3.1.8-2,1.5-4,2.3-5.9.3-.3.7-1.5,1-.6.9,2.4,2.2,4.8,1.3,7.5-.2.9-.4,1.8-.7,2.8-.8,0-1.4.7-2.1,1.2-1.5,1.3-2.6,3-5,.9-1.3-1.2-3.6-1-5.4.1-6.2,1.1-6.5,1.3-5.9,5.3-.1.8.4,1.2,1.1,1.4,5.2.9,10.2,0,15-2.2.7-.5,1.2-1.2,1.4-2,0,0,0,0,0,0,1.1.8,2.5.6,3.8.7,1.7.1,3.3.4,4.3,2,.7.8,1.2,1.7,1.8,2.5,1.6,2.6,3.4,5.1,3.1,8.4-2.2,3.8-1.7,7.3,1,10.7,1.5,3.5,2.9,7.1,6.7,8.6,2.2.9,4.2,1.9,5.4,4.1.6,1,1.7,1.6,2.8,1.1,2.2-.9,4,.1,5.9.9,1.2.5,2.3,1.2,3.4,1.9,2.6,1.7,4.5,4.3,7.4,5.5,1,.4,2,.4,3,0,1.2-.6,2.5-1,3.7-1.6,2-.8,3.8-2.9,6-2,5.8,2.2,10.7,5.8,14.5,10.8,1.9,1.5,3.5,1.6,4.6-.8.5-1.3,1.5-1.8,2.6-2.3,2.5-1,4.7-2.4,6.9-4.1,3.9-2.4,8-4.2,12.8-2.8,3,.9,6,1.1,9.1,1.2,5.2-1.3,7.8-3.9,8.5-8.8.4-2.4,1.3-4.6,2.6-6.7,1.4-1.5,1.6-3.4,2.1-5.2,1.6-3.9,3.8-7.3,7.7-9.3,1.3-.7,2-1.9,2.4-3.2,1.2-2.9,1.7-6.1,4.2-8.3,2.5-1.6,3.6-4.3,5.2-6.7,1.3-1.7,3-3.1,4.4-4.7,1.6-2.9,4.3-3.9,7.2-4.8,2.9-1.4,5.2-3.4,5.9-6.7,1.1-2.2,2.7-4.1,4.4-6,1-1.2,1.6-2.7,2.4-4,2.5-3.7,2.1-8.6,4.9-12.1,1.3-2.9,2.9-5.6,3.8-8.7.2-.7.4-1.3.7-2,.9-3.6,4.4-5.5,5.3-9.1.2-2.6,1.2-5.2.6-7.8-.4-2,0-3.8.7-5.6.7-2.8,1.7-5.6,1.1-8.6-2.5-1.6-2.7,1-3.8,2.1,2.2-5.2.9-11.1,3.4-16.2.5-2.7.1-5.6,2.1-8,.4-.8,1-1.4,1.6-2.2.7-.9.9-2,1-3.1,0-.6,0-1.2,0-1.8ZM19.4,218.5c.2.3.4.6.6.9-.2-.2-.4-.6-.6-.9ZM121.8,101c-1.7-3-4-5.5-1.1-8.6-.6,2.1,0,3.9,1.8,5.4,1.3,1.2,0,2-.8,3.2Z"/>
          <path class="cls-3" d="M202.7,37.2c2.3.5,4.6.4,6.9.4,1.8,0,3.6-.2,5.2-1,2.2-1.6,5.8-2.5,3.8-6.5-.6-1.6-1.4-3.1-3.5-2.8-3.6,1.5-7.2,4-10.3-.8-2.6,0-.9,3.2-2.8,3.8-.7.3-1.1.9-1.5,1.5-2.3,3.3-1.8,4.5,2.2,5.4Z"/>
          <polygon class="cls-3" points="280 335.4 280 335.4 280 335.4 280 335.4"/>
          <path class="cls-3" d="M330.6,388.9c-1.9,2.3-1.3,5-1.4,7.8,2.9-1.2,3.9-3.2,4.2-5.7,0-1.9-1-2.5-2.8-2.1Z"/>
          <path class="cls-3" d="M371.8,397.8c-1-2-2.2-1.9-3.5-.3-2.8,1.4.3,4.3-1.5,5.9-.1.8-2.5,2.7.9,1.7.7-.2,1.2.1.6.9-1.5,1.7-.4,2.9.8,4.1,3-.6,4.7-2,3.4-5.3-.1-.4.2-.9.3-1.4,1.2-2.1-.1-3.8-1-5.6Z"/>
        </g>
        <g>
          <g>
            <path class="cls-7" d="M365,406.2c-.5-.4-1.2-.3-1.7-.5-3.5-1.1-6.8,1.5-10.3.5-3.1.7-6.2.9-8.9-1.3-2.9-1.3-4.6-4.2-7.7-5.2-.7-.2-.7-1.2-.8-1.9-.3-1.1,0-2.6-1.6-2.9-1.4-.3-2.2.8-2.7,1.9-2,3.6-2.9,7.3-2.2,11.4.5,2.5,1.5,4.8,1.8,7.3.1,2,0,4,0,6,.2,2.9-.4,6,2.4,8.1,2,4.2,3,9.3,8.9,10.2,3.3,1.7,6.7.4,9.7-3.5.3.8.6,1.6,1.5,1.9,2.2.6,3.8-.5,3.9-2.5.2-2.5,1.7-4.1,2.7-6,.3-.7-.8-1.8.5-2.1,2.7-.6,2.9-2.4,2.6-4.7-.2-1.6.4-3.1,1-4.5,1.7-3.5,2-7.1,1.5-10.9-.1-.5-.3-1-.7-1.4Z"/>
            <path class="cls-1" d="M464.3,216.7c-.1-1,0-2.4-1.4-2.6-1.2-.2-2,.6-2.7,1.6-.3.4-.4.9-.6,1.3-.5,1.1-.8,2.5-2.3,2.4-1.6-.1-2-1.6-2.4-2.8-.6-1.8-.8-3.8-2.5-5.1-1.5-1.2-2.4-2.7-3.1-4.4-1.2-2.8-2.9-5.3-5.5-6.9-.8-2.3,0-5.3-2.8-6.8-3.1-1.6-3.3-2.2-2.3-7.2.4-2.5.5-5-.7-7.3-.6-1-1.4-2.2-2.3-2-3.1.6-4.4-1.5-6-3.3-3.2-2.9-2.2,1.9-4,2.1-.3-2.8-1.2-5.5-1-8.4-1.7-3.6-1.2-8.2-4.9-10.9-.4-.6-1.2-.8-1-1.8,1.1.6,1.9,2.6,3.5,1,1.5-1.6-.1-7.6-2.3-8.6-1.4.3-2.7.3-3.7-1.1-3-1.8-6.6-2.7-8.2-6.2-1.6-.4-3.1-.8-3.6-2.7-.3-1-1-1.8-2-2.3-2.5-.7-4.7-1.7-6-4.1-4.7-1.3-4.9-1.6-5-6.4,0-1.5.2-3.1-.6-4.6-1.2-.3-1.5-1-.9-2.3.6-1.3.3-2.6.1-3.8-.2-3.9-.8-7.8-1.2-11.6-.6-.7-1.4-1.1-2.2-1.5-1.8-1-3.1-2.6-2.9-4.7.2-2.2-.2-4.4-.4-6.5-.8-3.1-.7-6.2,0-9.3.3-3.1-1.5-4.9-3.8-6.5-1.8-1.2-4.1-2-4.9-4.6-1.2-4.1-4.1-4.9-7.4-2.3-.9.8-2,2.3-3,0-.8-2.8-2.1-5.5-1.4-8.5-.3-3.7.3-7.6-1.5-11.2-.1-.6-.1-1.3-.5-1.8-1.5-2.2-3.4-4.1-1.6-7.1.6-1-.7-1.6-1.6-2-2.4-1-2.8-3.1-2.8-5.4,0-1.9,0-3.9-1.7-5.3h0c-3.1-1-.6-3.8-1.5-5.4-3.4,2.4-7.9,3.8-7.9,9.1-.9.6-1.1,1.6-1.5,2.6-.8,1.8-1.7,3.5-2.9,5.1-2.6,3.1-3.4,6.7-2.5,10.6-2.1,3.6-1.4,8-3.3,11.7,0,3.4,1.3,6.7.4,10.1.1,3.7,1,7.4-1.2,10.9-.8,3-1.8,6-2.4,9.1,0,.9-.1,1.7-.5,2.5-1.3,3.7-4.2,6.4-5.8,9.9-.6,1.7-1.8,2.9-3.5,3.6-2.8,1.4-5.4,1-7.9-.8-1.3-.9-2.6-1.8-4-2.6-1.2-.7-1.8-1.4-1.8-3.1,0-2,1-2.5,2.5-2.8,1.2-.7,2.4-1.5,3.5-2.4,1.1-.9,1.3-1.9,0-2.9-.5-.3-1-.4-1.6-.5-2.1-.2-4.1,0-5.8,1.4-1.7,1.9-3.1,4.3-6.2,2.3-2.3-1-5.2-1-6.8-3.4-1.3-1.8-2.9-3.3-5-4.4-2.4-1.7-6.4-1.5-6.2-5.9-1-2.8-3.4-2.2-5.6-2.2-3.7.4-5.8-2.1-7.9-4.5-.6-.6-1.1-1.3-1.8-1.7-3.9-2.7-4-3-.7-6.6,1.6-1.3,3-2.8,3.7-4.8.2-.6.8-1,1.5-.8.4,0,.6.4.5.8-.6,3.7,2.5,3.1,4.5,3.8.5,0,.9.1,1.4.2,1.2.2,2.4.7,3.3-.4.9-1.2,0-2.2-.8-3.1-1-1.2.2-2.2.3-3.3,0-.7-.1-1.4-.8-1.7-1.4-.5-2.8-1.5-4.5-.8-.8.3-1.7.6-1.9-.7-.1-.9-.6-1.9.6-2.5,1.3-.7,2.5-1.5,3.4-2.6.2-.3.3-.6.5-.9.6-2.2.5-4.6,2.5-6.2,2.2-1.9,2.2-3.8.1-5.8-1.9-.6-3.5-1.6-4.1-3.7-1.5-.8-2.7,0-4,.8-1.2.7-2.4,1.5-3.7,2.1-.2,0-.3-.2,0-.5,0,0,0-.2,0-.3-.1-1.1.5-2.5-1.2-2.9-.7,0-1.3.4-1.8.8-2.7,2.3-5.4,3.7-8.7,1.1-.6-.4-1.3-.6-2-.7-3.8.5-7.6.7-10.6-2.3-2.2-.5-6.3,2.3-5.6-3.5-1.5,1-2.9,3.7-4.5.7-1.3-2.3-2.7-2.7-4.9-.7-.2-2.3-.4-4.1-.7-6.7-1.9,2.5-3.7,3.7-6.2,2.9-2.1.1-4.2.2-4.4,3,.5,1.7,1.6,2.7,3.1,3.4,1.8.2,4.1-.8,4.7,1.9.6,2.6-2.1,2.6-3.3,3.9-.1.1-.5,0-.7.1-2.9,0-5.9.6-8.5-1.3-1.5,0-2.9-.4-4.4-.4-2,2.2-3.7,4.7-7,5-2.5,3.1-6,5.5-6.4,9.9-.6,2.6-3.6,4-3.6,7,0,.4-.3,1-.8,1.2-1.9,1.1-3,2.6-3.7,4.7-.8,2.4,1.2,3.6,2,5.4-3.1,1.4-5.9.5-8.7,0-1.3,0-2.6,0-3.9.6,0,0,0,.8-.6,0-2.6-3.1-5.8-5.7-8.3-9-.4-.4-.8-.7-1.2-1-3.1-1.5-6.2-3.5-9.9-2.8-2.7.9-5.1,3-8.2,1.5-.3-.1-.7.2-1,.4-1,1.3-.5,4.5-3.8,3.3-.5-.2-1.1.8-1.5,1.4-.6.8-1.1,1.6-2.2,1.5-2.8,0-3.7,1.7-3.7,4.2.6,2.2-.7,2.1-2.2,1.9-2.1-.3-3.5,0-2.2,2.7.8,1.8-.5.9-1.1.9-2.9,0-4.6,1.9-3.6,4,.4.8.7,1.5.7,2.4-.5,2.1,1.7,4.7,0,6-1.7,1.3-4.1-.6-6.1-1-1-.2-2.1-.3-3.1-.3-3,0-3.3.5-2.1,3.5.3.2.8.5.7.8,0,0,0,0,0,0,0-.3-.3-.5-.6-.7-1-.5-2.1-.7-3.2-.5-2.9.4-3.7,2.8-4.9,4.9-.7,1.4-1.8,2.6-3.2,3.4-1.7,1-3,2.4-3.6,4.4-.2,3.2-1.2,6.8.4,9.5,1.4,2.5,0,2.8-1.3,3.6-.4.3-.9.6-1.3.9-2.4,2-4.2,4.3-5,7.3-.9,3.1-2.9,5.5-5.6,7.3-2.9,2-6.2,3.2-9.6,4.2-2.3,1-4.7,1.9-7.3,1.8-1.9,0-3.9-.2-5.6,1-2.5,2.9-6,3.7-9.5,4.5-1,.3-2.2.6-2.9,1.4-2.4,3.2-5.7,3.1-9.1,2.7q-3.6-2.6-8.1,0c0,2.2-1.8,3-3.1,4.1-3,2.7-5.3,6.3-9.2,7.9-4.3,2.6-8.7,5.2-10.5,10.4-2.2,1-1.3-.9-1.4-1.6-.2-1.1.4-2.7-1.1-3.1-1.7-.5-2.6,1-3.4,2.2-1.5,2.4-1.6,5.3-2.5,7.9-.3,1.9-.4,3.7.5,5.4,1.2,2.1.9,4.3.5,6.5-.1.3-.2.7-.3,1-.8,2.2-1.6,4.4-2.1,6.6-.7,3.5,0,6.8,2.1,9.7,2.1,4.7,5.4,8.5,8.3,12.7-.2,0-.3,0-.5,0-1.7,1-1.7-.3-2.3-1-1-1.2-1.5-3.6-3.6-2.9-1.7.6-1.1,2.7-1.1,4.2,0,.5,0-.1,0,.4,0,.4,0,1.2-.7.5-.8-.9-1.1-2.1-1.8-3.1-.7-.8-1.4-1.6-2.6-1.4-.6.4-.9,1.1-1.1,1.8-.2,2.1,1.3,3.5,2.2,5.1,1.1,1.5,1.9,3.2,3,4.7,1,1.3,2.3,2.2,3.3,3.4,3,3.6,7.1,6.5,7.8,11.6.5,3.3,1.8,6,4.1,8.3,2.2,1.4,2.4,4,3.6,5.9,1.5,1.6,3,3.2,3.7,5.3,1.1,3.5.7,7.3,2,10.8,1.8,3.3,2.6,7.1,5.1,10.1,1.3,1.8,2.7,3.7,3.7,5.7,1.2,2.4,2.9,4.7,2.1,7.7,0,1.9.5,3.7.4,5.6,0,2,.4,3.9.6,5.8.3,2.6,0,4.9-3.2,5.5-1.5.3-2.2,1.4-2.4,2.8,0,.8,0,1.7,0,2.5.4,4.8,1.9,6.4,6.7,7.3,1.4.2,2.5.9,3.5,1.7,3,2.4,6.5,3.7,10.2,4.3,3.8.2,7.5.2,11.3,0,2.9-.4,5.7-1.3,7.9-3.3.2-1.9,1.5-3.1,2.9-4.1,1.2-1.6,2.9-2,4.7-2.2,1.4-.2,3.3-.4,3.6-2,.7-4.4,3.8-5.1,7.3-5.6,1.5-.2,3-.7,4.5-1.3,4.4-.3,8.9-1.6,13,1.2,3.5-2.1,7.1-2.1,10.8-.8,4.1-2.1,8.6-3.7,9.7-9.1.6-3,2.7-5,5.9-5.7,2.4-.5,4.4-2,6.5-3.2.6-.3,1.3-.7,1.9-1.1,3.9-3.2,8.5-4.3,13.5-3.7,2.2,0,4.2-.5,6.3-1,4.2-1.3,8.2-3,12.4-4.4,6.4-3.2,13.3-3.6,20.3-3.4,6-1.3,11.3-.1,16,4.1,1.3,1.2,3.2,1.7,5.1,1.5,1.5-.3,2.8,0,4.1.7,3.9,1.9,7.5,4.5,11.4,6.3-1.5,4.6-.5,6.8,4.1,8.5,1,.4,1.7.9,1.7,2,0,1.5.4,2.8,1.6,3.8,1.8,1.9,3.6,3.8,3.2,6.8-.6,1.1-1.6,2.2-1.1,3.6,1.5,4.2,5,6.2,9.8,5.6,1.1-1.2,1.3-2.8,1.7-4.2.5-1.8.9-3.7,2.7-4.8,1.7-1.4,3.4-2.8,5.4-3.8,3.3-1.2,5.5-3.5,7-6.6.5-.8.8-1.8,1.5-2.4.4-.4,1.1-.9,1.5-.4.6.7-.5,1.2-.6,1.8,0,3.9-3.2,6.4-4.6,9.8-.2,2-2.2,3.6-1.7,5.5.7,2.8-.8,3.4-2.8,3.9-1.3.8-2.3,1.9-2.8,3.4-.7,2.9,1.1,2.9,3.1,2.7,2.8-.8,6.5.6,8.3-3.1.8-2,1.5-4,2.3-5.9.3-.3.7-1.5,1-.6.9,2.4,2.2,4.8,1.3,7.5-.2.9-.4,1.8-.7,2.8-.8,0-1.4.7-2.1,1.2-1.5,1.3-2.6,3-5,.9-1.3-1.2-3.6-1-5.4.1-6.2,1.1-6.5,1.3-5.9,5.3-.1.8.4,1.2,1.1,1.4,5.2.9,10.2,0,15-2.2.7-.5,1.2-1.2,1.4-2,0,0,0,0,0,0,1.1.8,2.5.6,3.8.7,1.7.1,3.3.4,4.3,2,.7.8,1.2,1.7,1.8,2.5,1.6,2.6,3.4,5.1,3.1,8.4-2.2,3.8-1.7,7.3,1,10.7,1.5,3.5,2.9,7.1,6.7,8.6,2.2.9,4.2,1.9,5.4,4.1.6,1,1.7,1.6,2.8,1.1,2.2-.9,4,.1,5.9.9,1.2.5,2.3,1.2,3.4,1.9,2.6,1.7,4.5,4.3,7.4,5.5,1,.4,2,.4,3,0,1.2-.6,2.5-1,3.7-1.6,2-.8,3.8-2.9,6-2,5.8,2.2,10.7,5.8,14.5,10.8,1.9,1.5,3.5,1.6,4.6-.8.5-1.3,1.5-1.8,2.6-2.3,2.5-1,4.7-2.4,6.9-4.1,3.9-2.4,8-4.2,12.8-2.8,3,.9,6,1.1,9.1,1.2,5.2-1.3,7.8-3.9,8.5-8.8.4-2.4,1.3-4.6,2.6-6.7,1.4-1.5,1.6-3.4,2.1-5.2,1.6-3.9,3.8-7.3,7.7-9.3,1.3-.7,2-1.9,2.4-3.2,1.2-2.9,1.7-6.1,4.2-8.3,2.5-1.6,3.6-4.3,5.2-6.7,1.3-1.7,3-3.1,4.4-4.7,1.6-2.9,4.3-3.9,7.2-4.8,2.9-1.4,5.2-3.4,5.9-6.7,1.1-2.2,2.7-4.1,4.4-6,1-1.2,1.6-2.7,2.4-4,2.5-3.7,2.1-8.6,4.9-12.1,1.3-2.9,2.9-5.6,3.8-8.7.2-.7.4-1.3.7-2,.9-3.6,4.4-5.5,5.3-9.1.2-2.6,1.2-5.2.6-7.8-.4-2,0-3.8.7-5.6.7-2.8,1.7-5.6,1.1-8.6-2.5-1.6-2.7,1-3.8,2.1,2.2-5.2.9-11.1,3.4-16.2.5-2.7.1-5.6,2.1-8,.4-.8,1-1.4,1.6-2.2.7-.9.9-2,1-3.1,0-.6,0-1.2,0-1.8ZM15.1,214.1c.2.3.4.6.6.9-.2-.2-.4-.6-.6-.9ZM117.4,96.6c-1.7-3-4-5.5-1.1-8.6-.6,2.1,0,3.9,1.8,5.4,1.3,1.2,0,2-.8,3.2Z"/>
            <path class="cls-1" d="M198.3,32.9c2.3.5,4.6.4,6.9.4,1.8,0,3.6-.2,5.2-1,2.2-1.6,5.8-2.5,3.8-6.5-.6-1.6-1.4-3.1-3.5-2.8-3.6,1.5-7.2,4-10.3-.8-2.6,0-.9,3.2-2.8,3.8-.7.3-1.1.9-1.5,1.5-2.3,3.3-1.8,4.5,2.2,5.4Z"/>
            <polygon class="cls-1" points="275.6 331 275.6 331 275.6 331 275.6 331"/>
            <path class="cls-7" d="M326.2,384.5c-1.9,2.3-1.3,5-1.4,7.8,2.9-1.2,3.9-3.2,4.2-5.7,0-1.9-1-2.5-2.8-2.1Z"/>
            <path class="cls-7" d="M367.5,393.4c-1-2-2.2-1.9-3.5-.3-2.8,1.4.3,4.3-1.5,5.9-.1.8-2.5,2.7.9,1.7.7-.2,1.2.1.6.9-1.5,1.7-.4,2.9.8,4.1,3-.6,4.7-2,3.4-5.3-.1-.4.2-.9.3-1.4,1.2-2.1-.1-3.8-1-5.6Z"/>
          </g>
          <g class="cls-17">
            <g>
              <g>
                <path class="cls-1" d="M473.3,13.2c-51.6,43.8-103.1-38-154.7-5.3-4.4,2.8-6.8,8-6.3,13.2,3.3,33.6,5.1,72.7,5.1,115,0,45.7-2.1,90.1-5.9,131.8,51.8-44,103.6,38.8,155.4,4.8,4-2.6,6.4-7.1,6.4-11.8,0-82.6,0-165.1,0-247.7ZM331.7,33.1c3.6.3,7.1,1.1,10.7,2.2,1.2-3.7,2.3-7.4,3.5-11,1.2,3.6,2.3,7.3,3.5,11,3.6-1.1,7.1-1.9,10.7-2.5-2.1,2.7-4.2,5.5-6.3,8.4,3.3,2.4,6.6,5,9.9,7.8-3.8-.7-7.6-1.1-11.4-1.2.5,3.8,1,7.7,1.6,11.5-2.6-3.1-5.3-6.1-7.9-8.9-2.6,2.8-5.3,5.7-7.9,8.9.5-3.9,1-7.7,1.6-11.6-3.8.1-7.6.7-11.4,1.8,3.3-3.2,6.6-6,9.9-8.4-2.1-2.9-4.2-5.6-6.3-8.2ZM353.8,229.2c-2.6-3.1-5.3-6.1-7.9-8.9-2.6,2.8-5.3,5.7-7.9,8.9.5-3.9,1-7.7,1.6-11.6-3.8.1-7.6.7-11.4,1.8,3.3-3.2,6.6-6,9.9-8.4-2.1-2.9-4.2-5.6-6.3-8.2,3.6.3,7.1,1.1,10.7,2.2,1.2-3.7,2.3-7.4,3.5-11,1.2,3.6,2.3,7.3,3.5,11,3.6-1.1,7.1-1.9,10.7-2.5-2.1,2.7-4.2,5.5-6.3,8.4,3.3,2.4,6.6,5,9.9,7.8-3.8-.7-7.6-1.1-11.4-1.2.5,3.8,1,7.7,1.6,11.5ZM377.7,153.7c-2.1-2.1-4.2-4.1-6.2-6.1-2.1.6-4.2,1.2-6.2,1.9.6-2.2,1.2-4.4,1.8-6.6-1.9-2.1-3.7-4.2-5.6-6.2,2.4.4,4.9.9,7.3,1.5.9-2,1.8-3.9,2.8-5.9.9,2.6,1.8,5.2,2.8,7.8,2.4,1.1,4.9,2.2,7.3,3.3-1.9.8-3.7,1.7-5.6,2.6.6,2.6,1.2,5.2,1.8,7.8ZM410.4,131.4c-2.6-3.7-5.3-7.5-7.9-11.3-2.6,1.7-5.3,3.4-7.9,5,.5-3.6,1-7.1,1.6-10.7-3.8-1.9-7.6-3.9-11.4-5.8,3.3-.6,6.6-1.1,9.9-1.7-2.1-4.1-4.2-8.2-6.3-12.2,3.6,2.9,7.1,5.7,10.7,8.6,1.2-3.1,2.3-6.3,3.5-9.5,1.2,4.1,2.3,8.2,3.5,12.3,3.6,0,7.1,0,10.7-.3-2.1,2.5-4.2,5-6.3,7.4,3.3,3.1,6.6,6.2,9.9,9-3.8-.7-7.6-1.7-11.4-2.7.5,4,1,8,1.6,11.9Z"/>
                <path class="cls-10" d="M353.8,211c2.1-2.9,4.2-5.7,6.3-8.4-3.6.6-7.1,1.4-10.7,2.5-1.2-3.7-2.3-7.4-3.5-11-1.2,3.6-2.3,7.3-3.5,11-3.6-1.1-7.1-1.9-10.7-2.2,2.1,2.6,4.2,5.3,6.3,8.2-3.3,2.4-6.6,5.2-9.9,8.4,3.8-1.1,7.6-1.7,11.4-1.8-.5,3.8-1,7.7-1.6,11.6,2.6-3.2,5.3-6.1,7.9-8.9,2.6,2.8,5.3,5.8,7.9,8.9-.5-3.9-1-7.7-1.6-11.5,3.8,0,7.6.5,11.4,1.2-3.3-2.8-6.6-5.5-9.9-7.8Z"/>
                <path class="cls-10" d="M339.6,47.8c-.5,3.8-1,7.7-1.6,11.6,2.6-3.2,5.3-6.1,7.9-8.9,2.6,2.8,5.3,5.8,7.9,8.9-.5-3.9-1-7.7-1.6-11.5,3.8,0,7.6.5,11.4,1.2-3.3-2.8-6.6-5.5-9.9-7.8,2.1-2.9,4.2-5.7,6.3-8.4-3.6.6-7.1,1.4-10.7,2.5-1.2-3.7-2.3-7.4-3.5-11-1.2,3.6-2.3,7.3-3.5,11-3.6-1.1-7.1-1.9-10.7-2.2,2.1,2.6,4.2,5.3,6.3,8.2-3.3,2.4-6.6,5.2-9.9,8.4,3.8-1.1,7.6-1.7,11.4-1.8Z"/>
                <path class="cls-10" d="M410.4,113.2c2.1-2.4,4.2-4.9,6.3-7.4-3.6.2-7.1.3-10.7.3-1.2-4.1-2.3-8.2-3.5-12.3-1.2,3.2-2.3,6.3-3.5,9.5-3.6-2.8-7.1-5.7-10.7-8.6,2.1,4.1,4.2,8.2,6.3,12.2-3.3.6-6.6,1.1-9.9,1.7,3.8,1.9,7.6,3.9,11.4,5.8-.5,3.6-1,7.1-1.6,10.7,2.6-1.7,5.3-3.3,7.9-5,2.6,3.8,5.3,7.6,7.9,11.3-.5-4-1-7.9-1.6-11.9,3.8,1.1,7.6,2,11.4,2.7-3.3-2.8-6.6-5.9-9.9-9Z"/>
                <path class="cls-10" d="M374.2,140.1c-.9-2.6-1.8-5.2-2.8-7.8-.9,2-1.8,3.9-2.8,5.9-2.4-.6-4.9-1.1-7.3-1.5,1.9,2,3.7,4.1,5.6,6.2-.6,2.2-1.2,4.4-1.8,6.6,2.1-.7,4.2-1.3,6.2-1.9,2.1,2,4.2,4,6.2,6.1-.6-2.6-1.2-5.2-1.8-7.8,1.9-.9,3.7-1.7,5.6-2.6-2.4-1.2-4.9-2.3-7.3-3.3Z"/>
              </g>
              <path class="cls-15" d="M362.9,257.1c2.4-38.2,3.7-78.4,4-119.3-1.9-.4-3.7-.8-5.6-1.1,1.9.3,3.7.7,5.6,1.1,0-4.2,0-8.3,0-12.5,0-44.1-1.3-85.2-3.8-122.8-14.8-3.8-29.7-3.9-44.5,5.5-4.4,2.8-6.8,8-6.3,13.2,3.1,31.5,4.8,67.8,5.1,107,.5,0,1.1.1,1.6.2-.5,0-1.1-.1-1.6-.2,0,2.6,0,5.3,0,8s0,4.5,0,6.7c3-3.5,5.9-7.1,8.9-10.9,3,3.3,6.1,6.5,9.1,9.4-3-2.9-6.1-6.1-9.1-9.4-3,3.8-5.9,7.4-8.9,10.9-.2,43.3-2.3,85.5-5.9,125.1,17.1-14.6,34.3-15.2,51.4-10.9ZM354.8,203.7c-1.8.4-3.6.9-5.4,1.4,1.8-.6,3.6-1,5.4-1.4ZM328.2,219.4c2.9-.8,5.7-1.4,8.6-1.6-2.9.3-5.7.8-8.6,1.6ZM332.8,45.4c1.7-1.5,3.5-2.9,5.2-4.2-2.1-2.9-4.2-5.6-6.3-8.2,2.1,2.6,4.2,5.3,6.3,8.2-1.7,1.3-3.5,2.7-5.2,4.2Z"/>
              <g>
                <path class="cls-9" d="M203.6,8c-18.8-4.3-37.7-4.7-56.5,5.3-5.1,2.7-8,8.2-7.4,13.8.6,6.7,1.2,13.5,1.7,20.6,20.7-23.7,41.5-34.1,62.2-39.7Z"/>
                <path class="cls-1" d="M329.9,22.2c-31,17.9-61.9,7-92.9-3.9v16.7c-18.1,2.7-36.1,5.5-54.2,14,18.1.5,36.1,6.8,54.2,13.1v39.8c-18.1-6.3-36.1-12.6-54.2-13.1,18.1,9.5,36.1,24.9,54.2,40.2v16.7c-5.9-2.1-11.9-4.1-17.8-6-5.2-1.6-10.4-3.1-15.6-4.3-19.7-14.4-39.5-24.5-59.2-22.8.2,9.6.3,19.4.3,29.4,0,24.1-.6,47.8-1.7,70.9,1.3,0,2.6,0,3.9,0-1.3.8-2.7,1.7-4,2.7-1,19.7-2.3,38.9-4.1,57.5,61.1-42.7,122.2,33.8,183.3,7.7,4.8-2,8.1-6.6,8.5-11.8,3.3-38.6,5.2-80.5,5.2-123.2,0-45.7-2.1-87.3-5.9-123.6ZM300.7,150.9c-2.6,3-5.3,5.8-7.9,8.6.5-3.8,1-7.6,1.6-11.3-3.8-.3-7.6-.9-11.4-1.7,3.3-1.5,6.6-3.2,9.9-5.1-2.1-3.2-4.2-6.5-6.3-9.9,3.6,1.7,7.1,3.1,10.7,4.4,1.2-3.7,2.3-7.4,3.5-11.1,1.2,3.5,2.3,7,3.5,10.5,3.6-1.8,7.1-3.9,10.7-6.4-2.1,3.8-4.2,7.5-6.3,11.1,3.3,1.3,6.6,2.3,9.9,3.1-3.8,1.7-7.6,3-11.4,4,.5,3.7,1,7.4,1.6,11.1-2.6-2.2-5.3-4.6-7.9-7.2Z"/>
                <path class="cls-10" d="M144.4,112.6c19.7-1.6,39.5,8.5,59.2,22.8,5.2,1.2,10.4,2.6,15.6,4.3-25-20.3-50-37-75-34.9,0,2.6.1,5.2.2,7.8Z"/>
                <path class="cls-10" d="M142.5,63.3c31.5-35.4,63-40.2,94.6-45-11.1-3.9-22.2-7.8-33.4-10.3-20.7,5.7-41.5,16-62.2,39.7.4,5.1.7,10.3,1,15.5Z"/>
                <path class="cls-10" d="M237,70v-8c-18.1-6.3-36.1-12.6-54.2-13.1,18.1-8.5,36.1-11.3,54.2-14v-7.8c-28.6,4.3-57.1,8.7-85.7,35.8,28.6-12.8,57.1-2.9,85.7,7Z"/>
                <path class="cls-10" d="M144,95.9c31-2.8,62,23.4,93.1,49.7v-16.7c-18.1-15.3-36.1-30.6-54.2-40.2,18.1.5,36.1,6.8,54.2,13.1v-8c-31.1-10.8-62.2-21.6-93.2-3.1,0,1.7.1,3.4.2,5.1Z"/>
                <path class="cls-10" d="M146.9,213c-1.3,0-2.6-.1-3.9,0,0,.9,0,1.8-.1,2.8,1.3-.9,2.7-1.8,4-2.7Z"/>
                <path class="cls-10" d="M318.4,143c-3.3-.8-6.6-1.8-9.9-3.1,2.1-3.6,4.2-7.3,6.3-11.1-3.6,2.4-7.1,4.5-10.7,6.4-1.2-3.5-2.3-7-3.5-10.5-1.2,3.7-2.3,7.4-3.5,11.1-3.6-1.2-7.1-2.7-10.7-4.4,2.1,3.4,4.2,6.7,6.3,9.9-3.3,1.9-6.6,3.6-9.9,5.1,3.8.8,7.6,1.4,11.4,1.7-.5,3.8-1,7.6-1.6,11.3,2.6-2.7,5.3-5.6,7.9-8.6,2.6,2.5,5.3,5,7.9,7.2-.5-3.7-1-7.4-1.6-11.1,3.8-1,7.6-2.3,11.4-4Z"/>
                <path class="cls-5" d="M144.2,104.8c25-2.2,50,14.5,75,34.9,5.9,1.9,11.9,3.9,17.8,6-31-26.3-62-52.6-93.1-49.7,0,2.9.2,5.9.3,8.9Z"/>
                <path class="cls-5" d="M143.8,90.8c31.1-18.5,62.2-7.7,93.2,3.1v-23.9c-28.6-10-57.1-19.9-85.7-7,28.6-27.1,57.1-31.5,85.7-35.8v-8.9c-31.5,4.8-63,9.6-94.6,45,.5,8.9,1,18.1,1.3,27.5Z"/>
              </g>
              <path class="cls-15" d="M183.3,240.3c1.4-29.9,2.2-60.6,2.2-91.5,0-12.8-.1-25.4-.4-37.7,0-3.3-.1-6.6-.2-9.9-.1-3.8-.2-7.6-.3-11.3,0-2.2-.1-4.4-.2-6.5-.4-12-1-23.7-1.7-35-.4-6.7-.8-13.3-1.3-19.8-.6-7.9-1.2-15.7-1.9-23.3-10.8.1-21.6,2.5-32.3,8.2-5,2.7-7.9,8.1-7.3,13.8.6,6.7,1.2,13.6,1.7,20.6.4,5.1.7,10.3,1,15.5.5,8.9,1,18.1,1.3,27.5,0,1.7.1,3.4.2,5.1,0,2.9.2,5.9.3,8.9,0,2.6.1,5.2.2,7.8.2,9.6.3,19.4.3,29.4,0,22-.5,43.7-1.4,64.9,2.2,6.9,4.5,13.7,6.7,20.4-2.2-6.7-4.5-13.5-6.7-20.4,0,2-.2,4-.2,5.9,0,.9,0,1.8-.1,2.8-1,19.7-2.3,38.9-4.1,57.5,14.5-10.1,29-13.5,43.5-13.2.3-5.3.6-10.7.9-16.1,0-1.2.1-2.4.2-3.6ZM177.9,91.4c-2.2.4-4.5.6-6.7.6,2.2,0,4.5-.3,6.7-.6ZM148.4,57c2-2,3.9-3.8,5.9-5.6-2,1.8-3.9,3.6-5.9,5.6ZM178,112.8c1.6-.3,3.2-.6,4.8-1.1-1.6.4-3.2.8-4.8,1.1Z"/>
              <g>
                <path class="cls-9" d="M0,38v27.1c18.1-15.3,36.1-15.3,54.2-10.2C36.1,40.8,18.1,31.8,0,38Z"/>
                <path class="cls-1" d="M140.6,234.7c1.1,7.7,2.2,15.3,3.3,22.9-5.5-4-11.1-9-16.6-14.9-5.5,5.7-11.1,10.7-16.6,15.1,1.1-7.7,2.2-15.4,3.3-23.1-8-2.4-16-6-24-10,6.9-1.3,13.8-2.8,20.7-5.1-4.4-7.8-8.9-16-13.3-24.3,7.5,5.6,15,10.7,22.5,14.6,2.5-7.3,4.9-14.8,7.4-22.4,2.5,7.7,4.9,15.2,7.4,22.5,7.5-3.8,15-9.3,22.5-17.4-4.4,9.7-8.9,18.6-13.3,26.8,5.6,1.5,11.2,1.8,16.8.6,1.1-23.3,1.7-47.2,1.7-71.3,0-10-.1-19.8-.3-29.4-4.9,1.7-9.9,2.2-14.8,1.8v37c-2.7,1.1-5.3,1.9-8,2.5-8,1.8-15.9,1.5-23.9,0-2.7-.5-5.3-1.2-8-2v-37c-24.7,5.2-49.4,1.1-74.1,13.9-11.1.2-22.3,3.8-33.4,13.2v127.4c49.7-42.1,99.3,31.6,149,8.7,4.6-2.1,7.8-6.6,8.2-11.7,1.4-16.3,2.5-33.1,3.4-50.4-6.6,5.8-13.3,9.6-19.9,11.9Z"/>
                <path class="cls-9" d="M0,104.9v27.1c18.1-24.3,36.1-33.3,54.2-37.3-18.1-5.1-36.1-5.1-54.2,10.2Z"/>
                <path class="cls-9" d="M159.1,55.1c-.8-10.1-1.6-19.9-2.6-29.3-3.1,2.1-6.2,3.7-9.3,5v37c4-3.6,7.9-7.9,11.9-12.8Z"/>
                <path class="cls-9" d="M107.5,31.3c-24.7-7.2-49.4-23.6-74.1-23.2,24.7,11.9,49.4,40.7,74.1,60.2V31.3Z"/>
                <path class="cls-10" d="M139.3,111.9v48.8c2.7-.6,5.3-1.4,8-2.5v-37c4.9.4,9.9-.1,14.8-1.8,0-2.6-.1-5.2-.2-7.7-7.5,2.5-15.1,2.4-22.6.3Z"/>
                <path class="cls-10" d="M151.2,80.7c3-3,5.9-6.4,8.9-10.2-.3-5.2-.7-10.3-1-15.4-4,4.9-7.9,9.2-11.9,12.8V30.8c-2.7,1.1-5.3,1.9-8,2.5v51.7c4-.9,8-2.3,11.9-4.4Z"/>
                <path class="cls-10" d="M151.2,104.6c3.5,0,6.9-.6,10.4-1.8,0-1.7-.1-3.4-.2-5.1-3.4,2.8-6.8,5-10.2,6.8Z"/>
                <path class="cls-10" d="M0,97v8c18.1-15.3,36.1-15.3,54.2-10.2-18.1,3.9-36.1,12.9-54.2,37.3v7.8c28.6-38.5,57.1-38.7,85.7-41-28.6-12-57.1-26.1-85.7-1.9Z"/>
                <path class="cls-10" d="M115.4,33.3c-2.7-.5-5.3-1.2-8-2v37C82.8,48.8,58.1,20,33.4,8.1c-5.2,0-10.4.9-15.6,2.7,32.5,4.8,65.1,48.5,97.6,71.2v-48.8Z"/>
                <path class="cls-10" d="M107.5,121.6v37c2.7.8,5.3,1.4,8,2v-51.7c-4-.8-8-1.9-11.9-3.2-34.5,5.9-69-3.4-103.5,43,11.1-9.4,22.3-13,33.4-13.2,24.7-12.8,49.4-8.7,74.1-13.9Z"/>
                <path class="cls-10" d="M0,21.4v16.7c18.1-6.3,36.1,2.8,54.2,16.9-18.1-5.1-36.1-5.1-54.2,10.2v8c34.5-29.2,69-2.6,103.5,8.7C69,53.3,34.5,9.4,0,21.4Z"/>
                <path class="cls-10" d="M157.2,192.5c-7.5,8-15,13.6-22.5,17.4-2.5-7.3-4.9-14.8-7.4-22.5-2.5,7.6-4.9,15-7.4,22.4-7.5-3.8-15-8.9-22.5-14.6,4.4,8.3,8.9,16.5,13.3,24.3-6.9,2.3-13.8,3.9-20.7,5.1,8,4,16,7.6,24,10-1.1,7.7-2.2,15.4-3.3,23.1,5.5-4.4,11.1-9.3,16.6-15.1,5.5,5.9,11.1,11,16.6,14.9-1.1-7.6-2.2-15.2-3.3-22.9,6.6-2.3,13.3-6.1,19.9-11.9,0-.9,0-1.8.1-2.8-5.6,1.1-11.2.8-16.8-.6,4.4-8.2,8.9-17,13.3-26.8Z"/>
                <path class="cls-5" d="M115.4,108.9v51.7c8,1.6,15.9,1.9,23.9,0v-48.8c7.5,2.1,15.1,2.2,22.6-.3,0-3-.2-5.9-.3-8.8-3.5,1.1-6.9,1.7-10.4,1.8,3.4-1.8,6.8-4,10.2-6.8-.3-9.3-.8-18.4-1.3-27.3-3,3.8-5.9,7.2-8.9,10.2-4,2.1-8,3.5-11.9,4.4v-51.7c-8,1.8-15.9,1.5-23.9,0v48.8C82.9,59.4,50.3,15.7,17.8,10.9c-5.9,2.1-11.9,5.5-17.8,10.5,34.5-12,69,31.9,103.5,60.5C69,70.5,34.5,43.9,0,73.1v23.9c28.6-24.2,57.1-10.1,85.7,1.9-28.6,2.3-57.1,2.5-85.7,41v8.9c34.5-46.5,69-37.1,103.5-43,4,1.3,8,2.4,11.9,3.2Z"/>
              </g>
            </g>
          </g>
          <g>
            <path class="cls-12" d="M336.3,159.3s19.4,1.2,45.2,10.1c0,0,25.4,21,25.4,54.1h-47.6s-8.5-39.9-23-64.2Z"/>
            <path class="cls-11" d="M359.3,223.4h17.9c-4.5-37.5-29.6-58.7-36.1-63.7-3.1-.4-4.9-.5-4.9-.5,14.5,24.2,23,64.2,23,64.2Z"/>
            <path class="cls-4" d="M96.3,226l4.8-37.7,30-.8,7-19.7,28.4,2.8,4-32.7,50,42.4,26.6-17.8,20.6-20.6,20.2-34.3s20.6,15.7,44.4,50.4c23.8,34.7,26.9,68.9,26.9,68.9,0,0-263-.9-262.9-.9Z"/>
            <path class="cls-12" d="M101.5,225.4s4-16.4,9.7-23.7c0,0,16.7,4.6,36,23.4l-45.7.3Z"/>
            <path class="cls-12" d="M313.3,226h43.7c-22.7-68.8-62.5-93.6-62.5-93.6,0,0-9.1,10-13.6,22.1l40.5,44,11,16.8c-37-48.5-60.7-58.6-60.7-58.6,0,0-7.3,3.9-15.6,14.7l35.2,29.6,22,25.1Z"/>
            <polygon class="cls-12" points="179 226 188.1 222.8 194.9 223 196.7 221.4 208.4 193.4 193.8 162.4 177.5 175.8 153.7 178.7 143.4 190.4 161.8 226 179 226"/>
            <path class="cls-11" d="M200.4,212.4l7.6-18.1.4-.9-14.5-31-6.5,5.3c3.4,6.4,11.7,24.3,13.1,44.7Z"/>
            <path class="cls-11" d="M162.8,177.6l-9.2,1.1-3.7,4.2c4.1,4.9,16.1,20.7,24.3,43.1h4.7l9.1-3.2-24.5-45-.8-.2Z"/>
            <path class="cls-14" d="M199.9,223s20.2-41.7,41.7-51.9l11.3-5.1s10.5-13.5,18.6-15.9c0,0,4.7-18.3,21.7-36.5l-10.9-7.3-20,36.2-4.6,1.4-16.4,19.3-11.8,1.3s-27.9,34.5-29.5,58.5Z"/>
            <path class="cls-13" d="M173.9,177.8s5.7-26.5,8.2-30.8l-14.9-16-4.3,41.4,10.9,5.4Z"/>
            <path class="cls-14" d="M141.1,192.5s3.2-14.3,7.2-18.8l-11.5-8.8-5.7,22.6,10,5Z"/>
            <path class="cls-13" d="M101.7,226c1-8.4,3.2-22.6,7.3-32.6l-14.3-10.2,1.6,42.8h5.3Z"/>
            <path class="cls-2" d="M283.6,110.3s23.1,12.6,48.2,52.7c15.7,25.1,22.4,47.1,25.2,63h5.6c-12.4-81.7-79.5-125.5-79.5-125.5-16,21.2-20.4,40-20.4,40l5.3,4.2c2.4-11.6,15.6-34.4,15.6-34.4Z"/>
            <path class="cls-2" d="M261.7,146.3c40.7,23.6,63.2,58.3,74.1,79.7h6.5c-28.3-59.2-81.5-89.3-81.5-89.3-14.9,14.7-20.6,24.8-20.6,24.8l4.9,5.6c3.1-5.4,16.7-20.7,16.7-20.7Z"/>
            <path class="cls-11" d="M166.2,129l-1.1-5s33.4,10.9,56.5,47.9l-10.8,24-1.4.4s-5.7-16.1-18.3-36.8c-12.6-20.6-24.9-30.5-24.9-30.5Z"/>
            <path class="cls-2" d="M210.8,195.6c-10.8-34.4-45.6-71.6-45.6-71.6-3.9,14.5-4.5,47-4.5,47l5.7,2.3s.5-25.1,3-38.7c0,0,31.1,32.9,38.5,65.6l2.8-4.5Z"/>
            <path class="cls-11" d="M185,226h9.3l.6-3c-1.1-26.5-12.8-44.9-12.8-44.9-19.6-14.3-46.7-19.9-46.7-19.9,0,0,15.4,15.7,29.5,35.2,9.3,12.9,16,24.6,20.1,32.6Z"/>
            <path class="cls-2" d="M138,167.8s19.9,16.3,32.1,35.6c5.8,9.1,10.1,16.9,13.1,22.7h3.6c-2.5-4.7-6.1-11.2-11.3-20.2-15.1-25.7-40.1-47.6-40.1-47.6-2.6,10-10.4,47.3-10.4,47.3l3.4,3.9c1.8-12,9.7-41.6,9.7-41.6Z"/>
            <path class="cls-11" d="M147.4,226h16.7c-7.4-22.4-20.6-35.6-20.6-35.6-22.2-9.7-49.9-9.3-49.9-9.3,0,0,18.5,12,36.4,28,6.7,6,12.6,11.8,17.4,17Z"/>
            <path class="cls-2" d="M96.3,226c-.5-15.1-.7-40.3-.7-40.3,0,0,25.6,15.8,41.8,31.9,2.9,2.9,5.6,5.8,8.1,8.4h4.2c-1.9-2.2-4.1-4.5-6.5-7.1-20.3-21.9-49.5-37.8-49.5-37.8-.3,7.7,0,32.6.2,45h2.5Z"/>
            <path class="cls-11" d="M310.6,226h3.9c-12.1-26.5-53.9-59.4-64.3-63.1-10.8-3.8-21.6-1.8-21.6-1.8,0,0,16.1,7.5,39.5,26.1,18.6,14.8,36,32.2,42.4,38.8Z"/>
            <path class="cls-2" d="M231.1,167.6c43.8,20.1,68.1,49.5,74.8,58.4h5.4c-28.8-40.1-82.6-64.9-82.6-64.9-26.9,24.5-33.9,61.8-33.9,61.8h5.1c8.6-32.9,31.2-55.4,31.2-55.4Z"/>
            <path class="cls-12" d="M199.9,223s11.3-23.4,39.9-37.1c0,0,39.5,10.1,65,38.7l-104.9-1.6Z"/>
            <path class="cls-2" d="M101.6,225.4h7.2s5.1-.6,5.1-.6l-2.7-23c-5.2,6.6-9,20.9-9.6,23.3v.4Z"/>
            <path class="cls-2" d="M199.9,223l37.9.6c-1.1-22.6,2-37.7,2-37.7-28.7,13.7-39.9,37.1-39.9,37.1Z"/>
            <path class="cls-11" d="M213,225s7.1-14.6,25-23.2c0,0,24.7,6.3,40.6,24.2l-65.6-1Z"/>
            <path class="cls-12" d="M213,225l23.7.4c.5-9.2,1.3-23.6,1.3-23.6-17.9,8.6-25,23.2-25,23.2Z"/>
            <rect class="cls-12" x="67.5" y="223" width="349.8" height="7.7"/>
            <rect class="cls-2" x="67.3" y="223" width="63.4" height="8"/>
            <g>
              <rect class="cls-13" x="70" y="227.7" width="4.2" height="3.3"/>
              <rect class="cls-4" x="77.7" y="227.7" width="4.2" height="3.3"/>
              <rect class="cls-13" x="85.3" y="227.7" width="4.2" height="3.3"/>
              <rect class="cls-4" x="93" y="227.7" width="4.2" height="3.3"/>
              <rect class="cls-13" x="100.7" y="227.7" width="4.2" height="3.3"/>
              <rect class="cls-13" x="108.4" y="227.7" width="4.2" height="3.3"/>
              <rect class="cls-4" x="116" y="227.7" width="4.2" height="3.3"/>
              <rect class="cls-13" x="123.7" y="227.7" width="4.2" height="3.3"/>
            </g>
            <g>
              <rect class="cls-11" x="129.6" y="227.5" width="159.8" height="21.8"/>
              <g>
                <rect class="cls-13" x="136.4" y="240.5" width="10.7" height="8.9"/>
                <rect class="cls-4" x="155.8" y="240.5" width="10.7" height="8.9"/>
                <rect class="cls-13" x="175.1" y="240.5" width="10.7" height="8.9"/>
                <rect class="cls-4" x="194.5" y="240.5" width="10.7" height="8.9"/>
                <rect class="cls-13" x="213.8" y="240.5" width="10.7" height="8.9"/>
                <rect class="cls-13" x="233.2" y="240.5" width="10.7" height="8.9"/>
                <rect class="cls-4" x="252.5" y="240.5" width="10.7" height="8.9"/>
                <rect class="cls-13" x="271.9" y="240.5" width="10.7" height="8.9"/>
              </g>
            </g>
            <rect class="cls-13" x="129.6" y="249.4" width="296.3" height="5.1"/>
            <rect class="cls-11" x="56.7" y="230.9" width="84.6" height="10.6"/>
            <g>
              <rect class="cls-4" x="60.3" y="237.3" width="5.7" height="4.3"/>
              <rect class="cls-4" x="70.5" y="237.3" width="5.7" height="4.3"/>
              <rect class="cls-13" x="80.8" y="237.3" width="5.7" height="4.3"/>
              <rect class="cls-4" x="91" y="237.3" width="5.7" height="4.3"/>
              <rect class="cls-13" x="101.3" y="237.3" width="5.7" height="4.3"/>
              <rect class="cls-4" x="111.5" y="237.3" width="5.7" height="4.3"/>
              <rect class="cls-4" x="121.7" y="237.3" width="5.7" height="4.3"/>
              <rect class="cls-4" x="132" y="237.3" width="5.7" height="4.3"/>
            </g>
            <rect class="cls-13" x="47.7" y="241.6" width="102.6" height="12.9"/>
            <g>
              <rect class="cls-11" x="52.1" y="249.2" width="6.9" height="5.3"/>
              <rect class="cls-4" x="64.5" y="249.2" width="6.9" height="5.3"/>
              <rect class="cls-11" x="76.9" y="249.2" width="6.9" height="5.3"/>
              <rect class="cls-4" x="89.3" y="249.2" width="6.9" height="5.3"/>
              <rect class="cls-11" x="101.7" y="249.2" width="6.9" height="5.3"/>
              <rect class="cls-4" x="114.2" y="249.2" width="6.9" height="5.3"/>
              <rect class="cls-11" x="126.6" y="249.2" width="6.9" height="5.3"/>
              <rect class="cls-4" x="139" y="249.2" width="6.9" height="5.3"/>
            </g>
            <g>
              <rect class="cls-13" x="233.4" y="226.2" width="183.9" height="23.1"/>
              <g>
                <rect class="cls-14" x="241.3" y="239.9" width="12.3" height="9.4"/>
                <rect class="cls-4" x="263.5" y="239.9" width="12.3" height="9.4"/>
                <rect class="cls-4" x="285.8" y="239.9" width="12.3" height="9.4"/>
                <rect class="cls-4" x="308.1" y="239.9" width="12.3" height="9.4"/>
                <rect class="cls-14" x="330.3" y="239.9" width="12.3" height="9.4"/>
                <rect class="cls-14" x="352.6" y="239.9" width="12.3" height="9.4"/>
                <rect class="cls-4" x="374.8" y="239.9" width="12.3" height="9.4"/>
                <rect class="cls-14" x="397.1" y="239.9" width="12.3" height="9.4"/>
              </g>
            </g>
          </g>
          <path class="cls-7" d="M27.6,254.5c.2.4.4.8.6,1.3,1.1,3.5.7,7.3,2,10.8,1.8,3.3,2.6,7.1,5.1,10.1,1.3,1.8,2.7,3.7,3.7,5.7,1.2,2.4,2.9,4.7,2.1,7.7,0,1.9.5,3.7.4,5.6,0,2,.4,3.9.6,5.8.3,2.6,0,4.9-3.2,5.5-1.5.3-2.2,1.4-2.4,2.8,0,.8,0,1.7,0,2.5.4,4.8,1.9,6.4,6.7,7.3,1.4.2,2.5.9,3.5,1.7,3,2.4,6.5,3.7,10.2,4.3,3.8.2,7.5.2,11.3,0,2.9-.4,5.7-1.3,7.9-3.3.2-1.9,1.5-3.1,2.9-4.1,1.2-1.6,2.9-2,4.7-2.2,1.4-.2,3.3-.4,3.6-2,.7-4.4,3.8-5.1,7.3-5.6,1.5-.2,3-.7,4.5-1.3,4.4-.3,8.9-1.6,13,1.2,3.5-2.1,7.1-2.1,10.8-.8,4.1-2.1,8.6-3.7,9.7-9.1.6-3,2.7-5,5.9-5.7,2.4-.5,4.4-2,6.5-3.2.6-.3,1.3-.7,1.9-1.1,3.9-3.2,8.5-4.3,13.5-3.7,2.2,0,4.2-.5,6.3-1,4.2-1.3,8.2-3,12.4-4.4,6.4-3.2,13.3-3.6,20.3-3.4,6-1.3,11.3-.1,16,4.1,1.3,1.2,3.2,1.7,5.1,1.5,1.5-.3,2.8,0,4.1.7,3.9,1.9,7.5,4.5,11.4,6.3-1.5,4.6-.5,6.8,4.1,8.5,1,.4,1.7.9,1.7,2,0,1.5.4,2.8,1.6,3.8,1.8,1.9,3.6,3.8,3.2,6.8-.6,1.1-1.6,2.2-1.1,3.6,1.5,4.2,5,6.2,9.8,5.6,1.1-1.2,1.3-2.8,1.7-4.2.5-1.8.9-3.7,2.7-4.8,1.7-1.4,3.4-2.8,5.4-3.8,3.3-1.2,5.5-3.5,7-6.6.5-.8.8-1.8,1.5-2.4.4-.4,1.1-.9,1.5-.4.6.7-.5,1.2-.6,1.8,0,3.9-3.2,6.4-4.6,9.8-.2,2-2.2,3.6-1.7,5.5.7,2.8-.8,3.4-2.8,3.9-1.3.8-2.3,1.9-2.8,3.4-.7,2.9,1.1,2.9,3.1,2.7,2.8-.8,6.5.6,8.3-3.1.8-2,1.5-4,2.3-5.9.3-.3.7-1.5,1-.6.9,2.4,2.2,4.8,1.3,7.5-.2.9-.4,1.8-.7,2.8-.8,0-1.4.7-2.1,1.2-1.5,1.3-2.6,3-5,.9-1.3-1.2-3.6-1-5.4.1-6.2,1.1-6.5,1.3-5.9,5.3-.1.8.4,1.2,1.1,1.4,5.2.9,10.2,0,15-2.2.7-.5,1.2-1.2,1.4-2,0,0,0,0,0,0,1.1.8,2.5.6,3.8.7,1.7.1,3.3.4,4.3,2,.7.8,1.2,1.7,1.8,2.5,1.6,2.6,3.4,5.1,3.1,8.4-2.2,3.8-1.7,7.3,1,10.7,1.5,3.5,2.9,7.1,6.7,8.6,2.2.9,4.2,1.9,5.4,4.1.6,1,1.7,1.6,2.8,1.1,2.2-.9,4,.1,5.9.9,1.2.5,2.3,1.2,3.4,1.9,2.6,1.7,4.5,4.3,7.4,5.5,1,.4,2,.4,3,0,1.2-.6,2.5-1,3.7-1.6,2-.8,3.8-2.9,6-2,5.8,2.2,10.7,5.8,14.5,10.8,1.9,1.5,3.5,1.6,4.6-.8.5-1.3,1.5-1.8,2.6-2.3,2.5-1,4.7-2.4,6.9-4.1,3.9-2.4,8-4.2,12.8-2.8,3,.9,6,1.1,9.1,1.2,5.2-1.3,7.8-3.9,8.5-8.8.4-2.4,1.3-4.6,2.6-6.7,1.4-1.5,1.6-3.4,2.1-5.2,1.6-3.9,3.8-7.3,7.7-9.3,1.3-.7,2-1.9,2.4-3.2,1.2-2.9,1.7-6.1,4.2-8.3,2.5-1.6,3.6-4.3,5.2-6.7,1.3-1.7,3-3.1,4.4-4.7,1.6-2.9,4.3-3.9,7.2-4.8,2.9-1.4,5.2-3.4,5.9-6.7,1.1-2.2,2.7-4.1,4.4-6,1-1.2,1.6-2.7,2.4-4,2.5-3.7,2.1-8.6,4.9-12.1,1.3-2.9,2.9-5.6,3.8-8.7.2-.7.4-1.3.7-2,.9-3.6,4.4-5.5,5.3-9.1.2-2.6,1.2-5.2.6-7.8-.4-1.9,0-3.7.7-5.5H27.6Z"/>
          <g>
            <path class="cls-8" d="M255.3,318.9c.7-.7,1-1.5,1.2-2.4-2.6-1.2-5.7-2.4-10.8-2.6,1.6,3.7,5,5.5,9.5,4.9Z"/>
            <path class="cls-8" d="M390.9,332.2c-6.7,0-10.2,1.7-13.3,3.3-3,1.5-5.6,2.7-11.1,2.7s-8.1-1.3-11.1-2.7c-3.1-1.5-6.6-3.3-13.3-3.3s-10.2,1.7-13.3,3.3c-3,1.5-5.6,2.7-11.1,2.7s-8.1-1.3-11.1-2.7c-3.1-1.5-6.6-3.3-13.3-3.3s-5.3.3-7.3.9c.3.4.6.9.9,1.3.7,1,1.3,2.1,1.9,3.2,1.3-.2,2.7-.4,4.5-.4,5.5,0,8.1,1.3,11.1,2.7,3.1,1.5,6.6,3.3,13.3,3.3s10.2-1.7,13.3-3.3c3-1.5,5.6-2.7,11.1-2.7s8.1,1.3,11.1,2.7c3.1,1.5,6.6,3.3,13.3,3.3s10.2-1.7,13.3-3.3c3-1.5,5.6-2.7,11.1-2.7s8.1,1.3,11.1,2.7c1.8.9,3.8,1.8,6.4,2.5.3-.5.6-1.1.8-1.7.4-1,.7-2,1.1-3-2.4-.5-4.2-1.4-6.1-2.3-3.1-1.5-6.6-3.3-13.3-3.3Z"/>
            <path class="cls-8" d="M439.7,295.7c-6.7,0-10.2,1.7-13.3,3.3-3,1.5-5.6,2.7-11.1,2.7s-8.1-1.3-11.1-2.7c-3.1-1.5-6.6-3.3-13.3-3.3s-10.2,1.7-13.3,3.3c-3,1.5-5.6,2.7-11.1,2.7s-8.1-1.3-11.1-2.7c-3.1-1.5-6.6-3.3-13.3-3.3s-10.2,1.7-13.3,3.3c-3,1.5-5.6,2.7-11.1,2.7s-8.1-1.3-11.1-2.7c-3.1-1.5-6.6-3.3-13.3-3.3s-10.2,1.7-13.3,3.3c-2,1-3.7,1.8-6.3,2.3-.8,1.9-2.1,3.6-3.2,5.4,5.6-.3,8.8-1.8,11.7-3.2,3-1.5,5.6-2.7,11.1-2.7s8.1,1.3,11.1,2.7c3.1,1.5,6.6,3.3,13.3,3.3s10.2-1.7,13.3-3.3c3-1.5,5.6-2.7,11.1-2.7s8.1,1.3,11.1,2.7c3.1,1.5,6.6,3.3,13.3,3.3s10.2-1.7,13.3-3.3c3-1.5,5.6-2.7,11.1-2.7s8.1,1.3,11.1,2.7c3.1,1.5,6.6,3.3,13.3,3.3s10.2-1.7,13.3-3.3c3-1.5,5.6-2.7,11.1-2.7s1.8,0,2.6.1c.2-.4.4-.8.7-1.2.7-1.1,1.2-2.3,1.6-3.6-1.4-.2-3-.4-4.9-.4Z"/>
            <path class="cls-8" d="M453,262.5c-3.1-1.5-6.6-3.3-13.3-3.3s-10.2,1.7-13.3,3.3c-3,1.5-5.6,2.7-11.1,2.7s-8.1-1.3-11.1-2.7c-3.1-1.5-6.6-3.3-13.3-3.3s-10.2,1.7-13.3,3.3c-3,1.5-5.6,2.7-11.1,2.7s-8.1-1.3-11.1-2.7c-3.1-1.5-6.6-3.3-13.3-3.3s-10.2,1.7-13.3,3.3c-3,1.5-5.6,2.7-11.1,2.7s-8.1-1.3-11.1-2.7c-3.1-1.5-6.6-3.3-13.3-3.3s-10.2,1.7-13.3,3.3c-3,1.5-5.6,2.7-11.1,2.7s-8.1-1.3-11.1-2.7c-3.1-1.5-6.6-3.3-13.3-3.3s-10.2,1.7-13.3,3.3c-3,1.5-5.6,2.7-11.1,2.7s-8.1-1.3-11.1-2.7c-3.1-1.5-6.6-3.3-13.3-3.3s-10.2,1.7-13.3,3.3c-3,1.5-5.6,2.7-11.1,2.7s-8.1-1.3-11.1-2.7c-3.1-1.5-6.6-3.3-13.3-3.3s-10.2,1.7-13.3,3.3c-3,1.5-5.6,2.7-11.1,2.7s-8.1-1.3-11.1-2.7c-3.1-1.5-6.6-3.3-13.3-3.3s-10.2,1.7-13.3,3.3c-3,1.5-5.6,2.7-11.1,2.7s-8.1-1.3-11.1-2.7c-3.1-1.5-6.6-3.3-13.3-3.3s-10.2,1.7-13.3,3.3c-2,1-3.9,1.9-6.5,2.4.1.6.3,1.2.5,1.7.5,1,1,2,1.4,3,2.9-.6,4.9-1.7,6.9-2.6,3-1.5,5.6-2.7,11.1-2.7s8.1,1.3,11.1,2.7c3.1,1.5,6.6,3.3,13.3,3.3s10.2-1.7,13.3-3.3c3-1.5,5.6-2.7,11.1-2.7s8.1,1.3,11.1,2.7c3.1,1.5,6.6,3.3,13.3,3.3s10.2-1.7,13.3-3.3c3-1.5,5.6-2.7,11.1-2.7s8.1,1.3,11.1,2.7c3.1,1.5,6.6,3.3,13.3,3.3s10.2-1.7,13.3-3.3c3-1.5,5.6-2.7,11.1-2.7s8.1,1.3,11.1,2.7c3.1,1.5,6.6,3.3,13.3,3.3s10.2-1.7,13.3-3.3c3-1.5,5.6-2.7,11.1-2.7s8.1,1.3,11.1,2.7c3.1,1.5,6.6,3.3,13.3,3.3s10.2-1.7,13.3-3.3c3-1.5,5.6-2.7,11.1-2.7s8.1,1.3,11.1,2.7c3.1,1.5,6.6,3.3,13.3,3.3s10.2-1.7,13.3-3.3c3-1.5,5.6-2.7,11.1-2.7s8.1,1.3,11.1,2.7c3.1,1.5,6.6,3.3,13.3,3.3s10.2-1.7,13.3-3.3c3-1.5,5.6-2.7,11.1-2.7s8.1,1.3,11.1,2.7c3.1,1.5,6.6,3.3,13.3,3.3s10.2-1.7,13.3-3.3c3-1.5,5.6-2.7,11.1-2.7s8.1,1.3,11.1,2.7c1.8.9,3.7,1.8,6.3,2.5.3-.5.5-1.1.6-1.6.1-1.1.3-2.1.5-3.2-2-.5-3.6-1.3-5.2-2.1Z"/>
            <path class="cls-8" d="M342.1,355.4c5.5,0,8.1,1.3,11.1,2.7,3.1,1.5,6.6,3.3,13.3,3.3s10.2-1.7,13.3-3.3c3-1.5,5.6-2.7,11.1-2.7s5.3.4,7.2,1c.4-1,.6-2.1.9-3.2.2-.5.4-1,.7-1.5-2.3-.8-5-1.3-8.8-1.3-6.7,0-10.2,1.7-13.3,3.3-3,1.5-5.6,2.7-11.1,2.7s-8.1-1.3-11.1-2.7c-3.1-1.5-6.6-3.3-13.3-3.3s-10.2,1.7-13.3,3.3c-3,1.5-5.6,2.7-11.1,2.7s-8.1-1.3-11.1-2.7c-3.1-1.5-6.6-3.3-13.3-3.3s-2.8,0-4,.2c.4.9,1,1.8,1.7,2.7.3.7.6,1.4.9,2.1.5,0,1,0,1.5,0,5.5,0,8.1,1.3,11.1,2.7,3.1,1.5,6.6,3.3,13.3,3.3s10.2-1.7,13.3-3.3c3-1.5,5.6-2.7,11.1-2.7Z"/>
            <path class="cls-8" d="M365.3,374.7c-4.7-.2-7.1-1.4-9.9-2.7-3.1-1.5-6.6-3.3-13.3-3.3s-10.2,1.7-13.3,3.3c-2.4,1.2-4.5,2.2-8,2.6.6.4,1.2.8,1.9,1,1,.4,2,.4,3,0,1.2-.6,2.5-1,3.7-1.6,2-.8,3.8-2.9,6-2,1.4.5,2.8,1.2,4.1,1.9.8,0,1.7-.1,2.7-.1,5.5,0,8.1,1.3,11.1,2.7,1.6.8,3.4,1.7,5.6,2.3,1.8-.9,3.4-2,5-3.2.5-.3,1-.6,1.4-.8Z"/>
            <path class="cls-8" d="M62.8,317.2c-3.1-1.5-6.6-3.3-13.3-3.3s-9.1,1.3-11.9,2.6c1,1.7,2.6,2.5,5.6,3,.1,0,.2,0,.4,0,1.6-.4,3.5-.7,5.9-.7,5.5,0,8.1,1.3,11.1,2.7,2.7,1.3,5.6,2.8,10.6,3.2,1.8-.5,3.5-1.4,5-2.7,0-1,.4-1.7,1-2.4-1,.1-2,.2-3.3.2-5.5,0-8.1-1.3-11.1-2.7Z"/>
            <path class="cls-8" d="M439.7,277.5c-6.7,0-10.2,1.7-13.3,3.3-3,1.5-5.6,2.7-11.1,2.7s-8.1-1.3-11.1-2.7c-3.1-1.5-6.6-3.3-13.3-3.3s-10.2,1.7-13.3,3.3c-3,1.5-5.6,2.7-11.1,2.7s-8.1-1.3-11.1-2.7c-3.1-1.5-6.6-3.3-13.3-3.3s-10.2,1.7-13.3,3.3c-3,1.5-5.6,2.7-11.1,2.7s-8.1-1.3-11.1-2.7c-3.1-1.5-6.6-3.3-13.3-3.3s-10.2,1.7-13.3,3.3c-3,1.5-5.6,2.7-11.1,2.7s-8.1-1.3-11.1-2.7c-3.1-1.5-6.6-3.3-13.3-3.3s-10.2,1.7-13.3,3.3c-1.7.9-3.3,1.6-5.4,2.1,1.9,1,3.8,2.2,5.7,3.3.7-.3,1.3-.6,1.9-.9,3-1.5,5.6-2.7,11.1-2.7s8.1,1.3,11.1,2.7c3.1,1.5,6.6,3.3,13.3,3.3s10.2-1.7,13.3-3.3c3-1.5,5.6-2.7,11.1-2.7s8.1,1.3,11.1,2.7c3.1,1.5,6.6,3.3,13.3,3.3s10.2-1.7,13.3-3.3c3-1.5,5.6-2.7,11.1-2.7s8.1,1.3,11.1,2.7c3.1,1.5,6.6,3.3,13.3,3.3s10.2-1.7,13.3-3.3c3-1.5,5.6-2.7,11.1-2.7s8.1,1.3,11.1,2.7c3.1,1.5,6.6,3.3,13.3,3.3s10.2-1.7,13.3-3.3c3-1.5,5.6-2.7,11.1-2.7s7.2.9,9.7,2.1c.7-1.5,1.4-3,2-4.6-2.8-1.3-6.1-2.5-11.7-2.5Z"/>
            <path class="cls-8" d="M147.1,277.5c-6.7,0-10.2,1.7-13.3,3.3-3,1.5-5.6,2.7-11.1,2.7s-8.1-1.3-11.1-2.7c-3.1-1.5-6.6-3.3-13.3-3.3s-10.2,1.7-13.3,3.3c-3,1.5-5.6,2.7-11.1,2.7s-8.1-1.3-11.1-2.7c-3.1-1.5-6.6-3.3-13.3-3.3s-9,1.2-11.8,2.5c.5.7,1,1.5,1.4,2.3.4.7.7,1.4,1.1,2.1,2.4-1.1,4.9-1.9,9.4-1.9s8.1,1.3,11.1,2.7c3.1,1.5,6.6,3.3,13.3,3.3s10.2-1.7,13.3-3.3c3-1.5,5.6-2.7,11.1-2.7s8.1,1.3,11.1,2.7c3.1,1.5,6.6,3.3,13.3,3.3s10.2-1.7,13.3-3.3c3-1.5,5.6-2.7,11.1-2.7s7.1.9,9.5,2c1.2,0,2.5,0,3.8.1,2.2,0,4.2-.5,6.3-1,.3-.1.7-.2,1-.3-3.1-.4-5.1-1.4-7.3-2.5-3.1-1.5-6.6-3.3-13.3-3.3Z"/>
            <path class="cls-8" d="M385.8,373.9c3.8-1,6.1-2.6,7.4-5.2-.7,0-1.5,0-2.3,0-6.7,0-10.2,1.7-13.3,3.3-.5.2-.9.5-1.4.7.2,0,.3,0,.5.1,3,.9,6,1.1,9.1,1.2Z"/>
            <path class="cls-8" d="M111.6,299c-3.1-1.5-6.6-3.3-13.3-3.3s-10.2,1.7-13.3,3.3c-3,1.5-5.6,2.7-11.1,2.7s-8.1-1.3-11.1-2.7c-3.1-1.5-6.6-3.3-13.3-3.3s-5.8.4-7.9,1c0,1.5.4,3.1.6,4.6,0,.2,0,.3,0,.5,1.9-.7,4.1-1.1,7.3-1.1,5.5,0,8.1,1.3,11.1,2.7,3.1,1.5,6.6,3.3,13.3,3.3s10.2-1.7,13.3-3.3c3-1.5,5.6-2.7,11.1-2.7s8.1,1.3,11.1,2.7c3.1,1.5,6.6,3.3,13.3,3.3s1.2,0,1.7,0c3.3-1.6,6.5-3.2,7.8-7-2.4,1.1-5,2-9.6,2s-8.1-1.3-11.1-2.7Z"/>
            <path class="cls-8" d="M426.4,317.2c-3,1.5-5.6,2.7-11.1,2.7s-8.1-1.3-11.1-2.7c-3.1-1.5-6.6-3.3-13.3-3.3s-10.2,1.7-13.3,3.3c-3,1.5-5.6,2.7-11.1,2.7s-8.1-1.3-11.1-2.7c-3.1-1.5-6.6-3.3-13.3-3.3s-10.2,1.7-13.3,3.3c-3,1.5-5.6,2.7-11.1,2.7s-8.1-1.3-11.1-2.7c-3.1-1.5-6.6-3.3-13.3-3.3s-10.2,1.7-13.3,3.3c-.5.2-1,.5-1.5.7.3,1.2.4,2.4,0,3.7-.1.6-.3,1.3-.5,1.9,1.6-.6,2.9-1.2,4.2-1.8,3-1.5,5.6-2.7,11.1-2.7s8.1,1.3,11.1,2.7c3.1,1.5,6.6,3.3,13.3,3.3s10.2-1.7,13.3-3.3c3-1.5,5.6-2.7,11.1-2.7s8.1,1.3,11.1,2.7c3.1,1.5,6.6,3.3,13.3,3.3s10.2-1.7,13.3-3.3c3-1.5,5.6-2.7,11.1-2.7s8.1,1.3,11.1,2.7c3.1,1.5,6.6,3.3,13.3,3.3s3-.1,4.3-.3c1.1-1.2,2.4-2.3,3.5-3.6,1.6-2.9,4.3-3.9,7.2-4.8,1-.5,1.9-1,2.7-1.7-2.8.6-4.8,1.6-6.6,2.5Z"/>
            <path class="cls-8" d="M269,301.7c-5.5,0-8.1-1.3-11.1-2.7-3.1-1.5-6.6-3.3-13.3-3.3s-4.4.2-6.1.6c.5.2,1,.5,1.6.7,1,.4,1.7.9,1.7,2,0,.6.1,1.2.3,1.8.8,0,1.6-.1,2.5-.1,5.5,0,8.1,1.3,11.1,2.7,2.3,1.1,4.8,2.4,8.7,2.9.2-.1.4-.3.7-.4,2.4-.9,4.2-2.4,5.6-4.3-.5,0-1.1,0-1.7,0Z"/>
            <path class="cls-8" d="M263.3,319.4c-.4.5-.7,1-.9,1.6-.7,2.9,1.1,2.9,3.1,2.7,2.8-.8,6.5.6,8.3-3.1.2-.4.3-.8.5-1.2-1.5.3-3.2.5-5.3.5s-4.1-.2-5.6-.6Z"/>
          </g>
          <g>
            <path class="cls-8" d="M353.2,412.9c2.9,1.4,6.1,3,11.8,3.2.5-1.6.7-3.3.8-5-5-.1-7.5-1.3-10.4-2.7-1.3-.6-2.7-1.3-4.4-1.9-2.3.3-4.5.1-6.6-1.3-.7,0-1.5,0-2.4,0-6.5,0-10,1.7-13.1,3.2,0,0,0,0,0,0,.4,1.7.9,3.3,1.3,4.9.2-.1.4-.2.7-.3,3-1.5,5.6-2.7,11.1-2.7s8.1,1.3,11.1,2.7Z"/>
            <path class="cls-8" d="M359.8,428.5c-1.6-.5-3-1.2-4.4-1.9-3.1-1.5-6.6-3.3-13.3-3.3s-8.4,1-11.1,2.2c.2,1.5.7,3,2.2,4.1,0,0,0,.2.1.3,2.2-.9,4.7-1.6,8.7-1.6s8.1,1.3,11.1,2.7c1.4.7,2.9,1.4,4.8,2,.6-1.2,1.4-2.2,2-3.4.2-.4,0-.8-.1-1.2Z"/>
          </g>
          <path class="cls-8" d="M367.5,393.4c0-.2-.2-.3-.3-.5-.2,0-.5,0-.7,0-.8,0-1.5,0-2.2,0,0,0-.2.2-.2.3-2.1,1.1-.8,3.1-.9,4.7,1,.1,2.1.2,3.4.2s1.7,0,2.4,0c.3-1.6-.7-3-1.4-4.4Z"/>
        </g>
      </g>
    </g>
  </g>
</svg>