<?xml version="1.0" encoding="UTF-8"?>
<svg id="OBJECTS" xmlns="http://www.w3.org/2000/svg" xmlns:xlink="http://www.w3.org/1999/xlink" viewBox="0 0 468 259.4">
  <defs>
    <style>
      .cls-1, .cls-2, .cls-3, .cls-4, .cls-5, .cls-6, .cls-7, .cls-8, .cls-9, .cls-10, .cls-11, .cls-12, .cls-13 {
        stroke-width: 0px;
      }

      .cls-1, .cls-2, .cls-3, .cls-7, .cls-11, .cls-13 {
        fill-rule: evenodd;
      }

      .cls-1, .cls-8 {
        fill: #ebebeb;
      }

      .cls-2, .cls-6 {
        fill: #c4c5ca;
      }

      .cls-3, .cls-5 {
        fill: #f6f6f6;
      }

      .cls-14 {
        clip-path: url(#clippath-1);
      }

      .cls-4 {
        clip-rule: evenodd;
        fill: none;
      }

      .cls-15 {
        clip-path: url(#clippath);
      }

      .cls-7 {
        fill: #afb0b0;
      }

      .cls-9, .cls-13 {
        fill: #f7ebe3;
      }

      .cls-10 {
        fill: #bd4b42;
      }

      .cls-11, .cls-12 {
        fill: #334568;
      }
    </style>
    <clipPath id="clippath">
      <path class="cls-4" d="M207.2,244.6h-42.3V27.5s19.8,0,19.8,0c0-9.9.8-21.3,1.3-27.5.5,6.2,1.2,17.9,1.3,27.5h19.9v217Z"/>
    </clipPath>
    <clipPath id="clippath-1">
      <path class="cls-4" d="M263.1,244.6h-42.3V27.5h42.3v217Z"/>
    </clipPath>
  </defs>
  <rect class="cls-6" x="67.7" y="153.4" width="20.4" height="91.2"/>
  <polygon class="cls-2" points="116.4 143.1 119.9 143.1 119.9 137.4 133.3 137.4 133.3 143.1 136.8 143.1 136.8 241.4 116.4 241.4 116.4 143.1"/>
  <polygon class="cls-2" points="308.3 121.3 311.8 121.3 311.8 115.7 325.1 115.7 325.1 121.3 328.6 121.3 328.6 244.6 308.3 244.6 308.3 121.3"/>
  <rect class="cls-6" x="54.6" y="131.3" width="20.4" height="113.3"/>
  <path class="cls-3" d="M207.2,244.6h-42.3V27.5s19.8,0,19.8,0c0-9.9.8-21.3,1.3-27.5.5,6.2,1.2,17.9,1.3,27.5h19.9v217Z"/>
  <g class="cls-15">
    <g>
      <g>
        <rect class="cls-10" x="159.7" y="27.5" width="52.8" height="217"/>
        <rect class="cls-9" x="173.4" y="27.5" width="4.2" height="217"/>
        <rect class="cls-9" x="181.8" y="27.5" width="4.2" height="217"/>
        <rect class="cls-9" x="190.3" y="27.5" width="4.2" height="217"/>
        <rect class="cls-9" x="198.8" y="27.5" width="4.2" height="217"/>
        <rect class="cls-9" x="164.9" y="27.5" width="4.2" height="217"/>
        <rect class="cls-9" x="207.2" y="27.5" width="4.2" height="217"/>
        <rect class="cls-9" x="159.7" y="27.5" width="1" height="217"/>
      </g>
      <rect class="cls-12" x="159.7" width="52.8" height="93.5"/>
      <g>
        <polygon class="cls-13" points="169 30.6 169.7 32.6 171.8 32.7 170.2 34 170.7 36.1 169 34.9 167.2 36.1 167.8 34 166.1 32.7 168.2 32.6 169 30.6"/>
        <polygon class="cls-13" points="180.4 30.6 181.1 32.6 183.2 32.7 181.6 34 182.1 36.1 180.4 34.9 178.6 36.1 179.2 34 177.5 32.7 179.6 32.6 180.4 30.6"/>
        <polygon class="cls-13" points="191.8 30.6 192.5 32.6 194.6 32.7 193 34 193.6 36.1 191.8 34.9 190 36.1 190.6 34 188.9 32.7 191 32.6 191.8 30.6"/>
        <polygon class="cls-13" points="169 41.5 169.7 43.5 171.8 43.6 170.2 44.9 170.7 46.9 169 45.8 167.2 46.9 167.8 44.9 166.1 43.6 168.2 43.5 169 41.5"/>
        <polygon class="cls-13" points="169 52.4 169.7 54.3 171.8 54.4 170.2 55.8 170.7 57.8 169 56.6 167.2 57.8 167.8 55.8 166.1 54.4 168.2 54.3 169 52.4"/>
        <polygon class="cls-13" points="169 63.2 169.7 65.2 171.8 65.3 170.2 66.6 170.7 68.7 169 67.5 167.2 68.7 167.8 66.6 166.1 65.3 168.2 65.2 169 63.2"/>
        <polygon class="cls-13" points="169 74.1 169.7 76.1 171.8 76.2 170.2 77.5 170.7 79.5 169 78.3 167.2 79.5 167.8 77.5 166.1 76.2 168.2 76.1 169 74.1"/>
        <polygon class="cls-13" points="174.7 36.1 175.4 38.1 177.5 38.2 175.9 39.5 176.4 41.5 174.7 40.3 172.9 41.5 173.5 39.5 171.8 38.2 173.9 38.1 174.7 36.1"/>
        <polygon class="cls-13" points="174.7 46.9 175.4 48.9 177.5 49 175.9 50.3 176.4 52.4 174.7 51.2 172.9 52.4 173.5 50.3 171.8 49 173.9 48.9 174.7 46.9"/>
        <polygon class="cls-13" points="174.7 57.8 175.4 59.8 177.5 59.9 175.9 61.2 176.4 63.2 174.7 62.1 172.9 63.2 173.5 61.2 171.8 59.9 173.9 59.8 174.7 57.8"/>
        <polygon class="cls-13" points="174.7 68.7 175.4 70.6 177.5 70.7 175.9 72 176.4 74.1 174.7 72.9 172.9 74.1 173.5 72 171.8 70.7 173.9 70.6 174.7 68.7"/>
        <polygon class="cls-13" points="174.7 79.5 175.4 81.5 177.5 81.6 175.9 82.9 176.4 84.9 174.7 83.8 172.9 84.9 173.5 82.9 171.8 81.6 173.9 81.5 174.7 79.5"/>
        <polygon class="cls-13" points="180.4 41.5 181.1 43.5 183.2 43.6 181.6 44.9 182.1 46.9 180.4 45.8 178.6 46.9 179.2 44.9 177.5 43.6 179.6 43.5 180.4 41.5"/>
        <polygon class="cls-13" points="180.4 52.4 181.1 54.3 183.2 54.4 181.6 55.8 182.1 57.8 180.4 56.6 178.6 57.8 179.2 55.8 177.5 54.4 179.6 54.3 180.4 52.4"/>
        <polygon class="cls-13" points="180.4 63.2 181.1 65.2 183.2 65.3 181.6 66.6 182.1 68.7 180.4 67.5 178.6 68.7 179.2 66.6 177.5 65.3 179.6 65.2 180.4 63.2"/>
        <polygon class="cls-13" points="180.4 74.1 181.1 76.1 183.2 76.2 181.6 77.5 182.1 79.5 180.4 78.3 178.6 79.5 179.2 77.5 177.5 76.2 179.6 76.1 180.4 74.1"/>
        <polygon class="cls-13" points="186.1 36.1 186.8 38.1 188.9 38.2 187.3 39.5 187.8 41.5 186.1 40.3 184.3 41.5 184.9 39.5 183.2 38.2 185.3 38.1 186.1 36.1"/>
        <polygon class="cls-13" points="186.1 46.9 186.8 48.9 188.9 49 187.3 50.3 187.8 52.4 186.1 51.2 184.3 52.4 184.9 50.3 183.2 49 185.3 48.9 186.1 46.9"/>
        <polygon class="cls-13" points="186.1 57.8 186.8 59.8 188.9 59.9 187.3 61.2 187.8 63.2 186.1 62.1 184.3 63.2 184.9 61.2 183.2 59.9 185.3 59.8 186.1 57.8"/>
        <polygon class="cls-13" points="186.1 68.7 186.8 70.6 188.9 70.7 187.3 72 187.8 74.1 186.1 72.9 184.3 74.1 184.9 72 183.2 70.7 185.3 70.6 186.1 68.7"/>
        <polygon class="cls-13" points="186.1 79.5 186.8 81.5 188.9 81.6 187.3 82.9 187.8 84.9 186.1 83.8 184.3 84.9 184.9 82.9 183.2 81.6 185.3 81.5 186.1 79.5"/>
        <polygon class="cls-13" points="191.8 41.5 192.5 43.5 194.6 43.6 193 44.9 193.6 46.9 191.8 45.8 190 46.9 190.6 44.9 188.9 43.6 191 43.5 191.8 41.5"/>
        <polygon class="cls-13" points="191.8 52.4 192.5 54.3 194.6 54.4 193 55.8 193.6 57.8 191.8 56.6 190 57.8 190.6 55.8 188.9 54.4 191 54.3 191.8 52.4"/>
        <polygon class="cls-13" points="191.8 63.2 192.5 65.2 194.6 65.3 193 66.6 193.6 68.7 191.8 67.5 190 68.7 190.6 66.6 188.9 65.3 191 65.2 191.8 63.2"/>
        <polygon class="cls-13" points="191.8 74.1 192.5 76.1 194.6 76.2 193 77.5 193.6 79.5 191.8 78.3 190 79.5 190.6 77.5 188.9 76.2 191 76.1 191.8 74.1"/>
        <polygon class="cls-13" points="197.5 36.1 198.2 38.1 200.4 38.2 198.7 39.5 199.3 41.5 197.5 40.3 195.7 41.5 196.3 39.5 194.6 38.2 196.8 38.1 197.5 36.1"/>
        <polygon class="cls-13" points="197.5 46.9 198.2 48.9 200.4 49 198.7 50.3 199.3 52.4 197.5 51.2 195.7 52.4 196.3 50.3 194.6 49 196.8 48.9 197.5 46.9"/>
        <polygon class="cls-13" points="197.5 57.8 198.2 59.8 200.4 59.9 198.7 61.2 199.3 63.2 197.5 62.1 195.7 63.2 196.3 61.2 194.6 59.9 196.8 59.8 197.5 57.8"/>
        <polygon class="cls-13" points="197.5 68.7 198.2 70.6 200.4 70.7 198.7 72 199.3 74.1 197.5 72.9 195.7 74.1 196.3 72 194.6 70.7 196.8 70.6 197.5 68.7"/>
        <polygon class="cls-13" points="197.5 79.5 198.2 81.5 200.4 81.6 198.7 82.9 199.3 84.9 197.5 83.8 195.7 84.9 196.3 82.9 194.6 81.6 196.8 81.5 197.5 79.5"/>
        <polygon class="cls-13" points="203.2 30.6 203.9 32.6 206.1 32.7 204.4 34 205 36.1 203.2 34.9 201.4 36.1 202 34 200.4 32.7 202.5 32.6 203.2 30.6"/>
        <polygon class="cls-13" points="203.2 41.5 203.9 43.5 206.1 43.6 204.4 44.9 205 46.9 203.2 45.8 201.4 46.9 202 44.9 200.4 43.6 202.5 43.5 203.2 41.5"/>
        <polygon class="cls-13" points="203.2 52.4 203.9 54.3 206.1 54.4 204.4 55.8 205 57.8 203.2 56.6 201.4 57.8 202 55.8 200.4 54.4 202.5 54.3 203.2 52.4"/>
        <polygon class="cls-13" points="203.2 63.2 203.9 65.2 206.1 65.3 204.4 66.6 205 68.7 203.2 67.5 201.4 68.7 202 66.6 200.4 65.3 202.5 65.2 203.2 63.2"/>
        <polygon class="cls-13" points="203.2 74.1 203.9 76.1 206.1 76.2 204.4 77.5 205 79.5 203.2 78.3 201.4 79.5 202 77.5 200.4 76.2 202.5 76.1 203.2 74.1"/>
        <polygon class="cls-13" points="169 84.9 169.7 86.9 171.8 87 170.2 88.3 170.7 90.4 169 89.2 167.2 90.4 167.8 88.3 166.1 87 168.2 86.9 169 84.9"/>
        <polygon class="cls-13" points="180.4 84.9 181.1 86.9 183.2 87 181.6 88.3 182.1 90.4 180.4 89.2 178.6 90.4 179.2 88.3 177.5 87 179.6 86.9 180.4 84.9"/>
        <polygon class="cls-13" points="191.8 84.9 192.5 86.9 194.6 87 193 88.3 193.6 90.4 191.8 89.2 190 90.4 190.6 88.3 188.9 87 191 86.9 191.8 84.9"/>
        <polygon class="cls-13" points="203.2 84.9 203.9 86.9 206.1 87 204.4 88.3 205 90.4 203.2 89.2 201.4 90.4 202 88.3 200.4 87 202.5 86.9 203.2 84.9"/>
      </g>
    </g>
  </g>
  <path class="cls-7" d="M263.1,244.6h-42.3V27.5h42.3v217Z"/>
  <g class="cls-14">
    <g>
      <g>
        <rect class="cls-10" x="215.6" y="27.5" width="52.8" height="217"/>
        <rect class="cls-9" x="229.3" y="27.5" width="4.2" height="217"/>
        <rect class="cls-9" x="237.8" y="27.5" width="4.2" height="217"/>
        <rect class="cls-9" x="246.2" y="27.5" width="4.2" height="217"/>
        <rect class="cls-9" x="254.7" y="27.5" width="4.2" height="217"/>
        <rect class="cls-9" x="220.8" y="27.5" width="4.2" height="217"/>
        <rect class="cls-9" x="263.1" y="27.5" width="4.2" height="217"/>
        <rect class="cls-9" x="215.6" y="27.5" width="1" height="217"/>
      </g>
      <g>
        <rect class="cls-12" x="215.6" y="27.5" width="52.8" height="65.9"/>
        <g>
          <polygon class="cls-13" points="224.9 30.6 225.6 32.6 227.7 32.7 226.1 34 226.6 36.1 224.9 34.9 223.1 36.1 223.7 34 222 32.7 224.1 32.6 224.9 30.6"/>
          <polygon class="cls-13" points="236.3 30.6 237 32.6 239.1 32.7 237.5 34 238 36.1 236.3 34.9 234.5 36.1 235.1 34 233.4 32.7 235.5 32.6 236.3 30.6"/>
          <polygon class="cls-13" points="247.7 30.6 248.4 32.6 250.6 32.7 248.9 34 249.5 36.1 247.7 34.9 245.9 36.1 246.5 34 244.8 32.7 247 32.6 247.7 30.6"/>
          <polygon class="cls-13" points="224.9 41.5 225.6 43.5 227.7 43.6 226.1 44.9 226.6 46.9 224.9 45.8 223.1 46.9 223.7 44.9 222 43.6 224.1 43.5 224.9 41.5"/>
          <polygon class="cls-13" points="224.9 52.4 225.6 54.3 227.7 54.4 226.1 55.8 226.6 57.8 224.9 56.6 223.1 57.8 223.7 55.8 222 54.4 224.1 54.3 224.9 52.4"/>
          <polygon class="cls-13" points="224.9 63.2 225.6 65.2 227.7 65.3 226.1 66.6 226.6 68.7 224.9 67.5 223.1 68.7 223.7 66.6 222 65.3 224.1 65.2 224.9 63.2"/>
          <polygon class="cls-13" points="224.9 74.1 225.6 76.1 227.7 76.2 226.1 77.5 226.6 79.5 224.9 78.3 223.1 79.5 223.7 77.5 222 76.2 224.1 76.1 224.9 74.1"/>
          <polygon class="cls-13" points="230.6 36.1 231.3 38.1 233.4 38.2 231.8 39.5 232.3 41.5 230.6 40.3 228.8 41.5 229.4 39.5 227.7 38.2 229.8 38.1 230.6 36.1"/>
          <polygon class="cls-13" points="230.6 46.9 231.3 48.9 233.4 49 231.8 50.3 232.3 52.4 230.6 51.2 228.8 52.4 229.4 50.3 227.7 49 229.8 48.9 230.6 46.9"/>
          <polygon class="cls-13" points="230.6 57.8 231.3 59.8 233.4 59.9 231.8 61.2 232.3 63.2 230.6 62.1 228.8 63.2 229.4 61.2 227.7 59.9 229.8 59.8 230.6 57.8"/>
          <polygon class="cls-13" points="230.6 68.7 231.3 70.6 233.4 70.7 231.8 72 232.3 74.1 230.6 72.9 228.8 74.1 229.4 72 227.7 70.7 229.8 70.6 230.6 68.7"/>
          <polygon class="cls-13" points="230.6 79.5 231.3 81.5 233.4 81.6 231.8 82.9 232.3 84.9 230.6 83.8 228.8 84.9 229.4 82.9 227.7 81.6 229.8 81.5 230.6 79.5"/>
          <polygon class="cls-13" points="236.3 41.5 237 43.5 239.1 43.6 237.5 44.9 238 46.9 236.3 45.8 234.5 46.9 235.1 44.9 233.4 43.6 235.5 43.5 236.3 41.5"/>
          <polygon class="cls-13" points="236.3 52.4 237 54.3 239.1 54.4 237.5 55.8 238 57.8 236.3 56.6 234.5 57.8 235.1 55.8 233.4 54.4 235.5 54.3 236.3 52.4"/>
          <polygon class="cls-13" points="236.3 63.2 237 65.2 239.1 65.3 237.5 66.6 238 68.7 236.3 67.5 234.5 68.7 235.1 66.6 233.4 65.3 235.5 65.2 236.3 63.2"/>
          <polygon class="cls-13" points="236.3 74.1 237 76.1 239.1 76.2 237.5 77.5 238 79.5 236.3 78.3 234.5 79.5 235.1 77.5 233.4 76.2 235.5 76.1 236.3 74.1"/>
          <polygon class="cls-13" points="242 36.1 242.7 38.1 244.8 38.2 243.2 39.5 243.8 41.5 242 40.3 240.2 41.5 240.8 39.5 239.1 38.2 241.2 38.1 242 36.1"/>
          <polygon class="cls-13" points="242 46.9 242.7 48.9 244.8 49 243.2 50.3 243.8 52.4 242 51.2 240.2 52.4 240.8 50.3 239.1 49 241.2 48.9 242 46.9"/>
          <polygon class="cls-13" points="242 57.8 242.7 59.8 244.8 59.9 243.2 61.2 243.8 63.2 242 62.1 240.2 63.2 240.8 61.2 239.1 59.9 241.2 59.8 242 57.8"/>
          <polygon class="cls-13" points="242 68.7 242.7 70.6 244.8 70.7 243.2 72 243.8 74.1 242 72.9 240.2 74.1 240.8 72 239.1 70.7 241.2 70.6 242 68.7"/>
          <polygon class="cls-13" points="242 79.5 242.7 81.5 244.8 81.6 243.2 82.9 243.8 84.9 242 83.8 240.2 84.9 240.8 82.9 239.1 81.6 241.2 81.5 242 79.5"/>
          <polygon class="cls-13" points="247.7 41.5 248.4 43.5 250.6 43.6 248.9 44.9 249.5 46.9 247.7 45.8 245.9 46.9 246.5 44.9 244.8 43.6 247 43.5 247.7 41.5"/>
          <polygon class="cls-13" points="247.7 52.4 248.4 54.3 250.6 54.4 248.9 55.8 249.5 57.8 247.7 56.6 245.9 57.8 246.5 55.8 244.8 54.4 247 54.3 247.7 52.4"/>
          <polygon class="cls-13" points="247.7 63.2 248.4 65.2 250.6 65.3 248.9 66.6 249.5 68.7 247.7 67.5 245.9 68.7 246.5 66.6 244.8 65.3 247 65.2 247.7 63.2"/>
          <polygon class="cls-13" points="247.7 74.1 248.4 76.1 250.6 76.2 248.9 77.5 249.5 79.5 247.7 78.3 245.9 79.5 246.5 77.5 244.8 76.2 247 76.1 247.7 74.1"/>
          <polygon class="cls-13" points="253.4 36.1 254.1 38.1 256.3 38.2 254.6 39.5 255.2 41.5 253.4 40.3 251.6 41.5 252.2 39.5 250.6 38.2 252.7 38.1 253.4 36.1"/>
          <polygon class="cls-13" points="253.4 46.9 254.1 48.9 256.3 49 254.6 50.3 255.2 52.4 253.4 51.2 251.6 52.4 252.2 50.3 250.6 49 252.7 48.9 253.4 46.9"/>
          <polygon class="cls-13" points="253.4 57.8 254.1 59.8 256.3 59.9 254.6 61.2 255.2 63.2 253.4 62.1 251.6 63.2 252.2 61.2 250.6 59.9 252.7 59.8 253.4 57.8"/>
          <polygon class="cls-13" points="253.4 68.7 254.1 70.6 256.3 70.7 254.6 72 255.2 74.1 253.4 72.9 251.6 74.1 252.2 72 250.6 70.7 252.7 70.6 253.4 68.7"/>
          <polygon class="cls-13" points="253.4 79.5 254.1 81.5 256.3 81.6 254.6 82.9 255.2 84.9 253.4 83.8 251.6 84.9 252.2 82.9 250.6 81.6 252.7 81.5 253.4 79.5"/>
          <polygon class="cls-13" points="259.1 30.6 259.9 32.6 262 32.7 260.3 34 260.9 36.1 259.1 34.9 257.4 36.1 257.9 34 256.3 32.7 258.4 32.6 259.1 30.6"/>
          <polygon class="cls-13" points="259.1 41.5 259.9 43.5 262 43.6 260.3 44.9 260.9 46.9 259.1 45.8 257.4 46.9 257.9 44.9 256.3 43.6 258.4 43.5 259.1 41.5"/>
          <polygon class="cls-13" points="259.1 52.4 259.9 54.3 262 54.4 260.3 55.8 260.9 57.8 259.1 56.6 257.4 57.8 257.9 55.8 256.3 54.4 258.4 54.3 259.1 52.4"/>
          <polygon class="cls-13" points="259.1 63.2 259.9 65.2 262 65.3 260.3 66.6 260.9 68.7 259.1 67.5 257.4 68.7 257.9 66.6 256.3 65.3 258.4 65.2 259.1 63.2"/>
          <polygon class="cls-13" points="259.1 74.1 259.9 76.1 262 76.2 260.3 77.5 260.9 79.5 259.1 78.3 257.4 79.5 257.9 77.5 256.3 76.2 258.4 76.1 259.1 74.1"/>
          <polygon class="cls-13" points="224.9 84.9 225.6 86.9 227.7 87 226.1 88.3 226.6 90.4 224.9 89.2 223.1 90.4 223.7 88.3 222 87 224.1 86.9 224.9 84.9"/>
          <polygon class="cls-13" points="236.3 84.9 237 86.9 239.1 87 237.5 88.3 238 90.4 236.3 89.2 234.5 90.4 235.1 88.3 233.4 87 235.5 86.9 236.3 84.9"/>
          <polygon class="cls-13" points="247.7 84.9 248.4 86.9 250.6 87 248.9 88.3 249.5 90.4 247.7 89.2 245.9 90.4 246.5 88.3 244.8 87 247 86.9 247.7 84.9"/>
          <polygon class="cls-13" points="259.1 84.9 259.9 86.9 262 87 260.3 88.3 260.9 90.4 259.1 89.2 257.4 90.4 257.9 88.3 256.3 87 258.4 86.9 259.1 84.9"/>
        </g>
      </g>
    </g>
  </g>
  <g>
    <g>
      <path class="cls-11" d="M321.7,154.2c-.9-4,1-8.3,3.9-9.9,3.3-1.8,8.4-5.7,8.1-5.7s4.3,4,7.6,5.7c2.9,1.6,4.9,6,4.1,9.9h1.7v90.5h-27.1v-90.5h1.7Z"/>
      <path class="cls-11" d="M268.9,101.1h2c0-1.9,2.3-3.4,5.4-3.7l1-34.4,1,34.4c3,.3,5.4,1.8,5.4,3.7h2.7l3.2,96.1v36.2h-23.8v-36.3l3.2-96Z"/>
      <polygon class="cls-11" points="211.5 157.4 215.1 157.4 215.1 155.4 231.9 141.8 231.9 244.7 211.5 244.7 211.5 157.4"/>
      <polygon class="cls-11" points="145.2 182 147.4 182 148.4 174.4 174.1 174.4 175.1 182 177.3 182 177.3 244.8 145.2 244.8 145.2 198.6 145.2 182"/>
      <path class="cls-3" d="M213,245.4h-21.9v-24.7h21.9v24.7h0ZM212.2,244.7v-23.2h-20.4v23.2h20.4Z"/>
      <polygon class="cls-11" points="184.5 181 185.6 181 185.6 179.6 189.1 179.6 189.6 168.8 190.2 179.6 193.7 179.6 193.7 181 194.8 181 194.8 244.8 184.5 244.8 184.5 181"/>
      <path class="cls-11" d="M89.5,142.7h4.3v-16.1h3.3v-8.3c0-2.7,1.3-5.1,3.2-6.7,0-5.6,1.7-9.2,3.8-10.4l1.5-30.9,1.5,30.8c2.1,1,3.8,4.5,3.8,10.6,2,1.6,3.2,4,3.2,6.7v8.3h3.3v16.1h4.3v76.2h4.2v22.5h-40.7v-22.5h4.2v-76.2Z"/>
      <polygon class="cls-11" points="68.5 197.8 71.7 197.8 71.7 190.8 82.2 190.8 82.2 197.8 85.4 197.8 85.4 244.8 68.5 244.8 68.5 197.8"/>
      <polygon class="cls-11" points="40.1 194.8 44.4 194.8 44.4 185.9 58.7 185.9 58.7 194.8 63.1 194.8 63.1 244.8 40.1 244.8 40.1 194.8"/>
      <path class="cls-3" d="M333,138.3c0-.1.1-.2.2-.3l.5-.8.5.8c0,0,.2.2.2.3.1.1.3.3.4.3.3.3.7.6,1,.9,1,.8,2,1.6,3,2.3.9.6,1.8,1.3,2.8,1.8,1.7.9,3,2.7,3.7,4.4.7,1.7,1,3.6.9,5.4h1.6v91.9h-28.6v-91.9h1.6c-.2-1.8,0-3.7.7-5.4.7-1.8,2-3.5,3.7-4.4,1.1-.6,2.1-1.2,3.1-1.9,1.1-.7,2.1-1.5,3.1-2.3.4-.3.7-.6,1.1-.9.1,0,.3-.2.4-.3h0ZM321.6,153.5l8.1.7c-3.3,0-6.6.2-9.7.2v90.4h27v-90.4c-3.2,0-6.4-.2-9.7-.2l8.1-.7c.3-3.7-1.6-7.6-4.2-9.1-3.3-1.8-7.9-5.7-7.6-5.7s-4.8,4-8.1,5.7c-2.7,1.5-4.5,5.3-4,9.1Z"/>
      <path class="cls-11" d="M348.8,162.6c.3-10.7,18.2-10.1,18.4,0h2.2v82h-23.2v-82h2.5Z"/>
      <path class="cls-3" d="M348.1,161.9c1.1-10.7,18.7-10.1,19.8,0h2.3v83.4h-24.6v-83.4h2.6ZM348.9,162.1l5.9.6c-2.8,0-5.7,0-8.5,0v81.9h23.1v-81.9c-2.8,0-5.7,0-8.5,0l6.2-.7c-1-9.2-17.3-9.8-18.3,0Z"/>
      <path class="cls-3" d="M270.3,100.5c.2-1.1,1.1-1.9,2-2.5,1-.6,2.2-1,3.3-1.2l1-34.4h1.2l1,34.4c1.2.2,2.4.5,3.3,1.2.9.6,1.7,1.4,2,2.5h2.7l3.2,96.6v36.9h-25v-36.9l3.2-96.6h2.1ZM271,100.5l4.2.5c-2.2,0-4.2,0-6.4,0l-3.2,96v36.3h23.8v-36.2l-3.2-96c-2.3,0-4.5,0-6.9,0l4.2-.5c-.4-1.6-2.6-2.9-5.3-3.1l-1-34.4-1,34.4c-2.7.3-4.9,1.5-5.3,3.1Z"/>
      <polygon class="cls-1" points="291.7 153.1 294.2 153.1 294.2 148.5 296 148.5 296 139.6 297.5 139.6 297.5 133.2 298.8 133.2 298.8 132.6 298.8 119.5 299.6 119.5 300.3 98.9 300.9 119.5 301.8 119.5 301.8 132.6 301.8 133.2 303.1 133.2 303.1 139.6 304.6 139.6 304.6 148.5 306.3 148.5 306.3 153.1 308.8 153.1 308.8 166.9 311.8 166.9 311.8 244.8 300.3 244.8 300.3 244.8 288.8 244.8 288.8 166.9 291.7 166.9 291.7 153.1"/>
      <path class="cls-11" d="M291.7,153.1h2.5v-4.7h1.7v-8.9h1.5v-6.4h1.3v-13.6h.8l.6-20.6.7,20.6h.9v13.6h1.3v6.4h1.5v8.9h1.7v4.7h2.5v13.8h3v77.9h-23v-77.9h3v-13.8Z"/>
      <path class="cls-3" d="M293.5,152.4v-4.7h1.7v-8.9h1.5v-6.4h1.3v-13.6h.9l.6-20.6h1.5s.7,20.6.7,20.6h.9v13.6h1.3v6.4h1.5v8.9h1.7v4.7h2.5v13.8h3v79.4h-24.6v-79.4h3v-13.8h2.5ZM291.7,166.4l5.5.6c-2.9,0-5.7,0-8.5,0v77.9h23v-77.9c-2.8,0-5.6,0-8.5,0l5.5-.6v-13.3c-2.2,0-4.3,0-6.5,0l4-.6v-4.1c-1.5,0-3,0-4.6,0l2.8-.6v-8.2c-1.1,0-2.2,0-3.4,0l1.8-.6v-5.8c-.8,0-1.4,0-2.2,0l.9-.5h0v-13.2h-.9l-.7-20.6-.6,20.6h-.8v13.1h0c0,0,.9.5.9.5-.7,0-1.4,0-2.2,0v5.8l1.8.6c-1.1,0-2.2,0-3.4,0v8.2l2.8.6c-1.6,0-3,0-4.6,0v4.1l4,.6c-2.2,0-4.3,0-6.5,0v13.3Z"/>
      <rect class="cls-5" x="305.8" y="183" width="13.4" height="62.4"/>
      <rect class="cls-12" x="306.6" y="183.8" width="11.8" height="60.9"/>
      <rect class="cls-8" x="317.6" y="201.9" width="13.4" height="43.5"/>
      <rect class="cls-12" x="318.4" y="202.7" width="11.8" height="42"/>
      <path class="cls-3" d="M146.7,181.2l1-7.6h27l1,7.6h2.3v64.3h-33.6v-64.3h2.3ZM147.5,181.2l9.3.8c-3.9,0-7.7,0-11.6,0v62.8h32v-62.8c-3.9,0-7.7,0-11.6,0l9.3-.8-.9-6.8h-25.7l-.9,6.8Z"/>
      <path class="cls-3" d="M184.8,180.3v-1.4h3.6l.5-10.8h1.5s.5,10.8.5,10.8h3.6v1.4h1.1v65.3h-11.8v-65.3h1.1ZM185.6,180.5l2.6.4c-1.3,0-2.4.1-3.7.1v63.7h10.3v-63.7c-1.2,0-2.3-.1-3.7-.1l2.6-.4v-.9h-3.5l-.5-10.8-.5,10.8h-3.5v.9Z"/>
      <path class="cls-3" d="M214.4,156.7v-1.7l18.3-14.8v105.2h-21.9v-88.7h3.6ZM215.1,156.5l7.8.9c-3.9,0-7.6.1-11.4.1v87.2h20.4v-102.8l-16.7,13.6v1.1Z"/>
      <path class="cls-3" d="M225.9,155.8h19.6v89.6h-19.6v-89.6h0ZM226.7,156.6v88.1h18v-88.1h-18Z"/>
      <rect class="cls-12" x="226.7" y="156.6" width="18" height="88.1"/>
      <path class="cls-3" d="M243.9,183h19.5v62.4h-19.5v-62.4h0ZM244.7,183.8v60.9h18v-60.9h-18Z"/>
      <rect class="cls-12" x="244.7" y="183.8" width="18" height="60.9"/>
      <rect class="cls-12" x="191.9" y="221.5" width="20.4" height="23.2"/>
      <path class="cls-3" d="M174.7,192.9h10.5v52.7h-10.5v-52.7h0ZM175.5,193.7v51.1h9v-51.1h-9Z"/>
      <rect class="cls-12" x="175.5" y="193.7" width="9" height="51.1"/>
      <polygon class="cls-11" points="131.8 168.5 145.2 168.5 145.2 196.2 147 196.2 147 244.8 130 244.8 130 196.2 131.8 196.2 131.8 168.5"/>
      <path class="cls-3" d="M146,195.6h1.7v49.9h-18.5v-49.9h1.7v-27.9h15v27.9h0ZM131.8,195.7l4.5.5c-2.3,0-4.2.2-6.2.2v48.4h16.9v-48.4c-2.1,0-4-.2-6.2-.2l4.5-.5v-27.3h-13.5v27.3Z"/>
      <path class="cls-3" d="M70.9,197.1v-7.1h12.1v7.1h3.2v48.5h-18.5v-48.5h3.2ZM71.7,197.4l3.4.5c-2.2,0-4.4,0-6.6,0v46.9h16.9v-46.9c-2.2,0-4.4,0-6.6,0l3.4-.5v-6.6h-10.6v6.6Z"/>
      <path class="cls-3" d="M43.7,194v-8.9h15.8v8.9h4.3v51.5h-24.5v-51.5h4.3ZM44.4,194.4l4.8.5c-3.1,0-6,0-9.1,0v50h23v-50c-3.1,0-6,0-9.1,0l4.8-.5v-8.5h-14.3v8.5Z"/>
      <path class="cls-3" d="M99.6,111.8c0-2.3.3-4.6,1.2-6.7.5-1.4,1.4-2.8,2.6-3.7l1.5-31h1.5l1.5,30.8c1.2.8,2.1,2.2,2.6,3.6.9,2.2,1.1,4.7,1.2,7.1,2,1.8,3.2,4.3,3.2,7v7.5h3.3v15.9h4.2v76.2h4.2v20.9h-41.9v-20.9h4.2v-76.2h4.2v-15.9h3.3v-7.5c0-2,.6-3.9,1.8-5.5,0,0,.1-.2.2-.3.4-.5.8-.9,1.2-1.3h0ZM104.6,110.9c-4.3-.3-7.4,3.8-7.4,7.8v7.5l5.7.7c-3,0-5.9,0-9,0v14.9l7.9,1c-4,0-8.1,0-12.1,0v75.2l10.8,1c-5,0-10,0-15,0v19.4h40.4v-19.4c-5,0-10,0-15,0l10.8-1v-75.2c-4,0-8.1,0-12.1,0l7.9-1v-14.9c-3,0-5.9,0-8.9,0l5.6-.7v-7.5c0-4.1-3.1-8.1-7.5-7.8,1.5-.4,3-.2,4.2.5-.1-5.6-1.8-8.8-3.7-9.8l-1.5-30.5-1.5,30.1c.6-.2,1.3-.2,2,0-.4,0-1.6.2-2.1.5-1.9,1.2-3.6,4.5-3.7,9.6,1.2-.6,2.7-.9,4.2-.5Z"/>
      <path class="cls-3" d="M56.9,212.5h15.9v33.1h-15.9v-33.1h0ZM57.6,213.2v31.5h14.3v-31.5h-14.3Z"/>
      <rect class="cls-12" x="57.6" y="213.2" width="14.3" height="31.5"/>
      <path class="cls-11" d="M387.5,84.6l.7-9.1,1.4,9.1c1.2.1,2,.3,3.1.8l7.3-6-5.6,6.9c.8.5,1.2,1,1.8,1.9l9.9-2.2-9.2,3.8c.1.6.2,1.1.3,1.5l10.8.6-10.7,1c-.1.8-.4,1.5-.6,2.3.2,1.1,1.5,2.6,0,2.4-.2,1.2.8,4.8,1,6.2-.3.6-.4.7-.9,1.1,0,0,1.4,4.4,1.7,5.2.3.8.6,1.1,1.2,1.3.6.2.7,1.2.7,1.6,0,.4.5.3,1.2.5.7.1,1.1.4,1.1.7,0,.3.6,0,.8,1,.3,1,.7.4,1.1,1.3.4.9,1,2.1,1.4,4.1.4,1.9.6,3,.6,3,0,0,0,.8.5,1.5.5.6.7,1.8.7,1.8,0,0,1.2,1,1.8,1.3.5.4,1.4.8,1.8,1.1.3.3,0,.6,0,.7.2.2,1,.6,1,.6l2.9-4.4.7.4c.6.2.5-1.5.5-1.9l5.5,2.9,3.9,2.2,1.3.8-1.2,1.2c.3.6.8.5.4,1.1-.2.3-1.8,3.1-1.8,3.1,0,0,.9,1.3,1.1,1.7.5,1-2.5,5.2-3.1,6.4-.4.8-1.6,2.5-3.5,2.6-1.9.1-1.4.3-1.4.3,0,0,0,3.1-.7,6-.8,3-1.3,6.4-2.6,6.7-1.3.4-4,.7-3.5,2.8l1.8,12.5s.3,1.9,0,2.6c-.3.7.5,4.4.4,5.8,0,1.3,0,2,.1,2.4,0,.4-.1.9-.7,1.2-.6.2-.3,1.2-.3,1.7,0,.6,0,1.4,0,1.9,0,.6.5,1.3,0,1.7-.6.4-.9.5-.9.8,0,.3.2,1,.2,1.5s-.5.7-.5.7c0,0,.7,9.4.7,10.2s-1.7,2-1.9,2.5c-.2.6,1.2,14.3,1.3,15.6,0,1.3,0,2.2,0,2.2.9.3,1.3,1,1.5,1.8h3l3.3,2.8v4.5l1.4,1.9-1.2,2.1v6.2h-59.9v-6.2c0,0-1.3-2.1-1.3-2.1l1.4-1.9v-4.5l3.3-2.8h3.4c0-.5,0-2,1.2-2.8,1.5-1,1.1-3.7,2.3-5.2,1.1-1.5.8-2.6.4-5-.4-2.4-.6-1.7.3-3,.9-1.3,0-3.3-.5-5-.5-1.7-.2-3.2,0-4.5.1-1.3-.3-3.1,0-4.5.4-1.4.3-3.2.9-5.4.6-2.1-.7-1.6-.5-3.2.2-1.6,0-2,.3-3.4.4-1.4.9-2.6.7-3.4-.2-.8-.2-3.8-.4-5-.2-1.3-.5-4.7-.5-5.5,0-.8-.3-1.1-.5-1.8-.2-.7-.4-1.9-.4-2.5,0-.6-.4-.8-.7-2.2-.3-1.4,0-5.1.8-6.6.7-1.5,1.8-5.3,1.7-6.8,0-1.5-.2-.6-1.7-.6-1.5,0-3.4-2.1-2.8-4.6.6-2.5.3-3.6,1.6-5.7,1.3-2.1.7-2.3,1.3-3.7.6-1.4,1.6-3.3,1.6-3.3,0,0-1.1-2-1.1-3.4,0-1.3-.8-.6-1.3-1.7-.5-1.2-2.3-2.2-1.9-3.2.4-1,1.3-2.2,1.1-2.8-.2-.6-.9-.9-.7-1.6.2-.7.9-3.1.6-3.7-.4-.8-2.1-1-2.9-2.2-.3-.4-.1-1.6.2-2.2.3-.6.7-1.4.1-1.8-.6-.4-2-.2-2.1-1.1,0-.9-.2-2.2-.8-3.5-.6-1.3-.6-3-.2-4.2.4-1.1,2.3-3.7,2.4-5.5.2-1.8,1.4-2.8,1.4-2.8,0,0-.3-3.2-.6-4.6-.4-1.4-1.1-3.4-1.3-7.5-.2-4.1-1.1-11.6-1.1-11.6,0,0-1.1-.6-.7-1.5.3-.9.6-1,.5-1.6-.1-.5-1.2-2.4-1.4-3.8-.2-1.5.2-2.3.2-2.3,0,0-.4-.6-.6-.9-.2-.3-.2-.6-.1-.8,0-.2.1-.5.1-.5,0,0-.7-.6-.4-1.2.3-.6.5-.8.7-.8.3,0,.2-.2-.2-.5-.4-.4-1.2-1.8-1.2-2.6,0-.4,0-.7,0-.8-1.1-.3-1.7-.6-1.7-1,0-.8-.7-.3-.7-.9h0,0c0-.1,0-.2.1-.3.2-.5.7-1.5.7-2s-.7-1.7-.7-1.7c0,0,.6-1.1,2-.2,1.4.8,1.6-.8,2.3-1,.2,0,.4,0,.6.2v-1.4c-2.2-.9-2.8-3.3-1.1-5.5.7-1,.9-1.6.9-2.4.4.1,1.1.6.8,2.3.8,0,1-.5.7-2.3-.3-1.7,0-3.7,1.2-4,0,0,0,1.5,2.1,3.3,3.6,3.2,2.4,7.4,0,8.4v1.8c.3-.2.6-.5.8-.5.5,0,.3.4,1.1,1,1,.7,1.2-.9,3,0,0,0-.8.5-.9,1.4-.1.9.8,2.2.8,2.6,0,0,0,0,0,0,0,0,0,0,0,.1,0,.6-.7.2-.7.9s-1.5,1.1-3.7,1.3h0c0,.4.6.6.6.9,0,.3-.1.8-.4.9-.3.1-.4.2-.4.2v2.1s.3.4.7.7c.4.3.4,1,.8,1.8.4.9.7,1.4.9,2.6.2,1.2.2,2.1,0,2.9-.2.8-.4,3-.2,4.3.2,1.3.9,6.1,1.4,7.5.4,1.3,1.5,5.2,1.7,7.8.1,1.7.1,2.8.2,3.7l7.8-.3c.4-.6.9-1.3,1.7-1.8l-6.4-6.6,8,5.7c.9-.4,2-.7,3.3-.9h0ZM380,93.1l-4.3-.4c0,.2.1.2.3.9.1.7,1.3,1.3,1.3,2.1,0,.8.2,1.1,0,1.7-.2.6-.3,1.3,0,1.7.4.4,1.5,1.5,1.6,1.8.1.3.3-1.9,1.1-2.4.8-.6-.2-.4.2-1.4.4-.9.7-1.9.4-2.4-.6-.9-.6-.8-.7-1.8h0ZM375.4,92.1l4.5-.6c0-.5,0-1,.2-1.6l-7-1c0,.3,0,.6.2.9.3,1,1.4,1.2,2.1,2.3Z"/>
      <path class="cls-3" d="M397.4,95c0,.2.1.3.2.4.3.7.8,1.5.4,2.2-.1.2-.3.4-.6.4,0,1.5.8,4.3,1,5.4v.2s0,.2,0,.2c-.2.5-.4.8-.7,1,.2.7.5,1.5.7,2.2.3.8.5,1.7.8,2.5.2.4.3.7.7.8.8.2,1.1,1.2,1.3,1.9.2,0,.5,0,.6,0,.7.1,1.4.4,1.7,1.1.5.3.7.6.9,1.2,0,0,0,.1,0,.2.5.2.8.4,1,.9.7,1.4,1.2,2.8,1.5,4.2.2,1,.5,2,.7,3h0c0,0,0,.2,0,.2,0,.3.1.7.3,1,.4.5.7,1.2.8,1.9.5.4,1,.8,1.5,1.1.6.4,1.3.7,1.8,1.1.3.3.4.5.4.9l2.8-4.3.7.4c0-.3,0-.8,0-1v-1.2c0,0,6.6,3.5,6.6,3.5l3.9,2.2,2.1,1.4-1.3,1.4c0,0,.2.2.2.4.1.4,0,.8-.3,1.1-.3.4-.6,1-.9,1.5-.2.4-.4.8-.7,1.1.3.5.6.9.9,1.4.6,1.1-.8,3.3-1.4,4.3-.3.6-.7,1.2-1.1,1.7-.2.4-.5.8-.7,1.2-.8,1.6-2.3,3-4.1,3.1-.1,0-.4,0-.6,0,0,1.9-.3,4-.7,5.7,0,.3-.2.7-.2,1-.3,1.3-.6,2.6-1,3.8-.3.9-.8,2.2-1.9,2.5-.6.2-1.1.3-1.7.4-.7.2-1.6.6-1.3,1.4h0s1.8,12.6,1.8,12.6c.1.8.2,2.2,0,2.9-.1.4.2,2.2.2,2.7.1.9.3,2,.2,2.9,0,.5,0,.9,0,1.4,0,.3,0,.6.1.8,0,.8-.3,1.5-1,1.9,0,.2,0,.9,0,1.1,0,.5,0,1.2,0,1.8,0,.1,0,.3.1.4.2.8.3,1.6-.5,2-.1,0-.3.2-.5.3,0,.4.2.8.2,1.3s-.2.8-.5,1c.1,1.6.2,3.1.3,4.7,0,1.1.2,2.2.2,3.3,0,.6.1,1.3.1,1.9s-.6,1.4-1.1,1.9c-.2.2-.7.6-.8.9,0,.2,0,.5,0,.8,0,.6,0,1.2.1,1.8.1,1.7.3,3.4.4,5,.1,1.7.3,3.3.5,5,0,.9.2,1.9.3,2.8,0,.6,0,1.2,0,1.8.6.4,1,.9,1.3,1.5h2.8l3.7,3.2v4.7l1.5,2.1-1.4,2.4v6.7h-61.4v-6.7c0,0-1.5-2.4-1.5-2.4l1.5-2.1v-4.7l3.7-3.2h3c.1-1.1.6-2,1.5-2.7,0,0,.1-.1.2-.2.5-.5.7-1.7.9-2.5.2-.8.5-1.7,1-2.4.3-.4.5-.8.6-1.3.2-.9-.1-2.3-.3-3.2,0-.5-.2-.9-.3-1.4,0-.3-.1-.6,0-1,.1-.4.5-.8.8-1.2.7-.9-.3-3.3-.6-4.3-.5-1.8-.3-3-.1-4.8,0-.8,0-1.7,0-2.4,0-.7,0-1.5.2-2.2.2-.7.3-1.6.4-2.3.1-1,.3-2.1.6-3.1.1-.5.2-.8,0-1.2-.4-.6-.6-1.1-.5-1.8,0-.6,0-1.2,0-1.9,0-.6,0-1.1.2-1.6.2-.6.8-2.5.7-3.1,0-.4-.1-.8-.1-1.2,0-.5,0-1.1,0-1.6,0-.7,0-1.5-.2-2.2-.1-.9-.2-1.8-.3-2.6,0-.6-.1-1.2-.1-1.8,0-.4,0-.8,0-1.2,0-.2,0-.4-.1-.6-.1-.4-.3-.6-.4-1-.2-.8-.4-1.8-.5-2.7,0,0,0-.1,0-.2,0-.2-.2-.4-.3-.6-.2-.4-.3-.9-.4-1.3-.4-1.7.1-5.5.8-7.1.6-1.3,1.7-5,1.7-6.4-.3,0-.6,0-.9,0-1.1,0-2.2-.8-2.8-1.7-.8-1.1-1-2.5-.7-3.9.6-2.3.4-3.8,1.7-6,.5-.8.7-1.3.9-2.1,0-.5.2-1,.4-1.5.5-1,.9-2,1.5-3-.5-1-1-2.4-1-3.4,0,0,0-.2,0-.2-.1,0-.3-.1-.4-.2-.4-.2-.6-.6-.8-1-.1-.3-.5-.7-.7-.9-.7-.8-1.7-1.8-1.2-2.9.2-.4,1-1.9,1-2.3,0,0-.1-.2-.1-.2-.4-.6-.8-1.1-.5-1.8.2-.6.7-2.6.7-3.1-.1-.2-.8-.5-1-.6-.7-.4-1.4-.8-1.9-1.5-.5-.7-.2-2.2.2-2.9,0-.1.3-.6.4-.8-.1,0-.5-.1-.6-.2-.9-.2-1.7-.5-1.8-1.6,0-1.1-.3-2.2-.7-3.2-.6-1.4-.7-3.3-.2-4.7.2-.5.4-.9.7-1.4.3-.5.6-1.1.9-1.6.3-.6.8-1.5.8-2.3,0-1,.6-2.2,1.3-3,0-.8-.2-1.5-.3-2.3,0-.6-.2-1.3-.3-1.9-.2-.9-.5-1.8-.7-2.8-.4-1.6-.5-3.2-.6-4.9,0-1.5-.2-3-.4-4.5-.2-2.2-.5-4.5-.7-6.7-.7-.5-1-1.4-.7-2.2,0-.3.2-.5.3-.8,0,0,.1-.2.1-.3,0,0,0,0,0,0,0-.2-.3-.6-.4-.8-.2-.5-.5-1-.6-1.5-.2-.5-.3-1-.4-1.6,0-.7,0-1.6.2-2.3-.1-.2-.3-.4-.4-.6-.3-.5-.4-1-.2-1.5-.4-.5-.6-1.2-.2-1.8.1-.2.3-.5.4-.7-.6-.7-1.2-2.1-1.2-2.9,0,0,0-.2,0-.3-.8-.2-1.7-.6-1.8-1.4,0,0-.2,0-.3-.1,0,0-.1,0-.2-.1h-.8s.5-1.1.5-1.1c0-.1.1-.3.2-.4.2-.4.6-1.3.6-1.6s-.4-1-.6-1.3l-.3-.4.3-.4c.2-.3.5-.6.8-.7.8-.4,1.6-.2,2.3.2,0,0,.3.2.3.1,0,0,.1-.1.2-.2.3-.4.6-.8,1.1-.9-2.4-1.3-2.5-4.2-.9-6.4.5-.7.7-1.1.8-2v-1c0,0,1,.3,1,.3.2,0,.3.1.4.2-.1-1.6.2-3.7,1.8-4.2l1-.3v1c0,.2.1.6.2.8.3.8.9,1.4,1.6,2,1.6,1.4,2.7,3.4,2.5,5.7-.1,1.5-.9,3-2.3,3.8h0c0,0,0,0,0,0,1,0,.9.7,1.5,1.1,0,0,0,0,0,0,0,0,.1,0,.2,0,.2-.1.4-.2.6-.3.7-.2,1.4,0,2,.2l1.2.6-1.2.7c-.3.2-.5.5-.5.8,0,.7.7,1.7.8,2.4,0,0,0,.2,0,.3,0,.4-.1.7-.4.9,0,0-.2.1-.3.1-.1,1.1-1.8,1.5-3.1,1.8,0,.1,0,.2,0,.3,0,.6-.2,1.3-.8,1.6v1.3c.1.1.2.2.4.3.6.4.8,1.5,1.1,2.2.4,1,.8,1.6,1,2.7.2,1.1.2,2.2,0,3.3-.3,1-.4,3-.2,4,.2,1.3.4,2.5.6,3.8.1.7.2,1.4.4,2.2,0,.5.2,1,.3,1.4.5,1.6,1,3.3,1.3,4.9.2,1,.4,2.1.5,3.1,0,1,0,2,.2,3l6.6-.3c.3-.4.6-.8,1-1.1l-6.3-6.5.9-1.1,8.2,5.9c.8-.3,1.6-.5,2.5-.7l.7-9.1h1.4s1.4,9.1,1.4,9.1c.8.1,1.5.3,2.3.6l7.4-6.2,1,1-5.6,6.8c.4.3.7.7,1,1.1l10.1-2.3.4,1.3-9.3,3.9c0,.1,0,.2,0,.3l10.9.6v1.4s-10.8,1-10.8,1c-.1.5-.3,1.1-.4,1.6h0ZM387.5,84.6c-1.3.2-2.4.5-3.3.9l-8-5.7,6.4,6.6c-.8.6-1.3,1.2-1.7,1.8l-7.8.3c0-.9,0-2-.2-3.7-.2-2.6-1.3-6.5-1.7-7.8-.4-1.3-1.2-6.2-1.4-7.5-.2-1.3,0-3.5.2-4.3.2-.8.3-1.8,0-2.9-.2-1.2-.6-1.7-.9-2.6-.4-.9-.4-1.6-.8-1.8-.4-.3-.7-.7-.7-.7v-2.1s.1,0,.4-.2c.3-.1.4-.6.4-.9,0-.3-.5-.5-.6-.9h0c2.2-.3,3.7-.7,3.7-1.3s.7-.3.7-.9,0,0,0-.1c0,0,0,0,0,0,0-.4-1-1.7-.8-2.6.1-.9.9-1.4.9-1.4-1.7-.9-2,.7-3,0-.8-.5-.6-.9-1.1-1-.2,0-.5.2-.8.5v-1.8c2.4-1,3.6-5.2,0-8.4-2.1-1.8-2.1-3.3-2.1-3.3-1.1.3-1.5,2.2-1.2,4,.3,1.7,0,2.2-.7,2.3.3-1.7-.4-2.2-.8-2.3,0,.8-.2,1.4-.9,2.4-1.6,2.2-1.1,4.6,1.1,5.5v1.4c-.2-.2-.4-.3-.6-.2-.7.1-.9,1.8-2.3,1-1.4-.8-2,.2-2,.2,0,0,.7,1.1.7,1.7s-.5,1.5-.7,2c0,0-.1.2-.1.2h0s0,0,0,0c0,.6.7.2.7.9s.7.7,1.7,1c0,.1,0,.4,0,.8,0,.8.8,2.2,1.2,2.6.4.4.5.5.2.5-.3,0-.4.3-.7.8-.3.6.4,1.2.4,1.2,0,0,0,.2-.1.5,0,.2-.1.5.1.8.2.3.6.9.6.9,0,0-.4.9-.2,2.3.2,1.5,1.3,3.3,1.4,3.8.1.5-.1.6-.5,1.6-.3.9.7,1.5.7,1.5,0,0,.9,7.6,1.1,11.6.2,4.1,1,6.1,1.3,7.5.4,1.4.6,4.6.6,4.6,0,0-1.2,1-1.4,2.8-.2,1.8-2,4.3-2.4,5.5-.4,1.1-.4,2.9.2,4.2.6,1.3.7,2.5.8,3.5,0,1,1.5.7,2.1,1.1.6.4.2,1.2-.1,1.8-.3.6-.5,1.8-.2,2.2.8,1.2,2.5,1.4,2.9,2.2.3.6-.4,3-.6,3.7-.2.7.5,1,.7,1.6.2.6-.6,1.8-1.1,2.8-.4,1,1.4,2.1,1.9,3.2.5,1.2,1.3.4,1.3,1.7,0,1.3,1.1,3.4,1.1,3.4,0,0-1,1.9-1.6,3.3-.6,1.4,0,1.6-1.3,3.7-1.3,2.1-1,3.2-1.6,5.7-.6,2.5,1.3,4.6,2.8,4.6,1.5,0,1.6-.9,1.7.6,0,1.5-1,5.3-1.7,6.8-.7,1.5-1.1,5.2-.8,6.6.3,1.4.7,1.6.7,2.2,0,.6.3,1.8.4,2.5.2.7.5,1,.5,1.8,0,.8.3,4.2.5,5.5.2,1.3.2,4.2.4,5,.2.8-.3,2.1-.7,3.4-.4,1.4-.1,1.8-.3,3.4-.2,1.6,1.1,1.1.5,3.2-.6,2.1-.6,4-.9,5.4-.4,1.4,0,3.2,0,4.5-.1,1.3-.4,2.8,0,4.5.5,1.7,1.4,3.8.5,5-.9,1.3-.7.6-.3,3,.4,2.4.7,3.5-.4,5-1.1,1.5-.8,4.2-2.3,5.2-1.2.8-1.2,2.3-1.2,2.8h-3.4l-3.3,2.8v4.5l-1.4,1.9,1.2,2.1v6.2h59.9v-6.2c0,0,1.3-2.1,1.3-2.1l-1.4-1.9v-4.5l-3.3-2.8h-3c-.3-.8-.7-1.5-1.5-1.8,0,0,0-.9,0-2.2-.1-1.3-1.4-15-1.3-15.6.2-.6,1.9-1.7,1.9-2.5s-.7-10.2-.7-10.2c0,0,.5-.2.5-.7s-.2-1.2-.2-1.5c0-.3.2-.4.9-.8.6-.4.2-1.1,0-1.7-.1-.6,0-1.4,0-1.9,0-.6-.2-1.5.3-1.7.6-.2.7-.7.7-1.2,0-.4-.2-1-.1-2.4,0-1.3-.7-5.1-.4-5.8.3-.7,0-2.6,0-2.6l-1.8-12.5c-.5-2.1,2.2-2.4,3.5-2.8,1.3-.4,1.8-3.8,2.6-6.7.8-3,.7-6,.7-6,0,0-.5-.2,1.4-.3,1.9-.1,3.1-1.8,3.5-2.6.6-1.2,3.7-5.4,3.1-6.4-.3-.5-1.1-1.7-1.1-1.7,0,0,1.6-2.8,1.8-3.1.4-.6,0-.5-.4-1.1l1.2-1.2-1.3-.8-3.9-2.2-5.5-2.9c0,.4,0,2.2-.5,1.9l-.7-.4-2.9,4.4s-.9-.4-1-.6c-.2-.2.3-.5,0-.7-.3-.3-1.2-.7-1.8-1.1-.5-.4-1.8-1.3-1.8-1.3,0,0-.2-1.2-.7-1.8-.5-.6-.5-1.5-.5-1.5,0,0-.2-1.1-.6-3-.4-1.9-1-3.2-1.4-4.1-.4-.9-.9-.3-1.1-1.3-.3-1-.7-.7-.8-1,0-.3-.4-.6-1.1-.7-.7-.1-1.2,0-1.2-.5,0-.4-.2-1.4-.7-1.6-.6-.2-.9-.5-1.2-1.3-.3-.8-1.7-5.2-1.7-5.2.5-.4.6-.5.9-1.1-.3-1.4-1.2-5-1-6.2,1.5.2.2-1.3,0-2.4.2-.8.4-1.5.6-2.3l10.7-1-10.8-.6c0-.4-.1-.9-.3-1.5l9.2-3.8-9.9,2.2c-.6-.8-1.1-1.3-1.8-1.9l5.6-6.9-7.3,6c-1.1-.5-1.9-.6-3.1-.8l-1.4-9.1-.7,9.1h0ZM380,93.1l-4.3-.4c0,.2.1.2.3.9.1.7,1.3,1.3,1.3,2.1,0,.8.2,1.1,0,1.7-.2.6-.3,1.3,0,1.7.4.4,1.5,1.5,1.6,1.8.1.3.3-1.9,1.1-2.4.8-.6-.2-.4.2-1.4.4-.9.7-1.9.4-2.4-.6-.9-.6-.8-.7-1.8h0ZM375.4,92.1l4.5-.6c0-.5,0-1,.2-1.6l-7-1c0,.3,0,.6.2.9.3,1,1.4,1.2,2.1,2.3Z"/>
      <rect class="cls-12" x="39.3" y="232.2" width="376.7" height="12.5"/>
    </g>
    <rect class="cls-12" x="27.6" y="241" width="412.7" height="9.2"/>
    <rect class="cls-12" y="250.2" width="468" height="9.2"/>
  </g>
</svg>