<svg width="68" height="68" viewBox="0 0 68 68" fill="none" xmlns="http://www.w3.org/2000/svg">
<g clip-path="url(#clip0_2652_4827)">
<path d="M0.132812 11.286V47.8712C0.132812 51.1251 2.77039 53.7627 6.02429 53.7627H62.1485C65.4024 53.7627 68.04 51.1251 68.04 47.8712V11.286C68.04 8.06635 65.4304 5.45679 62.2107 5.45679H5.96204C2.74237 5.45679 0.132812 8.06635 0.132812 11.286Z" fill="#C4E2F2"/>
<path d="M47.7833 61.624L34.0865 64.7451L20.3887 61.624L22.2652 53.7631L33.5049 49.6304L45.9068 53.7631L46.5138 56.3078L47.7833 61.624Z" fill="#2D303B"/>
<path d="M68.04 47.1775V47.8706C68.04 51.1245 65.4013 53.7631 62.1474 53.7631H6.02377C2.76987 53.7631 0.132812 51.1245 0.132812 47.8706V47.1775H68.04Z" fill="#3C3F4D"/>
<path d="M47.7841 61.624H26.834L28.1035 56.3079H46.5146L47.7841 61.624Z" fill="#3C3F4D"/>
<path d="M55.8565 66.0006V67.8672H12.3184V66.0006C12.3184 63.5835 14.2779 61.624 16.6949 61.624H51.4799C53.897 61.624 55.8565 63.5835 55.8565 66.0006Z" fill="#2D303B"/>
<path d="M55.8568 66.0006V67.8672H19.8008V66.0006C19.8008 63.5835 21.7603 61.624 24.1789 61.624H51.4802C53.8973 61.624 55.8568 63.5835 55.8568 66.0006Z" fill="#3C3F4D"/>
<path d="M12.4613 13.1665H40.1989L43.7329 47.1774H8.92773L12.4613 13.1665Z" fill="#FF491F"/>
<path d="M26.0986 24.1631H45.3797L47.8357 47.1775H23.6426L26.0986 24.1631Z" fill="#ED3618"/>
<path d="M28.7319 24.1631H48.0125L50.4691 47.1775H26.2754L28.7319 24.1631Z" fill="#FFE14D"/>
<path d="M33.8126 17.5324C33.2383 17.5324 32.7735 17.067 32.7735 16.4927V9.63367C32.7735 6.08041 29.8827 3.18967 26.3295 3.18967C22.7762 3.18967 19.8855 6.08041 19.8855 9.63367V16.4927C19.8855 17.0665 19.4201 17.5319 18.8463 17.5319C18.272 17.5319 17.8066 17.0665 17.8066 16.4927V9.63367C17.8066 4.93387 21.6302 1.11084 26.3295 1.11084C31.0288 1.11084 34.8523 4.93439 34.8523 9.63367V16.4927C34.8523 17.067 34.3869 17.5324 33.8126 17.5324Z" fill="#3C3F4D"/>
<path d="M38.3738 38.3378C35.3363 38.3378 32.8652 35.8667 32.8652 32.8292V28.3602C32.8652 27.7859 33.3306 27.3206 33.9049 27.3206C34.4787 27.3206 34.9441 27.7859 34.9441 28.3602V32.8292C34.9441 34.7207 36.4828 36.2589 38.3738 36.2589C40.2649 36.2589 41.8036 34.7207 41.8036 32.8292V28.3602C41.8036 27.7859 42.269 27.3206 42.8433 27.3206C43.4171 27.3206 43.8824 27.7859 43.8824 28.3602V32.8292C43.8824 35.8667 41.4114 38.3378 38.3738 38.3378Z" fill="white"/>
<path d="M63.1905 10.0279C63.1905 15.6397 58.6411 20.1885 53.0298 20.1885C47.418 20.1885 42.8691 15.6397 42.8691 10.0279C42.8691 4.41654 47.418 -0.132812 53.0298 -0.132812C58.6411 -0.132812 63.1905 4.41654 63.1905 10.0279Z" fill="#32CC77"/>
<path d="M51.9636 16.1886C51.587 16.1886 51.2389 15.9842 51.0552 15.6537L48.2833 10.6644C48.0047 10.1627 48.1852 9.5298 48.6874 9.25121C49.1896 8.97261 49.822 9.15315 50.1006 9.65535L51.9024 12.8978L55.8795 4.71638C56.1301 4.20018 56.7516 3.98488 57.2689 4.23598C57.7851 4.48708 57.9998 5.10912 57.7487 5.62532L52.8985 15.6034C52.7288 15.952 52.3797 16.1772 51.9921 16.1881C51.9828 16.1881 51.9735 16.1886 51.9636 16.1886Z" fill="white"/>
<path d="M64.2379 28.385H54.2599C53.6861 28.385 53.2207 27.9196 53.2207 27.3458C53.2207 26.7715 53.6861 26.3062 54.2599 26.3062H64.2379C64.8122 26.3062 65.2771 26.7715 65.2771 27.3458C65.2771 27.9196 64.8117 28.385 64.2379 28.385Z" fill="#3C3F4D"/>
<path d="M64.2372 33.2358H56.3385C55.7642 33.2358 55.2988 32.7704 55.2988 32.1967C55.2988 31.6223 55.7642 31.157 56.3385 31.157H64.2372C64.8115 31.157 65.2764 31.6223 65.2764 32.1967C65.2764 32.7704 64.811 33.2358 64.2372 33.2358Z" fill="#3C3F4D"/>
</g>
<defs>
<clipPath id="clip0_2652_4827">
<rect width="68" height="68" fill="white"/>
</clipPath>
</defs>
</svg>
