<svg width="68" height="68" viewBox="0 0 68 68" fill="none" xmlns="http://www.w3.org/2000/svg">
<g clip-path="url(#clip0_2652_4711)">
<path d="M10.3652 25.7888H16.2135V45.0559H10.3652V25.7888Z" fill="#CF4030"/>
<path d="M8.45703 23.7761H18.1177V26.8416H8.45703V23.7761Z" fill="#E64C3C"/>
<path d="M30.6504 0H48.0984V6.52176H30.6504V0Z" fill="#6C90B8"/>
<path d="M25.5801 4.34644H53.1687V67.9999H25.5801V4.34644Z" fill="#4D6C8F"/>
<path d="M41.8516 8.71631H48.6172V12.7764H41.8516V8.71631Z" fill="#EAF6FF"/>
<path d="M41.8516 16.55H48.6172V20.6101H41.8516V16.55Z" fill="#EAF6FF"/>
<path d="M30.1328 16.55H36.8984V20.6101H30.1328V16.55Z" fill="#EAF6FF"/>
<path d="M30.1328 8.71631H36.8984V12.7764H30.1328V8.71631Z" fill="#EAF6FF"/>
<path fillRule="evenodd" clip-rule="evenodd" d="M42.5254 28.2813L65.4539 17.2583V68H42.5254V28.2813Z" fill="#64B5F6"/>
<path d="M56.1953 36.5488H60.0232V40.3767H56.1953V36.5488Z" fill="#EAF6FF"/>
<path d="M56.1953 44.3206H60.0232V48.1523H56.1953V44.3206Z" fill="#EAF6FF"/>
<path d="M56.1953 52.0964H60.0232V55.9244H56.1953V52.0964Z" fill="#EAF6FF"/>
<path d="M56.1953 59.8721H60.0232V63.7H56.1953V59.8721Z" fill="#EAF6FF"/>
<path d="M47.9551 36.5488H51.783V40.3767H47.9551V36.5488Z" fill="#EAF6FF"/>
<path d="M47.9551 44.3206H51.783V48.1523H47.9551V44.3206Z" fill="#EAF6FF"/>
<path d="M47.9551 52.0964H51.783V55.9244H47.9551V52.0964Z" fill="#EAF6FF"/>
<path d="M47.9551 59.8721H51.783V63.7H47.9551V59.8721Z" fill="#EAF6FF"/>
<path d="M47.9551 28.7729H51.783V32.6007H47.9551V28.7729Z" fill="#EAF6FF"/>
<path d="M56.1953 28.7729H60.0232V32.6007H56.1953V28.7729Z" fill="#EAF6FF"/>
<path fillRule="evenodd" clip-rule="evenodd" d="M8.63672 37.6439L25.659 27.8401L42.5265 37.6439V67.9999H8.63672V37.6439Z" fill="#FEA832"/>
<path d="M19.9023 52.4678H31.2582V67.9999H19.9023V52.4678Z" fill="#E64C3C"/>
<path fillRule="evenodd" clip-rule="evenodd" d="M11.8338 40.512L10.3669 41.3596L8.63672 42.3582V67.9999H11.8338V45.0559V40.512Z" fill="#E5972D"/>
<path d="M19.9023 52.4678H23.5522V67.9999H19.9023V52.4678Z" fill="#CF4436"/>
<path fillRule="evenodd" clip-rule="evenodd" d="M45.5598 68V43.5735C44.9849 43.5906 44.4166 43.4472 43.9187 43.1594L42.5254 42.3583V68H45.5598ZM42.5254 35.1165L45.5598 36.8661V26.8223L42.5254 28.2813V35.1165Z" fill="#42A5F5"/>
<path fillRule="evenodd" clip-rule="evenodd" d="M28.8583 27.2246V4.34644H25.5801V25.332L28.8583 27.2246Z" fill="#456181"/>
<path d="M30.1328 8.71631H31.5803V12.7764H30.1328V8.71631Z" fill="#D3DDE6"/>
<path d="M41.8516 8.71631H43.2991V12.7764H41.8516V8.71631Z" fill="#D3DDE6"/>
<path d="M41.8516 16.55H43.2991V20.6101H41.8516V16.55Z" fill="#D3DDE6"/>
<path d="M30.1328 16.55H31.5803V20.6101H30.1328V16.55Z" fill="#D3DDE6"/>
<path d="M47.9551 28.7729H49.1511V32.6007H47.9551V28.7729Z" fill="#D3DDE6"/>
<path d="M56.1953 28.7729H57.3874V32.6007H56.1953V28.7729Z" fill="#D3DDE6"/>
<path d="M56.1953 36.5486H57.3874V40.3765H56.1953V36.5486Z" fill="#D3DDE6"/>
<path d="M47.9551 36.5486H49.1511V40.3765H47.9551V36.5486Z" fill="#D3DDE6"/>
<path fillRule="evenodd" clip-rule="evenodd" d="M25.581 32.5737L7.24665 43.1588C6.88992 43.3688 6.49514 43.506 6.0851 43.5626C5.67506 43.6192 5.25787 43.594 4.85761 43.4885C4.45735 43.383 4.08193 43.1993 3.75304 42.948C3.42414 42.6967 3.14827 42.3827 2.94134 42.0242C2.73441 41.6657 2.60053 41.2698 2.54741 40.8593C2.49429 40.4488 2.52299 40.0318 2.63185 39.6325C2.74071 39.2331 2.92758 38.8593 3.18167 38.5325C3.43576 38.2058 3.75205 37.9326 4.11228 37.7287L25.5817 25.3315L47.0549 37.7287C47.7676 38.1481 48.2856 38.832 48.4963 39.6316C48.7071 40.4312 48.5934 41.2816 48.18 41.9977C47.7666 42.7139 47.0871 43.2377 46.2893 43.4552C45.4915 43.6726 44.6402 43.5661 43.9206 43.1588L25.581 32.5737Z" fill="#E64C3C"/>
<path fillRule="evenodd" clip-rule="evenodd" d="M11.8328 40.5121V33.2705L10.3652 34.1181L4.11055 37.7293C3.39046 38.145 2.86502 38.8298 2.64981 39.6329C2.4346 40.4361 2.54725 41.2918 2.96298 42.0119C3.37872 42.732 4.06347 43.2574 4.86662 43.4726C5.66976 43.6878 6.5255 43.5752 7.24559 43.1595L8.63507 42.3583L10.3652 41.3597L11.8328 40.5121Z" fill="#CF4436"/>
<path d="M47.9551 44.3206H49.1511V48.1523H47.9551V44.3206Z" fill="#D3DDE6"/>
<path d="M56.1953 44.3206H57.3874V48.1523H56.1953V44.3206Z" fill="#D3DDE6"/>
<path d="M47.9551 52.0964H49.1511V55.9244H47.9551V52.0964Z" fill="#D3DDE6"/>
<path d="M56.1953 52.0964H57.3874V55.9244H56.1953V52.0964Z" fill="#D3DDE6"/>
<path d="M47.9551 59.8721H49.1511V63.7H47.9551V59.8721Z" fill="#D3DDE6"/>
<path d="M56.1953 59.8721H57.3874V63.7H56.1953V59.8721Z" fill="#D3DDE6"/>
</g>
<defs>
<clipPath id="clip0_2652_4711">
<rect width="68" height="68" fill="white"/>
</clipPath>
</defs>
</svg>
