<svg width="57" height="63" viewBox="0 0 57 63" fill="none" xmlns="http://www.w3.org/2000/svg">
<path d="M54.9644 29.9259C53.5607 27.5251 51.5863 25.6004 49.1178 24.1515C47.2731 23.0839 45.3603 22.4064 43.2048 22.1154V14.487C45.3603 13.5772 46.698 11.5634 46.698 9.21403C46.698 6.01183 44.1149 3.41691 40.8963 3.41691C37.6751 3.41691 35.0467 6.01183 35.0467 9.21403C35.0467 11.5634 36.3072 13.5772 38.4627 14.487V22.1188C36.7383 22.3665 34.9501 22.9009 33.3171 23.7221C29.9817 21.2038 19.0447 12.9425 12.6467 8.11735C12.7985 7.57351 12.9153 7.01295 12.9153 6.42154C12.9153 2.87478 10.0261 0 6.45701 0C2.88794 0 0 2.87478 0 6.42154C0 9.96787 2.89096 12.8435 6.46004 12.8435C7.67746 12.8435 8.80348 12.4895 9.77518 11.9075L11.1254 12.9258L29.6782 26.2146C28.6974 27.1098 27.7839 28.1281 27.0532 29.2706C25.5724 31.5998 24.6675 34.1626 24.6675 36.9581V37.5414C24.6675 39.5038 25.0426 41.3564 25.6815 43.0968C26.2441 44.6165 27.0666 45.9982 28.0853 47.2474L21.9279 53.3835C21.0355 53.0534 20.0664 52.9856 19.1363 53.1884C18.2063 53.3911 17.3546 53.8558 16.6831 54.5269C16.2182 54.9868 15.8497 55.5339 15.599 56.1364C15.3483 56.7389 15.2203 57.3848 15.2226 58.0368C15.223 59.3624 15.7425 60.6082 16.6857 61.5454C17.148 62.008 17.6981 62.3747 18.304 62.6244C18.9099 62.874 19.5597 63.0017 20.2156 63C20.8716 63.0016 21.5216 62.874 22.1277 62.6243C22.7338 62.3746 23.2841 62.0079 23.7467 61.5454C24.2113 61.0856 24.5797 60.5387 24.8305 59.9365C25.0814 59.3343 25.2097 58.6886 25.2081 58.0368C25.2081 57.5238 25.1284 57.0233 24.9784 56.5476L31.3427 50.2199C32.2152 50.819 33.1576 51.3234 34.1707 51.7584C36.1688 52.6173 38.3743 53.1405 40.7881 53.1405H41.2304C43.8989 53.1405 46.4161 52.5174 48.7824 51.2429C51.2759 49.8959 53.2274 48.054 54.7018 45.7025C56.1839 43.3445 57 40.7393 57 37.8731V37.73C57 34.9105 56.3434 32.3091 54.9644 29.9259ZM47.1882 43.1997C45.4608 45.108 43.4751 46.2836 41.2304 46.2836H40.8605C39.5784 46.2836 38.3243 45.9313 37.0966 45.2906C35.7127 44.5852 34.6608 43.5789 33.7999 42.3048C32.9101 41.0543 32.4273 39.6889 32.4273 38.2412V37.8015C32.4273 36.3783 32.7019 35.0288 33.3943 33.7542C34.1345 32.361 35.1342 31.2776 36.4637 30.4162C37.7691 29.5608 39.1632 29.1412 40.7161 29.1412H40.8605C42.2685 29.1412 43.6014 29.4172 44.8594 30.057C46.141 30.7393 47.1882 31.6714 47.9999 32.8975C48.7884 34.1241 49.2575 35.447 49.4083 36.8883C49.4321 37.1878 49.4441 37.4947 49.4441 37.7878C49.4441 39.7438 48.6923 41.5553 47.1882 43.1997Z" fill="#F8761F"/>
</svg>
