<?xml version="1.0" encoding="UTF-8"?>
<!DOCTYPE svg PUBLIC "-//W3C//DTD SVG 1.1//EN" "http://www.w3.org/Graphics/SVG/1.1/DTD/svg11.dtd">
<svg xmlns="http://www.w3.org/2000/svg" version="1.1" width="512px" height="512px" style="shape-rendering:geometricPrecision; text-rendering:geometricPrecision; image-rendering:optimizeQuality; fill-rule:evenodd; clip-rule:evenodd" xmlns:xlink="http://www.w3.org/1999/xlink">
<g><path style="opacity:0.93" fill="#000000" d="M 251.5,-0.5 C 254.167,-0.5 256.833,-0.5 259.5,-0.5C 265.391,8.11098 270.391,17.2776 274.5,27C 284.121,28.8511 293.788,30.5177 303.5,32C 308.862,35.6218 309.696,40.1218 306,45.5C 299.364,51.1345 293.031,57.1345 287,63.5C 288.003,73.0186 289.503,82.5186 291.5,92C 289.904,99.1014 285.571,101.435 278.5,99C 270.833,94.8333 263.167,90.6667 255.5,86.5C 247.833,90.6667 240.167,94.8333 232.5,99C 225.429,101.435 221.096,99.1014 219.5,92C 221.496,82.5262 222.996,73.0262 224,63.5C 217.969,57.1345 211.636,51.1345 205,45.5C 201.304,40.1218 202.138,35.6218 207.5,32C 217.242,30.7038 226.909,29.0372 236.5,27C 240.522,19.271 244.356,11.4377 248,3.5C 249.376,2.29493 250.542,0.961599 251.5,-0.5 Z M 254.5,26.5 C 255.376,26.3691 256.043,26.7025 256.5,27.5C 258.706,32.0785 261.039,36.5785 263.5,41C 269.631,43.1633 275.964,44.4966 282.5,45C 278.667,48.8333 274.833,52.6667 271,56.5C 270.399,58.1368 269.899,59.8034 269.5,61.5C 270.967,66.5944 271.634,71.5944 271.5,76.5C 266.38,73.605 261.047,71.2717 255.5,69.5C 249.953,71.2717 244.62,73.605 239.5,76.5C 239.167,76.1667 238.833,75.8333 238.5,75.5C 239.925,70.2182 240.758,64.8849 241,59.5C 237.608,54.1 233.441,49.2667 228.5,45C 235.036,44.4966 241.369,43.1633 247.5,41C 250.245,36.3433 252.579,31.51 254.5,26.5 Z"/></g>
<g><path style="opacity:0.93" fill="#000000" d="M 143.5,28.5 C 147.603,27.7691 151.103,28.7691 154,31.5C 158.039,39.7447 162.206,47.9114 166.5,56C 175.753,57.942 185.086,59.6086 194.5,61C 200.369,64.2755 201.536,68.7755 198,74.5C 191.364,80.1345 185.031,86.1345 179,92.5C 179.794,102.099 181.294,111.599 183.5,121C 182.743,125.591 180.076,128.425 175.5,129.5C 165.841,125.254 156.341,120.588 147,115.5C 138.013,120.994 128.68,125.66 119,129.5C 114.517,128.181 112.017,125.181 111.5,120.5C 113.552,111.191 115.052,101.858 116,92.5C 107.936,86.1041 100.936,78.7708 95,70.5C 94.2047,66.209 95.7047,63.0424 99.5,61C 109.263,59.7015 118.93,58.0348 128.5,56C 132.609,46.2776 137.609,37.111 143.5,28.5 Z M 146.5,55.5 C 147.376,55.3691 148.043,55.7025 148.5,56.5C 150.706,61.0785 153.039,65.5785 155.5,70C 161.38,71.9131 167.38,73.4131 173.5,74.5C 170.182,78.3181 166.682,81.9848 163,85.5C 162.667,86.5 162.333,87.5 162,88.5C 162.456,94.5581 163.123,100.558 164,106.5C 158.953,102.893 153.453,100.227 147.5,98.5C 141.547,100.227 136.047,102.893 131,106.5C 131.342,100.945 132.175,95.4454 133.5,90C 132.671,88.1839 131.837,86.3506 131,84.5C 127.651,81.318 124.484,77.9846 121.5,74.5C 127.649,73.5319 133.649,72.0319 139.5,70C 142.245,65.3433 144.579,60.51 146.5,55.5 Z"/></g>
<g><path style="opacity:0.929" fill="#000000" d="M 359.5,28.5 C 364.223,27.5531 368.056,28.8864 371,32.5C 374.977,40.2874 378.811,48.1208 382.5,56C 392.07,58.0348 401.737,59.7015 411.5,61C 416.299,64.0711 417.465,68.2378 415,73.5C 408.636,80.1986 401.969,86.5319 395,92.5C 395.948,101.858 397.448,111.191 399.5,120.5C 398.947,125.386 396.281,128.386 391.5,129.5C 382.016,125.508 372.849,120.841 364,115.5C 354.659,120.588 345.159,125.254 335.5,129.5C 330.261,128.433 327.928,125.266 328.5,120C 329.84,110.804 331.007,101.637 332,92.5C 325.969,86.1345 319.636,80.1345 313,74.5C 309.068,68.635 310.235,64.135 316.5,61C 325.915,59.6085 335.249,57.9418 344.5,56C 349.131,46.5662 354.131,37.3995 359.5,28.5 Z M 362.5,55.5 C 363.376,55.3691 364.043,55.7025 364.5,56.5C 366.706,61.0785 369.039,65.5785 371.5,70C 377.38,71.9131 383.38,73.4131 389.5,74.5C 386.516,77.9846 383.349,81.318 380,84.5C 379.069,86.4595 378.236,88.4595 377.5,90.5C 378.5,95.1667 379.5,99.8333 380.5,104.5C 380.167,104.833 379.833,105.167 379.5,105.5C 374.38,102.605 369.047,100.272 363.5,98.5C 357.547,100.227 352.047,102.893 347,106.5C 347.877,100.558 348.544,94.5581 349,88.5C 348.667,87.5 348.333,86.5 348,85.5C 344.318,81.9848 340.818,78.3181 337.5,74.5C 343.649,73.5319 349.649,72.0319 355.5,70C 358.245,65.3433 360.579,60.51 362.5,55.5 Z"/></g>
<g><path style="opacity:0.913" fill="#000000" d="M 88.5,105.5 C 96.9849,106.797 99.4849,111.464 96,119.5C 74.0482,142.384 57.3816,168.717 46,198.5C 41.0419,202.715 36.3752,202.381 32,197.5C 31.3333,195.167 31.3333,192.833 32,190.5C 42.2516,163.623 56.5849,139.29 75,117.5C 79.1228,112.866 83.6228,108.866 88.5,105.5 Z"/></g>
<g><path style="opacity:0.936" fill="#000000" d="M 375.5,511.5 C 357.833,511.5 340.167,511.5 322.5,511.5C 320.73,509.887 319.564,507.887 319,505.5C 318.032,482.77 318.365,460.103 320,437.5C 320.833,436.667 321.667,435.833 322.5,435C 340.167,434.333 357.833,434.333 375.5,435C 377.333,435.5 378.5,436.667 379,438.5C 379.333,444.833 379.667,451.167 380,457.5C 448.716,408.057 481.049,340.724 477,255.5C 471.725,202.634 451.059,156.968 415,118.5C 413.543,108.951 417.376,105.451 426.5,108C 477.818,162.618 499.651,227.452 492,302.5C 481.085,378.052 443.752,436.385 380,477.5C 379.667,487.5 379.333,497.5 379,507.5C 378.31,509.35 377.144,510.684 375.5,511.5 Z M 334.5,449.5 C 344.167,449.5 353.833,449.5 363.5,449.5C 363.5,465.167 363.5,480.833 363.5,496.5C 353.833,496.5 344.167,496.5 334.5,496.5C 334.5,480.833 334.5,465.167 334.5,449.5 Z"/></g>
<g><path style="opacity:0.928" fill="#000000" d="M 245.5,116.5 C 280.758,114.185 309.925,126.185 333,152.5C 334.875,160.619 331.708,164.452 323.5,164C 315.714,156.612 307.381,149.946 298.5,144C 287.635,138.156 276.135,134.323 264,132.5C 263.5,141.16 263.334,149.827 263.5,158.5C 288.729,165.231 307.229,180.231 319,203.5C 321.121,208.982 322.454,214.649 323,220.5C 325.893,243.363 322.893,265.363 314,286.5C 311.227,291.604 308.06,296.437 304.5,301C 314.264,303.201 323.931,305.701 333.5,308.5C 336.996,293.182 340.496,277.849 344,262.5C 347.945,236.56 345.111,211.393 335.5,187C 338.525,177.799 343.691,176.299 351,182.5C 361.745,210.747 364.412,239.747 359,269.5C 355.156,285.875 351.156,302.209 347,318.5C 344.385,323.143 340.385,325.476 335,325.5C 324.166,322.75 313.333,319.916 302.5,317C 298.527,316.002 294.527,315.669 290.5,316C 289.975,316.692 289.308,317.192 288.5,317.5C 287.335,326.482 287.168,335.482 288,344.5C 289.167,347 291,348.833 293.5,350C 315.5,355 337.5,360 359.5,365C 369.937,369.103 376.437,376.603 379,387.5C 379.667,395.833 379.667,404.167 379,412.5C 377.471,415.516 374.971,416.849 371.5,416.5C 368.675,416.881 366.509,415.881 365,413.5C 363.769,405.911 363.103,398.244 363,390.5C 361.813,386.291 359.313,383.124 355.5,381C 333.901,375.747 312.235,370.747 290.5,366C 281.427,363.261 275.26,357.427 272,348.5C 271.831,341.809 271.331,335.142 270.5,328.5C 260.5,333.833 250.5,333.833 240.5,328.5C 239.669,335.142 239.169,341.809 239,348.5C 235.74,357.427 229.573,363.261 220.5,366C 198.765,370.747 177.099,375.747 155.5,381C 151.687,383.124 149.187,386.291 148,390.5C 147.897,398.244 147.231,405.911 146,413.5C 142.281,416.902 138.114,417.402 133.5,415C 132.874,414.25 132.374,413.416 132,412.5C 131.333,404.167 131.333,395.833 132,387.5C 134.563,376.603 141.063,369.103 151.5,365C 173.5,360 195.5,355 217.5,350C 220,348.833 221.833,347 223,344.5C 223.832,335.482 223.665,326.482 222.5,317.5C 218.369,315.277 214.035,315.11 209.5,317C 198.222,319.778 187.055,322.945 176,326.5C 171.462,326.065 167.796,324.065 165,320.5C 159.395,302.081 154.729,283.414 151,264.5C 146.065,230.443 151.398,198.109 167,167.5C 185.048,138.056 211.215,121.056 245.5,116.5 Z M 246.5,132.5 C 247.493,140.984 247.826,149.651 247.5,158.5C 220.016,166.153 200.849,183.153 190,209.5C 187.76,216.472 187.427,223.472 189,230.5C 193.954,234.677 198.62,234.343 203,229.5C 204.992,207.835 215.492,191.669 234.5,181C 240.488,177.506 246.821,174.839 253.5,173C 295.228,182.568 313.062,208.735 307,251.5C 303.181,283.832 286.014,305.499 255.5,316.5C 226.732,306.055 209.399,285.722 203.5,255.5C 198.667,251.262 194.167,251.595 190,256.5C 190.271,273.22 195.771,288.053 206.5,301C 196.837,303.612 187.17,306.112 177.5,308.5C 174.004,293.182 170.504,277.849 167,262.5C 161.657,227.887 168.324,195.887 187,166.5C 202.329,147.253 222.162,135.92 246.5,132.5 Z"/></g>
<g><path style="opacity:0.939" fill="#000000" d="M 188.5,511.5 C 170.833,511.5 153.167,511.5 135.5,511.5C 133.856,510.684 132.69,509.35 132,507.5C 131.667,497.5 131.333,487.5 131,477.5C 57.5883,429.708 19.7549,361.708 17.5,273.5C 17.349,257.344 18.849,241.344 22,225.5C 26.1377,218.473 31.1377,217.806 37,223.5C 25.1353,288.852 37.802,348.852 75,403.5C 90.4175,424.918 109.084,442.918 131,457.5C 131.333,451.167 131.667,444.833 132,438.5C 132.5,436.667 133.667,435.5 135.5,435C 153.167,434.333 170.833,434.333 188.5,435C 189.333,435.833 190.167,436.667 191,437.5C 192.635,460.103 192.968,482.77 192,505.5C 191.436,507.887 190.27,509.887 188.5,511.5 Z M 147.5,449.5 C 157.167,449.5 166.833,449.5 176.5,449.5C 176.5,465.167 176.5,480.833 176.5,496.5C 166.833,496.5 157.167,496.5 147.5,496.5C 147.5,480.833 147.5,465.167 147.5,449.5 Z"/></g>
<g><path style="opacity:0.989" fill="#000000" d="M 282.5,511.5 C 264.5,511.5 246.5,511.5 228.5,511.5C 227.878,510.373 227.045,509.373 226,508.5C 225.333,466.5 225.333,424.5 226,382.5C 226.833,381.667 227.667,380.833 228.5,380C 246.5,379.333 264.5,379.333 282.5,380C 283.333,380.833 284.167,381.667 285,382.5C 285.667,398.5 285.667,414.5 285,430.5C 280.333,434.5 275.667,434.5 271,430.5C 270.5,418.505 270.333,406.505 270.5,394.5C 260.5,394.5 250.5,394.5 240.5,394.5C 240.5,428.5 240.5,462.5 240.5,496.5C 250.5,496.5 260.5,496.5 270.5,496.5C 270.333,483.163 270.5,469.829 271,456.5C 275.667,451.167 280.333,451.167 285,456.5C 285.667,473.833 285.667,491.167 285,508.5C 283.955,509.373 283.122,510.373 282.5,511.5 Z"/></g>
</svg>
