<?xml version="1.0" encoding="UTF-8"?>
<!DOCTYPE svg PUBLIC "-//W3C//DTD SVG 1.1//EN" "http://www.w3.org/Graphics/SVG/1.1/DTD/svg11.dtd">
<svg xmlns="http://www.w3.org/2000/svg" version="1.1" width="512px" height="512px" style="shape-rendering:geometricPrecision; text-rendering:geometricPrecision; image-rendering:optimizeQuality; fill-rule:evenodd; clip-rule:evenodd" xmlns:xlink="http://www.w3.org/1999/xlink">
<g><path style="opacity:0.923" fill="#000000" d="M 239.5,0.5 C 250.172,0.333496 260.839,0.500163 271.5,1C 278.106,3.27183 282.273,7.77183 284,14.5C 284.5,23.1603 284.666,31.8269 284.5,40.5C 294.575,42.6915 304.075,46.3582 313,51.5C 319.86,44.9726 327.027,38.8059 334.5,33C 342.288,30.3653 349.288,31.6986 355.5,37C 360.333,41.8333 365.167,46.6667 370,51.5C 375.963,58.4963 376.963,66.163 373,74.5C 367.154,81.0117 361.32,87.5117 355.5,94C 360.703,102.907 364.37,112.407 366.5,122.5C 375.173,122.334 383.84,122.5 392.5,123C 399.262,124.763 403.762,128.93 406,135.5C 406.667,146.5 406.667,157.5 406,168.5C 403.414,174.088 399.247,177.921 393.5,180C 384.506,180.5 375.506,180.666 366.5,180.5C 364.252,190.67 360.585,200.337 355.5,209.5C 361.517,215.683 367.351,222.017 373,228.5C 376.732,236.243 376.065,243.577 371,250.5C 365.5,256 360,261.5 354.5,267C 346.747,272.564 338.747,272.897 330.5,268C 324.985,262.318 319.319,256.818 313.5,251.5C 304.42,256.58 294.92,260.58 285,263.5C 284.667,272.167 284.333,280.833 284,289.5C 281.921,295.247 278.088,299.414 272.5,302C 261.167,302.667 249.833,302.667 238.5,302C 233.487,299.654 229.821,295.987 227.5,291C 226.859,281.623 226.192,272.29 225.5,263C 215.643,260.437 206.31,256.603 197.5,251.5C 191.681,256.818 186.015,262.318 180.5,268C 172.833,272.667 165.167,272.667 157.5,268C 150.635,261.469 144.135,254.636 138,247.5C 134.268,239.757 134.935,232.423 140,225.5C 145.348,220.319 150.515,214.985 155.5,209.5C 150.802,200.273 146.802,190.773 143.5,181C 134.833,180.667 126.167,180.333 117.5,180C 111.753,177.921 107.586,174.088 105,168.5C 104.333,157.5 104.333,146.5 105,135.5C 107.238,128.93 111.738,124.763 118.5,123C 127.16,122.5 135.827,122.334 144.5,122.5C 146.63,112.407 150.297,102.907 155.5,94C 148.973,87.1396 142.806,79.9729 137,72.5C 134.2,64.6852 135.533,57.6852 141,51.5C 146.864,45.301 153.031,39.4677 159.5,34C 165.833,30.6667 172.167,30.6667 178.5,34C 185.012,39.8463 191.512,45.6797 198,51.5C 206.925,46.3582 216.425,42.6915 226.5,40.5C 226.334,31.8269 226.5,23.1603 227,14.5C 228.954,7.71998 233.12,3.05332 239.5,0.5 Z M 243.5,16.5 C 251.507,16.3336 259.507,16.5003 267.5,17C 268.032,28.5203 268.865,40.0203 270,51.5C 284.859,55.9038 299.025,62.0704 312.5,70C 315.783,70.7429 318.783,70.0762 321.5,68C 328.333,61.1667 335.167,54.3333 342,47.5C 348.015,53.3479 353.848,59.3479 359.5,65.5C 352.515,72.9857 345.348,80.319 338,87.5C 337.125,88.8732 336.625,90.3732 336.5,92C 340.175,99.8512 344.008,107.685 348,115.5C 350.006,122.182 352.006,128.849 354,135.5C 354.903,136.701 356.069,137.535 357.5,138C 368.41,138.179 379.243,138.679 390,139.5C 390.667,147.5 390.667,155.5 390,163.5C 378.48,164.032 366.98,164.865 355.5,166C 352.356,174.761 349.189,183.595 346,192.5C 343,197.833 340,203.167 337,208.5C 336.257,211.783 336.924,214.783 339,217.5C 345.667,224.167 352.333,230.833 359,237.5C 359.667,238.167 359.667,238.833 359,239.5C 353.623,245.212 347.957,250.545 342,255.5C 334.209,248.711 326.709,241.544 319.5,234C 318,233.5 316.5,233 315,232.5C 301.424,240.473 286.924,246.307 271.5,250C 270.299,250.903 269.465,252.069 269,253.5C 268.821,264.41 268.321,275.243 267.5,286C 259.5,286.667 251.5,286.667 243.5,286C 242.968,274.48 242.135,262.98 241,251.5C 232.239,248.356 223.405,245.189 214.5,242C 208.814,238.966 203.147,235.966 197.5,233C 195.365,232.365 193.365,232.699 191.5,234C 184.5,241 177.5,248 170.5,255C 169.5,255.667 168.5,255.667 167.5,255C 161.985,249.652 156.652,244.152 151.5,238.5C 158.152,231.348 164.985,224.348 172,217.5C 173.257,215.487 174.091,213.321 174.5,211C 170.698,203.184 166.865,195.351 163,187.5C 160.69,180.925 158.69,174.258 157,167.5C 156.097,166.299 154.931,165.465 153.5,165C 142.59,164.821 131.757,164.321 121,163.5C 120.333,155.5 120.333,147.5 121,139.5C 132.52,138.968 144.02,138.135 155.5,137C 159.903,122.146 166.069,107.98 174,94.5C 174.706,92.0288 174.373,89.6954 173,87.5C 166,80.5 159,73.5 152,66.5C 151.333,65.8333 151.333,65.1667 152,64.5C 157.667,58.8333 163.333,53.1667 169,47.5C 175.833,54.3333 182.667,61.1667 189.5,68C 191.513,69.2572 193.679,70.0905 196,70.5C 203.185,67.1583 210.351,63.6583 217.5,60C 224.739,57.3572 232.072,55.0238 239.5,53C 240.701,52.0975 241.535,50.9308 242,49.5C 242.189,38.424 242.689,27.424 243.5,16.5 Z"/></g>
<g><path style="opacity:0.92" fill="#000000" d="M 71.5,58.5 C 78.6735,59.8258 81.6735,64.1591 80.5,71.5C 91.6211,71.1074 94.9544,75.9407 90.5,86C 87.3117,87.3158 83.9783,87.8158 80.5,87.5C 80.9111,91.4629 80.0778,95.1295 78,98.5C 67.8119,102.16 63.3119,98.4932 64.5,87.5C 57.3244,89.4507 52.9911,86.9507 51.5,80C 51.4076,77.1861 52.4076,74.8527 54.5,73C 57.7256,71.8011 61.059,71.3011 64.5,71.5C 63.0171,64.7807 65.3505,60.4474 71.5,58.5 Z"/></g>
<g><path style="opacity:0.924" fill="#000000" d="M 247.5,84.5 C 281.86,83.0658 305.693,98.0658 319,129.5C 321.29,138.789 317.79,142.622 308.5,141C 307.069,140.535 305.903,139.701 305,138.5C 294.201,110.016 273.701,97.8498 243.5,102C 212.208,113.078 200.041,134.912 207,167.5C 220.359,197.26 242.859,207.76 274.5,199C 289.856,192.142 300.023,180.642 305,164.5C 309.667,159.167 314.333,159.167 319,164.5C 318.095,179.479 311.928,191.979 300.5,202C 281.602,217.376 260.268,222.043 236.5,216C 209.933,206.761 194.099,188.261 189,160.5C 187.295,118.718 206.795,93.3848 247.5,84.5 Z"/></g>
<g><path style="opacity:0.907" fill="#000000" d="M 272.5,130.5 C 280.168,130.332 283.335,133.999 282,141.5C 272.864,151.637 263.364,161.47 253.5,171C 250.167,173 246.833,173 243.5,171C 239,166.5 234.5,162 230,157.5C 226.785,148.42 229.952,144.253 239.5,145C 242.646,147.312 245.646,149.812 248.5,152.5C 256.27,144.722 264.27,137.389 272.5,130.5 Z"/></g>
<g><path style="opacity:0.925" fill="#000000" d="M 511.5,278.5 C 511.5,283.167 511.5,287.833 511.5,292.5C 501.595,316.36 491.762,340.36 482,364.5C 477.588,373.145 471.421,380.312 463.5,386C 431.55,409.561 400.05,433.728 369,458.5C 368.333,459.833 367.667,461.167 367,462.5C 366.667,476.833 366.333,491.167 366,505.5C 363.459,510.069 359.625,511.569 354.5,510C 352.951,508.786 351.785,507.286 351,505.5C 350.333,490.5 350.333,475.5 351,460.5C 352.674,452.983 356.508,446.816 362.5,442C 395.952,416.883 429.118,391.383 462,365.5C 465.172,361.159 467.839,356.492 470,351.5C 478.138,330.753 486.471,310.087 495,289.5C 496.81,282.141 493.976,277.808 486.5,276.5C 483.889,276.556 481.722,277.556 480,279.5C 473.393,293.047 467.06,306.713 461,320.5C 457.869,324.633 454.369,328.466 450.5,332C 428.769,342.531 406.769,352.531 384.5,362C 381.289,368.958 378.455,376.124 376,383.5C 371.333,388.833 366.667,388.833 362,383.5C 361.333,380.833 361.333,378.167 362,375.5C 370.709,349.708 379.209,323.875 387.5,298C 387.512,293.01 385.012,290.176 380,289.5C 377.121,290.376 374.787,292.042 373,294.5C 368.333,302.5 363.667,310.5 359,318.5C 343.033,336.135 326.699,353.469 310,370.5C 298.333,386.833 286.667,403.167 275,419.5C 268.933,429.701 265.266,440.701 264,452.5C 263.667,470.167 263.333,487.833 263,505.5C 259.987,510.535 255.82,511.702 250.5,509C 249.299,508.097 248.465,506.931 248,505.5C 247.667,487.833 247.333,470.167 247,452.5C 245.732,440.697 242.066,429.697 236,419.5C 224.333,403.167 212.667,386.833 201,370.5C 184.301,353.469 167.967,336.135 152,318.5C 146.956,308.798 141.123,299.631 134.5,291C 131.348,289.146 128.348,289.479 125.5,292C 124.106,293.739 123.439,295.739 123.5,298C 131.791,323.875 140.291,349.708 149,375.5C 151.234,382.25 148.901,386.25 142,387.5C 139.516,387.174 137.349,386.174 135.5,384.5C 132.78,376.83 129.78,369.33 126.5,362C 104.231,352.531 82.2314,342.531 60.5,332C 56.6311,328.466 53.1311,324.633 50,320.5C 43.9402,306.713 37.6069,293.047 31,279.5C 25.372,275.159 20.372,275.826 16,281.5C 15.3333,284.167 15.3333,286.833 16,289.5C 25.6096,313.662 35.6096,337.662 46,361.5C 48.6667,365.5 52,368.833 56,371.5C 59.8455,378.624 57.8455,383.29 50,385.5C 41.1041,381.606 34.4374,375.273 30,366.5C 19.7097,341.774 9.54308,317.107 -0.5,292.5C -0.5,287.833 -0.5,283.167 -0.5,278.5C 7.18106,261.228 19.8477,256.394 37.5,264C 41,266.167 43.8333,269 46,272.5C 52.0598,286.287 58.3931,299.953 65,313.5C 66.8333,315.333 68.6667,317.167 70.5,319C 87.0714,327.138 103.738,334.305 120.5,340.5C 116.037,328.613 111.871,316.613 108,304.5C 106.076,282.089 116.243,272.256 138.5,275C 143.519,277.015 147.685,280.182 151,284.5C 155.667,292.5 160.333,300.5 165,308.5C 180.634,325.802 196.634,342.802 213,359.5C 227.908,379.646 242.074,400.312 255.5,421.5C 268.926,400.312 283.092,379.646 298,359.5C 314.366,342.802 330.366,325.802 346,308.5C 350.667,300.5 355.333,292.5 360,284.5C 370.278,272.577 382.112,270.744 395.5,279C 403.023,285.93 405.523,294.43 403,304.5C 399.112,316.606 394.946,328.606 390.5,340.5C 390.833,340.833 391.167,341.167 391.5,341.5C 407.833,334 424.167,326.5 440.5,319C 442.333,317.167 444.167,315.333 446,313.5C 452.607,299.953 458.94,286.287 465,272.5C 473.662,260.874 484.828,257.707 498.5,263C 504.488,266.818 508.821,271.984 511.5,278.5 Z"/></g>
<g><path style="opacity:0.92" fill="#000000" d="M 75.5,390.5 C 79.3311,390.249 82.6644,391.416 85.5,394C 108.954,411.785 132.12,429.952 155,448.5C 157.225,452.281 158.891,456.281 160,460.5C 160.667,475.5 160.667,490.5 160,505.5C 157.928,510.143 154.428,511.643 149.5,510C 147.333,509.167 145.833,507.667 145,505.5C 144.667,491.167 144.333,476.833 144,462.5C 143.333,461.167 142.667,459.833 142,458.5C 118.847,440.258 95.5138,422.258 72,404.5C 69.133,398.63 70.2997,393.963 75.5,390.5 Z"/></g>
</svg>
