<?xml version="1.0" encoding="UTF-8"?>
<!DOCTYPE svg PUBLIC "-//W3C//DTD SVG 1.1//EN" "http://www.w3.org/Graphics/SVG/1.1/DTD/svg11.dtd">
<svg xmlns="http://www.w3.org/2000/svg" version="1.1" width="512px" height="512px" style="shape-rendering:geometricPrecision; text-rendering:geometricPrecision; image-rendering:optimizeQuality; fill-rule:evenodd; clip-rule:evenodd" xmlns:xlink="http://www.w3.org/1999/xlink">
<g><path style="opacity:0.909" fill="#000000" d="M 299.5,-0.5 C 302.167,-0.5 304.833,-0.5 307.5,-0.5C 308.458,0.961599 309.624,2.29493 311,3.5C 311.667,9.83333 311.667,16.1667 311,22.5C 307.229,26.7881 302.729,27.6214 297.5,25C 296.107,23.8289 295.273,22.3289 295,20.5C 294.333,15.5 294.333,10.5 295,5.5C 295.599,2.74583 297.099,0.745833 299.5,-0.5 Z"/></g>
<g><path style="opacity:0.885" fill="#000000" d="M 238.5,15.5 C 241.425,15.4598 244.091,16.2932 246.5,18C 248.667,21.5 250.833,25 253,28.5C 256.019,37.4696 252.852,41.9696 243.5,42C 242.167,41.3333 240.833,40.6667 239.5,40C 236.62,35.7418 234.12,31.2418 232,26.5C 231.118,20.9393 233.285,17.2726 238.5,15.5 Z"/></g>
<g><path style="opacity:0.894" fill="#000000" d="M 364.5,15.5 C 370.504,15.3447 373.837,18.1781 374.5,24C 373.293,29.2479 371.127,34.0813 368,38.5C 363.656,43.4359 358.99,43.7693 354,39.5C 352.517,36.2976 352.183,32.9643 353,29.5C 355,26.1667 357,22.8333 359,19.5C 360.5,17.5313 362.333,16.198 364.5,15.5 Z"/></g>
<g><path style="opacity:0.933" fill="#000000" d="M 292.5,32.5 C 332.175,30.257 363.342,45.257 386,77.5C 408.773,118.863 405.773,158.196 377,195.5C 367.331,205.247 356.498,213.413 344.5,220C 340.828,224.01 338.495,228.677 337.5,234C 343.447,235.613 346.947,239.447 348,245.5C 348.667,256.833 348.667,268.167 348,279.5C 346.281,288.886 340.781,294.719 331.5,297C 312.833,297.667 294.167,297.667 275.5,297C 267.107,294.941 261.607,289.775 259,281.5C 258.333,268.833 258.333,256.167 259,243.5C 260.61,239.388 263.444,236.388 267.5,234.5C 268.102,228.189 265.768,223.023 260.5,219C 218.328,195.489 200.495,159.656 207,111.5C 216.31,73.5249 239.477,48.3583 276.5,36C 281.954,34.7451 287.287,33.5784 292.5,32.5 Z M 294.5,49.5 C 333.327,48.1512 361.161,64.8179 378,99.5C 392.416,146.265 378.249,181.431 335.5,205C 326.584,211.998 321.751,221.165 321,232.5C 309.247,233.488 297.414,233.821 285.5,233.5C 284.977,224.428 281.811,216.428 276,209.5C 267.254,203.21 258.421,197.044 249.5,191C 223.555,165.383 216.388,135.216 228,100.5C 241.105,71.548 263.272,54.548 294.5,49.5 Z M 275.5,250.5 C 294.167,250.5 312.833,250.5 331.5,250.5C 331.945,259.94 331.445,269.274 330,278.5C 329.5,279 329,279.5 328.5,280C 311.833,280.667 295.167,280.667 278.5,280C 277.584,279.626 276.75,279.126 276,278.5C 275.5,269.173 275.334,259.839 275.5,250.5 Z"/></g>
<g><path style="opacity:0.885" fill="#000000" d="M 192.5,61.5 C 198.883,62.9414 204.717,65.6081 210,69.5C 214.47,78.7338 211.637,83.5672 201.5,84C 196.79,81.8947 192.29,79.3947 188,76.5C 184.184,69.7864 185.684,64.7864 192.5,61.5 Z"/></g>
<g><path style="opacity:0.892" fill="#000000" d="M 410.5,61.5 C 419.42,62.5711 422.254,67.2378 419,75.5C 414.767,78.7287 410.267,81.562 405.5,84C 396.339,84.8287 392.839,80.662 395,71.5C 399.84,67.5068 405.006,64.1735 410.5,61.5 Z"/></g>
<g><path style="opacity:0.907" fill="#000000" d="M 175.5,124.5 C 181.593,124.139 187.593,124.639 193.5,126C 197.787,131.357 197.453,136.357 192.5,141C 186.167,141.667 179.833,141.667 173.5,141C 166.984,134.693 167.651,129.193 175.5,124.5 Z"/></g>
<g><path style="opacity:0.898" fill="#000000" d="M 415.5,124.5 C 421.621,124.09 427.621,124.59 433.5,126C 439.08,131.486 438.747,136.486 432.5,141C 425.724,141.92 419.057,141.586 412.5,140C 407.956,133.767 408.956,128.6 415.5,124.5 Z"/></g>
<g><path style="opacity:0.892" fill="#000000" d="M 199.5,182.5 C 208.641,180.816 212.808,184.483 212,193.5C 208.039,198.077 203.206,201.577 197.5,204C 187.844,205.01 184.344,200.843 187,191.5C 190.969,188.111 195.136,185.111 199.5,182.5 Z"/></g>
<g><path style="opacity:0.896" fill="#000000" d="M 398.5,182.5 C 401.187,182.336 403.854,182.503 406.5,183C 410.5,185.333 414.5,187.667 418.5,190C 422.759,200.157 419.425,204.824 408.5,204C 404.5,201.667 400.5,199.333 396.5,197C 393.366,191.566 394.033,186.733 398.5,182.5 Z"/></g>
<g><path style="opacity:0.931" fill="#000000" d="M 153.5,511.5 C 148.833,511.5 144.167,511.5 139.5,511.5C 136.564,509.692 133.564,507.859 130.5,506C 103,478.5 75.5,451 48,423.5C 41.5346,414.247 40.868,404.58 46,394.5C 56.201,382.632 67.3677,371.798 79.5,362C 83.0129,361.073 86.5129,360.239 90,359.5C 93.859,360.501 97.6923,361.335 101.5,362C 119.874,345.957 138.541,330.291 157.5,315C 177.503,302.733 199.17,298.399 222.5,302C 232.823,303.441 242.823,306.108 252.5,310C 257.453,310.995 262.453,311.662 267.5,312C 288.833,312.333 310.167,312.667 331.5,313C 340.794,315.22 348.294,320.053 354,327.5C 372.201,310.297 390.701,293.464 409.5,277C 429.859,266.408 448.359,268.908 465,284.5C 470.132,294.58 469.465,304.247 463,313.5C 433.5,343 404,372.5 374.5,402C 361.629,413.265 346.629,419.932 329.5,422C 296.397,428.215 263.063,430.048 229.5,427.5C 212.64,428.429 198.973,435.429 188.5,448.5C 195.784,458.121 196.284,468.121 190,478.5C 180.167,488.333 170.333,498.167 160.5,508C 158.075,509.213 155.741,510.379 153.5,511.5 Z M 428.5,287.5 C 436.912,286.638 444.246,288.972 450.5,294.5C 451.52,296.432 451.687,298.432 451,300.5C 420.5,331 390,361.5 359.5,392C 353.894,396.637 347.561,399.971 340.5,402C 303.921,410.705 266.921,413.538 229.5,410.5C 208.207,411.814 190.207,420.148 175.5,435.5C 155.194,414.86 134.861,394.193 114.5,373.5C 133.021,357.812 151.687,342.312 170.5,327C 188.319,318.02 206.985,315.687 226.5,320C 236.114,322.871 245.78,325.538 255.5,328C 279.869,328.06 304.202,328.727 328.5,330C 340.435,334.376 345.935,342.876 345,355.5C 343.786,357.049 342.286,358.215 340.5,359C 298.167,359.333 255.833,359.667 213.5,360C 207.253,364.514 206.92,369.514 212.5,375C 234.439,376.151 256.439,376.651 278.5,376.5C 301.207,376.64 323.873,376.14 346.5,375C 360.575,369.181 365.575,358.847 361.5,344C 379.167,327.667 396.833,311.333 414.5,295C 418.826,291.673 423.492,289.173 428.5,287.5 Z M 88.5,376.5 C 90.1789,376.892 91.8455,377.392 93.5,378C 121,405.5 148.5,433 176,460.5C 178,463.167 178,465.833 176,468.5C 167.833,476.667 159.667,484.833 151.5,493C 148.97,494.422 146.303,494.755 143.5,494C 115.667,466.167 87.8333,438.333 60,410.5C 59.3333,408.5 59.3333,406.5 60,404.5C 69.3951,394.937 78.8951,385.604 88.5,376.5 Z"/></g>
</svg>
