<?xml version="1.0" encoding="UTF-8"?>
<!DOCTYPE svg PUBLIC "-//W3C//DTD SVG 1.1//EN" "http://www.w3.org/Graphics/SVG/1.1/DTD/svg11.dtd">
<svg xmlns="http://www.w3.org/2000/svg" version="1.1" width="512px" height="512px" style="shape-rendering:geometricPrecision; text-rendering:geometricPrecision; image-rendering:optimizeQuality; fill-rule:evenodd; clip-rule:evenodd" xmlns:xlink="http://www.w3.org/1999/xlink">
<g><path style="opacity:0.921" fill="#000000" d="M 410.5,-0.5 C 414.5,-0.5 418.5,-0.5 422.5,-0.5C 426.428,1.59151 429.594,4.59151 432,8.5C 446.081,33.663 460.414,58.663 475,83.5C 477.198,90.8428 475.698,97.3428 470.5,103C 458.996,109.92 447.329,116.586 435.5,123C 429.784,124.166 424.45,123.333 419.5,120.5C 408.933,129.903 397.933,138.736 386.5,147C 367.077,157.349 346.411,161.015 324.5,158C 317.176,157.086 310.176,155.086 303.5,152C 283.5,151.667 263.5,151.333 243.5,151C 235,147.833 229.167,142 226,133.5C 206.447,151.021 186.613,168.188 166.5,185C 150.308,190.486 139.142,185.319 133,169.5C 131.85,162.81 132.85,156.476 136,150.5C 165.189,118.314 194.689,86.4805 224.5,55C 227.948,53.0728 231.615,51.7394 235.5,51C 271.5,50.6667 307.5,50.3333 343.5,50C 352.702,45.816 361.536,40.9827 370,35.5C 369.665,29.5005 371.499,24.3338 375.5,20C 387.23,13.1402 398.896,6.30683 410.5,-0.5 Z M 375.5,47.5 C 387.347,68.0191 399.347,88.5191 411.5,109C 400.368,119.805 388.368,129.472 375.5,138C 357.815,145.497 339.482,147.497 320.5,144C 315.617,142.928 310.95,141.261 306.5,139C 286.5,138.667 266.5,138.333 246.5,138C 239.586,134.23 237.753,128.73 241,121.5C 242.543,119.622 244.376,118.122 246.5,117C 269.167,116.667 291.833,116.333 314.5,116C 320.989,113.377 321.989,109.377 317.5,104C 292.833,103.333 268.167,103.333 243.5,104C 241.051,104.725 238.717,105.725 236.5,107C 211.537,128.294 186.87,149.961 162.5,172C 156.625,175.741 151.458,174.908 147,169.5C 144.679,164.416 145.345,159.75 149,155.5C 176.535,126.3 203.701,96.8002 230.5,67C 232.5,66 234.5,65 236.5,64C 272.5,63.6667 308.5,63.3333 344.5,63C 355.675,59.4127 366.008,54.2461 375.5,47.5 Z"/></g>
<g><path style="opacity:1" fill="#fabd06" d="M 414.5,11.5 C 417.325,11.0807 419.491,12.0807 421,14.5C 435.32,39.6465 449.487,64.8132 463.5,90C 463.244,92.477 461.911,94.1437 459.5,95C 449.624,100.771 439.624,106.271 429.5,111.5C 427.971,111.471 426.804,110.804 426,109.5C 410.977,84.1203 396.477,58.4537 382.5,32.5C 382.529,30.9707 383.196,29.804 384.5,29C 394.727,23.3924 404.727,17.5591 414.5,11.5 Z"/></g>
<g><path style="opacity:1" fill="#060400" d="M 428.5,77.5 C 444.974,76.7923 450.474,84.1256 445,99.5C 436.608,106.824 428.941,106.157 422,97.5C 418.767,88.9872 420.934,82.3206 428.5,77.5 Z"/></g>
<g><path style="opacity:1" fill="#e8af06" d="M 432.5,89.5 C 433.5,89.5 434.5,89.5 435.5,89.5C 435.5,90.5 435.5,91.5 435.5,92.5C 434.5,92.5 433.5,92.5 432.5,92.5C 432.5,91.5 432.5,90.5 432.5,89.5 Z"/></g>
<g><path style="opacity:0.924" fill="#010000" d="M 236.5,160.5 C 249.171,160.333 261.838,160.5 274.5,161C 275.701,161.903 276.535,163.069 277,164.5C 277.816,169.546 278.816,174.546 280,179.5C 283.902,181.358 287.902,183.024 292,184.5C 296.156,181.682 300.323,178.848 304.5,176C 306.5,175.333 308.5,175.333 310.5,176C 318.667,184.167 326.833,192.333 335,200.5C 335.667,202.5 335.667,204.5 335,206.5C 332.152,210.677 329.318,214.844 326.5,219C 328,222.833 329.5,226.667 331,230.5C 336.02,232.125 341.186,233.292 346.5,234C 347.931,234.465 349.097,235.299 350,236.5C 350.667,249.167 350.667,261.833 350,274.5C 349.097,275.701 347.931,276.535 346.5,277C 341.454,277.816 336.454,278.816 331.5,280C 329.642,283.902 327.976,287.902 326.5,292C 329.318,296.156 332.152,300.323 335,304.5C 335.667,306.5 335.667,308.5 335,310.5C 326.833,318.667 318.667,326.833 310.5,335C 308.5,335.667 306.5,335.667 304.5,335C 300.323,332.152 296.156,329.318 292,326.5C 288.167,328 284.333,329.5 280.5,331C 278.875,336.02 277.708,341.186 277,346.5C 276.535,347.931 275.701,349.097 274.5,350C 261.833,350.667 249.167,350.667 236.5,350C 235.299,349.097 234.465,347.931 234,346.5C 233.184,341.454 232.184,336.454 231,331.5C 227.098,329.642 223.098,327.976 219,326.5C 214.844,329.318 210.677,332.152 206.5,335C 204.5,335.667 202.5,335.667 200.5,335C 192.333,326.833 184.167,318.667 176,310.5C 175.333,308.5 175.333,306.5 176,304.5C 178.848,300.323 181.682,296.156 184.5,292C 183,288.167 181.5,284.333 180,280.5C 174.98,278.875 169.814,277.708 164.5,277C 163.069,276.535 161.903,275.701 161,274.5C 160.333,261.833 160.333,249.167 161,236.5C 161.903,235.299 163.069,234.465 164.5,234C 169.546,233.184 174.546,232.184 179.5,231C 181.358,227.098 183.024,223.098 184.5,219C 181.682,214.844 178.848,210.677 176,206.5C 175.333,204.5 175.333,202.5 176,200.5C 184.167,192.333 192.333,184.167 200.5,176C 202.5,175.333 204.5,175.333 206.5,176C 210.677,178.848 214.844,181.682 219,184.5C 222.833,183 226.667,181.5 230.5,180C 232.125,174.98 233.292,169.814 234,164.5C 234.662,163.016 235.496,161.683 236.5,160.5 Z M 245.5,173.5 C 252.167,173.5 258.833,173.5 265.5,173.5C 266.007,178.547 266.84,183.547 268,188.5C 268.903,189.701 270.069,190.535 271.5,191C 278.732,193.283 285.732,196.116 292.5,199.5C 297.141,198.026 301.141,195.526 304.5,192C 305.5,191.333 306.5,191.333 307.5,192C 311.881,196.045 315.881,200.378 319.5,205C 316.215,209.122 313.548,213.622 311.5,218.5C 315.216,225.933 318.383,233.6 321,241.5C 322.491,243.004 324.324,243.837 326.5,244C 330.17,244.548 333.837,245.048 337.5,245.5C 337.5,252.167 337.5,258.833 337.5,265.5C 333.837,265.952 330.17,266.452 326.5,267C 324.324,267.163 322.491,267.996 321,269.5C 318.383,277.4 315.216,285.067 311.5,292.5C 313.548,297.378 316.215,301.878 319.5,306C 315.667,311.167 311.167,315.667 306,319.5C 301.878,316.215 297.378,313.548 292.5,311.5C 288.719,312.89 285.053,314.557 281.5,316.5C 280.336,310.193 280.169,303.859 281,297.5C 303.832,280.653 309.832,258.987 299,232.5C 294.167,223.667 287.333,216.833 278.5,212C 274.726,210.817 271.559,211.651 269,214.5C 268.667,225.833 268.333,237.167 268,248.5C 262.306,259.614 254.639,261.28 245,253.5C 244.333,252.167 243.667,250.833 243,249.5C 242.667,238.5 242.333,227.5 242,216.5C 240.634,212.234 237.801,210.734 233.5,212C 211.743,224.225 203.243,242.725 208,267.5C 211.541,280.362 218.875,290.362 230,297.5C 230.831,303.859 230.664,310.193 229.5,316.5C 225.947,314.557 222.281,312.89 218.5,311.5C 214.034,313.234 210.034,315.734 206.5,319C 205.5,319.667 204.5,319.667 203.5,319C 199.119,314.955 195.119,310.622 191.5,306C 194.785,301.878 197.452,297.378 199.5,292.5C 195.784,285.067 192.617,277.4 190,269.5C 188.509,267.996 186.676,267.163 184.5,267C 180.83,266.452 177.163,265.952 173.5,265.5C 173.5,258.833 173.5,252.167 173.5,245.5C 178.547,244.993 183.547,244.16 188.5,243C 189.701,242.097 190.535,240.931 191,239.5C 193.283,232.268 196.116,225.268 199.5,218.5C 197.766,214.034 195.266,210.034 192,206.5C 191.333,205.5 191.333,204.5 192,203.5C 196.045,199.119 200.378,195.119 205,191.5C 209.122,194.785 213.622,197.452 218.5,199.5C 225.933,195.784 233.6,192.617 241.5,190C 243.004,188.509 243.837,186.676 244,184.5C 244.548,180.83 245.048,177.163 245.5,173.5 Z"/></g>
<g><path style="opacity:1" fill="#f9bc06" d="M 280.5,229.5 C 290.503,239.023 294.003,250.69 291,264.5C 289.194,269.446 286.861,274.112 284,278.5C 278.907,283.272 273.574,287.606 268,291.5C 267.859,306.865 267.192,322.198 266,337.5C 259.248,338.645 252.414,338.811 245.5,338C 244.709,333.867 243.876,329.7 243,325.5C 242.667,313.833 242.333,302.167 242,290.5C 221.218,278.49 214.885,261.157 223,238.5C 225,235.833 227,233.167 229,230.5C 229.333,236.5 229.667,242.5 230,248.5C 234.119,265.595 244.952,272.762 262.5,270C 271,266.833 276.833,261 280,252.5C 280.5,244.841 280.666,237.174 280.5,229.5 Z"/></g>
<g><path style="opacity:0.921" fill="#000000" d="M 100.5,511.5 C 96.5,511.5 92.5,511.5 88.5,511.5C 84.5724,509.408 81.4057,506.408 79,502.5C 64.9195,477.337 50.5862,452.337 36,427.5C 33.8031,420.152 35.3031,413.652 40.5,408C 52.0038,401.08 63.6705,394.414 75.5,388C 81.2164,386.834 86.5497,387.667 91.5,390.5C 102.067,381.097 113.067,372.264 124.5,364C 143.935,353.745 164.601,350.079 186.5,353C 193.824,353.914 200.824,355.914 207.5,359C 227.5,359.333 247.5,359.667 267.5,360C 276,363.167 281.833,369 285,377.5C 304.553,359.979 324.387,342.812 344.5,326C 360.686,320.512 371.853,325.678 378,341.5C 379.15,348.19 378.15,354.524 375,360.5C 345.811,392.686 316.311,424.519 286.5,456C 283.052,457.927 279.385,459.261 275.5,460C 239.5,460.333 203.5,460.667 167.5,461C 158.546,465.143 149.88,469.81 141.5,475C 141.471,481.09 139.471,486.423 135.5,491C 123.77,497.86 112.104,504.693 100.5,511.5 Z M 353.5,336.5 C 365.597,338.694 368.431,345.028 362,355.5C 334.465,384.7 307.299,414.2 280.5,444C 278.5,445 276.5,446 274.5,447C 238.5,447.333 202.5,447.667 166.5,448C 155.302,451.682 144.802,456.849 135,463.5C 123.546,442.755 111.712,422.255 99.5,402C 110.632,391.195 122.632,381.528 135.5,373C 153.185,365.503 171.518,363.503 190.5,367C 195.383,368.072 200.05,369.739 204.5,372C 224.5,372.333 244.5,372.667 264.5,373C 275.098,380.093 275.098,387.093 264.5,394C 241.5,394.333 218.5,394.667 195.5,395C 189.864,398.203 189.198,402.203 193.5,407C 218.167,407.667 242.833,407.667 267.5,407C 269.949,406.275 272.283,405.275 274.5,404C 300.459,380.859 326.793,358.359 353.5,336.5 Z"/></g>
<g><path style="opacity:1" fill="#fabd06" d="M 79.5,399.5 C 81.7224,399.178 83.5557,399.845 85,401.5C 100.023,426.88 114.523,452.546 128.5,478.5C 127.946,480.628 126.613,482.128 124.5,483C 114.624,488.771 104.624,494.271 94.5,499.5C 92.9707,499.471 91.804,498.804 91,497.5C 76.0939,472.183 61.5939,446.683 47.5,421C 47.5852,419.893 47.9186,418.893 48.5,418C 58.8967,411.807 69.23,405.641 79.5,399.5 Z"/></g>
<g><path style="opacity:1" fill="#050300" d="M 72.5,406.5 C 86.3987,406.546 91.8987,413.213 89,426.5C 84.874,432.97 79.0407,435.137 71.5,433C 63.1851,427.553 61.3518,420.387 66,411.5C 68.3256,409.934 70.4922,408.268 72.5,406.5 Z"/></g>
<g><path style="opacity:1" fill="#e8af06" d="M 75.5,418.5 C 76.5,418.5 77.5,418.5 78.5,418.5C 78.5,419.5 78.5,420.5 78.5,421.5C 77.5,421.5 76.5,421.5 75.5,421.5C 75.5,420.5 75.5,419.5 75.5,418.5 Z"/></g>
</svg>
