<?xml version="1.0" encoding="UTF-8"?>
<svg xmlns="http://www.w3.org/2000/svg" xmlns:xlink="http://www.w3.org/1999/xlink" viewBox="0 0 365 250.1">
  <defs>
    <style>
      .cls-1 {
        opacity: 0;
      }

      .cls-1, .cls-2, .cls-3, .cls-4, .cls-5, .cls-6, .cls-7, .cls-8, .cls-9, .cls-10, .cls-11, .cls-12, .cls-13, .cls-14, .cls-15, .cls-16, .cls-17, .cls-18, .cls-19, .cls-20, .cls-21, .cls-22, .cls-23, .cls-24, .cls-25, .cls-26, .cls-27, .cls-28, .cls-29, .cls-30, .cls-31, .cls-32, .cls-33, .cls-34, .cls-35, .cls-36, .cls-37, .cls-38, .cls-39 {
        stroke-width: 0px;
      }

      .cls-1, .cls-7, .cls-35 {
        fill: #42e8e0;
      }

      .cls-2 {
        fill: url(#_Áåçûìÿííûé_ãðàäèåíò_3-8);
      }

      .cls-3 {
        fill: #9198db;
      }

      .cls-4 {
        fill: url(#_Áåçûìÿííûé_ãðàäèåíò_3-4);
      }

      .cls-5 {
        fill: url(#_Áåçûìÿííûé_ãðàäèåíò_24-3);
      }

      .cls-6 {
        fill: url(#_Áåçûìÿííûé_ãðàäèåíò_24-2);
      }

      .cls-7 {
        opacity: .4;
      }

      .cls-40, .cls-10 {
        opacity: .5;
      }

      .cls-41 {
        mix-blend-mode: lighten;
      }

      .cls-8 {
        fill: url(#_Áåçûìÿííûé_ãðàäèåíò_24-8);
      }

      .cls-9 {
        fill: url(#_Áåçûìÿííûé_ãðàäèåíò_3-13);
      }

      .cls-10, .cls-11 {
        fill: #453c9e;
      }

      .cls-42 {
        isolation: isolate;
      }

      .cls-12 {
        fill: url(#_Áåçûìÿííûé_ãðàäèåíò_3-12);
      }

      .cls-13 {
        fill: url(#_Áåçûìÿííûé_ãðàäèåíò_3-3);
      }

      .cls-14 {
        fill: url(#_Áåçûìÿííûé_ãðàäèåíò_3-2);
      }

      .cls-15 {
        fill: #2842a2;
      }

      .cls-16 {
        fill: none;
      }

      .cls-43 {
        clip-path: url(#clippath-1);
      }

      .cls-44 {
        opacity: .1;
      }

      .cls-17 {
        fill: url(#_Áåçûìÿííûé_ãðàäèåíò_24-5);
      }

      .cls-18 {
        fill: url(#_Áåçûìÿííûé_ãðàäèåíò_3-7);
      }

      .cls-19 {
        fill: url(#_Áåçûìÿííûé_ãðàäèåíò_3-9);
      }

      .cls-20 {
        fill: #fff;
      }

      .cls-21 {
        fill: #24126a;
      }

      .cls-22 {
        fill: url(#_Áåçûìÿííûé_ãðàäèåíò_3-10);
      }

      .cls-23 {
        fill: url(#_Áåçûìÿííûé_ãðàäèåíò_3-6);
      }

      .cls-24 {
        fill: url(#_Áåçûìÿííûé_ãðàäèåíò_24-4);
      }

      .cls-25 {
        fill: #5761d7;
      }

      .cls-26 {
        fill: url(#_Áåçûìÿííûé_ãðàäèåíò_24-7);
      }

      .cls-45 {
        clip-path: url(#clippath);
      }

      .cls-27 {
        fill: url(#_Áåçûìÿííûé_ãðàäèåíò_3-17);
      }

      .cls-28 {
        fill: url(#_Áåçûìÿííûé_ãðàäèåíò_3-18);
      }

      .cls-29 {
        fill: url(#_Áåçûìÿííûé_ãðàäèåíò_3-15);
      }

      .cls-30 {
        fill: url(#_Áåçûìÿííûé_ãðàäèåíò_3-16);
      }

      .cls-31 {
        fill: url(#_Áåçûìÿííûé_ãðàäèåíò_3);
      }

      .cls-32 {
        fill: url(#_Áåçûìÿííûé_ãðàäèåíò_3-11);
      }

      .cls-33 {
        fill: #adb1f2;
      }

      .cls-34 {
        fill: #bcbeff;
      }

      .cls-36 {
        fill: url(#_Áåçûìÿííûé_ãðàäèåíò_24);
      }

      .cls-37 {
        fill: url(#_Áåçûìÿííûé_ãðàäèåíò_24-6);
      }

      .cls-38 {
        fill: url(#_Áåçûìÿííûé_ãðàäèåíò_3-14);
      }

      .cls-39 {
        fill: url(#_Áåçûìÿííûé_ãðàäèåíò_3-5);
      }
    </style>
    <linearGradient id="_Áåçûìÿííûé_ãðàäèåíò_24" data-name="Áåçûìÿííûé ãðàäèåíò 24" x1="2743.8" y1="84.4" x2="2890.3" y2="84.4" gradientTransform="translate(-2743.7)" gradientUnits="userSpaceOnUse">
      <stop offset="0" stop-color="#5761d7"/>
      <stop offset=".2" stop-color="#5b65d8"/>
      <stop offset=".4" stop-color="#6a72de"/>
      <stop offset=".6" stop-color="#8188e8"/>
      <stop offset=".8" stop-color="#a2a6f5"/>
      <stop offset="1" stop-color="#bcbeff"/>
    </linearGradient>
    <linearGradient id="_Áåçûìÿííûé_ãðàäèåíò_3" data-name="Áåçûìÿííûé ãðàäèåíò 3" x1="2793" y1="79.6" x2="2939.6" y2="79.6" gradientTransform="translate(-2743.7)" gradientUnits="userSpaceOnUse">
      <stop offset="0" stop-color="#c0bff6"/>
      <stop offset=".3" stop-color="#c4c3f6"/>
      <stop offset=".6" stop-color="#d2d2f9"/>
      <stop offset="1" stop-color="#e9e9fd"/>
    </linearGradient>
    <linearGradient id="_Áåçûìÿííûé_ãðàäèåíò_3-2" data-name="Áåçûìÿííûé ãðàäèåíò 3" x1="2783.5" y1="68.3" x2="2821" y2="68.3" xlink:href="#_Áåçûìÿííûé_ãðàäèåíò_3"/>
    <linearGradient id="_Áåçûìÿííûé_ãðàäèåíò_3-3" data-name="Áåçûìÿííûé ãðàäèåíò 3" x1="2786.4" y1="61.5" x2="2890.2" y2="61.5" xlink:href="#_Áåçûìÿííûé_ãðàäèåíò_3"/>
    <linearGradient id="_Áåçûìÿííûé_ãðàäèåíò_24-2" data-name="Áåçûìÿííûé ãðàäèåíò 24" x1="2786.4" y1="88.1" x2="2804.2" y2="88.1" xlink:href="#_Áåçûìÿííûé_ãðàäèåíò_24"/>
    <linearGradient id="_Áåçûìÿííûé_ãðàäèåíò_24-3" data-name="Áåçûìÿííûé ãðàäèåíò 24" x1="151.4" x2="298" gradientTransform="translate(516.4) rotate(-180) scale(1 -1)" xlink:href="#_Áåçûìÿííûé_ãðàäèåíò_24"/>
    <linearGradient id="_Áåçûìÿííûé_ãðàäèåíò_3-4" data-name="Áåçûìÿííûé ãðàäèåíò 3" x1="200.7" x2="347.3" gradientTransform="translate(516.4) rotate(-180) scale(1 -1)" xlink:href="#_Áåçûìÿííûé_ãðàäèåíò_3"/>
    <linearGradient id="_Áåçûìÿííûé_ãðàäèåíò_3-5" data-name="Áåçûìÿííûé ãðàäèåíò 3" x1="191.2" y1="68.3" x2="228.7" y2="68.3" gradientTransform="translate(516.4) rotate(-180) scale(1 -1)" xlink:href="#_Áåçûìÿííûé_ãðàäèåíò_3"/>
    <linearGradient id="_Áåçûìÿííûé_ãðàäèåíò_3-6" data-name="Áåçûìÿííûé ãðàäèåíò 3" x1="194.1" y1="61.5" x2="297.9" y2="61.5" gradientTransform="translate(516.4) rotate(-180) scale(1 -1)" xlink:href="#_Áåçûìÿííûé_ãðàäèåíò_3"/>
    <linearGradient id="_Áåçûìÿííûé_ãðàäèåíò_24-4" data-name="Áåçûìÿííûé ãðàäèåíò 24" x1="194.1" y1="88.1" x2="211.9" y2="88.1" gradientTransform="translate(516.4) rotate(-180) scale(1 -1)" xlink:href="#_Áåçûìÿííûé_ãðàäèåíò_24"/>
    <linearGradient id="_Áåçûìÿííûé_ãðàäèåíò_3-7" data-name="Áåçûìÿííûé ãðàäèåíò 3" x1="224.3" y1="160.7" x2="224.3" y2="103.5" gradientTransform="matrix(1,0,0,1,0,0)" xlink:href="#_Áåçûìÿííûé_ãðàäèåíò_3"/>
    <linearGradient id="_Áåçûìÿííûé_ãðàäèåíò_3-8" data-name="Áåçûìÿííûé ãðàäèåíò 3" x1="224.3" y1="113.3" x2="224.3" y2="56.1" gradientTransform="matrix(1,0,0,1,0,0)" xlink:href="#_Áåçûìÿííûé_ãðàäèåíò_3"/>
    <linearGradient id="_Áåçûìÿííûé_ãðàäèåíò_3-9" data-name="Áåçûìÿííûé ãðàäèåíò 3" x1="2480.3" y1="142.1" x2="2585.9" y2="142.1" gradientTransform="translate(-2278.7)" xlink:href="#_Áåçûìÿííûé_ãðàäèåíò_3"/>
    <linearGradient id="_Áåçûìÿííûé_ãðàäèåíò_24-5" data-name="Áåçûìÿííûé ãðàäèåíò 24" x1="2480.3" y1="169.1" x2="2498.4" y2="169.1" gradientTransform="translate(-2278.7)" xlink:href="#_Áåçûìÿííûé_ãðàäèåíò_24"/>
    <linearGradient id="_Áåçûìÿííûé_ãðàäèåíò_24-6" data-name="Áåçûìÿííûé ãðàäèåíò 24" x1="2494.5" y1="199.6" x2="2643.6" y2="199.6" gradientTransform="translate(-2278.7)" xlink:href="#_Áåçûìÿííûé_ãðàäèåíò_24"/>
    <linearGradient id="_Áåçûìÿííûé_ãðàäèåíò_3-10" data-name="Áåçûìÿííûé ãðàäèåíò 3" x1="2544.6" y1="194.6" x2="2693.8" y2="194.6" gradientTransform="translate(-2278.7)" xlink:href="#_Áåçûìÿííûé_ãðàäèåíò_3"/>
    <linearGradient id="_Áåçûìÿííûé_ãðàäèåíò_3-11" data-name="Áåçûìÿííûé ãðàäèåíò 3" x1="2569.8" y1="203.1" x2="2608" y2="203.1" gradientTransform="translate(-2278.7)" xlink:href="#_Áåçûìÿííûé_ãðàäèåíò_3"/>
    <clipPath id="clippath">
      <polygon id="SVGID" class="cls-16" points="294.5 84.9 206.4 135.7 217.3 200.2 305.4 149.3 294.5 84.9"/>
    </clipPath>
    <linearGradient id="_Áåçûìÿííûé_ãðàäèåíò_3-12" data-name="Áåçûìÿííûé ãðàäèåíò 3" x1="2487.6" y1="161.5" x2="2636.8" y2="161.5" gradientTransform="translate(-2278.7)" xlink:href="#_Áåçûìÿííûé_ãðàäèåíò_3"/>
    <linearGradient id="_Áåçûìÿííûé_ãðàäèåíò_3-13" data-name="Áåçûìÿííûé ãðàäèåíò 3" x1="2477.7" y1="150.6" x2="2515.9" y2="150.6" gradientTransform="translate(-2278.7)" xlink:href="#_Áåçûìÿííûé_ãðàäèåíò_3"/>
    <linearGradient id="_Áåçûìÿííûé_ãðàäèåíò_3-14" data-name="Áåçûìÿííûé ãðàäèåíò 3" x1="-112" y1="142.1" x2="-6.4" y2="142.1" gradientTransform="translate(51.3) rotate(-180) scale(1 -1)" xlink:href="#_Áåçûìÿííûé_ãðàäèåíò_3"/>
    <linearGradient id="_Áåçûìÿííûé_ãðàäèåíò_24-7" data-name="Áåçûìÿííûé ãðàäèåíò 24" x1="-112" y1="169.1" x2="-93.9" y2="169.1" gradientTransform="translate(51.3) rotate(-180) scale(1 -1)" xlink:href="#_Áåçûìÿííûé_ãðàäèåíò_24"/>
    <linearGradient id="_Áåçûìÿííûé_ãðàäèåíò_24-8" data-name="Áåçûìÿííûé ãðàäèåíò 24" x1="-97.9" y1="199.6" x2="51.3" y2="199.6" gradientTransform="translate(51.3) rotate(-180) scale(1 -1)" xlink:href="#_Áåçûìÿííûé_ãðàäèåíò_24"/>
    <linearGradient id="_Áåçûìÿííûé_ãðàäèåíò_3-15" data-name="Áåçûìÿííûé ãðàäèåíò 3" x1="-47.8" y1="194.6" x2="101.5" y2="194.6" gradientTransform="translate(51.3) rotate(-180) scale(1 -1)" xlink:href="#_Áåçûìÿííûé_ãðàäèåíò_3"/>
    <linearGradient id="_Áåçûìÿííûé_ãðàäèåíò_3-16" data-name="Áåçûìÿííûé ãðàäèåíò 3" x1="-22.5" y1="203.1" x2="15.7" y2="203.1" gradientTransform="translate(51.3) rotate(-180) scale(1 -1)" xlink:href="#_Áåçûìÿííûé_ãðàäèåíò_3"/>
    <clipPath id="clippath-1">
      <polygon id="SVGID-2" data-name="SVGID" class="cls-16" points="70.5 84.9 158.6 135.7 147.7 200.2 59.6 149.3 70.5 84.9"/>
    </clipPath>
    <linearGradient id="_Áåçûìÿííûé_ãðàäèåíò_3-17" data-name="Áåçûìÿííûé ãðàäèåíò 3" x1="-104.8" y1="161.5" x2="44.5" y2="161.5" gradientTransform="translate(51.3) rotate(-180) scale(1 -1)" xlink:href="#_Áåçûìÿííûé_ãðàäèåíò_3"/>
    <linearGradient id="_Áåçûìÿííûé_ãðàäèåíò_3-18" data-name="Áåçûìÿííûé ãðàäèåíò 3" x1="-114.6" y1="150.6" x2="-76.4" y2="150.6" gradientTransform="translate(51.3) rotate(-180) scale(1 -1)" xlink:href="#_Áåçûìÿííûé_ãðàäèåíò_3"/>
  </defs>
  <g class="cls-42">
    <g id="_Ñëîé_1" data-name="Ñëîé 1">
      <g>
        <g>
          <g class="cls-41">
            <path class="cls-35" d="M55.8,134.1c-1.4,0-2.8-.4-4.1-1.1L5,106.1c-.7-.4-1.2-1.2-1.2-2s.4-1.6,1.2-2l84.5-48.8c.1,0,.3,0,.5,0l.4.2,50.1,28.9c.7.4,1.2,1.2,1.2,2s-.4,1.6-1.2,2l-80.7,46.6c-1.2.7-2.6,1.1-4.1,1.1ZM89.8,54.2L5.5,102.8c-.4.3-.7.7-.7,1.2s.3,1,.7,1.2l46.7,27c2.2,1.3,5,1.3,7.2,0l80.7-46.6c.4-.3.7-.7.7-1.2s-.3-1-.7-1.2l-50.3-29Z"/>
          </g>
          <g>
            <path class="cls-36" d="M146.6,69.3l-4.9,2.6-49.2-28.4c-.8-.5-2.3-.4-3.2.1L4.5,92.5c-.8-.5-4.5-2.2-4.5-2.2l1.8,4.7s0,0,0,0c0,.2.2.4.5.6l51.8,29.9c.8.5,2.3.4,3.2-.1l86.8-50.1c.4-.2.6-.5.7-.8h0s1.8-5.1,1.8-5.1Z"/>
            <path class="cls-31" d="M145.8,70.1l-88.9,51.3c-1,.6-2.4.6-3.3.1L.6,90.9c-.8-.5-.7-1.3.2-1.9l88.9-51.3c1-.6,2.4-.6,3.3-.1l53.1,30.6c.8.5.7,1.3-.2,1.9Z"/>
            <path class="cls-20" d="M145.8,69.6l-88.9,51.3c-1,.6-2.4.6-3.3.1L.6,90.4c-.3-.2-.4-.4-.5-.6-.1.4,0,.8.5,1.1l53.1,30.6c.8.5,2.3.4,3.3-.1l88.9-51.3c.7-.4.9-.9.8-1.3,0,.3-.3.6-.8.8Z"/>
            <path class="cls-15" d="M30.1,110.3v-1c0,0,0-.1.1,0l3.4,2c0,0,.1.1.1.2v1c0,0,0,.1-.1,0l-3.4-2c0,0-.1-.1-.1-.2Z"/>
            <path class="cls-15" d="M35.2,113.3v-1c0,0,0-.1.1,0l3.4,2c0,0,.1.1.1.2v1c0,0,0,.1-.1,0l-3.4-2c0,0-.1-.1-.1-.2Z"/>
            <g>
              <path class="cls-33" d="M30.5,97.9l73.9-42.7c.5-.3,1.1-.3,1.6,0l26.3,15.2c.4.2.4.8,0,1l-73.9,42.6c-.5.3-1.1.3-1.6,0l-26.3-15.2c-.4-.2-.4-.8,0-1Z"/>
              <path class="cls-3" d="M30.5,98.9l.3.2,73.6-42.5c.5-.3,1.1-.3,1.6,0l26,15.1.3-.2c.4-.2.4-.8,0-1l-26.3-15.2c-.5-.3-1.1-.3-1.6,0L30.5,97.9c-.4.2-.4.8,0,1Z"/>
              <g>
                <polygon class="cls-21" points="108 59.1 39.9 98.4 36.5 97 105.1 57.4 108 59.1"/>
                <polygon class="cls-21" points="114.9 63.1 54.7 97.9 51.9 96.2 112.1 61.5 114.9 63.1"/>
                <polygon class="cls-21" points="119.5 65.7 48.6 106.7 45.8 105 116.7 64.1 119.5 65.7"/>
                <polygon class="cls-21" points="124.1 68.4 53.2 109.3 50.3 107.7 121.2 66.7 124.1 68.4"/>
                <polygon class="cls-21" points="128.6 71 57.7 111.9 54.9 110.3 125.8 69.4 128.6 71"/>
                <polygon class="cls-21" points="39.9 98.4 37 100 34.2 98.4 37 96.7 39.9 98.4"/>
                <polygon class="cls-21" points="58.2 95.9 44 104.1 41.2 102.4 55.5 94.2 58.2 95.9"/>
              </g>
            </g>
            <g>
              <path class="cls-14" d="M56.8,78.8l19.9-11.5c.8-.4.8-1.2,0-1.6l-13.6-7.9c-.8-.4-2-.4-2.8,0l-19.9,11.5c-.8.4-.8,1.2,0,1.6l13.6,7.9c.8.4,2,.4,2.8,0Z"/>
              <path class="cls-3" d="M40.3,69.9l19.9-11.5c.8-.4,2-.4,2.8,0l13.6,7.9c.2.1.4.3.5.5.2-.4,0-.8-.5-1.1l-13.6-7.9c-.8-.4-2-.4-2.8,0l-19.9,11.5c-.5.3-.7.8-.5,1.1,0-.2.2-.3.5-.5Z"/>
            </g>
          </g>
          <g>
            <path class="cls-13" d="M146.5,68L135.2,1.3l.9-.4-1.4-.8h0c-.3-.2-.6-.2-1,0L43.9,52.1c-.7.4-1.3,1.5-1.2,2.3l11.3,67.2c0,.4.2.6.5.7h0s1.3.8,1.3.8l.2-1.2h0s89.3-51.5,89.3-51.5c.7-.4,1.3-1.5,1.2-2.3Z"/>
            <path class="cls-6" d="M44.4,53.9l-1.5-.7c-.2.4-.2.8-.2,1.1l11.3,67.2c0,.4.2.6.5.7h0s1.3.8,1.3.8l.2-1.2h0s4.5-2.6,4.5-2.6l-16.1-65.3Z"/>
            <path class="cls-11" d="M146.7,71l-89.8,51.9c-.7.4-1.3.2-1.4-.5l-11.3-67.2c-.1-.8.4-1.9,1.2-2.3L135.1,1c.7-.4,1.3-.2,1.4.5l11.3,67.2c.1.8-.4,1.9-1.2,2.3Z"/>
          </g>
        </g>
        <g>
          <g class="cls-41">
            <path class="cls-35" d="M309.2,134.1c-1.4,0-2.8-.4-4.1-1.1h0l-80.7-46.6c-.7-.4-1.2-1.2-1.2-2s.4-1.6,1.2-2l50.5-29.2c.1,0,.3,0,.5,0l84.5,48.8c.7.4,1.2,1.2,1.2,2s-.4,1.6-1.2,2l-46.7,27c-1.2.7-2.6,1.1-4.1,1.1ZM305.6,132.2c2.2,1.3,5,1.3,7.2,0l46.7-27c.4-.3.7-.7.7-1.2s-.3-1-.7-1.2l-84.3-48.7h-.2c0,0-50.1,29-50.1,29-.4.3-.7.7-.7,1.2s.3,1,.7,1.2l80.7,46.6Z"/>
          </g>
          <g>
            <path class="cls-5" d="M218.4,69.3l4.9,2.6,49.2-28.4c.8-.5,2.3-.4,3.2.1l84.8,48.9c.8-.5,4.5-2.2,4.5-2.2l-1.8,4.7s0,0,0,0c0,.2-.2.4-.5.6l-51.8,29.9c-.8.5-2.3.4-3.2-.1l-86.8-50.1c-.4-.2-.6-.5-.7-.8h0s-1.8-5.1-1.8-5.1Z"/>
            <path class="cls-4" d="M219.1,70.1l88.9,51.3c1,.6,2.4.6,3.3.1l53.1-30.6c.8-.5.7-1.3-.2-1.9l-88.9-51.3c-1-.6-2.4-.6-3.3-.1l-53.1,30.6c-.8.5-.7,1.3.2,1.9Z"/>
            <path class="cls-20" d="M219.1,69.6l88.9,51.3c1,.6,2.4.6,3.3.1l53.1-30.6c.3-.2.4-.4.5-.6.1.4,0,.8-.5,1.1l-53.1,30.6c-.8.5-2.3.4-3.3-.1l-88.9-51.3c-.7-.4-.9-.9-.8-1.3,0,.3.3.6.8.8Z"/>
            <path class="cls-15" d="M334.9,110.3v-1c0,0,0-.1-.1,0l-3.4,2c0,0-.1.1-.1.2v1c0,0,0,.1.1,0l3.4-2c0,0,.1-.1.1-.2Z"/>
            <path class="cls-15" d="M329.7,113.3v-1c0,0,0-.1-.1,0l-3.4,2c0,0-.1.1-.1.2v1c0,0,0,.1.1,0l3.4-2c0,0,.1-.1.1-.2Z"/>
            <g>
              <path class="cls-33" d="M334.5,97.9l-73.9-42.7c-.5-.3-1.1-.3-1.6,0l-26.3,15.2c-.4.2-.4.8,0,1l73.9,42.6c.5.3,1.1.3,1.6,0l26.3-15.2c.4-.2.4-.8,0-1Z"/>
              <path class="cls-3" d="M334.5,98.9l-.3.2-73.6-42.5c-.5-.3-1.1-.3-1.6,0l-26,15.1-.3-.2c-.4-.2-.4-.8,0-1l26.3-15.2c.5-.3,1.1-.3,1.6,0l73.9,42.7c.4.2.4.8,0,1Z"/>
              <g>
                <polygon class="cls-21" points="257 59.1 325.1 98.4 328.5 97 259.9 57.4 257 59.1"/>
                <polygon class="cls-21" points="250 63.1 310.2 97.9 313.1 96.2 252.9 61.5 250 63.1"/>
                <polygon class="cls-21" points="245.5 65.7 316.3 106.7 319.2 105 248.3 64.1 245.5 65.7"/>
                <polygon class="cls-21" points="240.9 68.4 311.8 109.3 314.6 107.7 243.8 66.7 240.9 68.4"/>
                <polygon class="cls-21" points="236.3 71 307.2 111.9 310.1 110.3 239.2 69.4 236.3 71"/>
                <polygon class="cls-21" points="325.1 98.4 327.9 100 330.8 98.4 327.9 96.7 325.1 98.4"/>
                <polygon class="cls-21" points="306.8 95.9 320.9 104.1 323.8 102.4 309.5 94.2 306.8 95.9"/>
              </g>
            </g>
            <g>
              <path class="cls-39" d="M308.2,78.8l-19.9-11.5c-.8-.4-.8-1.2,0-1.6l13.6-7.9c.8-.4,2-.4,2.8,0l19.9,11.5c.8.4.8,1.2,0,1.6l-13.6,7.9c-.8.4-2,.4-2.8,0Z"/>
              <path class="cls-3" d="M324.6,69.9l-19.9-11.5c-.8-.4-2-.4-2.8,0l-13.6,7.9c-.2.1-.4.3-.5.5-.2-.4,0-.8.5-1.1l13.6-7.9c.8-.4,2-.4,2.8,0l19.9,11.5c.5.3.7.8.5,1.1,0-.2-.2-.3-.5-.5Z"/>
            </g>
          </g>
          <g>
            <path class="cls-23" d="M218.5,68L229.8,1.3l-.9-.4,1.4-.8h0c.3-.2.6-.2,1,0l89.8,51.9c.7.4,1.3,1.5,1.2,2.3l-11.3,67.2c0,.4-.2.6-.5.7h0s-1.3.8-1.3.8l-.2-1.2h0s-89.3-51.5-89.3-51.5c-.7-.4-1.3-1.5-1.2-2.3Z"/>
            <path class="cls-24" d="M320.6,53.9l1.5-.7c.2.4.2.8.2,1.1l-11.3,67.2c0,.4-.2.6-.5.7h0s-1.3.8-1.3.8l-.2-1.2h0s-4.5-2.6-4.5-2.6l16.1-65.3Z"/>
            <path class="cls-11" d="M218.3,71l89.8,51.9c.7.4,1.3.2,1.4-.5l11.3-67.2c.1-.8-.4-1.9-1.2-2.3L229.8,1c-.7-.4-1.3-.2-1.4.5l-11.3,67.2c-.1.8.4,1.9,1.2,2.3Z"/>
          </g>
        </g>
        <g>
          <polygon class="cls-34" points="182.5 150.2 98.8 101.9 182.5 53.6 266.1 101.9 182.5 150.2"/>
          <polygon class="cls-11" points="182.5 137 121.7 101.9 182.5 66.8 243.3 101.9 182.5 137"/>
          <polygon class="cls-20" points="182.5 69.2 241.2 103.1 243.3 101.9 182.5 66.8 121.7 101.9 123.7 103.1 182.5 69.2"/>
          <polygon class="cls-18" points="266.1 101.9 266.1 129.3 182.5 177.6 182.5 150.2 266.1 101.9"/>
          <polygon class="cls-21" points="98.8 101.9 98.8 129.3 182.5 177.6 182.5 150.2 98.8 101.9"/>
          <g class="cls-40">
            <polygon class="cls-11" points="104.5 114.2 104.5 122.8 176.8 164.6 176.8 155.9 104.5 114.2"/>
          </g>
          <polygon class="cls-20" points="182.5 148.6 100.2 101.1 98.8 101.9 182.5 150.2 266.1 101.9 264.8 101.1 182.5 148.6"/>
          <polygon class="cls-11" points="253.6 121.1 253.6 126 195 159.8 195 154.9 253.6 121.1"/>
          <polygon class="cls-10" points="98.8 101.9 98.8 129.3 182.5 177.6 182.5 150.2 98.8 101.9"/>
          <polygon class="cls-35" points="158.1 148.7 142.9 140 142.9 141.8 158.1 150.5 158.1 148.7"/>
          <polygon class="cls-35" points="140.7 138.7 136.6 136.4 136.6 138.2 140.7 140.5 140.7 138.7"/>
          <polygon class="cls-35" points="121.5 127.6 113.1 122.8 113.1 124.6 121.5 129.5 121.5 127.6"/>
          <polygon class="cls-35" points="129.2 132.1 123.1 128.6 123.1 130.4 129.2 133.9 129.2 132.1"/>
          <polygon class="cls-35" points="134.9 135.4 130.8 133 130.8 134.8 134.9 137.2 134.9 135.4"/>
          <g>
            <g>
              <polygon class="cls-35" points="182.6 78.8 179.9 77.3 182.6 75.8 185.2 77.3 182.6 78.8"/>
              <polygon class="cls-1" points="187.9 81.9 185.2 80.4 187.9 78.8 190.5 80.4 187.9 81.9"/>
              <polygon class="cls-7" points="193.2 85 190.5 83.4 193.2 81.9 195.8 83.4 193.2 85"/>
              <polygon class="cls-35" points="198.5 88 195.8 86.5 198.5 85 201.2 86.5 198.5 88"/>
              <polygon class="cls-7" points="203.8 91.1 201.2 89.6 203.8 88 206.5 89.6 203.8 91.1"/>
              <polygon class="cls-35" points="209.1 94.2 206.5 92.6 209.1 91.1 211.8 92.6 209.1 94.2"/>
              <polygon class="cls-35" points="214.4 97.2 211.8 95.7 214.4 94.2 217.1 95.7 214.4 97.2"/>
              <polygon class="cls-35" points="219.8 100.3 217.1 98.8 219.8 97.2 222.4 98.8 219.8 100.3"/>
              <polygon class="cls-1" points="225.1 103.4 222.4 101.8 225.1 100.3 227.7 101.8 225.1 103.4"/>
            </g>
            <g>
              <polygon class="cls-35" points="177.2 81.9 174.6 80.4 177.2 78.9 179.9 80.4 177.2 81.9"/>
              <polygon class="cls-35" points="182.5 85 179.9 83.5 182.5 81.9 185.2 83.5 182.5 85"/>
              <polygon class="cls-35" points="187.9 88.1 185.2 86.5 187.9 85 190.5 86.5 187.9 88.1"/>
              <polygon class="cls-35" points="193.2 91.1 190.5 89.6 193.2 88.1 195.8 89.6 193.2 91.1"/>
              <polygon class="cls-35" points="198.5 94.2 195.8 92.7 198.5 91.1 201.1 92.7 198.5 94.2"/>
              <polygon class="cls-35" points="203.8 97.3 201.1 95.7 203.8 94.2 206.5 95.7 203.8 97.3"/>
              <polygon class="cls-35" points="209.1 100.3 206.5 98.8 209.1 97.3 211.8 98.8 209.1 100.3"/>
              <polygon class="cls-35" points="214.4 103.4 211.8 101.9 214.4 100.3 217.1 101.9 214.4 103.4"/>
              <polygon class="cls-35" points="219.7 106.5 217.1 104.9 219.7 103.4 222.4 104.9 219.7 106.5"/>
            </g>
            <g>
              <polygon class="cls-35" points="171.9 85 169.2 83.5 171.9 81.9 174.6 83.5 171.9 85"/>
              <polygon class="cls-35" points="177.2 88.1 174.6 86.5 177.2 85 179.9 86.5 177.2 88.1"/>
              <polygon class="cls-35" points="182.5 91.1 179.9 89.6 182.5 88.1 185.2 89.6 182.5 91.1"/>
              <polygon class="cls-1" points="187.8 94.2 185.2 92.7 187.8 91.1 190.5 92.7 187.8 94.2"/>
              <polygon class="cls-7" points="193.2 97.3 190.5 95.7 193.2 94.2 195.8 95.7 193.2 97.3"/>
              <polygon class="cls-7" points="198.5 100.3 195.8 98.8 198.5 97.3 201.1 98.8 198.5 100.3"/>
              <polygon class="cls-35" points="203.8 103.4 201.1 101.9 203.8 100.3 206.4 101.9 203.8 103.4"/>
              <polygon class="cls-35" points="209.1 106.5 206.4 104.9 209.1 103.4 211.7 104.9 209.1 106.5"/>
              <polygon class="cls-35" points="214.4 109.5 211.7 108 214.4 106.5 217.1 108 214.4 109.5"/>
            </g>
            <g>
              <polygon class="cls-7" points="166.6 88.1 163.9 86.5 166.6 85 169.2 86.5 166.6 88.1"/>
              <polygon class="cls-7" points="171.9 91.1 169.2 89.6 171.9 88.1 174.5 89.6 171.9 91.1"/>
              <polygon class="cls-1" points="177.2 94.2 174.5 92.7 177.2 91.1 179.8 92.7 177.2 94.2"/>
              <polygon class="cls-35" points="182.5 97.3 179.8 95.7 182.5 94.2 185.2 95.7 182.5 97.3"/>
              <polygon class="cls-35" points="187.8 100.3 185.2 98.8 187.8 97.3 190.5 98.8 187.8 100.3"/>
              <polygon class="cls-35" points="193.1 103.4 190.5 101.9 193.1 100.3 195.8 101.9 193.1 103.4"/>
              <polygon class="cls-7" points="198.4 106.5 195.8 104.9 198.4 103.4 201.1 104.9 198.4 106.5"/>
              <polygon class="cls-35" points="203.8 109.5 201.1 108 203.8 106.5 206.4 108 203.8 109.5"/>
              <polygon class="cls-35" points="209.1 112.6 206.4 111.1 209.1 109.5 211.7 111.1 209.1 112.6"/>
            </g>
            <g>
              <polygon class="cls-35" points="161.2 91.2 158.6 89.6 161.2 88.1 163.9 89.6 161.2 91.2"/>
              <polygon class="cls-35" points="166.5 94.2 163.9 92.7 166.5 91.2 169.2 92.7 166.5 94.2"/>
              <polygon class="cls-35" points="171.9 97.3 169.2 95.8 171.9 94.2 174.5 95.8 171.9 97.3"/>
              <polygon class="cls-35" points="177.2 100.4 174.5 98.8 177.2 97.3 179.8 98.8 177.2 100.4"/>
              <polygon class="cls-35" points="182.5 103.4 179.8 101.9 182.5 100.4 185.1 101.9 182.5 103.4"/>
              <polygon class="cls-35" points="187.8 106.5 185.1 105 187.8 103.4 190.5 105 187.8 106.5"/>
              <polygon class="cls-35" points="193.1 109.6 190.5 108 193.1 106.5 195.8 108 193.1 109.6"/>
              <polygon class="cls-35" points="198.4 112.6 195.8 111.1 198.4 109.6 201.1 111.1 198.4 112.6"/>
              <polygon class="cls-35" points="203.7 115.7 201.1 114.2 203.7 112.6 206.4 114.2 203.7 115.7"/>
            </g>
            <g>
              <polygon class="cls-35" points="155.9 94.2 153.2 92.7 155.9 91.2 158.6 92.7 155.9 94.2"/>
              <polygon class="cls-35" points="161.2 97.3 158.6 95.8 161.2 94.2 163.9 95.8 161.2 97.3"/>
              <polygon class="cls-7" points="166.5 100.4 163.9 98.8 166.5 97.3 169.2 98.8 166.5 100.4"/>
              <polygon class="cls-35" points="171.8 103.4 169.2 101.9 171.8 100.4 174.5 101.9 171.8 103.4"/>
              <polygon class="cls-1" points="177.2 106.5 174.5 105 177.2 103.4 179.8 105 177.2 106.5"/>
              <polygon class="cls-35" points="182.5 109.6 179.8 108 182.5 106.5 185.1 108 182.5 109.6"/>
              <polygon class="cls-35" points="187.8 112.6 185.1 111.1 187.8 109.6 190.4 111.1 187.8 112.6"/>
              <polygon class="cls-35" points="193.1 115.7 190.4 114.2 193.1 112.6 195.7 114.2 193.1 115.7"/>
              <polygon class="cls-35" points="198.4 118.8 195.7 117.2 198.4 115.7 201.1 117.2 198.4 118.8"/>
            </g>
            <g>
              <polygon class="cls-35" points="150.6 97.3 147.9 95.8 150.6 94.3 153.2 95.8 150.6 97.3"/>
              <polygon class="cls-35" points="155.9 100.4 153.2 98.9 155.9 97.3 158.5 98.9 155.9 100.4"/>
              <polygon class="cls-7" points="161.2 103.5 158.5 101.9 161.2 100.4 163.8 101.9 161.2 103.5"/>
              <polygon class="cls-35" points="166.5 106.5 163.8 105 166.5 103.5 169.2 105 166.5 106.5"/>
              <polygon class="cls-35" points="171.8 109.6 169.2 108.1 171.8 106.5 174.5 108.1 171.8 109.6"/>
              <polygon class="cls-1" points="177.1 112.7 174.5 111.1 177.1 109.6 179.8 111.1 177.1 112.7"/>
              <polygon class="cls-7" points="182.4 115.7 179.8 114.2 182.4 112.7 185.1 114.2 182.4 115.7"/>
              <polygon class="cls-35" points="187.8 118.8 185.1 117.3 187.8 115.7 190.4 117.3 187.8 118.8"/>
              <polygon class="cls-1" points="193.1 121.9 190.4 120.3 193.1 118.8 195.7 120.3 193.1 121.9"/>
            </g>
            <g>
              <polygon class="cls-35" points="145.2 100.4 142.6 98.9 145.2 97.3 147.9 98.9 145.2 100.4"/>
              <polygon class="cls-7" points="150.5 103.5 147.9 101.9 150.5 100.4 153.2 101.9 150.5 103.5"/>
              <polygon class="cls-35" points="155.9 106.5 153.2 105 155.9 103.5 158.5 105 155.9 106.5"/>
              <polygon class="cls-35" points="161.2 109.6 158.5 108.1 161.2 106.5 163.8 108.1 161.2 109.6"/>
              <polygon class="cls-35" points="166.5 112.7 163.8 111.1 166.5 109.6 169.1 111.1 166.5 112.7"/>
              <polygon class="cls-35" points="171.8 115.7 169.1 114.2 171.8 112.7 174.5 114.2 171.8 115.7"/>
              <polygon class="cls-35" points="177.1 118.8 174.5 117.3 177.1 115.7 179.8 117.3 177.1 118.8"/>
              <polygon class="cls-7" points="182.4 121.9 179.8 120.3 182.4 118.8 185.1 120.3 182.4 121.9"/>
              <polygon class="cls-35" points="187.7 124.9 185.1 123.4 187.7 121.9 190.4 123.4 187.7 124.9"/>
            </g>
            <g>
              <polygon class="cls-35" points="139.9 103.5 137.2 101.9 139.9 100.4 142.6 101.9 139.9 103.5"/>
              <polygon class="cls-1" points="145.2 106.5 142.6 105 145.2 103.5 147.9 105 145.2 106.5"/>
              <polygon class="cls-35" points="150.5 109.6 147.9 108.1 150.5 106.5 153.2 108.1 150.5 109.6"/>
              <polygon class="cls-35" points="155.8 112.7 153.2 111.1 155.8 109.6 158.5 111.1 155.8 112.7"/>
              <polygon class="cls-35" points="161.1 115.7 158.5 114.2 161.1 112.7 163.8 114.2 161.1 115.7"/>
              <polygon class="cls-35" points="166.5 118.8 163.8 117.3 166.5 115.7 169.1 117.3 166.5 118.8"/>
              <polygon class="cls-7" points="171.8 121.9 169.1 120.3 171.8 118.8 174.4 120.3 171.8 121.9"/>
              <polygon class="cls-35" points="177.1 124.9 174.4 123.4 177.1 121.9 179.7 123.4 177.1 124.9"/>
              <polygon class="cls-35" points="182.4 128 179.7 126.5 182.4 124.9 185.1 126.5 182.4 128"/>
            </g>
          </g>
        </g>
        <g>
          <polygon class="cls-34" points="182.5 102.8 98.8 54.5 182.5 6.2 266.1 54.5 182.5 102.8"/>
          <polygon class="cls-11" points="182.5 89.6 121.7 54.5 182.5 19.4 243.3 54.5 182.5 89.6"/>
          <polygon class="cls-20" points="182.5 21.8 241.2 55.7 243.3 54.5 182.5 19.4 121.7 54.5 123.7 55.7 182.5 21.8"/>
          <polygon class="cls-2" points="266.1 54.5 266.1 81.9 182.5 130.2 182.5 102.8 266.1 54.5"/>
          <polygon class="cls-21" points="98.8 54.5 98.8 81.9 182.5 130.2 182.5 102.8 98.8 54.5"/>
          <g class="cls-40">
            <polygon class="cls-11" points="104.5 66.8 104.5 75.4 176.8 117.2 176.8 108.5 104.5 66.8"/>
          </g>
          <polygon class="cls-20" points="182.5 101.2 100.2 53.7 98.8 54.5 182.5 102.8 266.1 54.5 264.8 53.7 182.5 101.2"/>
          <polygon class="cls-11" points="253.6 73.7 253.6 78.6 195 112.4 195 107.5 253.6 73.7"/>
          <polygon class="cls-10" points="98.8 54.5 98.8 81.9 182.5 130.2 182.5 102.8 98.8 54.5"/>
          <polygon class="cls-35" points="158.1 101.3 142.9 92.6 142.9 94.4 158.1 103.1 158.1 101.3"/>
          <polygon class="cls-35" points="140.7 91.3 136.6 89 136.6 90.8 140.7 93.2 140.7 91.3"/>
          <polygon class="cls-35" points="121.5 80.3 113.1 75.4 113.1 77.2 121.5 82.1 121.5 80.3"/>
          <polygon class="cls-35" points="129.2 84.7 123.1 81.2 123.1 83 129.2 86.5 129.2 84.7"/>
          <polygon class="cls-35" points="134.9 88 130.8 85.6 130.8 87.4 134.9 89.8 134.9 88"/>
          <g>
            <g>
              <polygon class="cls-35" points="182.6 31.4 179.9 29.9 182.6 28.4 185.2 29.9 182.6 31.4"/>
              <polygon class="cls-1" points="187.9 34.5 185.2 33 187.9 31.4 190.5 33 187.9 34.5"/>
              <polygon class="cls-7" points="193.2 37.6 190.5 36 193.2 34.5 195.8 36 193.2 37.6"/>
              <polygon class="cls-35" points="198.5 40.6 195.8 39.1 198.5 37.6 201.2 39.1 198.5 40.6"/>
              <polygon class="cls-7" points="203.8 43.7 201.2 42.2 203.8 40.6 206.5 42.2 203.8 43.7"/>
              <polygon class="cls-35" points="209.1 46.8 206.5 45.2 209.1 43.7 211.8 45.2 209.1 46.8"/>
              <polygon class="cls-35" points="214.4 49.8 211.8 48.3 214.4 46.8 217.1 48.3 214.4 49.8"/>
              <polygon class="cls-35" points="219.8 52.9 217.1 51.4 219.8 49.8 222.4 51.4 219.8 52.9"/>
              <polygon class="cls-1" points="225.1 56 222.4 54.4 225.1 52.9 227.7 54.4 225.1 56"/>
            </g>
            <g>
              <polygon class="cls-35" points="177.2 34.5 174.6 33 177.2 31.5 179.9 33 177.2 34.5"/>
              <polygon class="cls-35" points="182.5 37.6 179.9 36.1 182.5 34.5 185.2 36.1 182.5 37.6"/>
              <polygon class="cls-35" points="187.9 40.7 185.2 39.1 187.9 37.6 190.5 39.1 187.9 40.7"/>
              <polygon class="cls-35" points="193.2 43.7 190.5 42.2 193.2 40.7 195.8 42.2 193.2 43.7"/>
              <polygon class="cls-35" points="198.5 46.8 195.8 45.3 198.5 43.7 201.1 45.3 198.5 46.8"/>
              <polygon class="cls-35" points="203.8 49.9 201.1 48.3 203.8 46.8 206.5 48.3 203.8 49.9"/>
              <polygon class="cls-35" points="209.1 52.9 206.5 51.4 209.1 49.9 211.8 51.4 209.1 52.9"/>
              <polygon class="cls-35" points="214.4 56 211.8 54.5 214.4 52.9 217.1 54.5 214.4 56"/>
              <polygon class="cls-35" points="219.7 59.1 217.1 57.5 219.7 56 222.4 57.5 219.7 59.1"/>
            </g>
            <g>
              <polygon class="cls-35" points="171.9 37.6 169.2 36.1 171.9 34.5 174.6 36.1 171.9 37.6"/>
              <polygon class="cls-35" points="177.2 40.7 174.6 39.1 177.2 37.6 179.9 39.1 177.2 40.7"/>
              <polygon class="cls-35" points="182.5 43.7 179.9 42.2 182.5 40.7 185.2 42.2 182.5 43.7"/>
              <polygon class="cls-1" points="187.8 46.8 185.2 45.3 187.8 43.7 190.5 45.3 187.8 46.8"/>
              <polygon class="cls-7" points="193.2 49.9 190.5 48.3 193.2 46.8 195.8 48.3 193.2 49.9"/>
              <polygon class="cls-7" points="198.5 52.9 195.8 51.4 198.5 49.9 201.1 51.4 198.5 52.9"/>
              <polygon class="cls-35" points="203.8 56 201.1 54.5 203.8 52.9 206.4 54.5 203.8 56"/>
              <polygon class="cls-35" points="209.1 59.1 206.4 57.5 209.1 56 211.7 57.5 209.1 59.1"/>
              <polygon class="cls-35" points="214.4 62.1 211.7 60.6 214.4 59.1 217.1 60.6 214.4 62.1"/>
            </g>
            <g>
              <polygon class="cls-7" points="166.6 40.7 163.9 39.2 166.6 37.6 169.2 39.2 166.6 40.7"/>
              <polygon class="cls-7" points="171.9 43.8 169.2 42.2 171.9 40.7 174.5 42.2 171.9 43.8"/>
              <polygon class="cls-1" points="177.2 46.8 174.5 45.3 177.2 43.8 179.8 45.3 177.2 46.8"/>
              <polygon class="cls-35" points="182.5 49.9 179.8 48.4 182.5 46.8 185.2 48.4 182.5 49.9"/>
              <polygon class="cls-35" points="187.8 53 185.2 51.4 187.8 49.9 190.5 51.4 187.8 53"/>
              <polygon class="cls-35" points="193.1 56 190.5 54.5 193.1 53 195.8 54.5 193.1 56"/>
              <polygon class="cls-7" points="198.4 59.1 195.8 57.6 198.4 56 201.1 57.6 198.4 59.1"/>
              <polygon class="cls-35" points="203.8 62.2 201.1 60.6 203.8 59.1 206.4 60.6 203.8 62.2"/>
              <polygon class="cls-35" points="209.1 65.2 206.4 63.7 209.1 62.2 211.7 63.7 209.1 65.2"/>
            </g>
            <g>
              <polygon class="cls-35" points="161.2 43.8 158.6 42.2 161.2 40.7 163.9 42.2 161.2 43.8"/>
              <polygon class="cls-35" points="166.5 46.8 163.9 45.3 166.5 43.8 169.2 45.3 166.5 46.8"/>
              <polygon class="cls-35" points="171.9 49.9 169.2 48.4 171.9 46.8 174.5 48.4 171.9 49.9"/>
              <polygon class="cls-35" points="177.2 53 174.5 51.4 177.2 49.9 179.8 51.4 177.2 53"/>
              <polygon class="cls-35" points="182.5 56 179.8 54.5 182.5 53 185.1 54.5 182.5 56"/>
              <polygon class="cls-35" points="187.8 59.1 185.1 57.6 187.8 56 190.5 57.6 187.8 59.1"/>
              <polygon class="cls-35" points="193.1 62.2 190.5 60.6 193.1 59.1 195.8 60.6 193.1 62.2"/>
              <polygon class="cls-35" points="198.4 65.2 195.8 63.7 198.4 62.2 201.1 63.7 198.4 65.2"/>
              <polygon class="cls-35" points="203.7 68.3 201.1 66.8 203.7 65.2 206.4 66.8 203.7 68.3"/>
            </g>
            <g>
              <polygon class="cls-35" points="155.9 46.8 153.2 45.3 155.9 43.8 158.6 45.3 155.9 46.8"/>
              <polygon class="cls-35" points="161.2 49.9 158.6 48.4 161.2 46.8 163.9 48.4 161.2 49.9"/>
              <polygon class="cls-7" points="166.5 53 163.9 51.4 166.5 49.9 169.2 51.4 166.5 53"/>
              <polygon class="cls-35" points="171.8 56 169.2 54.5 171.8 53 174.5 54.5 171.8 56"/>
              <polygon class="cls-1" points="177.2 59.1 174.5 57.6 177.2 56 179.8 57.6 177.2 59.1"/>
              <polygon class="cls-35" points="182.5 62.2 179.8 60.6 182.5 59.1 185.1 60.6 182.5 62.2"/>
              <polygon class="cls-35" points="187.8 65.2 185.1 63.7 187.8 62.2 190.4 63.7 187.8 65.2"/>
              <polygon class="cls-35" points="193.1 68.3 190.4 66.8 193.1 65.2 195.7 66.8 193.1 68.3"/>
              <polygon class="cls-35" points="198.4 71.4 195.7 69.8 198.4 68.3 201.1 69.8 198.4 71.4"/>
            </g>
            <g>
              <polygon class="cls-35" points="150.6 49.9 147.9 48.4 150.6 46.9 153.2 48.4 150.6 49.9"/>
              <polygon class="cls-35" points="155.9 53 153.2 51.5 155.9 49.9 158.5 51.5 155.9 53"/>
              <polygon class="cls-7" points="161.2 56.1 158.5 54.5 161.2 53 163.8 54.5 161.2 56.1"/>
              <polygon class="cls-35" points="166.5 59.1 163.8 57.6 166.5 56.1 169.2 57.6 166.5 59.1"/>
              <polygon class="cls-35" points="171.8 62.2 169.2 60.7 171.8 59.1 174.5 60.7 171.8 62.2"/>
              <polygon class="cls-1" points="177.1 65.3 174.5 63.7 177.1 62.2 179.8 63.7 177.1 65.3"/>
              <polygon class="cls-7" points="182.4 68.3 179.8 66.8 182.4 65.3 185.1 66.8 182.4 68.3"/>
              <polygon class="cls-35" points="187.8 71.4 185.1 69.9 187.8 68.3 190.4 69.9 187.8 71.4"/>
              <polygon class="cls-1" points="193.1 74.5 190.4 72.9 193.1 71.4 195.7 72.9 193.1 74.5"/>
            </g>
            <g>
              <polygon class="cls-35" points="145.2 53 142.6 51.5 145.2 49.9 147.9 51.5 145.2 53"/>
              <polygon class="cls-7" points="150.5 56.1 147.9 54.5 150.5 53 153.2 54.5 150.5 56.1"/>
              <polygon class="cls-35" points="155.9 59.1 153.2 57.6 155.9 56.1 158.5 57.6 155.9 59.1"/>
              <polygon class="cls-35" points="161.2 62.2 158.5 60.7 161.2 59.1 163.8 60.7 161.2 62.2"/>
              <polygon class="cls-35" points="166.5 65.3 163.8 63.7 166.5 62.2 169.1 63.7 166.5 65.3"/>
              <polygon class="cls-35" points="171.8 68.3 169.1 66.8 171.8 65.3 174.5 66.8 171.8 68.3"/>
              <polygon class="cls-35" points="177.1 71.4 174.5 69.9 177.1 68.3 179.8 69.9 177.1 71.4"/>
              <polygon class="cls-7" points="182.4 74.5 179.8 72.9 182.4 71.4 185.1 72.9 182.4 74.5"/>
              <polygon class="cls-35" points="187.7 77.5 185.1 76 187.7 74.5 190.4 76 187.7 77.5"/>
            </g>
            <g>
              <polygon class="cls-35" points="139.9 56.1 137.2 54.5 139.9 53 142.6 54.5 139.9 56.1"/>
              <polygon class="cls-1" points="145.2 59.1 142.6 57.6 145.2 56.1 147.9 57.6 145.2 59.1"/>
              <polygon class="cls-35" points="150.5 62.2 147.9 60.7 150.5 59.1 153.2 60.7 150.5 62.2"/>
              <polygon class="cls-35" points="155.8 65.3 153.2 63.7 155.8 62.2 158.5 63.7 155.8 65.3"/>
              <polygon class="cls-35" points="161.1 68.3 158.5 66.8 161.1 65.3 163.8 66.8 161.1 68.3"/>
              <polygon class="cls-35" points="166.5 71.4 163.8 69.9 166.5 68.3 169.1 69.9 166.5 71.4"/>
              <polygon class="cls-7" points="171.8 74.5 169.1 73 171.8 71.4 174.4 73 171.8 74.5"/>
              <polygon class="cls-35" points="177.1 77.6 174.4 76 177.1 74.5 179.7 76 177.1 77.6"/>
              <polygon class="cls-35" points="182.4 80.6 179.7 79.1 182.4 77.6 185.1 79.1 182.4 80.6"/>
            </g>
          </g>
        </g>
        <g>
          <g>
            <g class="cls-41">
              <path class="cls-35" d="M272.5,250.1c-1.5,0-2.9-.4-4.1-1.1l-47.5-27.4c-.7-.4-1.2-1.2-1.2-2.1s.4-1.6,1.2-2.1l86-49.6c.1,0,.3,0,.5,0l51.4,29.7c.7.4,1.2,1.2,1.2,2.1s-.4,1.6-1.2,2.1l-82.1,47.4c-1.2.7-2.7,1.1-4.1,1.1ZM307.1,168.8l-85.8,49.5c-.5.3-.7.7-.7,1.2s.3,1,.7,1.2l47.5,27.4c2.2,1.3,5.1,1.3,7.3,0l82.1-47.4c.5-.3.7-.7.7-1.2s-.3-1-.7-1.3l-51.2-29.5Z"/>
            </g>
            <g>
              <g>
                <g>
                  <path class="cls-19" d="M307.2,148.6l-11.4-67.9.9-.4-1.4-.8h0c-.3-.2-.6-.2-1.1,0l-91.4,52.8c-.8.4-1.3,1.5-1.2,2.3l11.5,68.4c0,.4.2.6.5.7h0s1.4.8,1.4.8l.2-1.3h0s90.9-52.4,90.9-52.4c.8-.4,1.3-1.5,1.2-2.3Z"/>
                  <path class="cls-17" d="M203.3,134.3l-1.5-.7c-.2.4-.3.8-.2,1.1l11.5,68.4c0,.4.2.6.5.7h0s1.4.8,1.4.8l.2-1.3h0s4.6-2.6,4.6-2.6l-16.4-66.5Z"/>
                  <path class="cls-21" d="M307.5,151.8l-91.4,52.8c-.7.4-1.3.2-1.4-.6l-11.5-68.4c-.1-.8.4-1.9,1.2-2.3l91.4-52.8c.7-.4,1.3-.2,1.4.6l11.5,68.4c.1.8-.4,1.9-1.2,2.3Z"/>
                  <polygon class="cls-35" points="294.5 84.9 206.4 135.7 217.3 200.2 305.4 149.3 294.5 84.9"/>
                </g>
                <g>
                  <path class="cls-37" d="M364.9,184.2l-5,2.6-50-28.9c-.8-.5-2.3-.4-3.3.1l-86.3,49.8c-.8-.5-4.6-2.3-4.6-2.3l1.8,4.8s0,0,0,0c0,.2.2.4.5.6l52.7,30.4c.8.5,2.3.4,3.3-.1l88.3-51c.4-.2.6-.5.7-.8h0s1.8-5.2,1.8-5.2Z"/>
                  <path class="cls-22" d="M364.1,185l-90.5,52.2c-1,.6-2.5.6-3.3.1l-54-31.2c-.9-.5-.8-1.4.2-1.9l90.5-52.2c1-.6,2.5-.6,3.3-.1l54,31.2c.9.5.8,1.4-.2,1.9Z"/>
                  <path class="cls-20" d="M364.1,184.5l-90.5,52.2c-1,.6-2.5.6-3.3.1l-54-31.2c-.3-.2-.4-.4-.5-.6-.1.4,0,.8.5,1.1l54,31.2c.9.5,2.4.4,3.3-.1l90.5-52.2c.7-.4.9-.9.8-1.3,0,.3-.3.6-.8.8Z"/>
                  <path class="cls-15" d="M246.4,225.9v-1c0,0,0-.1.1,0l3.5,2c0,0,.1.2.1.2v1c0,0,0,.1-.1,0l-3.5-2c0,0-.1-.2-.1-.2Z"/>
                  <path class="cls-15" d="M251.6,228.9v-1c0,0,0-.1.1,0l3.5,2c0,0,.1.1.1.2v1c0,0,0,.1-.1,0l-3.5-2c0,0-.1-.1-.1-.2Z"/>
                  <path class="cls-33" d="M230.4,203.3l75.2-43.4c.5-.3,1.1-.3,1.6,0l26.8,15.5c.4.2.4.8,0,1l-75.2,43.4c-.5.3-1.1.3-1.6,0l-26.8-15.5c-.4-.2-.4-.8,0-1Z"/>
                  <path class="cls-3" d="M230.4,204.3l.3.2,74.9-43.3c.5-.3,1.1-.3,1.6,0l26.5,15.3.3-.2c.4-.2.4-.8,0-1l-26.8-15.5c-.5-.3-1.1-.3-1.6,0l-75.2,43.4c-.4.2-.4.8,0,1Z"/>
                  <g>
                    <polygon class="cls-21" points="309.2 163.8 243.9 201.5 241 199.8 306.3 162.1 309.2 163.8"/>
                    <polygon class="cls-21" points="316.4 167.9 255.1 203.3 252.2 201.6 313.4 166.2 316.4 167.9"/>
                    <polygon class="cls-21" points="321 170.6 248.9 212.2 245.9 210.5 318.1 168.9 321 170.6"/>
                    <polygon class="cls-21" points="325.6 173.2 253.5 214.9 250.6 213.2 322.7 171.6 325.6 173.2"/>
                    <polygon class="cls-21" points="330.3 175.9 258.1 217.6 255.2 215.9 327.4 174.2 330.3 175.9"/>
                    <polygon class="cls-21" points="240 203.8 237.1 205.4 234.2 203.8 237.1 202.1 240 203.8"/>
                    <polygon class="cls-21" points="250.2 206.1 244.2 209.6 241.3 207.9 247.3 204.4 250.2 206.1"/>
                  </g>
                  <path class="cls-32" d="M308.5,213.8l20.3-11.7c.8-.5.8-1.2,0-1.7l-13.9-8c-.8-.5-2.1-.5-2.9,0l-20.3,11.7c-.8.5-.8,1.2,0,1.7l13.9,8c.8.5,2.1.5,2.9,0Z"/>
                  <path class="cls-3" d="M291.7,204.8l20.3-11.7c.8-.5,2.1-.5,2.9,0l13.9,8c.2.1.4.3.5.5.2-.4,0-.9-.5-1.2l-13.9-8c-.8-.5-2.1-.5-2.9,0l-20.3,11.7c-.5.3-.7.8-.5,1.2,0-.2.3-.3.5-.5Z"/>
                </g>
              </g>
              <g class="cls-44">
                <g class="cls-45">
                  <g>
                    <path class="cls-12" d="M307.1,151.9l-90.5,52.2c-1,.6-2.5.6-3.3.1l-54-31.2c-.9-.5-.8-1.4.2-1.9l90.5-52.2c1-.6,2.5-.6,3.3-.1l54,31.2c.9.5.8,1.4-.2,1.9Z"/>
                    <path class="cls-9" d="M216.4,161.3l20.3-11.7c.8-.5.8-1.2,0-1.7l-13.9-8c-.8-.5-2.1-.5-2.9,0l-20.3,11.7c-.8.5-.8,1.2,0,1.7l13.9,8c.8.5,2.1.5,2.9,0Z"/>
                    <path class="cls-3" d="M199.6,152.3l20.3-11.7c.8-.5,2.1-.5,2.9,0l13.9,8c.2.1.4.3.5.5.2-.4,0-.9-.5-1.2l-13.9-8c-.8-.5-2.1-.5-2.9,0l-20.3,11.7c-.5.3-.7.8-.5,1.2,0-.2.3-.3.5-.5Z"/>
                    <g>
                      <path class="cls-33" d="M190.7,179.6l75.2-43.4c.5-.3,1.1-.3,1.6,0l26.8,15.5c.4.2.4.8,0,1l-75.2,43.4c-.5.3-1.1.3-1.6,0l-26.8-15.5c-.4-.2-.4-.8,0-1Z"/>
                      <path class="cls-3" d="M190.7,180.6l.3.2,74.9-43.3c.5-.3,1.1-.3,1.6,0l26.5,15.3.3-.2c.4-.2.4-.8,0-1l-26.8-15.5c-.5-.3-1.1-.3-1.6,0l-75.2,43.4c-.4.2-.4.8,0,1Z"/>
                      <g>
                        <polygon class="cls-21" points="287.3 150.6 221.8 188.4 224.4 189.9 289.9 152.1 287.3 150.6"/>
                        <polygon class="cls-21" points="280.4 146.6 218.1 182.5 220.7 184 283 148.1 280.4 146.6"/>
                        <polygon class="cls-21" points="213.5 185.2 207.7 188.6 210.3 190.1 216.1 186.7 213.5 185.2"/>
                        <polygon class="cls-21" points="218.6 190.2 214.6 192.6 217.2 194.1 221.2 191.7 218.6 190.2"/>
                        <polygon class="cls-21" points="276.1 144.1 203.4 186.1 206 187.6 278.7 145.6 276.1 144.1"/>
                        <polygon class="cls-21" points="271.8 141.6 199 183.6 201.6 185.1 274.4 143.1 271.8 141.6"/>
                        <polygon class="cls-21" points="267.4 139.1 194.7 181.1 197.3 182.6 270 140.6 267.4 139.1"/>
                      </g>
                    </g>
                  </g>
                </g>
              </g>
            </g>
            <g>
              <polygon class="cls-25" points="239.5 175.6 246.7 171.5 246.9 172.7 239.8 176.8 239.5 175.6"/>
              <polygon class="cls-25" points="247.8 170.8 251.7 168.6 251.9 169.8 248 172 247.8 170.8"/>
              <polygon class="cls-25" points="257.7 165.1 260.6 163.5 260.8 164.7 258 166.3 257.7 165.1"/>
              <polygon class="cls-25" points="255.7 166.3 256.7 165.7 256.9 166.9 255.9 167.5 255.7 166.3"/>
              <polygon class="cls-25" points="252.9 167.9 254.6 166.9 254.8 168.1 253.1 169.1 252.9 167.9"/>
              <polygon class="cls-25" points="245.2 166.1 248 164.5 248.2 165.7 245.4 167.4 245.2 166.1"/>
              <polygon class="cls-25" points="238.6 169.9 244.1 166.8 244.3 168 238.8 171.2 238.6 169.9"/>
              <g>
                <polygon class="cls-25" points="246.5 149.9 252 146.7 252.2 147.9 246.7 151.1 246.5 149.9"/>
                <polygon class="cls-25" points="243.7 151.5 245.4 150.5 245.6 151.7 243.9 152.7 243.7 151.5"/>
              </g>
              <polygon class="cls-25" points="247.4 155.5 252.9 152.4 253.1 153.6 247.6 156.8 247.4 155.5"/>
              <polygon class="cls-25" points="244.6 157.2 246.3 156.2 246.5 157.4 244.8 158.4 244.6 157.2"/>
              <polygon class="cls-25" points="242.4 125.4 232 131.4 231.8 130.2 242.2 124.2 242.4 125.4"/>
              <polygon class="cls-25" points="246.1 123.3 243.5 124.8 243.3 123.6 245.9 122.1 246.1 123.3"/>
              <polygon class="cls-25" points="264.3 122.1 253.9 128.1 253.7 126.9 264.1 120.9 264.3 122.1"/>
              <polygon class="cls-25" points="268 120 265.4 121.5 265.2 120.2 267.8 118.8 268 120"/>
              <polygon class="cls-25" points="235.3 132.6 232.5 134.3 232.3 133 235.1 131.4 235.3 132.6"/>
              <polygon class="cls-25" points="252.4 129 249.6 130.6 249.4 129.3 252.2 127.7 252.4 129"/>
              <polygon class="cls-25" points="241.9 128.8 236.4 132 236.2 130.8 241.7 127.6 241.9 128.8"/>
              <polygon class="cls-25" points="244.8 127.2 243 128.2 242.8 126.9 244.6 125.9 244.8 127.2"/>
              <polygon class="cls-25" points="251.4 123.3 245.9 126.5 245.7 125.3 251.2 122.1 251.4 123.3"/>
              <polygon class="cls-25" points="254.2 121.7 252.5 122.7 252.3 121.5 254 120.5 254.2 121.7"/>
              <polygon class="cls-25" points="252 126.1 249.1 127.8 248.9 126.5 251.7 124.9 252 126.1"/>
              <polygon class="cls-25" points="258.6 122.3 253 125.5 252.8 124.3 258.3 121.1 258.6 122.3"/>
              <polygon class="cls-25" points="261.4 120.7 259.6 121.7 259.4 120.5 261.2 119.4 261.4 120.7"/>
              <polygon class="cls-25" points="238.8 133.8 233 137.1 232.8 135.8 238.5 132.5 238.8 133.8"/>
              <polygon class="cls-25" points="244 130.7 239.8 133.1 239.6 131.9 243.8 129.5 244 130.7"/>
              <polygon class="cls-25" points="247.9 128.5 245.1 130.1 244.9 128.9 247.7 127.2 247.9 128.5"/>
              <polygon class="cls-25" points="275.2 115.9 269.4 119.2 269.2 117.9 274.9 114.6 275.2 115.9"/>
              <polygon class="cls-25" points="280.4 112.8 276.2 115.2 276 114 280.2 111.6 280.4 112.8"/>
              <polygon class="cls-25" points="284.3 110.6 281.5 112.2 281.3 111 284.1 109.3 284.3 110.6"/>
              <polygon class="cls-25" points="272.9 153.2 278.7 149.9 278.9 151.1 273.1 154.5 272.9 153.2"/>
              <polygon class="cls-25" points="267.7 156.3 271.8 153.8 272 155.1 267.9 157.5 267.7 156.3"/>
              <polygon class="cls-25" points="263.8 158.5 266.6 156.9 266.8 158.1 264 159.7 263.8 158.5"/>
              <polygon class="cls-25" points="271 157.4 276.8 154.1 277 155.4 271.2 158.7 271 157.4"/>
              <polygon class="cls-25" points="265.8 160.5 269.9 158.1 270.1 159.3 266 161.7 265.8 160.5"/>
              <polygon class="cls-25" points="261.9 162.7 264.7 161.1 264.9 162.3 262.1 164 261.9 162.7"/>
              <polygon class="cls-25" points="247.8 152.2 249.7 151.1 249.9 152.3 248 153.4 247.8 152.2"/>
              <polygon class="cls-25" points="244.1 154.3 246.7 152.8 246.9 154.1 244.3 155.6 244.1 154.3"/>
              <polygon class="cls-25" points="239.3 136.6 233.5 139.9 233.3 138.7 239.1 135.3 239.3 136.6"/>
              <polygon class="cls-25" points="244.5 133.5 240.4 135.9 240.1 134.7 244.3 132.3 244.5 133.5"/>
              <polygon class="cls-25" points="248.4 131.3 245.6 132.9 245.4 131.7 248.2 130 248.4 131.3"/>
              <polygon class="cls-25" points="235.9 141.6 234 142.7 233.8 141.5 235.7 140.4 235.9 141.6"/>
              <polygon class="cls-25" points="239.6 139.5 237 141 236.8 139.7 239.4 138.2 239.6 139.5"/>
              <polygon class="cls-25" points="244.8 136.5 240.7 138.9 240.5 137.6 244.6 135.2 244.8 136.5"/>
              <polygon class="cls-25" points="250.4 160 252.4 158.9 252.6 160.1 250.6 161.2 250.4 160"/>
              <polygon class="cls-25" points="246.8 162.1 249.3 160.6 249.5 161.9 247 163.4 246.8 162.1"/>
              <polygon class="cls-25" points="241.5 165.1 245.7 162.7 245.9 164 241.8 166.4 241.5 165.1"/>
              <polygon class="cls-25" points="253.4 155.4 257.5 153 257.7 154.3 253.6 156.7 253.4 155.4"/>
              <polygon class="cls-25" points="246.6 159.1 252.2 155.9 252.4 157.1 246.8 160.3 246.6 159.1"/>
              <polygon class="cls-25" points="243.8 160.7 245.5 159.7 245.7 161 244 162 243.8 160.7"/>
              <polygon class="cls-25" points="241.1 162.3 242.8 161.3 243 162.5 241.3 163.5 241.1 162.3"/>
              <g>
                <polygon class="cls-25" points="241.4 146.3 246.9 143.1 247.2 144.4 241.6 147.6 241.4 146.3"/>
                <polygon class="cls-25" points="238.6 148 240.3 147 240.6 148.2 238.8 149.2 238.6 148"/>
                <polygon class="cls-25" points="241.8 143 243.8 141.9 244 143.1 242 144.2 241.8 143"/>
                <polygon class="cls-25" points="248.7 145.3 250.6 144.1 250.8 145.4 248.9 146.5 248.7 145.3"/>
                <polygon class="cls-25" points="251.4 143.7 256.1 141 256.3 142.2 251.7 144.9 251.4 143.7"/>
                <polygon class="cls-25" points="256.9 140.5 259.7 138.9 259.9 140.1 257.1 141.7 256.9 140.5"/>
                <polygon class="cls-25" points="238.2 145.1 240.7 143.6 240.9 144.9 238.4 146.4 238.2 145.1"/>
                <g>
                  <polygon class="cls-25" points="237.9 142.2 239.9 141.1 240.1 142.3 238.1 143.5 237.9 142.2"/>
                  <polygon class="cls-25" points="234.3 144.3 236.8 142.8 237 144.1 234.5 145.6 234.3 144.3"/>
                </g>
                <polygon class="cls-25" points="245.9 146.9 247.6 145.9 247.8 147.1 246.1 148.1 245.9 146.9"/>
                <polygon class="cls-25" points="243.1 148.5 244.9 147.5 245.1 148.7 243.3 149.7 243.1 148.5"/>
              </g>
              <polygon class="cls-25" points="256.5 162.7 262.5 159.2 262.7 160.5 256.7 163.9 256.5 162.7"/>
              <polygon class="cls-25" points="249.9 166.5 255.4 163.3 255.7 164.6 250.1 167.8 249.9 166.5"/>
              <polygon class="cls-25" points="247 168.2 248.8 167.2 249 168.4 247.2 169.4 247 168.2"/>
              <polygon class="cls-25" points="244.3 169.7 246.1 168.7 246.3 170 244.5 171 244.3 169.7"/>
              <polygon class="cls-25" points="242.8 170.6 239.1 172.8 239.3 174 243 171.8 242.8 170.6"/>
            </g>
          </g>
          <g>
            <g class="cls-41">
              <path class="cls-35" d="M92.4,250.1c-1.4,0-2.9-.4-4.1-1.1h0L6.2,201.6c-.7-.4-1.2-1.2-1.2-2.1s.4-1.6,1.2-2.1l51.4-29.7c.1,0,.3,0,.5,0l86,49.6c.7.4,1.2,1.2,1.2,2.1s-.4,1.6-1.2,2.1l-47.5,27.4c-1.2.7-2.7,1.1-4.1,1.1ZM88.8,248.2c2.2,1.3,5.1,1.3,7.3,0l47.5-27.4c.5-.3.7-.7.7-1.2s-.3-1-.7-1.2l-85.8-49.5h-.2c0,0-51,29.5-51,29.5-.5.3-.7.7-.7,1.2s.3,1,.7,1.2l82.1,47.4Z"/>
            </g>
            <g>
              <g>
                <g>
                  <path class="cls-38" d="M57.8,148.6l11.4-67.9-.9-.4,1.4-.8h0c.3-.2.6-.2,1.1,0l91.4,52.8c.8.4,1.3,1.5,1.2,2.3l-11.5,68.4c0,.4-.2.6-.5.7h0s-1.4.8-1.4.8l-.2-1.3h0s-90.9-52.4-90.9-52.4c-.8-.4-1.3-1.5-1.2-2.3Z"/>
                  <path class="cls-26" d="M161.6,134.3l1.5-.7c.2.4.3.8.2,1.1l-11.5,68.4c0,.4-.2.6-.5.7h0s-1.4.8-1.4.8l-.2-1.3h0s-4.6-2.6-4.6-2.6l16.4-66.5Z"/>
                  <path class="cls-21" d="M57.5,151.8l91.4,52.8c.7.4,1.3.2,1.4-.6l11.5-68.4c.1-.8-.4-1.9-1.2-2.3l-91.4-52.8c-.7-.4-1.3-.2-1.4.6l-11.5,68.4c-.1.8.4,1.9,1.2,2.3Z"/>
                  <polygon class="cls-35" points="70.5 84.9 158.6 135.7 147.7 200.2 59.6 149.3 70.5 84.9"/>
                </g>
                <g>
                  <path class="cls-8" d="M0,184.2l5,2.6,50-28.9c.8-.5,2.3-.4,3.3.1l86.3,49.8c.8-.5,4.6-2.3,4.6-2.3l-1.8,4.8s0,0,0,0c0,.2-.2.4-.5.6l-52.7,30.4c-.8.5-2.3.4-3.3-.1L2.6,190.2c-.4-.2-.6-.5-.7-.8h0s-1.8-5.2-1.8-5.2Z"/>
                  <path class="cls-29" d="M.8,185l90.5,52.2c1,.6,2.5.6,3.3.1l54-31.2c.9-.5.8-1.4-.2-1.9l-90.5-52.2c-1-.6-2.5-.6-3.3-.1L.6,183c-.9.5-.8,1.4.2,1.9Z"/>
                  <path class="cls-20" d="M.8,184.5l90.5,52.2c1,.6,2.5.6,3.3.1l54-31.2c.3-.2.4-.4.5-.6.1.4,0,.8-.5,1.1l-54,31.2c-.9.5-2.4.4-3.3-.1L.8,185c-.7-.4-.9-.9-.8-1.3,0,.3.3.6.8.8Z"/>
                  <path class="cls-15" d="M118.6,225.9v-1c0,0,0-.1-.1,0l-3.5,2c0,0-.1.2-.1.2v1c0,0,0,.1.1,0l3.5-2c0,0,.1-.2.1-.2Z"/>
                  <path class="cls-15" d="M113.4,228.9v-1c0,0,0-.1-.1,0l-3.5,2c0,0-.1.1-.1.2v1c0,0,0,.1.1,0l3.5-2c0,0,.1-.1.1-.2Z"/>
                  <path class="cls-33" d="M134.6,203.3l-75.2-43.4c-.5-.3-1.1-.3-1.6,0l-26.8,15.5c-.4.2-.4.8,0,1l75.2,43.4c.5.3,1.1.3,1.6,0l26.8-15.5c.4-.2.4-.8,0-1Z"/>
                  <path class="cls-3" d="M134.6,204.3l-.3.2-74.9-43.3c-.5-.3-1.1-.3-1.6,0l-26.5,15.3-.3-.2c-.4-.2-.4-.8,0-1l26.8-15.5c.5-.3,1.1-.3,1.6,0l75.2,43.4c.4.2.4.8,0,1Z"/>
                  <g>
                    <polygon class="cls-21" points="62 167.4 125.7 204.2 128.4 202.4 64.9 165.7 62 167.4"/>
                    <polygon class="cls-21" points="57.9 173.2 115.7 206.6 117.7 204.4 60.8 171.6 57.9 173.2"/>
                    <polygon class="cls-21" points="44 170.6 116.1 212.2 119 210.5 46.9 168.9 44 170.6"/>
                    <polygon class="cls-21" points="39.3 173.2 111.5 214.9 114.4 213.2 42.2 171.6 39.3 173.2"/>
                    <polygon class="cls-21" points="34.7 175.9 106.8 217.6 109.7 215.9 37.6 174.2 34.7 175.9"/>
                    <polygon class="cls-21" points="125 203.8 127.9 205.4 130.8 203.8 127.9 202.1 125 203.8"/>
                    <polygon class="cls-21" points="114.8 206.1 120.8 209.6 123.7 207.9 117.7 204.4 114.8 206.1"/>
                  </g>
                  <path class="cls-30" d="M56.5,213.8l-20.3-11.7c-.8-.5-.8-1.2,0-1.7l13.9-8c.8-.5,2.1-.5,2.9,0l20.3,11.7c.8.5.8,1.2,0,1.7l-13.9,8c-.8.5-2.1.5-2.9,0Z"/>
                  <path class="cls-3" d="M73.2,204.8l-20.3-11.7c-.8-.5-2.1-.5-2.9,0l-13.9,8c-.2.1-.4.3-.5.5-.2-.4,0-.9.5-1.2l13.9-8c.8-.5,2.1-.5,2.9,0l20.3,11.7c.5.3.7.8.5,1.2,0-.2-.3-.3-.5-.5Z"/>
                </g>
              </g>
              <g class="cls-44">
                <g class="cls-43">
                  <g>
                    <path class="cls-27" d="M57.8,151.9l90.5,52.2c1,.6,2.5.6,3.3.1l54-31.2c.9-.5.8-1.4-.2-1.9l-90.5-52.2c-1-.6-2.5-.6-3.3-.1l-54,31.2c-.9.5-.8,1.4.2,1.9Z"/>
                    <path class="cls-28" d="M148.6,161.3l-20.3-11.7c-.8-.5-.8-1.2,0-1.7l13.9-8c.8-.5,2.1-.5,2.9,0l20.3,11.7c.8.5.8,1.2,0,1.7l-13.9,8c-.8.5-2.1.5-2.9,0Z"/>
                    <path class="cls-3" d="M165.3,152.3l-20.3-11.7c-.8-.5-2.1-.5-2.9,0l-13.9,8c-.2.1-.4.3-.5.5-.2-.4,0-.9.5-1.2l13.9-8c.8-.5,2.1-.5,2.9,0l20.3,11.7c.5.3.7.8.5,1.2,0-.2-.3-.3-.5-.5Z"/>
                    <g>
                      <path class="cls-33" d="M174.2,179.6l-75.2-43.4c-.5-.3-1.1-.3-1.6,0l-26.8,15.5c-.4.2-.4.8,0,1l75.2,43.4c.5.3,1.1.3,1.6,0l26.8-15.5c.4-.2.4-.8,0-1Z"/>
                      <path class="cls-3" d="M174.2,180.6l-.3.2-74.9-43.3c-.5-.3-1.1-.3-1.6,0l-26.5,15.3-.3-.2c-.4-.2-.4-.8,0-1l26.8-15.5c.5-.3,1.1-.3,1.6,0l75.2,43.4c.4.2.4.8,0,1Z"/>
                      <g>
                        <polygon class="cls-21" points="77.7 150.6 143.2 188.4 140.6 189.9 75.1 152.1 77.7 150.6"/>
                        <polygon class="cls-21" points="84.6 146.6 146.8 182.5 144.2 184 82 148.1 84.6 146.6"/>
                        <polygon class="cls-21" points="151.5 185.2 157.3 188.6 154.7 190.1 148.9 186.7 151.5 185.2"/>
                        <polygon class="cls-21" points="146.3 190.2 150.4 192.6 147.8 194.1 143.7 191.7 146.3 190.2"/>
                        <polygon class="cls-21" points="88.9 144.1 161.6 186.1 159 187.6 86.3 145.6 88.9 144.1"/>
                        <polygon class="cls-21" points="93.2 141.6 165.9 183.6 163.3 185.1 90.6 143.1 93.2 141.6"/>
                        <polygon class="cls-21" points="97.5 139.1 170.3 181.1 167.7 182.6 94.9 140.6 97.5 139.1"/>
                      </g>
                    </g>
                  </g>
                </g>
              </g>
            </g>
            <g>
              <polygon class="cls-25" points="90.2 108.7 97.3 112.9 97.6 111.6 90.4 107.5 90.2 108.7"/>
              <polygon class="cls-25" points="98.5 113.5 102.4 115.8 102.6 114.5 98.7 112.3 98.5 113.5"/>
              <polygon class="cls-25" points="108.4 119.2 111.2 120.9 111.4 119.6 108.6 118 108.4 119.2"/>
              <polygon class="cls-25" points="106.4 118.1 107.3 118.6 107.5 117.4 106.6 116.8 106.4 118.1"/>
              <polygon class="cls-25" points="103.5 116.4 105.3 117.4 105.5 116.2 103.7 115.2 103.5 116.4"/>
              <polygon class="cls-25" points="95.9 118.2 98.7 119.8 98.9 118.6 96.1 117 95.9 118.2"/>
              <polygon class="cls-25" points="89.3 114.4 94.8 117.6 95 116.3 89.5 113.1 89.3 114.4"/>
              <g>
                <polygon class="cls-25" points="97.2 134.5 102.7 137.6 102.9 136.4 97.4 133.2 97.2 134.5"/>
                <polygon class="cls-25" points="94.3 132.8 96.1 133.8 96.3 132.6 94.5 131.6 94.3 132.8"/>
              </g>
              <polygon class="cls-25" points="98.1 128.8 103.6 132 103.8 130.7 98.3 127.5 98.1 128.8"/>
              <polygon class="cls-25" points="95.2 127.2 97 128.2 97.2 126.9 95.4 125.9 95.2 127.2"/>
              <polygon class="cls-25" points="93.1 158.9 82.7 152.9 82.5 154.1 92.9 160.1 93.1 158.9"/>
              <polygon class="cls-25" points="96.7 161 94.2 159.5 94 160.8 96.5 162.2 96.7 161"/>
              <polygon class="cls-25" points="115 162.2 104.6 156.2 104.4 157.5 114.8 163.4 115 162.2"/>
              <polygon class="cls-25" points="118.6 164.3 116.1 162.8 115.9 164.1 118.4 165.6 118.6 164.3"/>
              <polygon class="cls-25" points="86 151.7 83.2 150.1 83 151.3 85.8 152.9 86 151.7"/>
              <polygon class="cls-25" points="103.1 155.4 100.3 153.7 100.1 155 102.9 156.6 103.1 155.4"/>
              <polygon class="cls-25" points="92.6 155.5 87.1 152.3 86.9 153.6 92.4 156.7 92.6 155.5"/>
              <polygon class="cls-25" points="95.4 157.1 93.7 156.1 93.5 157.4 95.2 158.4 95.4 157.1"/>
              <polygon class="cls-25" points="102.1 161 96.6 157.8 96.4 159 101.9 162.2 102.1 161"/>
              <polygon class="cls-25" points="104.9 162.6 103.2 161.6 103 162.8 104.7 163.9 104.9 162.6"/>
              <polygon class="cls-25" points="102.6 158.2 99.8 156.6 99.6 157.8 102.4 159.4 102.6 158.2"/>
              <polygon class="cls-25" points="109.2 162 103.7 158.8 103.5 160.1 109 163.2 109.2 162"/>
              <polygon class="cls-25" points="112.1 163.6 110.3 162.6 110.1 163.9 111.8 164.9 112.1 163.6"/>
              <polygon class="cls-25" points="89.4 150.6 83.7 147.2 83.5 148.5 89.2 151.8 89.4 150.6"/>
              <polygon class="cls-25" points="94.7 153.6 90.5 151.2 90.3 152.4 94.5 154.8 94.7 153.6"/>
              <polygon class="cls-25" points="98.6 155.9 95.8 154.2 95.5 155.5 98.4 157.1 98.6 155.9"/>
              <polygon class="cls-25" points="125.8 168.5 120.1 165.1 119.9 166.4 125.6 169.7 125.8 168.5"/>
              <polygon class="cls-25" points="131.1 171.5 126.9 169.1 126.7 170.3 130.9 172.7 131.1 171.5"/>
              <polygon class="cls-25" points="135 173.8 132.2 172.1 132 173.4 134.8 175 135 173.8"/>
              <polygon class="cls-25" points="123.6 131.1 129.3 134.4 129.5 133.2 123.8 129.9 123.6 131.1"/>
              <polygon class="cls-25" points="118.3 128.1 122.5 130.5 122.7 129.2 118.5 126.8 118.3 128.1"/>
              <polygon class="cls-25" points="114.4 125.8 117.2 127.4 117.5 126.2 114.6 124.6 114.4 125.8"/>
              <polygon class="cls-25" points="121.7 126.9 127.4 130.2 127.6 129 121.9 125.6 121.7 126.9"/>
              <polygon class="cls-25" points="116.4 123.8 120.6 126.3 120.8 125 116.6 122.6 116.4 123.8"/>
              <polygon class="cls-25" points="112.5 121.6 115.3 123.2 115.5 122 112.7 120.4 112.5 121.6"/>
              <polygon class="cls-25" points="98.5 132.1 100.4 133.2 100.6 132 98.7 130.9 98.5 132.1"/>
              <polygon class="cls-25" points="94.8 130 97.4 131.5 97.6 130.2 95 128.8 94.8 130"/>
              <polygon class="cls-25" points="89.9 147.8 84.2 144.4 84 145.7 89.7 149 89.9 147.8"/>
              <polygon class="cls-25" points="95.2 150.8 91 148.4 90.8 149.6 95 152 95.2 150.8"/>
              <polygon class="cls-25" points="99.1 153 96.3 151.4 96.1 152.7 98.9 154.3 99.1 153"/>
              <polygon class="cls-25" points="86.6 142.7 84.7 141.6 84.5 142.8 86.4 144 86.6 142.7"/>
              <polygon class="cls-25" points="90.3 144.8 87.7 143.4 87.5 144.6 90.1 146.1 90.3 144.8"/>
              <polygon class="cls-25" points="95.5 147.9 91.4 145.5 91.1 146.7 95.3 149.1 95.5 147.9"/>
              <polygon class="cls-25" points="101.1 124.3 103 125.4 103.2 124.2 101.3 123.1 101.1 124.3"/>
              <polygon class="cls-25" points="97.4 122.2 100 123.7 100.2 122.4 97.6 121 97.4 122.2"/>
              <polygon class="cls-25" points="92.2 119.2 96.3 121.6 96.6 120.3 92.4 117.9 92.2 119.2"/>
              <polygon class="cls-25" points="104.1 128.9 108.2 131.3 108.4 130.1 104.3 127.7 104.1 128.9"/>
              <polygon class="cls-25" points="97.3 125.2 102.9 128.4 103.1 127.2 97.5 124 97.3 125.2"/>
              <polygon class="cls-25" points="94.5 123.6 96.2 124.6 96.4 123.4 94.7 122.3 94.5 123.6"/>
              <polygon class="cls-25" points="91.7 122 93.5 123 93.7 121.8 91.9 120.8 91.7 122"/>
              <g>
                <polygon class="cls-25" points="92.1 138 97.6 141.2 97.8 139.9 92.3 136.8 92.1 138"/>
                <polygon class="cls-25" points="89.3 136.4 91 137.4 91.2 136.1 89.5 135.1 89.3 136.4"/>
                <polygon class="cls-25" points="92.5 141.3 94.4 142.4 94.6 141.2 92.7 140.1 92.5 141.3"/>
                <polygon class="cls-25" points="99.3 139 101.3 140.2 101.5 138.9 99.6 137.8 99.3 139"/>
                <polygon class="cls-25" points="102.1 140.6 106.8 143.3 107 142.1 102.3 139.4 102.1 140.6"/>
                <polygon class="cls-25" points="107.6 143.8 110.4 145.4 110.6 144.2 107.8 142.6 107.6 143.8"/>
                <polygon class="cls-25" points="88.8 139.2 91.4 140.7 91.6 139.4 89 138 88.8 139.2"/>
                <g>
                  <polygon class="cls-25" points="88.6 142.1 90.5 143.2 90.7 142 88.8 140.9 88.6 142.1"/>
                  <polygon class="cls-25" points="84.9 140 87.5 141.5 87.7 140.2 85.1 138.8 84.9 140"/>
                </g>
                <polygon class="cls-25" points="96.5 137.4 98.3 138.4 98.5 137.2 96.7 136.2 96.5 137.4"/>
                <polygon class="cls-25" points="93.8 135.9 95.6 136.9 95.8 135.6 94 134.6 93.8 135.9"/>
              </g>
              <polygon class="cls-25" points="107.2 121.6 113.2 125.1 113.4 123.8 107.4 120.4 107.2 121.6"/>
              <polygon class="cls-25" points="100.5 117.8 106.1 121 106.3 119.8 100.8 116.5 100.5 117.8"/>
              <polygon class="cls-25" points="97.7 116.1 99.5 117.2 99.7 115.9 97.9 114.9 97.7 116.1"/>
              <polygon class="cls-25" points="95 114.6 96.7 115.6 96.9 114.3 95.2 113.3 95 114.6"/>
              <polygon class="cls-25" points="93.5 113.7 89.7 111.5 89.9 110.3 93.7 112.5 93.5 113.7"/>
            </g>
          </g>
        </g>
        <polygon class="cls-21" points="55.7 163.8 58.6 165.4 61.5 163.8 58.6 162.1 55.7 163.8"/>
        <polygon class="cls-21" points="48.6 167.9 54.6 171.4 57.5 169.7 51.5 166.2 48.6 167.9"/>
      </g>
    </g>
  </g>
</svg>